<svg width="20" height="20" viewBox="0 0 20 20" fill="none" xmlns="http://www.w3.org/2000/svg">
<rect width="20" height="20" rx="10" fill="white"/>
<path d="M5.49662 6.99371C4.67024 6.99371 4 6.32348 4 5.49857C4 4.67219 4.67024 4.00195 5.49662 4.00195C6.323 4.00195 6.99324 4.67219 6.99324 5.49857C6.99324 6.32495 6.323 6.99519 5.49662 6.99519V6.99371Z" fill="#00C18A"/>
<path d="M10.187 6.99323C9.36067 6.99323 8.69043 6.323 8.69043 5.49662C8.69043 4.67024 9.36067 4 10.187 4C11.0134 4 11.6837 4.67024 11.6837 5.49662C11.6837 6.323 11.0134 6.99323 10.187 6.99323Z" fill="#75D896"/>
<path d="M14.8775 6.99323C14.0511 6.99323 13.3809 6.323 13.3809 5.49662C13.3809 4.67024 14.0511 4 14.8775 4C15.7039 4 16.3741 4.67024 16.3741 5.49662C16.3741 6.323 15.7039 6.99323 14.8775 6.99323Z" fill="#00C18A"/>
<path d="M5.49662 11.4971C4.67024 11.4971 4 10.8269 4 10.0005C4 9.17414 4.67024 8.50391 5.49662 8.50391C6.323 8.50391 6.99324 9.17414 6.99324 10.0005C6.99324 10.8269 6.323 11.4971 5.49662 11.4971Z" fill="#75D896"/>
<path d="M10.187 11.4971C9.36067 11.4971 8.69043 10.8269 8.69043 10.0005C8.69043 9.17414 9.36067 8.50391 10.187 8.50391C11.0134 8.50391 11.6837 9.17414 11.6837 10.0005C11.6837 10.8269 11.0134 11.4971 10.187 11.4971Z" fill="#00C18A"/>
<path d="M14.8775 11.4971C14.0511 11.4971 13.3809 10.8269 13.3809 10.0005C13.3809 9.17414 14.0511 8.50391 14.8775 8.50391C15.7039 8.50391 16.3741 9.17414 16.3741 10.0005C16.3741 10.8269 15.7039 11.4971 14.8775 11.4971Z" fill="#75D896"/>
<path d="M5.49662 15.9991C4.67024 15.9991 4 15.3289 4 14.5025C4 13.6761 4.67024 13.0059 5.49662 13.0059C6.323 13.0059 6.99324 13.6761 6.99324 14.5025C6.99324 15.3289 6.323 15.9991 5.49662 15.9991Z" fill="#00C18A"/>
<path d="M10.187 15.9991C9.36067 15.9991 8.69043 15.3289 8.69043 14.5025C8.69043 13.6761 9.36067 13.0059 10.187 13.0059C11.0134 13.0059 11.6837 13.6761 11.6837 14.5025C11.6837 15.3289 11.0134 15.9991 10.187 15.9991Z" fill="#75D896"/>
<path d="M14.8775 15.9991C14.0511 15.9991 13.3809 15.3289 13.3809 14.5025C13.3809 13.6761 14.0511 13.0059 14.8775 13.0059C15.7039 13.0059 16.3741 13.6761 16.3741 14.5025C16.3741 15.3289 15.7039 15.9991 14.8775 15.9991Z" fill="#00C18A"/>
</svg>
