<svg width="20" height="20" viewBox="0 0 20 20" fill="none" xmlns="http://www.w3.org/2000/svg">
<path d="M19.1946 18.189C19.0321 18.577 18.778 18.8827 18.3709 19.0146C17.7651 19.2114 16.8383 19.0681 16.1961 19.0853C15.3878 19.1063 14.5794 19.1254 13.771 19.1465C10.4592 19.2305 7.14929 19.3051 3.83746 19.3949C2.88767 19.4216 2.08886 19.5363 1.38177 18.8407C0.552383 18.0266 0.701444 16.8991 0.523717 15.8652C0.386122 15.0645 0.269549 14.2771 0.195018 13.4688C0.0612456 12.0317 -0.643928 9.32563 1.82705 10.3041C2.95074 10.7494 4.09927 10.6825 5.31087 10.7207C8.29018 10.8105 11.2733 10.9022 14.2526 10.9921C15.8483 11.0398 17.5434 10.9405 19.1258 11.1297C20.1023 11.2443 20.0259 12.1024 19.9724 12.949C19.9169 13.8089 19.7067 14.6421 19.573 15.4926C19.4659 16.1767 19.5386 17.3692 19.1946 18.1929V18.189Z" fill="#F5B2B3"/>
<path d="M19.8552 11.0461C19.6278 10.5779 19.0717 10.1097 18.7181 9.89949C15.8267 8.18529 12.6009 6.87432 9.58909 5.37989C8.89156 5.03399 8.24945 4.58489 7.4621 4.56005C6.36326 4.52756 5.26059 5.04354 4.35475 5.62068C3.1852 6.36598 2.14941 7.32532 1.29709 8.41653C0.956926 8.85224 -0.0750349 9.78674 0.230731 10.4117C0.440946 10.8416 1.33149 10.8741 1.72516 10.92C2.85459 11.0519 3.98975 10.9563 5.11917 11.0499C6.95759 11.2009 8.79792 11.2678 10.6325 11.436C12.4346 11.6003 14.2348 11.78 16.0388 11.9214C17.0077 11.9978 18.6016 12.4832 19.5169 12.0303C20.01 11.7857 20.0367 11.4169 19.8571 11.0461H19.8552Z" fill="#FADBDA"/>
<path d="M1.06278 15.8408C0.858299 15.8312 0.655729 15.8179 0.456981 15.7949C0.445514 15.321 0.267788 14.8413 0.344229 14.3712C0.357606 14.2929 8.78147 14.7056 9.35478 14.7209C11.5448 14.7783 13.733 14.8662 15.9211 14.9655C17.0505 15.0171 18.3348 15.2732 19.4967 15.1662C19.5425 15.4433 19.5941 15.8523 19.5024 16.1217C19.2712 16.8078 17.9602 16.3606 17.3047 16.3587C14.4458 16.3549 11.5888 16.1905 8.73369 16.0319C7.30615 15.9536 5.88051 15.8771 4.45296 15.8217C3.34647 15.7796 2.17118 15.8867 1.06087 15.8389L1.06278 15.8408Z" fill="#8F4B45"/>
<path d="M6.39666 3.56499C6.12338 3.52676 5.83864 3.49619 5.57301 3.57263C4.97103 3.74462 4.33274 4.33513 4.0136 4.85685C3.79765 5.21039 3.99258 5.59451 3.83587 5.93276C3.80338 6.00156 3.74032 6.04934 3.67917 6.09711C2.83066 6.77553 2.58796 7.88967 3.41353 8.68275C3.91805 9.16624 4.46842 9.27326 5.11818 9.40894C5.72398 9.53698 6.28582 9.76822 6.92029 9.79688C7.99238 9.84657 8.99185 9.32868 9.95884 8.92545C10.7672 8.58911 11.5794 8.31201 11.503 7.26093C11.4647 6.75642 11.0883 6.39715 10.7252 6.06845C10.6659 6.01494 10.6048 5.95952 10.5723 5.8869C10.5398 5.81237 10.5398 5.72828 10.5341 5.64611C10.4614 4.67721 9.44859 3.95102 8.54849 3.86693C7.81848 3.79813 7.12095 3.66818 6.39284 3.56499H6.39666Z" fill="#FFFFFC"/>
<path d="M8.84218 5.56387C8.61094 5.2734 8.35104 5.03643 7.92106 4.96381C7.44521 4.88354 6.48969 4.86443 6.08646 5.14918C5.72527 5.40335 5.88389 6.03399 5.53608 6.313C5.38511 6.4334 4.63598 6.64361 4.83664 7.02964C5.00481 7.35452 5.53799 7.01244 5.77687 7.07169C6.16863 7.16915 6.02531 7.49976 6.29094 7.72144C6.67697 8.04631 7.13371 7.34879 7.47387 7.26661C7.83506 7.1787 8.54406 7.72144 8.81925 7.44625C8.95302 7.31439 8.75618 6.99907 8.846 6.86147C9.00271 6.62641 9.17661 6.82134 9.38874 6.78121C9.96205 6.66846 9.48811 6.4162 9.25305 6.11808C9.10781 5.93079 8.97977 5.73969 8.84218 5.5677V5.56387Z" fill="#9CCA48"/>
<path d="M6.68865 7.08888C7.00207 7.12137 7.32503 7.10608 7.62506 7.04875C8.46974 6.88822 9.14625 6.227 9.44246 5.43392C9.8992 4.20704 8.74302 3.14832 8.26908 2.14502C7.81043 1.17039 6.72496 0.495797 5.87837 1.48763C5.3108 2.15458 5.26684 3.11392 4.99739 3.91274C4.7757 4.56822 4.47376 5.26575 4.81775 5.93844C5.18084 6.65126 5.92042 7.01053 6.68674 7.08888H6.68865Z" fill="#E60012"/>
<path d="M7.24252 3.99063C7.24825 4.01548 7.25781 4.03841 7.27118 4.05943C7.35718 4.20467 7.47949 4.22378 7.57886 4.08427C7.6725 3.94859 7.60179 3.84348 7.52153 3.73073C7.4986 3.69824 7.26354 3.48612 7.26545 3.47656C7.24634 3.61989 7.19665 3.83584 7.24252 3.99063Z" fill="#7AC285"/>
<path d="M6.05192 3.73828C5.96401 3.87205 5.76335 4.18164 5.82068 4.35746C5.88375 4.54856 6.09587 4.43199 6.15703 4.26764C6.21818 4.09947 6.14365 3.88734 6.05383 3.73828H6.05192Z" fill="#7AC285"/>
<path d="M6.91008 5.21094C6.86612 5.36382 6.7744 5.7231 6.88332 5.87025C7.00181 6.03077 7.16807 5.85496 7.17189 5.68105C7.17762 5.50333 7.04003 5.3256 6.90817 5.21094H6.91008Z" fill="#7AC285"/>
<path d="M8.25027 5.09766C8.1853 5.2429 8.04006 5.58306 8.12414 5.7455C8.21778 5.92323 8.40698 5.77416 8.43947 5.60217C8.47195 5.42635 8.36302 5.22952 8.25027 5.09766Z" fill="#7AC285"/>
<path d="M6.73446 1.97461C6.65993 2.11412 6.48985 2.44281 6.56438 2.6129C6.64464 2.79636 6.84339 2.66067 6.88925 2.4925C6.93321 2.3186 6.83766 2.11603 6.73446 1.97461Z" fill="#7AC285"/>
<path d="M7.94643 2.48828C7.93306 2.6469 7.90821 3.01573 8.0439 3.14186C8.19105 3.27754 8.31909 3.07306 8.29233 2.90107C8.26367 2.72334 8.0955 2.57619 7.94452 2.48828H7.94643Z" fill="#7AC285"/>
<path d="M8.77163 3.87891C8.75825 4.03752 8.73723 4.40635 8.871 4.53248C9.01815 4.66817 9.14619 4.46368 9.11944 4.29169C9.09077 4.11587 8.9226 3.96681 8.77163 3.87891Z" fill="#7AC285"/>
<path d="M7.44729 6.15456C7.98429 5.60609 7.98047 5.4341 8.7659 5.59463C9.26086 5.694 9.91444 5.45321 10.3196 5.78C10.9311 6.27305 10.7668 7.36807 10.3196 7.89552C9.6316 8.70771 8.19259 8.82619 7.21223 8.82619C6.34271 8.82619 3.40353 8.14969 3.73031 6.71259C3.88893 6.01314 4.90943 5.53156 5.57638 5.7628C6.21658 5.98639 6.69243 6.9228 7.44729 6.15456Z" fill="#FFFFFC"/>
<path d="M5.25565 6.24556C5.24991 6.28378 5.23654 6.32774 5.21934 6.37934C5.11423 6.67555 4.97473 6.92398 5.2308 7.21064C5.39133 7.39219 5.64359 7.46481 5.88438 7.48201C5.9742 7.48774 6.07166 7.48965 6.13664 7.5508C6.39272 7.78586 6.42711 7.81835 6.80359 7.85657C7.15713 7.89288 7.52023 7.8967 7.86995 7.82599C8.18718 7.76293 8.50059 7.62724 8.82356 7.65973C8.71463 7.65018 8.33433 7.91581 8.18909 7.95403C7.91773 8.02283 7.65018 8.00181 7.37499 8.02092C6.8399 8.05914 6.8571 8.48148 7.07305 8.86178C7.4113 9.45802 7.98843 9.4026 8.61143 9.31469C8.38784 9.46375 8.1375 9.57459 7.87568 9.63766C7.31575 9.77143 6.63733 9.61855 6.10988 9.4198C5.58052 9.21914 4.98237 9.03568 4.42817 8.92675C3.91219 8.82547 3.38474 8.56556 3.19937 8.03047C3.06369 7.64253 3.16879 7.2049 3.38283 6.85327C3.61024 6.47871 3.99627 6.25703 4.08609 5.80793C4.1396 5.54421 4.13196 5.27093 4.19693 5.01103C4.27911 4.68424 4.54283 4.36319 4.82184 4.18164C4.64603 4.70144 4.29822 5.48497 4.85433 5.82513C5.11614 5.98375 5.29387 6.00668 5.25565 6.24556Z" fill="#F6EFF2"/>
<path d="M10.1107 4.87034C10.2961 5.13024 10.4566 5.38441 10.493 5.72457C10.5216 5.99594 10.5178 6.12016 10.772 6.2482C11.653 6.69156 11.3778 7.93373 10.7204 8.41532C10.4796 8.59113 10.1967 8.70197 9.91774 8.80899C10.256 8.56438 10.5904 8.33696 10.6401 7.90316C10.6707 7.64708 10.6611 7.22856 10.342 7.15594C10.0458 7.08905 9.63872 7.36807 9.375 7.47317C9.66166 7.36042 10.1623 7.15021 10.3076 6.86355C10.4452 6.59027 10.3382 5.76088 10.1547 5.51436C10.0171 5.32899 9.67694 5.3481 9.6865 5.04806C9.69414 4.82256 9.64828 4.59706 9.55464 4.39258C9.72854 4.40404 9.86996 4.53782 9.97124 4.67923C10.0171 4.74421 10.063 4.80727 10.1088 4.87034H10.1107Z" fill="#F6EFF2"/>
</svg>
