<svg width="20" height="20" viewBox="0 0 20 20" fill="none" xmlns="http://www.w3.org/2000/svg">
<g clip-path="url(#clip0_802_1940)">
<path d="M18.9168 5.64271C19.4674 6.22783 20.2114 6.91774 19.9439 7.67522C19.7818 8.13401 19.263 8.46281 19.2821 8.94902C19.299 9.3804 19.7529 9.73368 19.6809 10.1594C19.5969 10.6569 18.8853 10.7994 18.7009 11.269C18.6079 11.5062 18.6718 11.7718 18.6735 12.0267C18.6784 12.731 18.1863 13.3634 17.5816 13.7243C16.9769 14.0854 16.2696 14.2254 15.5782 14.3598C12.9207 14.8757 10.2634 15.3917 7.60583 15.9076C6.81726 13.9142 7.90696 11.6898 9.16388 9.95328C10.6999 7.83117 12.5483 6.14239 14.4689 4.388C16.3665 2.65491 17.3975 4.02762 18.9168 5.64246V5.64271Z" fill="#D63626"/>
<path d="M17.0583 3.96634C17.096 3.75947 17.1215 3.54158 17.0534 3.34254C16.9861 3.14521 16.8341 2.98877 16.6735 2.85583C16.4551 2.67515 16.2144 2.52704 15.9623 2.39606C15.9672 2.32996 15.9726 2.2641 15.976 2.19849C15.9985 1.77397 15.9478 1.25862 15.5674 1.06888C15.315 0.943043 15.0028 1.01478 14.7413 0.909257C14.2999 0.731027 14.1907 0.153983 13.8482 -0.176526C13.4355 -0.574851 12.7502 -0.611819 12.0561 -0.461009C11.9501 -0.574361 11.8343 -0.677431 11.7004 -0.760915C10.8005 -1.32156 9.64172 -0.789315 8.72315 -0.259521C6.70092 0.907543 6.26122 2.39973 5.17789 4.29857C4.2106 5.99396 3.38677 7.97995 3.91142 9.9559C3.97655 10.2019 4.07105 10.4558 4.26984 10.615C4.4111 10.7281 4.59031 10.7812 4.76659 10.8228C6.31557 11.1896 7.94241 10.8752 9.47279 10.4367C11.1579 9.9537 12.8239 9.30737 14.2236 8.25194C15.6234 7.19676 16.7435 5.69111 17.0581 3.96634H17.0583Z" fill="#EA5322"/>
<path d="M17.8928 12.6759C17.8449 13.1352 17.7883 13.6178 17.518 13.9924C17.0017 14.7075 15.9761 14.7317 15.1063 14.8771C12.85 15.2547 11.0187 16.8308 9.10693 18.087C7.19512 19.3432 4.76478 20.3359 2.66812 19.421C1.84748 19.0628 1.12036 18.3644 0.973225 17.4813C0.82829 16.6112 1.25452 15.7583 1.67611 14.9834C3.58939 11.4675 5.85692 7.80987 9.38896 5.71885C11.8871 4.23989 15.9225 3.3196 17.3834 6.58748C18.2253 8.47114 18.1014 10.6802 17.8931 12.6762L17.8928 12.6759Z" fill="#D63626"/>
<path d="M11.0475 0.661256C10.3257 0.0712358 9.10994 0.248731 8.58725 1.02065C8.41587 1.2738 8.30326 1.58423 8.04766 1.75145C7.62412 2.02883 7.05981 1.7747 6.55744 1.83566C5.77964 1.92968 5.31766 2.72804 4.97809 3.43386C3.82841 5.82332 2.67897 8.21253 1.52929 10.602C1.01786 11.6648 0.499326 12.7518 0.355861 13.9225C0.226105 14.9823 0.418535 16.0794 0.901568 17.0315C0.995824 17.2173 1.10673 17.4044 1.27957 17.5209C1.62551 17.754 2.11882 17.6232 2.42436 17.339C2.7299 17.0548 2.89393 16.6545 3.05771 16.2708C3.95131 14.1783 5.12278 12.164 6.79124 10.6167C8.14412 9.36197 9.78712 8.44683 11.1084 7.15882C12.0299 6.26057 13.0065 4.91601 13.0631 3.57537C13.1206 2.21049 12.0764 1.50246 11.0475 0.661256Z" fill="#D63626"/>
<path d="M7.02526 17.2263C5.88219 17.3404 4.8297 16.638 3.94002 15.9121C3.68638 15.705 3.43128 15.4876 3.25966 15.2092C2.79132 14.4495 3.05083 13.4649 3.38183 12.6374C4.62185 9.54479 6.7136 6.91566 9.29451 4.84447C9.51754 4.66452 9.74498 4.48923 9.97585 4.31761C11.9986 2.81636 15.2814 1.34401 16.3848 4.71642C16.7187 5.73904 16.491 6.86816 16.7031 7.91698C16.8764 8.77581 17.4622 9.72865 16.9949 10.5941C16.7954 10.964 16.4271 11.2189 16.2227 11.5856C15.9387 12.0956 16.0031 12.7608 15.6577 13.2308C15.4341 13.5337 15.0772 13.7028 14.7359 13.861C13.9309 14.2326 13.1252 14.6048 12.32 14.9757C11.056 15.5591 9.79297 16.1418 8.5292 16.7252C8.0469 16.948 7.5531 17.1734 7.02526 17.2268V17.2263Z" fill="#E74124"/>
<path d="M12.3207 14.9752C13.3031 13.2377 14.137 11.4165 14.8137 9.53769C14.9077 9.27402 15.0015 8.99419 14.951 8.71803C14.8945 8.40466 14.6626 8.15151 14.5669 7.84745C14.4802 7.57398 14.5106 7.27775 14.4736 6.99253C14.3478 6.04507 13.4831 5.35149 12.5804 5.03592C11.5267 4.6677 10.4101 4.68092 9.29492 4.84447C9.51795 4.66452 9.74539 4.48923 9.97626 4.31761C11.999 2.81636 15.2818 1.34401 16.3852 4.71642C16.7191 5.73904 16.4915 6.86816 16.7035 7.91698C16.8768 8.77581 17.4627 9.72865 16.9953 10.5941C16.7958 10.964 16.4276 11.2189 16.2231 11.5856C15.9391 12.0956 16.0035 12.7608 15.6581 13.2308C15.4346 13.5337 15.0776 13.7028 14.7363 13.861C13.9314 14.2326 13.1256 14.6048 12.3204 14.9757L12.3207 14.9752Z" fill="#E53516"/>
<path d="M5.15404 16.1436C4.46388 16.2469 3.74631 16.2751 3.07697 16.0775C2.40665 15.8804 1.78627 15.4292 1.51379 14.7856C1.23836 14.1327 1.35465 13.3661 1.66239 12.7274C1.97111 12.0884 2.4539 11.5532 2.93399 11.031C4.04842 9.82184 5.20912 8.59553 6.13651 7.24387C6.78675 6.29885 7.32144 5.29141 7.64656 4.18556C7.86152 3.45256 8.18395 2.51147 8.94804 2.50632C9.27659 2.50437 9.5902 2.70047 9.91679 2.65958C10.6483 2.56949 10.9103 1.79879 11.749 1.89035C12.447 1.96551 12.8742 2.5073 13.274 3.018C13.8844 3.79972 14.6651 4.57507 15.1342 5.453C16.3118 7.65737 13.9003 9.64532 12.2497 10.6961C11.5845 11.1189 10.9027 11.5361 10.3046 12.0441C10.0745 12.2377 9.85804 12.4451 9.65949 12.6713C8.94951 13.4765 8.48336 14.5004 7.64852 15.1768C6.94735 15.7446 6.04715 16.0114 5.15428 16.1436H5.15404Z" fill="#EC6438"/>
<path d="M10.3046 12.0433C10.686 11.3145 11.2106 10.6621 11.7133 10.0064C12.3407 9.18995 12.957 8.32769 13.214 7.33004C13.4711 6.3324 13.2975 5.16141 12.5322 4.47175C12.2805 4.24431 11.951 4.07343 11.6151 4.11309C11.076 4.17552 10.5364 4.74375 10.0891 4.43797C9.9672 4.35546 9.8891 4.22032 9.76987 4.13463C9.37865 3.85382 8.85913 4.2284 8.53719 4.58706C7.74152 5.47699 7.01147 6.43155 6.13672 7.24387C6.78696 6.29885 7.32166 5.29141 7.64678 4.18556C7.86173 3.45256 8.18416 2.51147 8.94825 2.50632C9.2768 2.50437 9.59042 2.70047 9.91701 2.65958C10.6485 2.56949 10.9105 1.79879 11.7493 1.89035C12.4472 1.96551 12.8745 2.5073 13.2742 3.018C13.8846 3.79972 14.6653 4.57507 15.1344 5.453C16.312 7.65737 13.9005 9.64532 12.2499 10.6961C11.5847 11.1189 10.9029 11.5361 10.3048 12.0441L10.3046 12.0433Z" fill="#EA5322"/>
<path d="M5.87528 18.4912C5.01228 18.8354 4.09322 19.0587 3.19106 18.8829C2.21814 18.6927 1.35196 18.0179 0.931353 17.1202C0.720562 16.6704 0.623858 16.171 0.640505 15.6752C0.655684 15.1809 0.783236 14.6896 1.02071 14.2558C1.54047 13.3054 2.49919 12.6933 3.26108 11.9236C4.09445 11.0831 4.70185 10.0448 5.50242 9.17351C6.70327 7.86861 8.98206 6.05791 10.7742 5.71418C11.2251 5.62776 11.7478 5.74796 12.0125 6.12376C12.2463 6.45574 12.2313 6.90156 12.3819 7.27957C12.7149 8.11637 13.8077 8.53305 13.9674 9.41955C14.1549 10.4691 12.9095 11.2684 12.804 12.3293C12.7521 12.848 12.9839 13.3835 12.839 13.8844C12.7024 14.3593 12.2685 14.6761 11.8619 14.9564C10.1215 16.1539 8.36952 17.3574 6.45134 18.2427C6.26332 18.3298 6.0704 18.4138 5.87503 18.4914L5.87528 18.4912Z" fill="#D63626"/>
<path d="M5.87528 18.4917C5.01228 18.836 4.09322 19.0592 3.19106 18.8835C2.21814 18.6932 1.35196 18.0185 0.931353 17.1207C0.720562 16.671 0.623858 16.1716 0.640505 15.6758C1.33947 14.8432 2.35695 14.1907 3.1891 13.7155C4.95769 12.7061 6.72505 11.697 8.49267 10.6881C8.64274 10.6024 8.80041 10.5145 8.97301 10.5081C9.39728 10.4937 9.68225 10.9929 9.63231 11.4149C9.58335 11.8368 9.31674 12.1959 9.10252 12.5624C8.77813 13.1157 8.55705 13.7307 8.45398 14.3645C8.39449 14.7274 8.37172 15.1032 8.22557 15.4403C8.01331 15.9321 7.57067 16.2754 7.19707 16.6585C6.66875 17.2006 6.26406 17.8393 5.87528 18.492V18.4917Z" fill="#FBD483"/>
<path d="M4.78871 14.8518C4.91308 14.7923 5.05361 14.7392 5.19854 14.7069C5.55133 14.6278 5.92836 14.6721 6.1531 15.0467C6.44395 15.5319 4.29221 17.9664 3.96929 18.1694C3.33178 18.5701 2.53464 18.5322 1.76149 18.0567C-0.877193 16.4341 3.87357 15.2895 4.78896 14.8518H4.78871Z" fill="#FDE7BA"/>
<path d="M1.16372 9.60739C1.91948 8.41413 2.77954 7.54257 3.56566 6.36914C3.59651 8.05743 2.60719 9.3851 1.89549 10.9162C1.02491 12.7901 0.882175 14.991 1.50353 16.9616C1.70159 17.5893 1.49839 18.8173 0.867975 17.9602C0.486544 17.4417 0.323982 16.0489 0.184189 15.4153C-0.249145 13.4521 0.084057 11.3114 1.16348 9.60715L1.16372 9.60739Z" fill="#FDE7BA"/>
<path d="M8.05434 17.9682C9.08553 17.567 10.1069 16.9574 11.1717 16.6518C11.1978 16.6442 11.2233 16.6682 11.2177 16.6949C11.1783 16.8841 10.9281 17.0046 10.7684 17.1304C8.89971 18.603 6.85839 20.1452 4.41507 20.0245C3.20761 19.965 2.0638 19.4239 1.30535 18.4826C0.430353 17.3968 0.713612 16.6082 1.65005 17.2137C2.28365 17.6233 2.95348 17.9462 3.68183 18.1496C5.10963 18.5487 6.66816 18.5076 8.05434 17.9682Z" fill="#FDE7BA"/>
<path d="M4.80888 7.09803L4.70605 6.74671C4.76946 6.7281 4.79174 6.53959 4.80496 6.42697C4.8434 6.10381 4.95969 5.80831 5.14282 5.55761C5.18639 5.49812 5.23413 5.44107 5.28188 5.38378C5.36928 5.27925 5.45178 5.18083 5.50026 5.07188C5.57419 4.90663 5.57468 4.71028 5.57517 4.50169C5.57517 4.38589 5.57566 4.2696 5.58741 4.15576C5.65523 3.48911 6.1248 2.8893 6.75595 2.66406L6.87885 3.00902C6.38578 3.1848 6.00434 3.67199 5.95122 4.19322C5.94093 4.29482 5.94069 4.39887 5.94069 4.50267C5.9402 4.7399 5.93947 4.98522 5.83419 5.22098C5.7654 5.3762 5.66233 5.49959 5.5622 5.61906C5.5196 5.66974 5.47651 5.7209 5.43783 5.77452C5.29167 5.9738 5.19888 6.20981 5.1695 6.4561C5.14233 6.6855 5.10364 7.01111 4.80815 7.09803H4.80888Z" fill="#D2200E"/>
<path d="M4.10669 8.16356C4.33878 8.02279 4.52485 7.80759 4.63085 7.55763L4.66635 7.46778C4.70161 7.37548 4.74127 7.27143 4.80859 7.17693C4.88449 7.06945 4.98413 6.99037 5.07178 6.92109C5.10189 6.89734 5.13176 6.87359 5.1604 6.84862C5.36875 6.66892 5.51221 6.42067 5.56509 6.15039L5.92449 6.22065C5.85594 6.57099 5.66963 6.89245 5.39984 7.12552C5.36703 7.15416 5.33325 7.18084 5.29946 7.20777C5.2243 7.26727 5.15281 7.32358 5.10679 7.3887C5.06639 7.4455 5.03799 7.51992 5.00812 7.59851C4.9949 7.63254 4.98168 7.66657 4.96773 7.70011C4.8321 8.02083 4.59364 8.2965 4.29618 8.47693L4.10645 8.16356H4.10669Z" fill="#D2200E"/>
<path d="M14.9141 13.9853C15.1062 13.8497 15.3217 13.7782 15.5298 13.7087C15.5952 13.6869 15.6603 13.6654 15.7247 13.6411C16.0123 13.5344 16.1886 13.4024 16.2633 13.2367C16.3 13.1564 16.3154 13.0597 16.3318 12.9576C16.3406 12.9035 16.3492 12.8496 16.361 12.7965C16.4305 12.4804 16.6006 12.1876 16.8403 11.9707L17.0861 12.242C16.9025 12.408 16.772 12.6327 16.7189 12.8746C16.7086 12.9209 16.7013 12.9684 16.6934 13.0158C16.6741 13.1373 16.6538 13.2629 16.5972 13.3877C16.4802 13.6468 16.2363 13.8419 15.852 13.9846C15.7842 14.0098 15.7151 14.0328 15.6458 14.0561C15.4544 14.12 15.2735 14.1805 15.1251 14.2848L14.9146 13.9856L14.9141 13.9853Z" fill="#D2200E"/>
<path d="M12.5381 15.3307L12.5807 14.9671C12.777 14.9901 12.9773 14.8849 13.1893 14.7732C13.2691 14.7311 13.3482 14.6898 13.428 14.6538C13.6337 14.5615 13.8511 14.5042 14.0739 14.4834L14.1355 14.478C14.2548 14.4684 14.3671 14.4591 14.4247 14.4062L14.6734 14.6743C14.5231 14.8141 14.3245 14.8303 14.1649 14.843L14.1079 14.8479C13.925 14.8653 13.7465 14.9121 13.5781 14.9879C13.5051 15.021 13.4327 15.0589 13.36 15.0971C13.1195 15.2237 12.8468 15.3669 12.5381 15.3309V15.3307Z" fill="#D2200E"/>
<path d="M14.2599 7.86769L14.1416 7.52102C14.2324 7.49017 14.2814 7.34964 14.2882 7.23237C14.2922 7.16236 14.288 7.0916 14.2841 7.02109C14.2775 6.90358 14.2709 6.78239 14.2922 6.6546C14.3142 6.52264 14.3629 6.40537 14.4099 6.29226C14.456 6.18185 14.499 6.0778 14.5088 5.97669C14.5314 5.73921 14.3737 5.50173 14.2001 5.28115L14.488 5.05469C14.6978 5.32203 14.9081 5.64471 14.8731 6.01145C14.8584 6.1674 14.8024 6.30254 14.748 6.43254C14.7071 6.53096 14.6682 6.62399 14.6533 6.71507C14.6383 6.80247 14.6435 6.89868 14.6494 7.00053C14.6543 7.08475 14.6584 7.16921 14.6535 7.25294C14.6398 7.49017 14.5292 7.77563 14.2599 7.86769Z" fill="#E8420C"/>
<path d="M5.55615 10.076C5.75593 9.93493 5.93098 9.76405 6.07615 9.56795L6.10553 9.52828C6.15866 9.45557 6.21864 9.3738 6.30212 9.30623C6.44584 9.19043 6.61721 9.14955 6.76802 9.11356C6.83314 9.09813 6.89827 9.08295 6.96045 9.06068C7.19181 8.97768 7.37665 8.78892 7.57201 8.58915C7.77424 8.38252 7.98405 8.16855 8.26731 8.04883L8.40979 8.38595C8.19411 8.47702 8.01881 8.65599 7.83348 8.84548C7.61755 9.06557 7.39427 9.2935 7.08384 9.40514C7.00917 9.43207 6.93083 9.45092 6.85273 9.46953C6.72811 9.4994 6.6106 9.52731 6.53177 9.59145C6.4855 9.62866 6.44412 9.68497 6.40079 9.74446L6.36921 9.78706C6.20126 10.0135 5.9983 10.2116 5.76695 10.3749L5.55566 10.076H5.55615Z" fill="#D32716"/>
<path d="M11.4219 12.7446C11.4542 12.5311 11.5817 12.3688 11.6941 12.2256C11.7739 12.1237 11.8496 12.0273 11.8831 11.9264C11.9179 11.8243 11.9142 11.7014 11.9052 11.5841L11.8944 11.4593C11.875 11.2465 11.855 11.0267 11.9071 10.8027C11.9549 10.5992 12.0542 10.4261 12.1507 10.2587C12.196 10.1801 12.241 10.1017 12.2802 10.0205C12.3693 9.83268 12.4176 9.5761 12.2969 9.43142C12.2347 9.35674 12.1282 9.309 12.0158 9.25808C11.9659 9.23556 11.9162 9.21303 11.8682 9.18806C11.651 9.07422 11.4194 8.83895 11.4826 8.54688L11.84 8.62399C11.8231 8.70381 11.9282 8.80688 12.0374 8.86343C12.079 8.88522 12.1228 8.90505 12.1664 8.92439C12.3047 8.98682 12.4619 9.05782 12.5777 9.19663C12.7775 9.4368 12.7892 9.80208 12.6105 10.1774C12.5681 10.2672 12.5182 10.3544 12.4682 10.4411C12.3813 10.5919 12.2988 10.7346 12.2641 10.8857C12.2249 11.0521 12.2415 11.2335 12.2589 11.4257L12.2704 11.5562C12.2822 11.7122 12.2856 11.8794 12.2303 12.0429C12.1764 12.204 12.0731 12.3355 11.982 12.4518C11.8851 12.5752 11.8013 12.6817 11.7835 12.7999L11.4219 12.7448V12.7446Z" fill="#D32716"/>
<path d="M8.64868 16.0932C9.08446 15.6819 9.62674 15.1702 9.79298 14.5352C9.82432 14.4167 9.84219 14.2955 9.86079 14.1743C9.88185 14.0352 9.90339 13.8962 9.94012 13.7605C10.0324 13.42 10.2148 13.1103 10.4677 12.8652L10.7226 13.1282C10.5169 13.3275 10.3686 13.5794 10.2931 13.8565C10.2601 13.9784 10.2415 14.104 10.2222 14.2294C10.2018 14.3631 10.181 14.4972 10.1467 14.6282C9.95407 15.3644 9.36919 15.9162 8.89938 16.3593L8.64844 16.0932H8.64868Z" fill="#D32716"/>
<path d="M2.68234 11.286C2.99791 10.9264 3.35462 10.5569 3.82247 10.457C3.87731 11.0069 3.55807 11.5147 3.2775 11.9906C2.47987 13.344 1.89965 14.8251 1.5662 16.3604C1.52776 16.5379 1.48835 16.7245 1.37034 16.8623C0.388852 18.0083 0.0519774 15.5572 0.298023 14.9233C0.828551 13.5562 1.72264 12.3801 2.68258 11.2862L2.68234 11.286Z" fill="#FDE7BA"/>
<path d="M4.97066 17.6244C5.57733 17.3713 6.09929 16.9546 6.61244 16.5435C7.46319 15.8617 8.31395 15.1799 9.1647 14.498C9.3515 14.5088 9.47563 14.7179 9.46339 14.9045C9.45114 15.091 9.34269 15.256 9.2357 15.4093C8.56342 16.3744 7.80545 17.2922 6.88052 18.0188C6.13724 18.6027 5.25858 19.0662 4.31479 19.1173C3.75121 19.1479 2.29795 18.9964 2.79077 18.1897C3.11737 17.6553 4.43475 17.8477 4.97042 17.6242L4.97066 17.6244Z" fill="#FDE7BA"/>
</g>
<defs>
<clipPath id="clip0_802_1940">
<rect width="20" height="20" fill="white"/>
</clipPath>
</defs>
</svg>
