<svg width="20" height="20" viewBox="0 0 20 20" fill="none" xmlns="http://www.w3.org/2000/svg">
<g clip-path="url(#clip0_802_4703)">
<path d="M12.7442 19.4554H7.96675C6.63944 19.4554 5.52541 18.3961 5.3849 16.9997L4.41211 6.7832H16.2383L15.3261 16.9946C15.1884 18.3933 14.0737 19.4561 12.7442 19.4561V19.4554Z" fill="#7F3A12"/>
<path d="M16.1908 6.83565L15.2858 16.9642C15.1488 18.3513 14.0435 19.4055 12.7248 19.4055H7.98624C6.66973 19.4055 5.56508 18.3549 5.426 16.9692L4.46114 6.83565H16.1915M16.8422 6.239H3.80469L3.86666 6.89185L4.83152 17.0254C5.0023 18.7231 6.35772 20.0007 7.98552 20.0007H12.7241C14.3548 20.0007 15.7109 18.7202 15.8781 17.0218V17.0189V17.0161L16.7831 6.88753L16.8408 6.23828L16.8422 6.239Z" fill="#DBE6F0"/>
<path d="M16.7243 5.55859H4.00954C3.45199 5.55859 3 6.01058 3 6.56813V6.62578C3 7.18333 3.45199 7.63532 4.00954 7.63532H16.7243C17.2818 7.63532 17.7338 7.18333 17.7338 6.62578V6.56813C17.7338 6.01058 17.2818 5.55859 16.7243 5.55859Z" fill="white"/>
<path d="M6.68809 2.53906H14.095C15.6003 2.53906 16.8231 3.76117 16.8231 5.26719V5.55831H3.95996V5.26719C3.95996 3.76189 5.18207 2.53906 6.68809 2.53906Z" fill="#DBE6F0"/>
<path d="M8.35513 10.5325L6.55305 11.3232C6.2174 11.4705 6.0647 11.8619 6.21196 12.1976L7.00265 13.9997C7.14991 14.3353 7.54139 14.488 7.87703 14.3407L9.67912 13.5501C10.0148 13.4028 10.1675 13.0113 10.0202 12.6757L9.22951 10.8736C9.08225 10.538 8.69077 10.3852 8.35513 10.5325Z" fill="#D59461"/>
<path d="M14.304 12.0198L12.8137 11.5231C12.5358 11.4305 12.2355 11.5807 12.1429 11.8586L11.6463 13.3489C11.5537 13.6268 11.7039 13.9271 11.9817 14.0197L13.472 14.5164C13.7499 14.609 14.0503 14.4588 14.1429 14.1809L14.6395 12.6906C14.7321 12.4127 14.5819 12.1124 14.304 12.0198Z" fill="#C4723D"/>
<path d="M10.1403 14.7171L8.90219 15.9552C8.67144 16.186 8.67144 16.5601 8.90219 16.7909L10.1403 18.029C10.3711 18.2598 10.7452 18.2598 10.976 18.029L12.2141 16.7909C12.4449 16.5601 12.4449 16.186 12.2141 15.9552L10.976 14.7171C10.7452 14.4863 10.3711 14.4863 10.1403 14.7171Z" fill="#AB5929"/>
<path d="M4.69259 9.19411H15.9683L16.1383 7.63477H4.51172L4.69259 9.19411Z" fill="#B2C8D8"/>
<path d="M11.763 9.19408L13.4333 0.95059C13.5205 0.521122 13.243 0.103183 12.8136 0.0159922C12.3805 -0.0711986 11.9662 0.206947 11.879 0.635695L10.1445 9.19408H11.7622H11.763Z" fill="#008461"/>
<path opacity="0.5" d="M6.68809 2.53906H14.095C15.6003 2.53906 16.8231 3.76117 16.8231 5.26719V5.55831H3.95996V5.26719C3.95996 3.76189 5.18207 2.53906 6.68809 2.53906Z" fill="#DBE6F0"/>
<path d="M6.31793 4.24814C6.56023 4.00585 6.60288 3.65568 6.41322 3.46601C6.22355 3.27634 5.87338 3.319 5.63109 3.56129C5.3888 3.80358 5.34614 4.15376 5.53581 4.34342C5.72547 4.53309 6.07564 4.49043 6.31793 4.24814Z" fill="white"/>
<path opacity="0.5" d="M12.8486 7.63477H8.9502V9.19411H12.8486V7.63477Z" fill="#B2C8D8"/>
<path opacity="0.8" d="M16.7243 5.55859H4.00954C3.45199 5.55859 3 6.01058 3 6.56813V6.62578C3 7.18333 3.45199 7.63532 4.00954 7.63532H16.7243C17.2818 7.63532 17.7338 7.18333 17.7338 6.62578V6.56813C17.7338 6.01058 17.2818 5.55859 16.7243 5.55859Z" fill="#F8FDFF"/>
</g>
<defs>
<clipPath id="clip0_802_4703">
<rect width="20" height="20" fill="white"/>
</clipPath>
</defs>
</svg>
