<svg width="20" height="20" viewBox="0 0 20 20" fill="none" xmlns="http://www.w3.org/2000/svg">
<path d="M19.6402 3C19.8379 3 19.999 3.15945 19.999 3.35728V17.5177C19.999 17.7146 19.8379 17.875 19.6402 17.875H0.358767C0.161099 17.875 0 17.7156 0 17.5177V3.35728C0 3.15945 0.161099 3 0.358767 3H19.6402Z" fill="#231F20"/>
<path d="M18.7826 3.69141C18.9655 3.69141 19.1147 3.83511 19.1147 4.01227V16.7367C19.1147 16.9138 18.9665 17.0575 18.7826 17.0575H0.964882C0.78204 17.0575 0.633789 16.9138 0.633789 16.7367V4.01227C0.633789 3.83511 0.78204 3.69141 0.964882 3.69141H18.7826Z" fill="#58595B"/>
<path d="M17.4371 4.75586C17.5932 4.75586 17.7207 4.87397 17.7207 5.01964V15.4783C17.7207 15.624 17.5932 15.7421 17.4371 15.7421H2.18209C2.02494 15.7421 1.89844 15.624 1.89844 15.4783V5.01964C1.89844 4.87397 2.02593 4.75586 2.18209 4.75586H17.4371Z" fill="#404041"/>
<path d="M13.8869 7.63713L8.6774 8.80642C8.6774 8.80642 8.29194 8.32512 8.42043 8.25622C8.54891 8.18733 10.4139 7.77492 10.4139 7.77492L8.45502 7.91764C8.45502 7.91764 8.29194 7.49933 8.42043 7.49933C8.54891 7.49933 16.2026 5.98654 16.4606 6.19323C16.7175 6.39894 16.3963 6.94914 16.3963 6.94914L13.8879 7.63614L13.8869 7.63713Z" fill="#3BA617"/>
<path d="M11.056 6.39966C11.056 6.39966 10.9917 5.78056 11.2487 5.71167C11.5057 5.64277 16.394 5.16147 16.5225 5.36718C16.6509 5.57387 16.5225 6.12407 16.5225 6.12407C16.5225 6.12407 10.9917 6.60537 11.055 6.39867L11.056 6.39966Z" fill="url(#paint0_linear_802_1938)"/>
<path d="M9.32767 6.61639C10.3565 6.76403 11.416 7.07406 12.3915 7.26993C13.5914 7.51107 14.9276 7.64788 16.0731 8.11934C16.9092 8.46383 17.1019 7.56914 16.845 7.29454C16.588 7.01993 16.3943 7.08784 14.9157 6.81324C13.4362 6.53765 8.93431 5.09375 8.93431 5.09375C8.93431 5.09375 8.67735 5.30044 8.87007 5.57505C9.0628 5.84966 10.992 6.39985 10.993 6.39985C10.487 6.25517 9.93649 6.28962 9.41959 6.20694C9.20117 6.17249 8.38579 5.92151 8.23754 6.11442C8.20986 6.14985 8.21678 6.49237 8.2326 6.49828C8.58247 6.62623 8.96594 6.56422 9.32866 6.61639H9.32767Z" fill="url(#paint1_linear_802_1938)"/>
<path d="M9.12695 7.22519C9.12695 7.22519 15.4296 8.73799 15.5591 8.73799C15.6885 8.73799 16.0433 7.90236 15.6875 7.77539C15.4948 7.70649 9.38491 6.40039 9.38491 6.40039C9.38491 6.40039 9.12794 7.01949 9.12794 7.22519H9.12695Z" fill="#338A1A"/>
<path opacity="0.7" d="M1.05469 16.3614L1.89873 15.4766" stroke="#D0D2D3" stroke-miterlimit="10"/>
<path d="M1.05469 4.0918L1.81472 4.68038" stroke="#D0D2D3" stroke-miterlimit="10"/>
<path d="M18.6912 16.5287L17.7207 15.4766" stroke="#D0D2D3" stroke-miterlimit="10"/>
<path d="M18.7826 3.69141L17.4375 4.75538" stroke="#D0D2D3" stroke-miterlimit="10"/>
<path d="M4.81708 7.21324C4.81708 7.8599 4.29029 8.3845 3.64194 8.3845C2.99359 8.3845 2.46582 7.8599 2.46582 7.21324C2.46582 6.56659 2.9926 6.04297 3.64194 6.04297C4.29128 6.04297 4.81708 6.56758 4.81708 7.21324Z" fill="#D62027"/>
<path d="M3.64108 6.04314C3.64108 6.04314 3.29516 5.88763 3.309 5.95751C3.32283 6.02837 3.60748 6.09924 3.60748 6.09924C3.60748 6.09924 3.46516 6.32562 3.55015 6.26952C3.63515 6.21243 3.76363 6.07168 3.76363 6.07168C3.76363 6.07168 3.89212 6.12877 3.97711 6.17109C4.06211 6.21341 3.94845 6.07168 3.83479 6.02936C3.83479 6.02936 4.11943 5.95849 4.00578 5.94471C3.89212 5.93093 3.68852 5.98704 3.64108 6.04412V6.04314Z" fill="#266443"/>
<path d="M3.64118 6.04258C3.64118 6.04258 3.60758 5.74534 3.7074 5.7168C3.7074 5.7168 3.82106 5.7168 3.7924 5.74534C3.76374 5.77388 3.72124 6.01404 3.72124 6.01404L3.64118 6.04258Z" fill="#266443"/>
<path d="M2.85406 6.75052C2.98353 6.77414 3.44805 6.45721 3.25236 6.31449C3.05766 6.17374 2.63069 6.71016 2.85406 6.75052Z" fill="#EF5A6A"/>
<path d="M2.78278 7.02611C2.78278 7.07729 2.75412 7.11765 2.71854 7.11765C2.68296 7.11765 2.6543 7.07631 2.6543 7.02611C2.6543 6.97592 2.68296 6.93359 2.71854 6.93359C2.75412 6.93359 2.78278 6.97493 2.78278 7.02611Z" fill="#EF5A6A"/>
<path d="M5.31973 7.0148C4.66149 7.07385 4.17523 7.65456 4.23552 8.31007C4.29482 8.96558 4.87794 9.44984 5.53617 9.3898C6.19441 9.33074 6.68067 8.75003 6.62038 8.09452C6.56108 7.43901 5.97796 6.95476 5.31973 7.0148Z" fill="#E92537"/>
<path d="M6.62031 8.09568C6.62031 8.09568 6.81106 8.43131 6.73792 8.42343C6.66478 8.41556 6.56595 8.13505 6.56595 8.13505C6.56595 8.13505 6.34851 8.29942 6.39793 8.20788C6.44735 8.11635 6.57979 7.97363 6.57979 7.97363C6.57979 7.97363 6.5106 7.84961 6.45921 7.76694C6.40782 7.68426 6.56298 7.78662 6.61635 7.89784C6.61635 7.89784 6.66182 7.60355 6.68751 7.71772C6.71222 7.83091 6.67368 8.04253 6.62031 8.09568Z" fill="#266443"/>
<path d="M6.62012 8.09476C6.62012 8.09476 6.9265 8.10067 6.94627 7.99732C6.94627 7.99732 6.9354 7.88216 6.9097 7.91366C6.88302 7.94515 6.64186 8.01012 6.64186 8.01012L6.62012 8.09378V8.09476Z" fill="#266443"/>
<path d="M5.97087 8.95429C5.93529 8.82535 6.21499 8.32633 6.37806 8.51137C6.53916 8.69444 6.03214 9.17574 5.97087 8.95429Z" fill="#EF5A6A"/>
<path d="M5.69749 9.05139C5.6461 9.05631 5.60657 9.08879 5.60953 9.12422C5.6125 9.15966 5.65697 9.18525 5.70935 9.18032C5.76075 9.1754 5.80028 9.14292 5.79732 9.10749C5.79435 9.07206 5.74988 9.04647 5.69749 9.05139Z" fill="#EF5A6A"/>
<path d="M5.58465 9.10095C5.58465 9.7476 5.05787 10.2722 4.40853 10.2722C3.75919 10.2722 3.2334 9.7476 3.2334 9.10095C3.2334 8.45429 3.76018 7.92969 4.40853 7.92969C5.05688 7.92969 5.58465 8.45429 5.58465 9.10095Z" fill="#EE3947"/>
<path d="M4.33257 8.87374C4.33257 8.87374 4.07659 8.74185 4.12403 8.80779C4.17147 8.87374 4.29501 8.93968 4.29501 8.93968C4.29501 8.93968 4.11513 9.18476 4.17147 9.1946C4.22879 9.20444 4.33257 8.99677 4.36123 8.99677C4.38989 8.99677 4.55099 9.29893 4.57965 9.26153C4.60831 9.22413 4.45611 9.00661 4.45611 9.00661C4.45611 9.00661 4.71209 9.05385 4.70221 9.01645C4.69331 8.97905 4.45611 8.90326 4.45611 8.90326C4.45611 8.90326 4.63599 8.79007 4.58855 8.75169C4.54111 8.71429 4.39879 8.86488 4.39879 8.86488C4.39879 8.86488 4.40867 8.62866 4.37012 8.70444C4.33257 8.78023 4.33257 8.87472 4.33257 8.87472V8.87374Z" fill="#266443"/>
<path d="M4.98689 8.19184C4.93846 8.15345 4.46999 7.98416 4.52731 8.16821C4.54609 8.22924 4.66865 8.26369 4.72103 8.2814C4.80207 8.30896 4.99381 8.43199 5.07189 8.42018C5.22903 8.39558 5.04026 8.23416 4.98689 8.19184Z" fill="#EF5A6A"/>
<path d="M5.38459 8.66599C5.42808 8.53312 5.16617 8.41599 5.1889 8.58824C5.1978 8.6591 5.34901 8.77525 5.38459 8.66599Z" fill="#EF5A6A"/>
<path d="M14.9394 13.1691C15.4702 12.0391 15.5907 10.3797 14.889 9.27734C13.8681 7.67005 11.9991 8.75962 10.4929 9.00076C9.3909 9.17694 8.21083 9.25667 7.18197 9.32753C6.12444 9.40135 5.10349 9.55588 4.19027 10.1494C1.95959 11.6002 3.19897 14.171 5.23889 15.0736C7.12365 15.9073 9.5095 15.7872 11.4793 15.4122C12.8847 15.1445 14.3089 14.5126 14.9394 13.1681V13.1691Z" fill="#FF7870"/>
<path d="M14.9524 12.549C15.4831 11.4181 15.6037 9.75959 14.9029 8.65624C13.882 7.04896 12.013 8.13853 10.5058 8.37967C9.40481 8.55683 8.22375 8.63459 7.19588 8.70644C6.13737 8.78026 5.11642 8.93479 4.20319 9.52829C1.9735 10.9791 3.21288 13.5499 5.25281 14.4525C7.13658 15.2862 9.52341 15.1661 11.4932 14.7911C12.8986 14.5234 14.3218 13.8915 14.9533 12.548L14.9524 12.549Z" fill="#FF9FA2"/>
<path d="M3.90477 11.8451C4.07279 12.3884 5.36356 14.0754 6.13841 13.5567C6.59008 13.2536 6.17696 12.5085 6.19672 12.1217C6.23033 11.475 6.60194 11.1817 6.83816 10.6227C7.82056 8.29689 3.90675 9.23783 3.7832 11.3599" fill="#FF7D80"/>
<path d="M9.63588 9.08397C8.37872 8.29559 6.76674 10.4432 7.03062 11.582C7.17196 12.1922 6.97627 12.0623 7.72839 11.8576C8.14053 11.7454 8.6426 11.332 8.95887 11.0515C9.44711 10.6194 10.5768 9.67452 9.63588 9.08299V9.08397Z" fill="#FFBDB6"/>
<path d="M9.27981 12.3097C8.62553 12.6226 6.90879 12.4386 7.39801 13.538C7.64312 14.0902 9.00802 14.4091 9.51503 14.164C9.86589 13.9947 10.5943 12.66 10.6042 12.3244C10.6447 11.0144 9.85008 12.036 9.27981 12.3097Z" fill="#FF7D80"/>
<path d="M12.7622 10.7222C12.5359 10.241 11.8658 9.46241 11.2501 9.68878C10.238 10.0608 11.3271 10.7852 11.5159 11.2843C11.7195 11.8246 11.5199 12.4535 11.6009 13.0136C11.7452 14.0097 12.1919 14.0904 12.6782 13.0825C12.9856 12.4476 13.0716 11.3797 12.7622 10.7222Z" fill="#FFBDB6"/>
<path d="M14.9601 11.6572C15.3169 10.6267 14.7733 8.52437 13.4351 8.37772C11.2271 8.13658 13.6841 10.6248 13.8581 11.3108C14.0469 12.0519 14.4709 13.0706 14.9601 11.6572Z" fill="#FF7D80"/>
<path d="M2.81418 6.45771C2.81418 6.45771 1.56097 6.04138 1.76951 5.88586C1.97804 5.72937 3.33602 5.88586 4.22454 6.09354C5.11206 6.30122 5.79105 6.61323 9.08123 7.55023C12.3714 8.48626 14.1998 8.7461 14.1474 9.00693C14.0951 9.26677 13.9903 9.52661 13.6256 9.47543C13.2599 9.42327 10.4402 8.74708 9.02983 8.33173C7.61948 7.91539 5.47874 7.34354 4.53784 7.03153C3.59793 6.71952 2.81418 6.45968 2.81418 6.45968V6.45771Z" fill="#4D8A00"/>
<path d="M16.0629 7.63666C15.9098 7.6032 13.2422 7.68883 10.6834 7.68883C8.12462 7.68883 5.35629 7.79316 4.36399 7.84434C3.3717 7.89651 4.36399 8.57269 4.46876 8.57269C4.57352 8.57269 5.20013 8.52052 6.61049 8.52052C8.02084 8.52052 10.893 8.46836 12.5118 8.36403C14.1307 8.2597 16.9515 8.2597 17.2124 7.99985C17.4733 7.74001 16.5334 7.74001 16.0629 7.63568V7.63666Z" fill="#78B000"/>
<path d="M13.3066 14.9005C13.4075 14.8129 13.9797 14.7597 15.1944 13.9389C16.409 13.119 16.9734 12.3847 17.2995 11.5205C17.6267 10.6564 16.9417 9.89062 16.9417 9.89062C16.9417 9.89062 16.6611 10.6446 16.0572 11.3946C15.4543 12.1446 14.6162 13.5392 14.6162 13.5392L13.3066 14.9005Z" fill="#BF801F"/>
<path d="M13.3067 14.9014C13.3067 14.9014 14.5421 13.2518 15.0738 12.4408C15.6055 11.6288 16.9418 9.89258 16.9418 9.89258C16.9418 9.89258 16.8202 10.8089 16.242 11.7312C15.6648 12.6534 14.1033 14.619 13.3057 14.9024L13.3067 14.9014Z" fill="#E6B580"/>
<path d="M13.0107 16.4747C13.1116 16.3871 13.6838 16.3339 14.8985 15.5131C16.1131 14.6932 16.6775 13.9589 17.0036 13.0948C17.3308 12.2306 16.6458 11.4648 16.6458 11.4648C16.6458 11.4648 16.3652 12.2188 15.7613 12.9688C15.1584 13.7188 14.3203 15.1135 14.3203 15.1135L13.0107 16.4747Z" fill="#BF801F"/>
<path d="M13.0108 16.4757C13.0108 16.4757 14.2462 14.826 14.7779 14.015C15.3096 13.203 16.6459 11.4668 16.6459 11.4668C16.6459 11.4668 16.5243 12.3831 15.9461 13.3054C15.3689 14.2276 13.8074 16.1932 13.0098 16.4766L13.0108 16.4757Z" fill="#E6B580"/>
<path opacity="0.7" d="M17.4371 4.75586C17.5932 4.75586 17.7207 4.87397 17.7207 5.01964V15.4783C17.7207 15.624 17.5932 15.7421 17.4371 15.7421H2.18209C2.02494 15.7421 1.89844 15.624 1.89844 15.4783V5.01964C1.89844 4.87397 2.02593 4.75586 2.18209 4.75586H17.4371Z" stroke="#D0D2D3" stroke-miterlimit="10"/>
<path d="M12.4046 3H7.21484V18H12.4046V3Z" fill="#2DA34F"/>
<path d="M9.74704 6.4043C12.0538 6.4043 13.9238 8.2665 13.9238 10.5637C13.9238 12.861 12.0538 14.7242 9.74704 14.7242C7.44026 14.7242 5.56934 12.862 5.56934 10.5637C5.56934 8.26552 7.43927 6.4043 9.74704 6.4043Z" fill="#2DA34F"/>
<path d="M9.8098 7.0332C11.7667 7.0332 13.354 8.61293 13.354 10.5627C13.354 12.5125 11.7667 14.0923 9.8098 14.0923C7.8529 14.0923 6.26562 12.5125 6.26562 10.5627C6.26562 8.61293 7.8529 7.0332 9.8098 7.0332Z" fill="white"/>
<defs>
<linearGradient id="paint0_linear_802_1938" x1="12.4673" y1="6.06403" x2="18.4551" y2="5.41801" gradientUnits="userSpaceOnUse">
<stop stop-color="#ABC914"/>
<stop offset="1" stop-color="#F5F299"/>
</linearGradient>
<linearGradient id="paint1_linear_802_1938" x1="9.97009" y1="5.97072" x2="11.8413" y2="6.6192" gradientUnits="userSpaceOnUse">
<stop stop-color="#ABC914"/>
<stop offset="0.99" stop-color="#F5F2C2"/>
</linearGradient>
</defs>
</svg>
