<svg width="16" height="16" viewBox="0 0 16 16" fill="none" xmlns="http://www.w3.org/2000/svg">
<path d="M3.7 12.5C3.37 12.5 3.0875 12.3898 2.8525 12.1695C2.6175 11.9492 2.5 11.6844 2.5 11.375V4.625C2.5 4.31562 2.6175 4.05078 2.8525 3.83047C3.0875 3.61016 3.37 3.5 3.7 3.5H13.3C13.63 3.5 13.9125 3.61016 14.1475 3.83047C14.3825 4.05078 14.5 4.31562 14.5 4.625V11.375C14.5 11.6844 14.3825 11.9492 14.1475 12.1695C13.9125 12.3898 13.63 12.5 13.3 12.5H3.7ZM8.5 8.5625L13.3 5.75V4.625L8.5 7.4375L3.7 4.625V5.75L8.5 8.5625Z" fill="#24823F"/>
</svg>
