<svg width="32" height="32" viewBox="0 0 32 32" fill="none" xmlns="http://www.w3.org/2000/svg">
<path d="M26.1806 27L17.6475 18.4666C16.9806 19.0574 16.2066 19.5101 15.3253 19.8248C14.4442 20.1394 13.5582 20.2967 12.6673 20.2967C10.5243 20.2967 8.71064 19.556 7.22625 18.0745C5.74208 16.5933 5 14.7859 5 12.6526C5 10.5192 5.74063 8.71042 7.22189 7.22625C8.70337 5.74208 10.5103 5 12.6428 5C14.7753 5 16.587 5.74108 18.0779 7.22323C19.5685 8.70538 20.3139 10.5128 20.3139 12.6455C20.3139 13.5711 20.1486 14.4749 19.8181 15.3568C19.4875 16.2388 19.0354 17.004 18.4616 17.6526L27 26.1635L26.1806 27ZM12.662 19.1605C14.4892 19.1605 16.032 18.5328 17.2904 17.2776C18.5487 16.0224 19.1779 14.4792 19.1779 12.6482C19.1779 10.8172 18.5487 9.27403 17.2904 8.0188C16.032 6.76357 14.4892 6.13595 12.662 6.13595C10.832 6.13595 9.2869 6.76357 8.02652 8.0188C6.76614 9.27403 6.13595 10.8172 6.13595 12.6482C6.13595 14.4792 6.76614 16.0224 8.02652 17.2776C9.2869 18.5328 10.832 19.1605 12.662 19.1605ZM12.089 15.7607V13.2024H9.53071V12.0665H12.089V9.53072H13.2249V12.0665H15.7607V13.2024H13.2249V15.7607H12.089Z" fill="#464C53"/>
</svg>
