<svg width="32" height="32" viewBox="0 0 32 32" fill="none" xmlns="http://www.w3.org/2000/svg">
<path d="M15.4961 28C14.7065 28 14.0345 27.7177 13.4801 27.153C12.9259 26.5884 12.6488 25.8942 12.6488 25.0706C12.6488 24.3612 12.8731 23.7345 13.3217 23.1905C13.7706 22.6468 14.3269 22.3174 14.9908 22.2023V18.8794C14.6456 18.8338 14.3293 18.7259 14.0418 18.5558C13.7545 18.3856 13.5075 18.1653 13.301 17.8947L10.58 19.5468C10.6356 19.6994 10.6765 19.8623 10.7027 20.0354C10.729 20.2082 10.7421 20.381 10.7421 20.5537C10.7421 21.3771 10.461 22.0711 9.89873 22.6358C9.33649 23.2004 8.65817 23.4827 7.86376 23.4827C7.06936 23.4827 6.39506 23.201 5.84088 22.6374C5.28649 22.074 5.0093 21.384 5.0093 20.5673C5.0093 19.7506 5.28577 19.0559 5.83871 18.4833C6.39145 17.9106 7.06264 17.6243 7.8523 17.6243C8.29701 17.6243 8.70991 17.7132 9.091 17.8912C9.47189 18.0689 9.79421 18.3126 10.058 18.6223L12.7767 16.9723C12.7263 16.828 12.6872 16.6753 12.6593 16.5142C12.6316 16.3531 12.6178 16.1855 12.6178 16.0114C12.6178 15.8375 12.6316 15.6691 12.6593 15.5064C12.6872 15.3439 12.7342 15.1849 12.8003 15.0296L10.0564 13.4053C9.79267 13.731 9.46776 13.9828 9.08171 14.1607C8.69566 14.3385 8.28255 14.4273 7.84239 14.4273C7.04302 14.4273 6.36945 14.1455 5.82167 13.582C5.27389 13.0184 5 12.3283 5 11.5119C5 10.6952 5.27399 10.0033 5.82198 9.4361C6.37017 8.86892 7.04147 8.58533 7.83588 8.58533C8.63049 8.58533 9.31191 8.8685 9.88014 9.43483C10.4484 10.0012 10.7325 10.689 10.7325 11.4983C10.7325 11.6783 10.7207 11.8513 10.6972 12.0172C10.6736 12.1831 10.6341 12.3384 10.5785 12.483L13.3248 14.1098C13.5314 13.8554 13.775 13.6412 14.0557 13.467C14.3364 13.2927 14.6481 13.1795 14.9908 13.1276V9.79958C14.3282 9.67736 13.7721 9.34575 13.3227 8.80475C12.8734 8.26375 12.6488 7.63852 12.6488 6.92908C12.6488 6.10544 12.9252 5.41129 13.4779 4.84665C14.0308 4.28222 14.7021 4 15.4918 4C16.2817 4 16.9607 4.28222 17.5289 4.84665C18.0972 5.41129 18.3813 6.10544 18.3813 6.92908C18.3813 7.64274 18.1566 8.26628 17.7074 8.79968C17.2579 9.3333 16.7019 9.6666 16.0393 9.79958V13.1567C16.366 13.2357 16.6681 13.3556 16.9455 13.5164C17.2229 13.6773 17.4658 13.884 17.6742 14.1367L20.45 12.5308C20.3944 12.375 20.3527 12.2082 20.3248 12.0305C20.2972 11.853 20.2833 11.6756 20.2833 11.4983C20.2833 10.689 20.5574 10.0012 21.1056 9.43483C21.6536 8.8685 22.3249 8.58533 23.1195 8.58533C23.9139 8.58533 24.5925 8.86797 25.1554 9.43324C25.7185 9.99852 26 10.685 26 11.4926C26 12.3147 25.7176 13.0094 25.1529 13.5766C24.588 14.1437 23.9112 14.4273 23.1226 14.4273C22.681 14.4273 22.2794 14.3385 21.9177 14.1607C21.5558 13.9828 21.2482 13.7461 20.995 13.4506L18.2121 15.0612C18.2677 15.2058 18.3046 15.3567 18.323 15.514C18.3412 15.6712 18.3503 15.8345 18.3503 16.0038C18.3503 16.1733 18.3372 16.3357 18.3109 16.4911C18.2847 16.6464 18.2518 16.7963 18.2121 16.9407L20.9746 18.6223C21.2381 18.3126 21.5529 18.0689 21.9189 17.8912C22.2849 17.7132 22.6862 17.6243 23.1226 17.6243C23.9112 17.6243 24.588 17.9085 25.1529 18.4769C25.7176 19.0456 26 19.7359 26 20.548C26 21.3701 25.7181 22.0648 25.1542 22.632C24.5903 23.1992 23.9155 23.4827 23.1297 23.4827C22.33 23.4827 21.6557 23.2004 21.1068 22.6358C20.5578 22.0711 20.2833 21.3771 20.2833 20.5537C20.2833 20.3715 20.2972 20.1968 20.3248 20.0297C20.3527 19.8627 20.3944 19.7017 20.45 19.5468L17.6981 17.8899C17.4924 18.1441 17.2502 18.3583 16.9715 18.5327C16.6927 18.707 16.3819 18.8283 16.0393 18.8965V22.2023C16.7019 22.3248 17.2579 22.655 17.7074 23.193C18.1566 23.7311 18.3813 24.3569 18.3813 25.0706C18.3813 25.8942 18.0979 26.5884 17.5311 27.153C16.9643 27.7177 16.286 28 15.4961 28ZM15.5095 26.9235C16.0134 26.9235 16.4433 26.7468 16.799 26.3935C17.1549 26.0403 17.3328 25.6026 17.3328 25.0804C17.3328 24.5582 17.1574 24.1164 16.8067 23.755C16.4558 23.3939 16.0211 23.2133 15.5026 23.2133C14.9962 23.2133 14.5687 23.3975 14.2202 23.7658C13.8716 24.1344 13.6973 24.5698 13.6973 25.0722C13.6973 25.5792 13.8755 26.0145 14.232 26.3779C14.5885 26.7416 15.0143 26.9235 15.5095 26.9235ZM7.87802 22.4062C8.38097 22.4062 8.80926 22.2296 9.16288 21.8762C9.5165 21.5231 9.69331 21.0854 9.69331 20.5632C9.69331 20.041 9.51898 19.5992 9.17032 19.2378C8.82186 18.8766 8.38996 18.696 7.87461 18.696C7.37124 18.696 6.94264 18.878 6.58881 19.2419C6.23498 19.606 6.05807 20.0437 6.05807 20.5549C6.05807 21.0664 6.2356 21.5028 6.59067 21.8642C6.94574 22.2255 7.37485 22.4062 7.87802 22.4062ZM23.1359 22.4062C23.6389 22.4062 24.0672 22.2296 24.4208 21.8762C24.7744 21.5231 24.9512 21.0854 24.9512 20.5632C24.9512 20.041 24.777 19.5992 24.4285 19.2378C24.0799 18.8766 23.6479 18.696 23.1325 18.696C22.6291 18.696 22.2032 18.878 21.8548 19.2419C21.5061 19.606 21.3318 20.0437 21.3318 20.5549C21.3318 21.0664 21.5067 21.5028 21.8566 21.8642C22.2065 22.2255 22.633 22.4062 23.1359 22.4062ZM15.5095 17.8646C16.0134 17.8646 16.4433 17.6857 16.799 17.3279C17.1549 16.9701 17.3328 16.5317 17.3328 16.0127C17.3328 15.4938 17.1574 15.0545 16.8067 14.6946C16.4558 14.3345 16.0211 14.1544 15.5026 14.1544C14.9962 14.1544 14.5687 14.3365 14.2202 14.7006C13.8716 15.0645 13.6973 15.5022 13.6973 16.0136C13.6973 16.5249 13.8755 16.9612 14.232 17.3225C14.5885 17.6839 15.0143 17.8646 15.5095 17.8646ZM7.85602 13.3508C8.36145 13.3508 8.79243 13.1741 9.14894 12.8208C9.50545 12.4677 9.68371 12.03 9.68371 11.5078C9.68371 10.9855 9.50618 10.5465 9.15111 10.1906C8.79584 9.83472 8.36207 9.65678 7.84982 9.65678C7.34975 9.65678 6.92456 9.83947 6.57425 10.2049C6.22373 10.5702 6.04847 11.0018 6.04847 11.4995C6.04847 12.0065 6.22342 12.4419 6.57332 12.8056C6.92301 13.1691 7.35058 13.3508 7.85602 13.3508ZM23.1359 13.3508C23.6389 13.3508 24.0672 13.1741 24.4208 12.8208C24.7744 12.4677 24.9512 12.03 24.9512 11.5078C24.9512 10.9855 24.777 10.5465 24.4285 10.1906C24.0799 9.83472 23.6479 9.65678 23.1325 9.65678C22.6291 9.65678 22.2032 9.83947 21.8548 10.2049C21.5061 10.5702 21.3318 11.0018 21.3318 11.4995C21.3318 12.0065 21.5067 12.4419 21.8566 12.8056C22.2065 13.1691 22.633 13.3508 23.1359 13.3508ZM15.5095 8.76549C16.0134 8.76549 16.4433 8.58976 16.799 8.23831C17.1549 7.88686 17.3328 7.4514 17.3328 6.93193C17.3328 6.40338 17.1574 5.96116 16.8067 5.60528C16.4558 5.24939 16.0211 5.07145 15.5026 5.07145C14.9962 5.07145 14.5687 5.2534 14.2202 5.61731C13.8716 5.98143 13.6973 6.41646 13.6973 6.92243C13.6973 7.42839 13.8755 7.86206 14.232 8.22343C14.5885 8.5848 15.0143 8.76549 15.5095 8.76549Z" fill="#464C53"/>
</svg>
