<svg width="32" height="32" viewBox="0 0 32 32" fill="none" xmlns="http://www.w3.org/2000/svg">
<path d="M5.09548 10.497H17.3303H16.1966H16.6846H5.09548ZM5.59323 9.42465H23.0724L21.3264 7.3404C21.2434 7.25909 21.1479 7.19404 21.04 7.14525C20.9322 7.09667 20.8202 7.07238 20.7041 7.07238H7.96478C7.8487 7.07238 7.73392 7.09667 7.62044 7.14525C7.50717 7.19404 7.4145 7.25909 7.34244 7.3404L5.59323 9.42465ZM11.5681 17.5561L14.3561 16.1913L17.1442 17.5561V10.497H11.5681V17.5561ZM17.2837 26.2755H5.89193C5.38017 26.2755 4.93691 26.092 4.56214 25.7252C4.18738 25.3583 4 24.9244 4 24.4234V10.3206C4 10.1182 4.03495 9.91591 4.10486 9.71358C4.17498 9.51146 4.27994 9.32687 4.41975 9.1598L6.46282 6.69127C6.62938 6.48197 6.842 6.31438 7.10069 6.1885C7.35959 6.06283 7.63899 6 7.93889 6H20.7187C21.0186 6 21.301 6.06283 21.5659 6.1885C21.8309 6.31438 22.0487 6.48197 22.2193 6.69127L24.2925 9.20859C24.4323 9.38241 24.5373 9.57197 24.6074 9.77726C24.6773 9.98254 24.7123 10.188 24.7123 10.3938V15.5504C24.5623 15.5064 24.4072 15.4756 24.2469 15.4579C24.0864 15.4399 23.9262 15.4277 23.7663 15.4211H23.6168V10.497H18.2397V17.7129C18.083 17.8514 17.914 18.0302 17.7325 18.2492C17.5511 18.4685 17.417 18.6676 17.3303 18.8467L14.3561 17.4034L10.4726 19.3042V10.497H5.09548V24.4234C5.09548 24.6509 5.17013 24.8377 5.31944 24.9839C5.46874 25.13 5.65957 25.2031 5.89193 25.2031H16.6846C16.7619 25.3987 16.853 25.5864 16.9581 25.7664C17.0634 25.9463 17.1719 26.116 17.2837 26.2755ZM23.021 27V23.1983H19.1374V22.1263H23.021V18.3246H24.1165V22.1263H28V23.1983H24.1165V27H23.021Z" fill="#464C53"/>
</svg>
