<svg width="16" height="16" viewBox="0 0 16 16" fill="none" xmlns="http://www.w3.org/2000/svg">
<path d="M8 14C6.82417 14 5.87548 13.8683 5.15393 13.6049C4.43226 13.3415 4.07143 12.9937 4.07143 12.5617C4.07143 12.322 4.20583 12.0972 4.47464 11.8874C4.74333 11.6778 5.11946 11.4978 5.60304 11.3474L6.07554 11.7434C5.80542 11.8283 5.52566 11.9456 5.23625 12.0955C4.94685 12.2453 4.73988 12.402 4.61536 12.5658C4.63738 12.7733 4.995 12.9712 5.68821 13.1595C6.38143 13.3477 7.15202 13.4419 8 13.4419C8.88643 13.4419 9.6703 13.3477 10.3516 13.1595C11.0329 12.9712 11.3727 12.7559 11.3709 12.5134C11.262 12.3819 11.0507 12.2413 10.737 12.0915C10.4233 11.9416 10.1314 11.8242 9.86125 11.7392L10.3475 11.3394C10.864 11.4808 11.2567 11.6622 11.5254 11.8834C11.7942 12.1048 11.9286 12.3309 11.9286 12.5617C11.9286 12.9937 11.5677 13.3415 10.8461 13.6049C10.1245 13.8683 9.17583 14 8 14ZM8 11.907C6.65476 10.9106 5.65179 9.92424 4.99107 8.94797C4.33036 7.97157 4 7.02855 4 6.1189C4 5.44994 4.11994 4.85983 4.35982 4.34855C4.59982 3.83738 4.91393 3.40872 5.30214 3.06256C5.69048 2.7164 6.12089 2.45279 6.59339 2.27174C7.06589 2.09058 7.53476 2 8 2C8.46524 2 8.93411 2.09058 9.40661 2.27174C9.87911 2.45279 10.3095 2.7164 10.6979 3.06256C11.0861 3.40872 11.4002 3.83738 11.6402 4.34855C11.8801 4.85983 12 5.44994 12 6.1189C12 7.02855 11.6696 7.97157 11.0089 8.94797C10.3482 9.92424 9.34524 10.9106 8 11.907ZM8 7.01523C8.28393 7.01523 8.52339 6.92221 8.71839 6.73616C8.91351 6.55012 9.01107 6.31395 9.01107 6.02767C9.01107 5.75046 8.91351 5.51657 8.71839 5.32599C8.52339 5.13552 8.28393 5.04029 8 5.04029C7.72524 5.04029 7.48804 5.13843 7.28839 5.33471C7.08875 5.5311 6.98893 5.76209 6.98893 6.02767C6.98893 6.30233 7.08875 6.53558 7.28839 6.72744C7.48804 6.9193 7.72524 7.01523 8 7.01523Z" fill="#B1B8BE"/>
</svg>
