<svg width="16" height="16" viewBox="0 0 16 16" fill="none" xmlns="http://www.w3.org/2000/svg">
<path d="M2 14V3.04356C2 2.74105 2.09302 2.49149 2.27907 2.29489C2.46512 2.0983 2.70128 2 2.98756 2H13.0124C13.2987 2 13.5349 2.0983 13.7209 2.29489C13.907 2.49149 14 2.74105 14 3.04356V10.9829C14 11.2854 13.907 11.5349 13.7209 11.7315C13.5349 11.9281 13.2987 12.0264 13.0124 12.0264H3.86767L2 14ZM6.3725 9.46305L8 8.44511L9.6275 9.46305L9.18465 7.54623L10.6123 6.26749L8.73797 6.07895L8 4.29115L7.26204 6.07895L5.38773 6.26749L6.81535 7.54623L6.3725 9.46305Z" fill="#B1B8BE"/>
</svg>
