<svg width="12" height="12" viewBox="0 0 12 12" fill="none" xmlns="http://www.w3.org/2000/svg">
<path d="M10.2 12C9.7 12 9.275 11.825 8.925 11.475C8.575 11.125 8.4 10.7 8.4 10.2C8.4 10.06 8.415 9.925 8.445 9.795C8.475 9.665 8.52 9.54 8.58 9.42L2.58 3.42C2.46 3.48 2.335 3.525 2.205 3.555C2.075 3.585 1.94 3.6 1.8 3.6C1.3 3.6 0.875 3.425 0.525 3.075C0.175 2.725 0 2.3 0 1.8C0 1.3 0.175 0.875 0.525 0.525C0.875 0.175 1.3 0 1.8 0C2.3 0 2.725 0.175 3.075 0.525C3.425 0.875 3.6 1.3 3.6 1.8C3.6 1.94 3.585 2.075 3.555 2.205C3.525 2.335 3.48 2.46 3.42 2.58L9.42 8.58C9.54 8.52 9.665 8.475 9.795 8.445C9.925 8.415 10.06 8.4 10.2 8.4C10.7 8.4 11.125 8.575 11.475 8.925C11.825 9.275 12 9.7 12 10.2C12 10.7 11.825 11.125 11.475 11.475C11.125 11.825 10.7 12 10.2 12Z" fill="#58616A"/>
</svg>
