<svg width="24" height="24" viewBox="0 0 24 24" fill="none" xmlns="http://www.w3.org/2000/svg">
<path d="M7 22C6.45 22 5.97917 21.8042 5.5875 21.4125C5.19583 21.0208 5 20.55 5 20V10C5 9.45 5.19583 8.97917 5.5875 8.5875C5.97917 8.19583 6.45 8 7 8H17C17.55 8 18.0208 8.19583 18.4125 8.5875C18.8042 8.97917 19 9.45 19 10V20C19 20.55 18.8042 21.0208 18.4125 21.4125C18.0208 21.8042 17.55 22 17 22H7ZM11 19H13V18H11V19ZM11 17H13C13 16.6833 13.0792 16.3958 13.2375 16.1375C13.3958 15.8792 13.5667 15.625 13.75 15.375C13.95 15.0917 14.125 14.7875 14.275 14.4625C14.425 14.1375 14.5 13.8 14.5 13.45C14.5 12.7667 14.2583 12.1875 13.775 11.7125C13.2917 11.2375 12.7 11 12 11C11.3 11 10.7083 11.2375 10.225 11.7125C9.74167 12.1875 9.5 12.7667 9.5 13.45C9.5 13.8 9.57917 14.1333 9.7375 14.45C9.89583 14.7667 10.0667 15.0667 10.25 15.35C10.4333 15.6167 10.6042 15.8792 10.7625 16.1375C10.9208 16.3958 11 16.6833 11 17ZM6 6.5C6 6.08333 6.14583 5.72917 6.4375 5.4375C6.72917 5.14583 7.08333 5 7.5 5H16.5C16.9167 5 17.2708 5.14583 17.5625 5.4375C17.8542 5.72917 18 6.08333 18 6.5H6ZM7 3.5C7 3.08333 7.14583 2.72917 7.4375 2.4375C7.72917 2.14583 8.08333 2 8.5 2H15.5C15.9167 2 16.2708 2.14583 16.5625 2.4375C16.8542 2.72917 17 3.08333 17 3.5H7Z" fill="#6D7882"/>
</svg>
