<svg width="24" height="24" viewBox="0 0 24 24" fill="none" xmlns="http://www.w3.org/2000/svg">
<path d="M6 17V8.38L10.2 5V7.6L13.2 5V8H18V17H6ZM9 14H11V11H9V14ZM13 14H15V11H13V14ZM18 7H15L15.615 1H17.4L18 7Z" fill="#6D7882"/>
<path d="M20 12.8389C20.5252 13.1384 20.9923 13.4713 21.4004 13.8379C22.4668 14.7961 22.9999 15.8502 23 17C23 18.6833 21.9417 20.1044 19.8252 21.2627C17.7085 22.421 15.1 23 12 23C8.9 23 6.29147 22.421 4.1748 21.2627C2.05829 20.1044 1 18.6833 1 17C1.00012 15.8502 1.53321 14.7961 2.59961 13.8379C3.00769 13.4713 3.47484 13.1384 4 12.8389V15.2529C3.33466 15.8283 3.00015 16.4093 3 17C3 18.0667 3.9002 19.0008 5.7002 19.8008C7.50013 20.6007 9.60014 21 12 21C14.3999 21 16.4999 20.6007 18.2998 19.8008C20.0998 19.0008 21 18.0667 21 17C20.9999 16.4093 20.6653 15.8283 20 15.2529V12.8389Z" fill="#6D7882"/>
</svg>
