<svg width="10" height="10" viewBox="0 0 10 10" fill="none" xmlns="http://www.w3.org/2000/svg">
<path d="M6.15411 4.99891L3.11856 1.73076C3.04218 1.64852 3.00332 1.54731 3.00199 1.42712C3.00066 1.30692 3.03819 1.20567 3.11458 1.12336C3.19096 1.04112 3.28497 1 3.39661 1C3.50825 1 3.6023 1.04112 3.67875 1.12336L6.80789 4.48797C6.87671 4.56215 6.92592 4.6424 6.95551 4.7287C6.98517 4.815 7 4.90507 7 4.99891C7 5.09274 6.98517 5.18281 6.95551 5.26912C6.92592 5.35542 6.87671 5.43566 6.80789 5.50984L3.68274 8.87446C3.60635 8.9567 3.51168 8.99853 3.39871 8.99996C3.28567 9.00139 3.19096 8.96099 3.11458 8.87875C3.03819 8.79652 3 8.6953 3 8.57511C3 8.45491 3.03819 8.35366 3.11458 8.27135L6.15411 4.99891Z" fill="#1B622F"/>
</svg>
