<svg width="20" height="20" viewBox="0 0 20 20" fill="none" xmlns="http://www.w3.org/2000/svg">
<path d="M3.51414 8.35127C3.55458 8.3873 3.59342 8.42454 3.63145 8.46337C4.68924 9.54478 7.62036 10.7571 10.8826 9.8895C14.1609 9.01749 16.2112 6.5592 16.6632 5.03018C16.6792 4.97533 16.6968 4.92127 16.7156 4.86722C16.8061 4.60578 16.8546 4.32832 16.8558 4.04486C16.8674 3.93075 16.8694 3.86749 16.8694 3.86749L16.8498 3.86149C16.8389 3.70014 16.8125 3.53719 16.7697 3.37504C16.4061 2.00896 15.004 1.19581 13.638 1.55935C12.9061 1.75393 12.3336 2.24719 12.0149 2.87297C11.8779 3.14242 11.7198 3.40106 11.5252 3.63248C11.086 4.15456 10.4642 4.70107 9.67908 4.90966C9.04129 5.07942 8.42912 5.03458 7.89942 4.90246C7.45381 4.79115 7.03942 4.58616 6.65947 4.32832C6.03849 3.90713 5.23695 3.75979 4.45622 4.00362C3.18704 4.40039 2.42753 5.73003 2.72901 7.02523C2.85353 7.56013 3.13619 8.01375 3.51414 8.35167V8.35127Z" fill="#D13B29"/>
<path d="M15.4475 2.46069L17.3933 0.909246L15.0771 0L15.4475 2.46069Z" fill="#D13B29"/>
<path d="M3.46469 5.74991L2.53022 3.44336L1 5.40559L3.46469 5.74991Z" fill="#D13B29"/>
<path d="M13.8379 7.6661C13.8163 7.6637 13.2978 7.60444 12.6977 7.25291C12.1459 6.92941 11.4157 6.28641 11.0693 5.06007L11.4545 4.95117C12.0458 7.04712 13.8623 7.26613 13.8804 7.26813L13.8375 7.6661H13.8379Z" fill="#951000"/>
<path d="M11.0044 9.28024C10.9848 9.27063 10.5152 9.04362 10.0652 8.51272C9.65159 8.02507 9.17555 7.17628 9.25482 5.9043L9.65439 5.92912C9.59794 6.83677 9.83496 7.61429 10.359 8.24007C10.7534 8.71091 11.1726 8.9167 11.177 8.9187L11.0044 9.27984V9.28024Z" fill="#951000"/>
<path d="M7.61483 9.57588C7.60041 9.55947 7.25609 9.1671 7.0483 8.50329C6.85732 7.89312 6.74842 6.92622 7.31655 5.78516L7.67488 5.96372C7.2697 6.77768 7.18563 7.58603 7.42505 8.36676C7.60522 8.95411 7.9111 9.30683 7.9143 9.31004L7.61483 9.57548V9.57588Z" fill="#951000"/>
<path d="M3.13487 16.85C3.1661 16.894 3.19573 16.9393 3.22415 16.9853C4.01409 18.2757 6.6005 20.1114 9.97404 19.9937C13.3644 19.8756 15.9116 17.9366 16.6935 16.5469C16.7215 16.4972 16.7507 16.4484 16.7808 16.4C16.9273 16.1653 17.0366 15.9059 17.1011 15.6296C17.1379 15.5211 17.1539 15.4595 17.1539 15.4595L17.1363 15.4495C17.1615 15.2897 17.1727 15.1252 17.1667 14.957C17.1175 13.5441 15.932 12.4387 14.5195 12.4879C13.7624 12.5143 13.0941 12.8671 12.6441 13.406C12.4503 13.6382 12.2385 13.8552 11.9971 14.0374C11.4526 14.4481 10.7247 14.8421 9.91238 14.8705C9.25257 14.8934 8.66602 14.7132 8.17957 14.4662C7.76999 14.2584 7.41205 13.9657 7.09896 13.6298C6.58769 13.0805 5.83939 12.7582 5.02383 12.8214C3.6978 12.9247 2.66083 14.0514 2.66604 15.3814C2.66804 15.9303 2.8422 16.4356 3.13527 16.8496L3.13487 16.85Z" fill="#BF1E2E"/>
<path d="M16.082 13.7725L18.3249 12.6943L16.2698 11.291L16.082 13.7725Z" fill="#BF1E2E"/>
<path d="M3.66756 14.3024L3.27159 11.8457L1.3418 13.4172L3.66756 14.3024Z" fill="#BF1E2E"/>
<path d="M13.3515 18.4872C13.3307 18.4799 12.8387 18.3066 12.3322 17.8297C11.8666 17.3913 11.298 16.6018 11.2344 15.3286L11.6343 15.3086C11.7432 17.4834 13.4649 18.1024 13.4821 18.1084L13.3515 18.4868V18.4872Z" fill="#951000"/>
<path d="M10.2287 19.4271C10.2114 19.4135 9.80467 19.0872 9.48437 18.4694C9.1901 17.9017 8.91544 16.968 9.27658 15.7461L9.66053 15.8598C9.04316 17.9481 10.4629 19.102 10.4773 19.1132L10.2287 19.4271Z" fill="#951000"/>
<path d="M6.85904 18.9588C6.84863 18.9395 6.6008 18.4803 6.54635 17.7869C6.4963 17.1495 6.60641 16.1826 7.41476 15.1973L7.72425 15.4511C7.14731 16.1542 6.88507 16.9233 6.94432 17.7376C6.98876 18.3502 7.20857 18.7622 7.21057 18.7666L6.85904 18.9584V18.9588Z" fill="#951000"/>
</svg>
