<svg width="20" height="20" viewBox="0 0 20 20" fill="none" xmlns="http://www.w3.org/2000/svg">
<g clip-path="url(#clip0_802_3818)">
<path d="M13.5704 6.07975C12.8135 4.69175 11.6512 3.6521 11.3356 3.33654C11.02 3.02098 10.2246 1.83203 10.2246 1.83203L8.48128 1.95818C8.48128 1.95818 7.89298 3.30413 7.13571 5.40697C6.37844 7.50942 6 9.61303 6 12.136V18.9074C6 18.9074 6.12615 20.0007 10.1636 20.0007C14.2011 20.0007 14.1591 18.9074 14.1591 18.9074V10.3699C14.1591 9.40278 14.3269 7.46814 13.57 6.08014L13.5704 6.07975ZM12.1403 9.99147C11.741 9.5922 11.2993 6.45858 11.2993 5.99604C11.2993 5.36492 12.4227 5.86951 12.6962 6.74637C12.8116 7.11555 13.0658 8.35117 13.0658 9.19254C13.0658 10.0339 12.5404 10.3911 12.1407 9.99185L12.1403 9.99147Z" fill="#FFD600"/>
<path d="M14.1591 18.4099V12.0153C11.4887 12.5828 8.65295 12.4802 6.00193 11.9609C6.00116 12.0196 6 12.0767 6 12.1357V18.3717C8.58852 19.1756 11.5871 19.2844 14.1591 18.4095V18.4099Z" fill="#57B947"/>
<path d="M8.00435 16.4072C7.63362 16.156 7.17263 16.234 6.92496 16.6109C6.84781 16.7278 6.81116 16.8593 6.81193 16.987C6.74442 17.2258 6.85398 17.5186 7.05535 17.6741C7.40679 17.9472 7.92565 17.7971 8.18142 17.4738C8.43757 17.1506 8.33804 16.6329 8.00473 16.4072H8.00435Z" fill="#8DC63F"/>
<path d="M13.0808 13.4721C12.915 13.5505 12.7633 13.7213 12.6735 13.8402C12.5462 14.0091 12.5832 14.3633 12.2723 14.3907C12.1642 14.4003 12.0497 14.4007 11.9467 14.447C11.7353 14.5427 11.6234 14.6595 11.5208 14.8659C11.4124 15.0843 11.5605 15.1749 11.2465 15.3937C11.1477 15.4627 10.8627 15.4974 10.7404 15.5468C10.3839 15.6903 10.1737 16.2431 10.3515 16.5556C10.3584 16.5683 10.3689 16.5745 10.3804 16.5772C10.5247 16.8025 10.8279 16.9398 11.0984 16.865C11.2704 16.8172 11.4702 16.7527 11.5856 16.6054C11.8722 16.2397 11.775 15.9847 11.993 15.9226C12.2611 15.8462 12.3807 15.879 12.6796 15.6116C12.9292 15.3886 12.7772 15.0017 13.202 14.8655C13.6904 14.7081 14.0356 14.2564 13.8856 13.8313C13.7694 13.5007 13.4377 13.3028 13.0801 13.4718L13.0808 13.4721Z" fill="#00AD4D"/>
<path d="M13.2156 15.5918C13.032 15.5953 12.8245 15.6906 12.6945 15.7627C12.5093 15.8661 12.4001 16.2067 12.105 16.1045C12.0016 16.0686 11.8971 16.0219 11.7837 16.0223C11.551 16.0235 11.4017 16.0848 11.2243 16.2329C11.0368 16.3892 11.1356 16.5335 10.7598 16.6056C10.6418 16.6284 10.3663 16.5431 10.2348 16.5381C9.85018 16.5238 9.4347 16.9455 9.47097 17.3062C9.47251 17.3208 9.47945 17.3309 9.48871 17.3378C9.5296 17.6047 9.75181 17.8555 10.0299 17.8979C10.207 17.9249 10.4157 17.9477 10.5808 17.8597C10.9913 17.6414 11.0048 17.3667 11.2297 17.3995C11.5063 17.4393 11.602 17.5187 11.9843 17.396C12.3029 17.2938 12.3199 16.8753 12.7643 16.9246C13.2743 16.9813 13.7735 16.7074 13.8082 16.2549C13.8352 15.9035 13.6114 15.5849 13.2156 15.5926V15.5918Z" fill="#8DC63F"/>
<path d="M7.87582 15.226C8.03399 15.3753 8.20566 15.5095 8.36267 15.6592C8.46952 15.761 8.63155 15.599 8.52469 15.4972C8.36729 15.3475 8.19601 15.2132 8.03785 15.064C8.01509 15.0424 7.99001 15.035 7.96571 15.0343C8.03245 14.939 8.10034 14.8441 8.17287 14.7523C8.26391 14.6381 8.10304 14.4749 8.01123 14.5902C7.77436 14.8888 7.58649 15.2217 7.3207 15.4972C7.21847 15.6033 7.38011 15.7657 7.48234 15.6592C7.6216 15.5149 7.73887 15.3556 7.85268 15.1936C7.85846 15.2048 7.86464 15.2156 7.87544 15.2256L7.87582 15.226Z" fill="white"/>
<path d="M8.74813 14.6027C8.74736 14.9908 8.70762 15.3758 8.70801 15.7643C8.70801 15.912 8.93716 15.912 8.93677 15.7643C8.93677 15.3758 8.97612 14.9904 8.97728 14.6027C8.97728 14.4553 8.74852 14.4553 8.74813 14.6027Z" fill="white"/>
<path d="M8.83634 16.0829C8.46716 16.0813 8.09914 16.0582 7.72995 16.0566C7.5822 16.0559 7.5822 16.285 7.72995 16.2858C8.06017 16.2869 8.39001 16.3043 8.72023 16.3093C8.71714 16.5018 8.70827 16.6974 8.67162 16.8853C8.64346 17.0296 8.86373 17.0909 8.89228 16.9458C8.94012 16.7009 8.94899 16.4463 8.95092 16.1971C8.9513 16.1346 8.89845 16.0829 8.83673 16.0825L8.83634 16.0829Z" fill="white"/>
<path d="M10.7924 15.878C10.6431 15.8788 10.4938 15.8858 10.3445 15.8908C10.3457 15.8838 10.3484 15.8784 10.3484 15.8711C10.3468 15.7534 10.3711 15.6242 10.3985 15.5104C10.4047 15.4846 10.4008 15.4622 10.3927 15.4425C10.6057 15.2982 10.7314 15.0324 10.6589 14.7724C10.5733 14.4634 10.1628 14.4735 9.91284 14.475C9.9059 14.475 9.90088 14.4777 9.89471 14.4789C9.89008 14.4792 9.88661 14.4781 9.88237 14.4789C9.87619 14.48 9.87118 14.4831 9.86501 14.485C9.86462 14.485 9.86423 14.485 9.86423 14.485C9.52244 14.5734 9.29831 14.9522 9.37623 15.2959C9.40555 15.4252 9.50045 15.4946 9.61657 15.5309C9.61155 15.544 9.60847 15.5582 9.60924 15.5748C9.6131 15.6929 9.6455 15.8036 9.69257 15.9097C9.59458 15.9124 9.49698 15.9174 9.39861 15.9182C9.25124 15.9189 9.25124 16.1481 9.39861 16.1469C9.86346 16.1442 10.3275 16.1095 10.7924 16.1064C10.9401 16.1057 10.9401 15.8765 10.7924 15.8777V15.878ZM9.63586 14.9553C9.69218 14.8268 9.79865 14.7369 9.93213 14.7038C10.0629 14.7026 10.1914 14.7003 10.3183 14.7369C10.6188 14.8241 10.3719 15.1968 10.208 15.2855C10.0625 15.365 9.79017 15.3681 9.6455 15.2917C9.53324 15.2327 9.59882 15.0394 9.63586 14.9557V14.9553ZM9.91709 15.8537C9.87349 15.7662 9.84147 15.6728 9.83839 15.5744C9.83839 15.5706 9.83646 15.5683 9.83607 15.5648C9.94563 15.5683 10.0544 15.5571 10.1362 15.5447C10.1447 15.5436 10.152 15.5401 10.1605 15.5382C10.1374 15.6477 10.1185 15.7627 10.12 15.8707C10.12 15.8807 10.1235 15.8881 10.1258 15.897C10.0606 15.8997 9.9954 15.9 9.9302 15.9024C9.92982 15.8865 9.92557 15.8703 9.91747 15.8534L9.91709 15.8537Z" fill="white"/>
<path d="M10.0481 16.2441C10.0403 16.2441 10.0346 16.2468 10.0276 16.248C10.0241 16.2484 10.021 16.2472 10.018 16.248C9.79962 16.2897 9.44818 16.4756 9.53228 16.7545C9.61252 17.0219 9.93039 17.1237 10.1858 17.067C10.4419 17.0099 10.6988 16.7865 10.6564 16.5061C10.619 16.2596 10.2313 16.2449 10.0481 16.2441ZM10.1599 16.8386C10.0403 16.8776 9.84591 16.8471 9.7703 16.7402C9.66961 16.5983 9.94891 16.4991 10.0592 16.4737C10.1657 16.4744 10.2687 16.4818 10.3706 16.515C10.5858 16.5848 10.2425 16.8116 10.1595 16.8386H10.1599Z" fill="white"/>
<path d="M12.3128 15.5618C12.6199 15.4017 12.6615 14.7907 12.3537 14.6178C12.1758 14.5183 11.7808 14.4759 11.5609 14.5993C11.5463 14.6067 11.532 14.6144 11.5181 14.6229C11.5162 14.624 11.5142 14.6256 11.5123 14.6271C11.2488 14.793 11.1462 15.1791 11.2955 15.4569C11.466 15.7752 12.0562 15.6953 12.3128 15.5618ZM12.155 14.7903C12.4054 14.8427 12.3745 15.2347 12.197 15.3635C12.0335 15.4827 11.6936 15.4719 11.5274 15.3732C11.4197 15.3091 11.449 15.1282 11.476 15.0314C11.493 14.9708 11.5243 14.9172 11.5652 14.874C11.5933 14.869 11.6203 14.8528 11.6392 14.8204C11.6419 14.8154 11.6481 14.8127 11.652 14.8084C11.677 14.7953 11.7036 14.7837 11.733 14.7775C11.7496 14.7737 11.7623 14.7671 11.7739 14.759C11.9046 14.7432 12.0863 14.7752 12.155 14.7899V14.7903Z" fill="white"/>
<path d="M12.7201 15.8621C12.2013 15.8737 11.682 15.8594 11.1635 15.8722C11.0158 15.8756 11.0158 16.1048 11.1635 16.1009C11.3028 16.0975 11.4425 16.0986 11.5817 16.0978C11.5817 16.1002 11.5806 16.1017 11.5806 16.1044C11.5887 16.3706 11.5898 16.6371 11.5983 16.9033C11.6029 17.0507 11.8317 17.0515 11.8271 16.9033C11.8186 16.6371 11.8174 16.3706 11.8097 16.1044C11.8097 16.1013 11.8082 16.0994 11.8078 16.0963C11.9386 16.0963 12.0697 16.094 12.2009 16.0936C12.2028 16.3756 12.1754 16.6576 12.1974 16.9388C12.209 17.085 12.4381 17.0862 12.4266 16.9388C12.405 16.6572 12.432 16.3744 12.43 16.0924C12.5269 16.0917 12.6237 16.0928 12.7205 16.0905C12.8679 16.087 12.8679 15.8583 12.7205 15.8614L12.7201 15.8621Z" fill="white"/>
<path d="M11.0607 0.670909C10.8006 -0.102947 9.4003 -0.0365949 8.86447 0.0509751C7.84565 0.217628 7.9525 1.47871 8.04393 2.32278C8.01153 2.43157 8.23875 2.75021 8.3892 2.81155C8.99524 3.05806 9.86708 3.13367 10.7146 2.84396C11.0479 2.72977 11.134 2.57237 11.1552 2.18622C11.181 1.7175 11.21 1.1157 11.0607 0.670909Z" fill="#EEA814"/>
<path d="M8.44819 0.430434C8.65419 0.013802 9.57039 0.0546937 9.96272 0.104844C10.1305 0.126447 10.8662 0.278826 10.5931 0.554653C10.4195 0.729407 9.95231 0.747538 9.7193 0.757568C9.47434 0.768369 9.2367 0.759497 8.99829 0.709347C8.92886 0.695073 8.40768 0.592458 8.44857 0.430434" fill="#CE6B18"/>
<path d="M14.1591 13.0646V12.0153C11.4887 12.5828 8.65295 12.4802 6.00193 11.9609C6.00116 12.0196 6 12.0767 6 12.1357V13.0974C8.71968 13.688 11.4394 13.5569 14.1591 13.0646Z" fill="#ABD037"/>
<path d="M6 17.7942V18.3717C8.58852 19.1756 11.5871 19.2844 14.1591 18.4095V17.6738C11.4814 18.2941 8.74437 18.5256 6 17.7942Z" fill="#ABD037"/>
</g>
<defs>
<clipPath id="clip0_802_3818">
<rect width="20" height="20" fill="white"/>
</clipPath>
</defs>
</svg>
