<svg width="20" height="20" viewBox="0 0 20 20" fill="none" xmlns="http://www.w3.org/2000/svg">
<path d="M19.4137 7.54399H0.585559C0.304309 7.54399 0.0636845 7.34399 0.0105595 7.06743C-0.0425655 6.79087 0.108997 6.51587 0.369934 6.41274L11.3059 2.06899C11.3606 2.04712 11.4184 2.03305 11.4777 2.02837C14.5965 1.79243 16.7309 3.07368 17.9731 4.1893C19.3137 5.39399 19.9184 6.65337 19.9434 6.70649C20.0293 6.88774 20.0152 7.10024 19.909 7.27055C19.8012 7.4393 19.6152 7.54243 19.4137 7.54243V7.54399Z" fill="#FBF278"/>
<path d="M18.2422 18.1148H10.7047C10.5344 18.1148 10.3719 18.0414 10.2609 17.9117C10.15 17.7836 10.1 17.6117 10.125 17.443C10.1328 17.3867 10.1375 17.3289 10.1375 17.2727C10.1375 16.6367 9.62031 16.1195 8.98438 16.1195C8.34844 16.1195 7.83125 16.6367 7.83125 17.2727C7.83125 17.3289 7.83594 17.3852 7.84375 17.443C7.86875 17.6117 7.81875 17.782 7.70781 17.9117C7.59688 18.0414 7.43438 18.1148 7.26406 18.1148H1.75781C0.789062 18.1148 0 17.3258 0 16.357V12.9852C0 12.6617 0.2625 12.3992 0.585938 12.3992C1.00156 12.3992 1.33906 12.0617 1.33906 11.6461C1.33906 11.2305 1.00156 10.893 0.585938 10.893C0.2625 10.893 0 10.6305 0 10.307V6.95703C0 6.63359 0.2625 6.37109 0.585938 6.37109H19.4141C19.7375 6.37109 20 6.63359 20 6.95703V16.3555C20 17.3242 19.2109 18.1133 18.2422 18.1133V18.1148Z" fill="#EFC55A"/>
<path d="M5.85762 13.0727C4.77012 13.0727 3.88574 12.1883 3.88574 11.1008C3.88574 10.0133 4.77012 9.12891 5.85762 9.12891C6.94512 9.12891 7.82949 10.0133 7.82949 11.1008C7.82949 12.1883 6.94512 13.0727 5.85762 13.0727ZM5.85762 10.3008C5.41699 10.3008 5.05762 10.6602 5.05762 11.1008C5.05762 11.5414 5.41699 11.9008 5.85762 11.9008C6.29824 11.9008 6.65762 11.5414 6.65762 11.1008C6.65762 10.6602 6.29824 10.3008 5.85762 10.3008Z" fill="#EAAC4B"/>
<path d="M15.8605 15.768C14.7996 15.768 13.9355 14.9039 13.9355 13.843C13.9355 12.782 14.798 11.918 15.8605 11.918C16.923 11.918 17.784 12.7805 17.784 13.843C17.784 14.9055 16.9215 15.768 15.8605 15.768ZM15.8605 13.0914C15.4465 13.0914 15.1074 13.4289 15.1074 13.843C15.1074 14.257 15.4449 14.5961 15.8605 14.5961C16.2762 14.5961 16.6121 14.2586 16.6121 13.843C16.6121 13.4273 16.2746 13.0914 15.8605 13.0914Z" fill="#EAAC4B"/>
<path d="M16.6405 9.2262C16.2311 9.23089 15.9358 8.79339 16.0999 8.41683C16.2733 7.98714 16.8749 7.92777 17.128 8.31527C17.3889 8.69808 17.1045 9.22933 16.6405 9.2262Z" fill="#EAAC4B"/>
<path d="M10.3905 10.7894C9.95303 10.7941 9.66396 10.3113 9.87334 9.92692C10.0999 9.49255 10.7468 9.52536 10.9312 9.97849C11.0952 10.355 10.7999 10.7941 10.3905 10.7879V10.7894Z" fill="#EAAC4B"/>
<path d="M3.25429 15.4183C2.84335 15.423 2.55116 14.9855 2.71366 14.6074C2.89804 14.1543 3.54335 14.1215 3.77147 14.5558C3.98241 14.9402 3.69179 15.4215 3.25585 15.4183H3.25429Z" fill="#EAAC4B"/>
</svg>
