<svg width="20" height="20" viewBox="0 0 20 20" fill="none" xmlns="http://www.w3.org/2000/svg">
<g clip-path="url(#clip0_802_4541)">
<path d="M3.911 2.63475L3.09061 2.18788C3.10395 2.16544 3.1094 2.13694 3.10031 2.1042C2.99602 1.72645 2.89112 1.34808 2.78683 0.97033C2.70315 0.668368 2.62978 0.306379 2.32358 0.150547C2.06527 0.0189698 1.74694 0.0589888 1.50137 0.199661C1.22791 0.356706 1.04843 0.638051 0.912606 0.913939C0.600943 1.54636 0.348096 2.22426 0.181957 2.90943C0.014605 3.59582 -0.055125 4.30949 0.0491669 5.01103C0.102525 5.36817 0.211668 5.70591 0.337788 6.04243C0.462696 6.37531 0.598518 6.71669 0.622166 7.07504C0.668854 7.78992 0.283217 8.45994 0.363861 9.17785C0.402668 9.52408 0.525756 9.85029 0.607007 10.1874C0.647632 10.3566 0.676737 10.5282 0.671886 10.7028C0.667035 10.8781 0.625804 11.049 0.578509 11.2176C0.485131 11.5487 0.365074 11.8828 0.393572 12.232C0.418433 12.537 0.536671 12.8208 0.690683 13.0827C0.851972 13.3568 1.04722 13.609 1.22063 13.8752C1.41163 14.1687 1.55837 14.4828 1.67175 14.8133C1.78878 15.1552 1.87609 15.5063 1.96462 15.8568C2.06224 16.243 2.15986 16.6287 2.25688 17.0149C2.30417 17.2023 2.35147 17.3896 2.39877 17.5776C2.43151 17.7061 2.61099 17.6698 2.62008 17.5479C2.76379 15.593 2.89961 13.6375 3.05241 11.6833C3.12881 10.7125 3.21612 9.74297 3.34164 8.77706C3.46594 7.81963 3.63875 6.86949 3.79155 5.91631C3.96254 4.84853 4.10624 3.77287 4.12261 2.68993C4.12443 2.56563 3.96011 2.54805 3.911 2.63597V2.63475Z" fill="#32953C"/>
<path d="M2.6158 1.83945C2.59155 1.65148 2.56487 1.50353 2.53516 1.41016C2.53516 1.41016 2.56729 1.57326 2.6158 1.83945Z" fill="#88BE69"/>
<path d="M2.84042 13.563C2.84042 13.4084 2.87195 13.264 2.92895 13.1337C2.92046 13.0409 2.91197 12.9493 2.90348 12.8578C3.69476 12.0435 4.7492 9.29974 4.7492 9.29974C3.69416 11.2855 2.86892 12.3933 2.8671 12.3958C2.79252 11.3631 2.7719 10.4312 2.7719 9.71691C3.06174 9.2858 3.76328 8.21377 4.25018 7.46857C3.65838 8.24045 2.77615 9.22577 2.77554 9.22637C2.78342 8.64489 2.80282 8.29866 2.80282 8.29866C2.84891 8.05976 2.88893 7.83359 2.92288 7.61834C3.01626 7.03139 3.06659 6.53116 3.0872 6.1055C3.38795 5.40638 5.34464 3.11075 5.34464 3.11075C4.71161 3.6983 3.09751 5.53372 3.09751 5.53372C3.08174 4.50777 2.76826 2.67054 2.61668 1.83984C2.78463 3.14895 2.82465 6.4299 2.74401 7.31335C2.22861 6.34258 1.24512 3.92689 1.24512 3.92689C1.5398 5.53553 2.57666 7.59409 2.57666 7.59409L2.68519 7.89362C2.67185 8.01489 2.66336 8.08401 2.66336 8.08401C2.57544 8.87712 2.52694 9.63384 2.50814 10.3518C2.23771 8.99475 1.44764 7.68625 1.44764 7.68625C1.69685 8.71765 2.27045 10.2638 2.49965 10.8659C2.49359 11.7645 2.53421 12.5971 2.60334 13.3544L1.61863 11.8446C2.17283 13.1385 2.63608 13.6867 2.63972 13.7212C2.68944 14.1851 2.74947 14.618 2.81495 15.0188C2.85012 14.5337 2.84284 14.0535 2.84102 13.5624L2.84042 13.563ZM2.90348 12.8572C2.89014 12.705 2.87862 12.554 2.8677 12.4055L2.90348 12.8572ZM2.77433 9.2288L2.77129 9.70903C2.77129 9.53561 2.77251 9.37432 2.77433 9.2288Z" fill="#88BE69"/>
<path d="M7.6463 4.90776C7.52382 4.57609 7.34373 4.27716 7.16486 3.97399C6.99629 3.68779 6.82894 3.38826 6.77922 3.05477C6.72222 2.67155 6.85077 2.29137 6.87139 1.91059C6.892 1.53283 6.82712 1.14538 6.67917 0.796726C6.5579 0.51053 6.36327 0.232823 6.07404 0.0970007C5.83756 -0.0139609 5.54409 -0.0388212 5.30216 0.0703214C5.21666 0.108521 5.14269 0.166731 5.0863 0.239493C4.89894 0.301946 4.75644 0.465054 4.66731 0.643927C4.54422 0.89071 4.52724 1.18054 4.38233 1.41641C4.21861 1.6826 3.89907 1.6729 3.62742 1.73899C3.37336 1.80084 3.14235 1.93484 2.95135 2.11189C2.56389 2.47085 2.33772 2.98746 2.2116 3.49194C2.03879 4.18015 1.99817 4.91019 2.07578 5.61477C2.11337 5.95493 2.19826 6.30722 2.14369 6.65041C2.08912 6.98936 1.85992 7.26343 1.71682 7.56781C1.447 8.14142 1.33058 8.77384 1.31845 9.40505C1.29177 10.8045 1.77018 12.1336 2.11459 13.4706C2.29528 14.174 2.41958 14.8852 2.47961 15.6092C2.54024 16.3411 2.54873 17.0753 2.54752 17.809C2.54752 17.9909 2.54631 18.1728 2.54509 18.3553C2.54449 18.4803 2.73731 18.5112 2.76641 18.3851C2.95498 17.5774 3.14295 16.7691 3.33153 15.9615C3.50797 15.2054 3.67351 14.4456 3.86996 13.6944C4.0549 12.9849 4.27743 12.2797 4.6188 11.6285C4.91773 11.0567 5.31489 10.551 5.73266 10.0623C6.52152 9.14007 7.42801 8.21964 7.74635 7.01179C7.92825 6.32237 7.89369 5.57657 7.6469 4.90716L7.6463 4.90776Z" fill="#427436"/>
<path d="M3.4099 9.45499C3.5433 8.21925 3.70458 6.99383 3.89922 5.92544C4.19876 5.48826 5.07311 4.19674 5.62004 3.22295L3.94834 5.65986C4.11023 4.81704 4.29335 4.08518 4.50072 3.54431V3.15625C4.50072 3.15625 4.19997 4.17188 3.85193 5.79993L3.84404 5.83691C3.82949 5.90482 3.81494 5.97395 3.80039 6.04368L3.79311 6.07763C3.744 6.3135 3.69428 6.56029 3.64516 6.81738C3.60757 6.23165 3.46144 4.25798 3.16251 3.64436C3.16251 3.88144 3.56088 5.1002 3.56209 7.25819C3.32622 8.54304 3.10006 10.051 2.95878 11.6633C2.75565 11.2449 2.33484 10.2754 2.37183 9.48834C2.37183 9.48834 2.16446 10.2445 2.94059 11.8743C2.8084 13.4727 2.76111 15.168 2.87025 16.847C2.87025 16.847 3.0085 13.278 3.38201 9.70663C3.85435 8.92141 5.39993 7.25819 5.39993 7.25819C4.51345 7.86393 3.66214 9.07602 3.40869 9.45439L3.4099 9.45499Z" fill="#88BE69"/>
<path d="M16.686 16.6317C16.4889 16.1302 15.8347 16.0405 15.3757 15.9453C14.2709 15.7167 13.1316 15.5021 11.9995 15.6264C11.7206 15.6567 11.4447 15.707 11.1743 15.7804C10.9069 15.8531 10.6437 15.9429 10.3721 15.9968C9.83971 16.1029 9.294 16.0241 8.76163 15.9611C8.22622 15.8974 7.68051 15.8507 7.15299 15.9944C6.8874 16.0666 6.63456 16.1769 6.37625 16.2703C6.11552 16.3643 5.84691 16.431 5.57527 16.4868C5.04593 16.5947 4.48384 16.6572 3.99331 16.8954C3.75319 17.0119 3.56522 17.1853 3.40212 17.3945C3.2281 17.6176 3.06074 17.8468 2.89036 18.0736C2.80365 18.1888 2.71694 18.3046 2.63024 18.4198C2.55384 18.5211 2.72846 18.6569 2.80729 18.5562C3.32572 17.8965 4.14853 17.6067 4.95437 17.4963C5.4164 17.4333 5.88693 17.4145 6.35261 17.4084C6.58787 17.4054 6.82556 17.4096 7.0584 17.4448C7.28517 17.4788 7.50527 17.5424 7.72113 17.62C8.14558 17.7734 8.55365 17.9717 8.99507 18.0766C9.44134 18.1827 9.90702 18.213 10.363 18.1621C10.8244 18.1106 11.2725 17.9493 11.74 17.9566C12.1748 17.9638 12.595 18.0918 13.0139 18.193C13.4451 18.2973 13.8786 18.3677 14.3212 18.304C14.7675 18.2397 15.1883 18.0608 15.5909 17.8656C15.6934 17.8159 15.7947 17.7649 15.8959 17.7134C15.9365 17.6928 15.9535 17.6594 15.9529 17.6249C16.136 17.5145 16.3094 17.3872 16.4695 17.2453C16.5611 17.1641 16.6478 17.0767 16.6927 16.9609C16.7333 16.8554 16.7278 16.7366 16.6866 16.6323L16.686 16.6317Z" fill="#6CB66D"/>
<path d="M15.1858 16.6572C15.1743 16.5996 14.9978 16.6433 14.9742 16.6505C14.5582 16.7706 14.1726 16.8512 13.7379 16.9143C13.545 16.9422 13.3461 16.964 13.1467 16.9816L14.0465 16.4856L12.8247 17.0058C12.7065 17.0131 12.5888 17.0198 12.4724 17.024C11.9194 17.0459 11.3658 17.035 10.8128 17.0083L11.666 16.043L10.6315 16.9992C10.3823 16.9858 10.1337 16.9695 9.88512 16.9513C8.98226 16.8852 8.07941 16.7954 7.17353 16.8058C6.32646 16.8155 5.48485 16.9173 4.67537 17.175C3.95807 17.4036 3.26743 17.7626 2.71687 18.2816C2.65017 18.3447 2.5859 18.4102 2.52345 18.4775C2.46524 18.5399 2.57559 18.5429 2.61561 18.5399C2.69444 18.5332 2.82056 18.509 2.87816 18.4465C3.11949 18.1858 3.39355 17.959 3.6943 17.7705C3.84892 17.6734 3.99384 17.594 4.15634 17.517C4.23638 17.4788 4.31763 17.443 4.39949 17.4091C4.4007 17.4091 4.4007 17.4091 4.40191 17.4085C4.40373 17.4079 4.40555 17.4066 4.40919 17.4054C4.41828 17.4018 4.42738 17.3982 4.43647 17.3945C4.4577 17.386 4.47952 17.3775 4.50075 17.3697C4.5438 17.3533 4.58745 17.3375 4.63111 17.3218C4.80816 17.2593 4.92519 17.2241 5.12104 17.1744C5.16591 17.1629 5.21139 17.152 5.25626 17.1417C5.26353 17.1399 5.26717 17.1392 5.26899 17.1386C5.27081 17.1386 5.27445 17.1374 5.28112 17.1362C5.30719 17.1308 5.33266 17.1253 5.35873 17.1198C5.44604 17.1017 5.53396 17.0853 5.62188 17.0707C5.66736 17.0628 5.71284 17.0562 5.75892 17.0489C5.77832 17.0459 5.79833 17.0434 5.81773 17.0404C5.81955 17.0404 5.81955 17.0404 5.82077 17.0404C5.82258 17.0404 5.8244 17.0404 5.82804 17.0392C5.84138 17.0374 5.85411 17.0356 5.86745 17.0343C5.9772 17.0204 6.08756 17.0089 6.19852 16.9998C6.41377 16.981 6.62963 16.9701 6.84549 16.9664C7.67316 16.9519 8.4984 17.0234 9.32303 17.0871L10.3629 17.7153L9.57406 17.1059C10.335 17.1623 11.0984 17.2029 11.8618 17.192L13.2437 17.899L12.0577 17.1884C12.071 17.1884 12.0837 17.1884 12.0965 17.1878C12.3232 17.1811 12.5494 17.1702 12.7756 17.1532L12.8029 17.1726L12.8477 17.1477C13.4692 17.0986 14.0865 17.0065 14.6922 16.8549C14.7971 16.8288 14.9014 16.8003 15.0057 16.77C15.0439 16.7591 15.1979 16.7197 15.1858 16.6584V16.6572Z" fill="#88BE69"/>
<path d="M19.9882 8.12646C19.9524 7.81298 19.8427 7.50616 19.6414 7.26059C19.4376 7.0126 19.1472 6.85131 18.8319 6.79734C18.1601 6.68274 17.4985 6.97622 16.8625 7.14599C16.1264 7.34245 15.3593 7.41461 14.5996 7.36367C14.2449 7.34002 13.8599 7.2327 13.5233 7.39338C13.3542 7.47403 13.2117 7.605 13.0783 7.73476C12.9406 7.86815 12.8121 8.01065 12.6872 8.15556C12.441 8.44176 12.2082 8.74069 11.9408 9.00869C11.6776 9.27246 11.3793 9.49013 11.0355 9.63748C10.363 9.92549 9.62572 9.99037 8.93085 10.2044C8.2384 10.4178 7.59567 10.7865 7.26097 11.4547C6.91171 12.1508 6.90262 12.9675 6.52607 13.6515C6.32658 14.0135 6.03736 14.3161 5.73661 14.5962C5.42495 14.886 5.10176 15.1637 4.77797 15.4402C4.44873 15.721 4.11463 15.9944 3.77932 16.2679C3.46462 16.525 3.15235 16.7869 2.87707 17.0871C2.61392 17.3739 2.38775 17.6952 2.2398 18.0566C2.18584 18.1888 2.38108 18.2949 2.43808 18.1645L2.55328 18.2294C2.50053 18.3398 2.64848 18.4677 2.73155 18.361C3.20632 17.7504 3.76052 17.2017 4.3796 16.7372C4.97685 16.2897 5.64323 15.8865 6.35023 15.6379C6.67584 15.5233 7.01782 15.4475 7.36465 15.4608C7.72785 15.4748 8.03831 15.6306 8.3724 15.7543C8.70771 15.878 9.06728 15.9217 9.38622 15.727C9.53659 15.6355 9.64876 15.5045 9.73487 15.3523C9.8143 15.211 9.88827 15.0825 10.0296 14.9952C10.2794 14.8418 10.6007 14.8442 10.8833 14.8581C11.2156 14.8751 11.5454 14.9139 11.8789 14.9151C12.5889 14.9182 13.3008 14.8199 13.9848 14.6289C14.6687 14.4379 15.349 14.156 15.9451 13.7673C16.2846 13.546 16.5642 13.2731 16.7788 12.9287C16.9947 12.5813 17.1511 12.1987 17.3943 11.8676C17.8836 11.2031 18.5833 10.7392 19.1442 10.1426C19.6553 9.59806 20.0767 8.90258 19.9888 8.12828L19.9882 8.12646Z" fill="#3DA437"/>
<path d="M12.3994 12.8535C12.8123 12.9154 13.1652 12.9493 13.3289 12.9202C13.3289 12.9202 12.9348 12.8923 12.3994 12.8535Z" fill="#88BE69"/>
<path d="M12.3997 12.8521C11.4381 12.7084 10.1484 12.4143 10.1478 12.4143C10.6601 12.1396 10.9724 11.9886 10.9724 11.9886C11.2034 11.9134 11.4211 11.8382 11.6254 11.7637C12.1839 11.5605 12.6459 11.3623 13.0279 11.1737C13.7853 11.0979 16.7418 11.6964 16.7418 11.6964C15.9208 11.4271 13.533 10.9057 13.533 10.9057C14.7081 10.2314 16.8679 8.41602 16.8679 8.41602C16.3295 8.98234 12.7345 11.05 11.8055 11.4593C12.4046 10.5382 14.0411 8.50636 14.0411 8.50636C12.7769 9.54382 11.4793 11.449 11.4793 11.449L11.2701 11.6897C11.1579 11.7364 11.0931 11.7631 11.0931 11.7631C10.357 12.0711 9.67118 12.3955 9.03391 12.7271C10.0902 11.8328 10.8511 10.5073 10.8511 10.5073C10.0696 11.2252 8.99571 12.4761 8.58036 12.9691C7.7915 13.3996 7.08329 13.838 6.4539 14.2661L7.29672 12.6726C6.43328 13.7846 6.17862 14.4558 6.15012 14.4752C3.74413 16.1657 2.59631 17.6295 2.59631 17.6295L2.48535 18.3134C3.6453 16.7806 5.4128 15.3793 7.03478 14.2879C8.13045 14.5856 11.0415 14.1775 11.0415 14.1775C8.79319 14.2176 7.42406 14.0326 7.42163 14.032C8.2881 13.4663 9.09394 12.9958 9.71848 12.6501C10.2363 12.695 11.5133 12.789 12.4016 12.8533L12.3997 12.8521ZM10.1453 12.4155L9.72393 12.6453C9.87552 12.561 10.0168 12.484 10.1453 12.4155ZM7.03417 14.2867C7.1609 14.2012 7.28702 14.1181 7.41193 14.0363L7.03417 14.2867Z" fill="#88BE69"/>
<path d="M16.0078 8.47769C16.1072 8.13814 16.14 7.7907 16.1763 7.44084C16.2109 7.11098 16.2552 6.76961 16.4134 6.4725C16.5953 6.13052 16.9252 5.90193 17.1683 5.60785C17.4097 5.3168 17.5879 4.96633 17.6771 4.59888C17.7498 4.29632 17.7583 3.95737 17.6073 3.67663C17.4836 3.44622 17.2623 3.25219 17.0028 3.1958C16.9112 3.17579 16.8173 3.17821 16.7281 3.20368C16.5408 3.14244 16.3291 3.18852 16.1509 3.27886C15.9053 3.40377 15.7192 3.62691 15.4621 3.72999C15.1722 3.84641 14.9212 3.64874 14.6635 3.5402C14.4228 3.43833 14.1572 3.40862 13.8983 3.43712C13.3732 3.49472 12.8839 3.77546 12.4825 4.10532C11.9337 4.55583 11.4668 5.11792 11.1097 5.73033C10.9375 6.02623 10.7962 6.35972 10.5482 6.60286C10.3026 6.84298 9.95521 6.92665 9.65931 7.08612C9.10087 7.38627 8.63095 7.82526 8.24592 8.3255C7.39157 9.4339 6.98471 10.7873 6.46568 12.0667C6.19222 12.7397 5.86903 13.3849 5.48643 14.0021C5.09958 14.6261 4.66968 15.2215 4.23129 15.8103C4.12275 15.9564 4.01361 16.1019 3.90447 16.2474C3.82928 16.3475 3.96631 16.4869 4.06454 16.4033C4.69696 15.866 5.32878 15.3294 5.9612 14.7922C6.55299 14.2895 7.13873 13.7778 7.74326 13.2909C8.31383 12.8307 8.9129 12.3971 9.57443 12.0764C10.1553 11.795 10.775 11.6246 11.402 11.4809C12.5843 11.2093 13.8613 11.0092 14.8357 10.2282C15.3923 9.78195 15.8083 9.16286 16.0084 8.47769H16.0078Z" fill="#3B692F"/>
<path d="M9.89742 9.60858C10.7402 8.69482 11.5994 7.80652 12.3913 7.06374C12.8928 6.89033 14.3638 6.37311 15.383 5.91653L12.5896 6.88002C13.2214 6.29914 13.8041 5.82012 14.2928 5.50907L14.5238 5.1974C14.5238 5.1974 13.678 5.83467 12.4295 6.9358L12.4016 6.96066C12.3495 7.00674 12.2967 7.05343 12.2434 7.10073L12.2173 7.12377C12.0378 7.28385 11.8511 7.45302 11.6576 7.63007C11.976 7.13711 13.0334 5.4642 13.1584 4.79297C13.0171 4.98336 12.6114 6.2003 11.3284 7.93446C10.374 8.8264 9.29471 9.90387 8.22147 11.1154C8.30757 10.6582 8.54647 9.62859 9.04428 9.01861C9.04428 9.01861 8.42763 9.50308 8.0814 11.2742C7.02333 12.4802 5.97677 13.8142 5.06543 15.2282C5.06543 15.2282 7.30103 12.442 9.72703 9.79473C10.5741 9.44487 12.8061 9.02831 12.8061 9.02831C11.7334 8.98768 10.3273 9.45457 9.89863 9.60798L9.89742 9.60858Z" fill="#88BE69"/>
<path d="M13.3032 1.615C13.1249 1.35427 12.8848 1.13478 12.5913 1.01229C12.2954 0.887992 11.9631 0.881322 11.6587 0.98137C11.0112 1.1942 10.5637 1.76295 10.081 2.21044C9.52257 2.72765 8.87742 3.15028 8.18255 3.46073C7.85815 3.60564 7.46766 3.69053 7.24513 3.99007C7.13356 4.14044 7.06869 4.32295 7.01108 4.50001C6.95166 4.68191 6.90497 4.86806 6.86253 5.05481C6.77885 5.42287 6.71276 5.79638 6.6018 6.15776C6.49265 6.51369 6.33076 6.84597 6.0955 7.13641C5.63589 7.70516 5.01438 8.10778 4.5002 8.62196C3.98783 9.13432 3.59249 9.76068 3.60826 10.5077C3.62524 11.2863 3.99935 12.0121 3.98601 12.793C3.97874 13.2066 3.86474 13.6092 3.73013 13.9966C3.59067 14.3986 3.43484 14.7952 3.2778 15.1905C3.11833 15.5925 2.95037 15.9903 2.78241 16.3887C2.62476 16.7628 2.47075 17.1405 2.36828 17.5341C2.27005 17.9106 2.21972 18.3011 2.25792 18.6892C2.27187 18.831 2.4944 18.8335 2.48348 18.6922L2.61567 18.6958C2.62052 18.8177 2.81152 18.862 2.83516 18.7286C2.96917 17.967 3.20201 17.2224 3.53246 16.5227C3.8514 15.8478 4.25159 15.1796 4.76032 14.6297C4.99498 14.3762 5.26116 14.1494 5.57404 13.9991C5.90147 13.8414 6.24951 13.8341 6.6024 13.7868C6.95651 13.7395 7.29485 13.6098 7.48585 13.2884C7.5762 13.1368 7.6144 12.9689 7.61864 12.7942C7.62289 12.6323 7.62774 12.4838 7.71202 12.3407C7.86118 12.0878 8.14617 11.9399 8.40265 11.8204C8.70461 11.6798 9.01385 11.5603 9.30975 11.4057C9.93853 11.0758 10.5218 10.6563 11.0372 10.1681C11.5526 9.67943 12.0219 9.11189 12.367 8.48978C12.5634 8.13567 12.6835 7.76337 12.7114 7.35894C12.7399 6.95086 12.6986 6.53915 12.7593 6.1329C12.8811 5.31676 13.2825 4.57944 13.499 3.78937C13.6961 3.06903 13.7434 2.25713 13.3032 1.61379V1.615Z" fill="#3DA437"/>
<path d="M8.80566 9.34078C9.19979 9.20193 9.52722 9.06732 9.6588 8.96484C9.6588 8.96484 9.29741 9.12431 8.80566 9.34078Z" fill="#88BE69"/>
<path d="M8.80556 9.34154C7.88815 9.66412 6.61058 10.0073 6.60997 10.0079C6.93437 9.52527 7.13992 9.24574 7.13992 9.24574C7.30909 9.07111 7.46613 8.90316 7.61226 8.74187C8.01063 8.30105 8.32654 7.90996 8.57636 7.56495C9.2106 7.14353 12.1035 6.2904 12.1035 6.2904C11.2522 6.43653 8.89772 7.09199 8.89772 7.09199C9.62049 5.9466 10.681 3.33203 10.681 3.33203C10.47 4.08451 8.25924 7.59344 7.62924 8.38958C7.72808 7.29512 8.22407 4.73391 8.22407 4.73391C7.59165 6.24189 7.33577 8.53268 7.33577 8.53268L7.26301 8.84313C7.18539 8.93711 7.14052 8.99047 7.14052 8.99047C6.63362 9.60713 6.17946 10.2141 5.77139 10.8053C6.28679 9.52102 6.33954 7.99303 6.33954 7.99303C5.98422 8.9929 5.62041 10.6009 5.48338 11.2309C4.98738 11.9804 4.56597 12.6995 4.21065 13.3713V11.5687C3.96751 12.9554 4.05603 13.6672 4.04027 13.6982C2.70448 16.3176 2.37402 18.1481 2.37402 18.1481L2.59534 18.8048C2.90397 16.9069 3.81107 14.8423 4.73393 13.1191C5.84173 12.8699 8.22346 11.1479 8.22346 11.1479C6.25526 12.2344 4.95828 12.711 4.95525 12.7122C5.4567 11.807 5.94905 11.0145 6.33893 10.4166C6.81734 10.2141 7.99062 9.6999 8.80556 9.34094V9.34154ZM6.60876 10.0097L6.34378 10.4099C6.43837 10.2644 6.52751 10.1304 6.60876 10.0097ZM4.73393 13.1191C4.80608 12.9845 4.87824 12.8517 4.9504 12.7213L4.73393 13.1191Z" fill="#88BE69"/>
<path d="M4.15615 17.3626C4.13493 17.3147 4.07672 17.2777 4.02336 17.2971C3.46976 17.4984 2.97802 17.8398 2.59602 18.283C2.60269 17.8246 2.58025 17.3486 2.23342 17.0109C2.12913 16.9096 1.96966 17.0691 2.07395 17.1704C2.08487 17.1813 2.09517 17.1922 2.10548 17.2031C2.10912 17.4068 2.11215 17.6106 2.11458 17.8149C2.117 18.0156 2.13095 18.2212 2.1164 18.4219C2.10366 18.5977 1.99816 18.7408 1.94722 18.9051C1.89993 19.0579 1.91994 19.2344 2.04788 19.3429C2.16066 19.4381 2.31467 19.4575 2.45595 19.4278C2.61239 19.3945 2.73123 19.2871 2.82279 19.1604C2.91799 19.0288 2.97559 18.8748 3.04896 18.7305C3.12536 18.5795 3.21328 18.4346 3.31151 18.297C3.52979 17.9902 3.80265 17.7197 4.11067 17.5039C4.15676 17.4717 4.1804 17.4172 4.15676 17.3632L4.15615 17.3626Z" fill="#DE9E78"/>
</g>
<defs>
<clipPath id="clip0_802_4541">
<rect width="20" height="20" fill="white"/>
</clipPath>
</defs>
</svg>
