<svg width="16" height="16" viewBox="0 0 16 16" fill="none" xmlns="http://www.w3.org/2000/svg">
<path d="M5.35133 11.3559C5.18975 11.3559 5.05427 11.3045 4.9449 11.2018C4.83563 11.0991 4.781 10.9718 4.781 10.8199V9.91104H12.7582L12.9627 10.1033V4.62077H13.9297C14.0913 4.62077 14.2267 4.67213 14.3359 4.77483C14.4453 4.87764 14.5 5.00494 14.5 5.15672V13.5L12.219 11.3559H5.35133ZM2.5 10.8433V3.0361C2.5 2.88421 2.55469 2.75687 2.66406 2.65406C2.77332 2.55135 2.90875 2.5 3.07033 2.5H11.1033C11.2649 2.5 11.4003 2.55135 11.5096 2.65406C11.6189 2.75687 11.6735 2.88421 11.6735 3.0361V8.16322C11.6735 8.31501 11.6189 8.44231 11.5096 8.54511C11.4003 8.64782 11.2649 8.69917 11.1033 8.69917H4.781L2.5 10.8433Z" fill="#24823F"/>
</svg>
