<svg width="16" height="16" viewBox="0 0 16 16" fill="none" xmlns="http://www.w3.org/2000/svg">
<path d="M6.30877 10.6982V8.52313L12.0598 2.78276C12.1582 2.68444 12.2665 2.61273 12.3845 2.56764C12.5025 2.52255 12.6225 2.5 12.7446 2.5C12.8692 2.5 12.9888 2.52255 13.1035 2.56764C13.2182 2.61273 13.3228 2.68238 13.4172 2.77658L14.2143 3.56988C14.3063 3.6682 14.3769 3.77666 14.4262 3.89525C14.4754 4.01385 14.5 4.13408 14.5 4.25595C14.5 4.37781 14.4791 4.49599 14.4372 4.61046C14.3953 4.72504 14.3251 4.83144 14.2266 4.92965L8.45723 10.6982H6.30877ZM12.6775 5.13685L13.5576 4.26197L12.7605 3.44807L11.8681 4.32897L12.6775 5.13685ZM3.64755 14.5C3.32687 14.5 3.05545 14.3891 2.83327 14.1673C2.61109 13.9456 2.5 13.6746 2.5 13.3546V4.87374C2.5 4.55365 2.61109 4.28272 2.83327 4.06095C3.05545 3.83918 3.32687 3.72829 3.64755 3.72829H9.14217L4.91714 7.94557V12.0873H9.02617L13.2915 7.82978V13.3546C13.2915 13.6746 13.1804 13.9456 12.9582 14.1673C12.7361 14.3891 12.4646 14.5 12.144 14.5H3.64755Z" fill="#24823F"/>
</svg>
