<svg width="16" height="16" viewBox="0 0 16 16" fill="none" xmlns="http://www.w3.org/2000/svg">
<path d="M7.35593 13V12.0558C7.35593 11.8996 7.39373 11.7624 7.46932 11.6441C7.54492 11.526 7.64271 11.4274 7.76271 11.3484C8.21119 11.06 8.68226 10.851 9.17593 10.7215C9.66972 10.5918 10.1704 10.527 10.678 10.527C11.2307 10.527 11.754 10.5918 12.2478 10.7215C12.7415 10.851 13.1899 11.06 13.5932 11.3484C13.7132 11.4388 13.811 11.5431 13.8866 11.6613C13.9622 11.7795 14 11.911 14 12.0558V13H7.35593ZM2 13V6.21383L6.20339 3L8.73932 4.91007C8.32203 5.28799 8.01147 5.71201 7.80763 6.18213C7.6039 6.65236 7.50203 7.1419 7.50203 7.65075C7.50203 7.99954 7.55373 8.33348 7.65712 8.65257C7.76051 8.97154 7.91 9.26241 8.10559 9.52517C7.9187 9.59372 7.73311 9.67769 7.54881 9.77708C7.36452 9.87648 7.18333 9.97707 7.00525 10.0789C6.65237 10.2959 6.37576 10.5775 6.17542 10.9235C5.97508 11.2695 5.87492 11.6479 5.87492 12.0588V13H2ZM10.6795 9.36443C10.2091 9.36443 9.80876 9.19798 9.47847 8.86506C9.14819 8.53215 8.98305 8.1279 8.98305 7.65229C8.98305 7.17669 9.14768 6.77192 9.47695 6.43798C9.80621 6.10404 10.206 5.93707 10.6764 5.93707C11.1468 5.93707 11.5472 6.10353 11.8775 6.43644C12.2077 6.76935 12.3729 7.17361 12.3729 7.64921C12.3729 8.1247 12.2082 8.52947 11.879 8.86352C11.5497 9.19746 11.1499 9.36443 10.6795 9.36443Z" fill="#B1B8BE"/>
</svg>
