<svg width="16" height="16" viewBox="0 0 16 16" fill="none" xmlns="http://www.w3.org/2000/svg">
<path d="M9.8853 12.2101C9.5103 12.2101 9.18896 12.075 8.92128 11.8049C8.6536 11.5347 8.51976 11.2086 8.51976 10.8265C8.51976 10.4444 8.65231 10.117 8.9174 9.84424C9.1826 9.5715 9.5027 9.43514 9.8777 9.43514C10.2527 9.43514 10.574 9.57018 10.8417 9.84028C11.1094 10.1105 11.2432 10.4366 11.2432 10.8187C11.2432 11.2008 11.1107 11.5282 10.8456 11.801C10.5804 12.0737 10.2603 12.2101 9.8853 12.2101ZM3.95642 14C3.68254 14 3.45467 13.9053 3.2728 13.716C3.09093 13.5267 3 13.2965 3 13.0255V4.78559C3 4.51458 3.09093 4.28441 3.2728 4.09509C3.45467 3.90577 3.68254 3.81111 3.95642 3.81111H5.69223V2H6.2848V3.81111H9.76723V2H10.3078V3.81111H12.0436C12.3175 3.81111 12.5453 3.90577 12.7272 4.09509C12.9091 4.28441 13 4.51458 13 4.78559V13.0255C13 13.2965 12.9091 13.5267 12.7272 13.716C12.5453 13.9053 12.3175 14 12.0436 14H3.95642ZM3.95642 13.4492H12.0436C12.1476 13.4492 12.243 13.4051 12.3296 13.3169C12.4162 13.2287 12.4595 13.1315 12.4595 13.0255V7.67704H3.54054V13.0255C3.54054 13.1315 3.58384 13.2287 3.67044 13.3169C3.75704 13.4051 3.85236 13.4492 3.95642 13.4492Z" fill="#B1B8BE"/>
</svg>
