<svg width="103" height="18" viewBox="0 0 103 18" fill="none" xmlns="http://www.w3.org/2000/svg">
<path d="M15.1236 17.5565H11.9696V12.9585H1.4056V10.4125H15.1236V17.5565ZM15.1236 9.72852H11.9696V0.228514H15.1236V9.72852ZM10.4686 9.72852H7.3146V2.83151H6.0416C5.72494 2.83151 5.49694 2.92018 5.3576 3.09751C5.21827 3.26218 5.10427 3.49018 5.0156 3.78152L3.2296 9.72852H-0.000398409L1.9946 3.47751C2.15927 2.95818 2.3176 2.50218 2.4696 2.10952C2.63427 1.71685 2.84327 1.38752 3.0966 1.12152C3.34993 0.855515 3.67927 0.659182 4.0846 0.532515C4.48994 0.393181 5.02827 0.323514 5.6996 0.323514H10.4686V9.72852ZM32.3804 15.7705C32.3804 16.4418 32.241 16.9168 31.9624 17.1955C31.6837 17.4742 31.2087 17.6135 30.5374 17.6135H18.0544V12.7685C18.0544 12.1985 18.1494 11.8185 18.3394 11.6285C18.5294 11.4385 18.9094 11.3435 19.4794 11.3435H23.5454V10.2795H17.1424V7.80952H33.2924V10.2795H26.8894V11.3435H32.3804V15.7705ZM32.5324 7.16352H17.9024V4.73152H20.5244L20.2394 2.69852H18.0544V0.266515H32.3804V2.69852H30.1764L29.8344 4.73152H32.5324V7.16352ZM29.2264 15.1435V13.8135H21.2084V15.1435H29.2264ZM26.6804 4.73152L27.0224 2.69852H23.3934L23.6784 4.73152H26.6804ZM44.2601 10.6025H41.1061V2.83151H40.2131C39.8964 2.83151 39.6621 2.92018 39.5101 3.09751C39.3708 3.26218 39.2631 3.49018 39.1871 3.78152L37.4011 10.6025H34.1711L36.1661 3.47751C36.3181 2.94551 36.4701 2.48318 36.6221 2.09052C36.7741 1.69785 36.9768 1.37485 37.2301 1.12152C37.4961 0.855515 37.8318 0.659182 38.2371 0.532515C38.6551 0.393181 39.1998 0.323514 39.8711 0.323514H44.2601V10.6025ZM48.9151 17.5185H35.3681V11.2485H38.5221V14.8585H48.9151V17.5185ZM48.8011 12.9015H45.6471V0.228514H48.8011V4.18051H50.8531V6.84052H48.8011V12.9015ZM66.7799 9.12052H63.6259V5.60552H61.7449C61.6689 6.18818 61.4915 6.69485 61.2129 7.12552C60.9342 7.55618 60.5795 7.91718 60.1489 8.20852C59.7182 8.49985 59.2242 8.72152 58.6669 8.87352C58.1095 9.01285 57.5142 9.08252 56.8809 9.08252C56.1842 9.08252 55.5382 9.00018 54.9429 8.83552C54.3475 8.65818 53.8282 8.39852 53.3849 8.05652C52.9415 7.70185 52.5932 7.26485 52.3399 6.74552C52.0865 6.22618 51.9599 5.62452 51.9599 4.94051V4.14252C51.9599 3.45851 52.0865 2.85685 52.3399 2.33751C52.5932 1.81818 52.9415 1.38752 53.3849 1.04552C53.8282 0.690849 54.3475 0.431182 54.9429 0.266515C55.5382 0.0891818 56.1842 0.000515163 56.8809 0.000515163C57.4635 0.000515163 58.0145 0.0638484 58.5339 0.190515C59.0659 0.317182 59.5409 0.507181 59.9589 0.760514C60.3769 1.01385 60.7315 1.33052 61.0229 1.71051C61.3269 2.07785 61.5422 2.51485 61.6689 3.02151H63.6259V0.228514H66.7799V9.12052ZM66.7799 15.7135C66.7799 16.3848 66.6405 16.8598 66.3619 17.1385C66.0832 17.4172 65.6082 17.5565 64.9369 17.5565H53.1569V9.80452H56.3109V11.0965H63.6259V9.80452H66.7799V15.7135ZM58.6479 4.38952C58.6479 3.76885 58.4832 3.30018 58.1539 2.98352C57.8372 2.66685 57.4129 2.50851 56.8809 2.50851C56.3489 2.50851 55.9182 2.66685 55.5889 2.98352C55.2722 3.30018 55.1139 3.76885 55.1139 4.38952V4.69351C55.1139 5.31418 55.2722 5.78285 55.5889 6.09952C55.9182 6.41618 56.3489 6.57452 56.8809 6.57452C57.4129 6.57452 57.8372 6.41618 58.1539 6.09952C58.4832 5.78285 58.6479 5.31418 58.6479 4.69351V4.38952ZM63.6259 15.0485V13.5665H56.3109V15.0485H63.6259ZM83.9986 17.5565H80.8446V0.228514H83.9986V17.5565ZM79.7046 16.3025H76.5506L75.2016 3.36351C75.1636 3.03418 75.0306 2.86952 74.8026 2.86952H74.3276C74.2009 2.86952 74.1059 2.92018 74.0426 3.02151C73.9919 3.11018 73.9539 3.22418 73.9286 3.36351L72.2376 16.3025H69.0836L70.9266 2.86952H69.2166V0.323514H80.0846V2.86952H78.2036L79.7046 16.3025ZM101.179 10.4885H87.0244V1.69151C87.0244 1.24818 87.1257 0.925182 87.3284 0.722515C87.531 0.519849 87.854 0.418515 88.2974 0.418515H101.065V2.88852H90.1784V8.01852H101.179V10.4885ZM102.167 16.4165H86.0174V13.9465H92.4204V11.2485H95.7644V13.9465H102.167V16.4165Z" fill="url(#paint0_linear_719_1072)"/>
<defs>
<linearGradient id="paint0_linear_719_1072" x1="-0.608398" y1="-1.52148" x2="81.8221" y2="53.0558" gradientUnits="userSpaceOnUse">
<stop stop-color="#2DA34F"/>
<stop offset="1" stop-color="#1B5D88"/>
</linearGradient>
</defs>
</svg>
