<svg width="21" height="21" viewBox="0 0 21 21" fill="none" xmlns="http://www.w3.org/2000/svg">
<path d="M9.25 0.75C13.9444 0.75 17.75 4.55558 17.75 9.25C17.75 11.3085 17.0173 13.1953 15.7998 14.666L19.1182 17.9844C19.4301 18.2967 19.4302 18.8029 19.1182 19.1152C18.8057 19.4277 18.2987 19.4277 17.9863 19.1152L14.6689 15.7979C13.1978 17.0167 11.3097 17.75 9.25 17.75C4.55558 17.75 0.75 13.9444 0.75 9.25C0.75 4.55558 4.55558 0.75 9.25 0.75ZM9.25 2.34961C5.43924 2.34961 2.34961 5.43924 2.34961 9.25C2.34961 13.0608 5.43924 16.1504 9.25 16.1504C11.0664 16.1504 12.7171 15.4462 13.9492 14.2988C13.9865 14.2253 14.0362 14.1562 14.0977 14.0947C14.1594 14.033 14.2288 13.9836 14.3027 13.9463C15.4481 12.7145 16.1504 11.0647 16.1504 9.25C16.1504 5.43924 13.0608 2.34961 9.25 2.34961Z" fill="url(#paint0_linear_1206_45)"/>
<path d="M15.7998 14.666L15.2221 14.1878C14.9753 14.4858 14.9958 14.9227 15.2695 15.1963L15.7998 14.666ZM19.1182 17.9844L19.6489 17.4544L19.6485 17.454L19.1182 17.9844ZM19.1182 19.1152L19.6485 19.6456L19.6487 19.6453L19.1182 19.1152ZM14.6689 15.7979L15.1993 15.2675C14.9256 14.9938 14.4885 14.9734 14.1904 15.2203L14.6689 15.7979ZM13.9492 14.2988L14.4603 14.8477C14.5248 14.7877 14.5782 14.7167 14.6181 14.6381L13.9492 14.2988ZM14.0977 14.0947L13.5675 13.5642L13.5673 13.5644L14.0977 14.0947ZM14.3027 13.9463L14.6407 14.6158C14.72 14.5758 14.7915 14.522 14.852 14.457L14.3027 13.9463ZM9.25 0.75V1.5C13.5302 1.5 17 4.96979 17 9.25H17.75H18.5C18.5 4.14137 14.3586 0 9.25 0V0.75ZM17.75 9.25H17C17 11.1272 16.3326 12.8463 15.2221 14.1878L15.7998 14.666L16.3775 15.1443C17.7021 13.5442 18.5 11.4898 18.5 9.25H17.75ZM15.7998 14.666L15.2695 15.1963L18.5878 18.5147L19.1182 17.9844L19.6485 17.454L16.3301 14.1357L15.7998 14.666ZM19.1182 17.9844L18.5875 18.5143C18.6071 18.534 18.6069 18.5658 18.5876 18.5851L19.1182 19.1152L19.6487 19.6453C20.2535 19.04 20.253 18.0594 19.6489 17.4544L19.1182 17.9844ZM19.1182 19.1152L18.5878 18.5849C18.5683 18.6044 18.5362 18.6044 18.5167 18.5849L17.9863 19.1152L17.456 19.6456C18.0613 20.2509 19.0432 20.2509 19.6485 19.6456L19.1182 19.1152ZM17.9863 19.1152L18.5167 18.5849L15.1993 15.2675L14.6689 15.7979L14.1386 16.3282L17.456 19.6456L17.9863 19.1152ZM14.6689 15.7979L14.1904 15.2203C12.8487 16.332 11.1284 17 9.25 17V17.75V18.5C11.491 18.5 13.5469 17.7015 15.1474 16.3754L14.6689 15.7979ZM9.25 17.75V17C4.96979 17 1.5 13.5302 1.5 9.25H0.75H0C0 14.3586 4.14137 18.5 9.25 18.5V17.75ZM0.75 9.25H1.5C1.5 4.96979 4.96979 1.5 9.25 1.5V0.75V0C4.14137 0 0 4.14137 0 9.25H0.75ZM9.25 2.34961V1.59961C5.02502 1.59961 1.59961 5.02502 1.59961 9.25H2.34961H3.09961C3.09961 5.85345 5.85345 3.09961 9.25 3.09961V2.34961ZM2.34961 9.25H1.59961C1.59961 13.475 5.02502 16.9004 9.25 16.9004V16.1504V15.4004C5.85345 15.4004 3.09961 12.6466 3.09961 9.25H2.34961ZM9.25 16.1504V16.9004C11.2644 16.9004 13.0955 16.1186 14.4603 14.8477L13.9492 14.2988L13.4381 13.7499C12.3386 14.7738 10.8685 15.4004 9.25 15.4004V16.1504ZM13.9492 14.2988L14.6181 14.6381C14.6196 14.6352 14.6225 14.6305 14.628 14.6251L14.0977 14.0947L13.5673 13.5644C13.4499 13.6818 13.3534 13.8155 13.2803 13.9596L13.9492 14.2988ZM14.0977 14.0947L14.6278 14.6253C14.6321 14.621 14.6363 14.618 14.6407 14.6158L14.3027 13.9463L13.9648 13.2768C13.8214 13.3491 13.6867 13.4451 13.5675 13.5642L14.0977 14.0947ZM14.3027 13.9463L14.852 14.457C16.1208 13.0925 16.9004 11.2622 16.9004 9.25H16.1504H15.4004C15.4004 10.8672 14.7754 12.3366 13.7535 13.4356L14.3027 13.9463ZM16.1504 9.25H16.9004C16.9004 5.02502 13.475 1.59961 9.25 1.59961V2.34961V3.09961C12.6466 3.09961 15.4004 5.85345 15.4004 9.25H16.1504Z" fill="url(#paint1_linear_1206_45)"/>
<defs>
<linearGradient id="paint0_linear_1206_45" x1="0.75" y1="10.0498" x2="19.3521" y2="10.0498" gradientUnits="userSpaceOnUse">
<stop stop-color="#2DA34F"/>
<stop offset="1" stop-color="#1B5D88"/>
</linearGradient>
<linearGradient id="paint1_linear_1206_45" x1="0.75" y1="10.0498" x2="19.3521" y2="10.0498" gradientUnits="userSpaceOnUse">
<stop stop-color="#2DA34F"/>
<stop offset="1" stop-color="#1B5D88"/>
</linearGradient>
</defs>
</svg>
