<svg width="24" height="24" viewBox="0 0 24 24" fill="none" xmlns="http://www.w3.org/2000/svg">
<path d="M10.9998 22.9508V20.9508C8.91647 20.7174 7.12897 19.8549 5.6373 18.3633C4.14564 16.8716 3.28314 15.0841 3.0498 13.0008H1.0498V11.0008H3.0498C3.28314 8.91745 4.14564 7.12995 5.6373 5.63828C7.12897 4.14661 8.91647 3.28411 10.9998 3.05078V1.05078H12.9998V3.05078C15.0831 3.28411 16.8706 4.14661 18.3623 5.63828C19.854 7.12995 20.7165 8.91745 20.9498 11.0008H22.9498V13.0008H20.9498C20.7165 15.0841 19.854 16.8716 18.3623 18.3633C16.8706 19.8549 15.0831 20.7174 12.9998 20.9508V22.9508H10.9998ZM11.9998 19.0008C13.9331 19.0008 15.5831 18.3174 16.9498 16.9508C18.3165 15.5841 18.9998 13.9341 18.9998 12.0008C18.9998 10.0674 18.3165 8.41745 16.9498 7.05078C15.5831 5.68411 13.9331 5.00078 11.9998 5.00078C10.0665 5.00078 8.41647 5.68411 7.0498 7.05078C5.68314 8.41745 4.9998 10.0674 4.9998 12.0008C4.9998 13.9341 5.68314 15.5841 7.0498 16.9508C8.41647 18.3174 10.0665 19.0008 11.9998 19.0008ZM11.9998 16.0008C10.8998 16.0008 9.95814 15.6091 9.1748 14.8258C8.39147 14.0424 7.9998 13.1008 7.9998 12.0008C7.9998 10.9008 8.39147 9.95912 9.1748 9.17578C9.95814 8.39245 10.8998 8.00078 11.9998 8.00078C13.0998 8.00078 14.0415 8.39245 14.8248 9.17578C15.6081 9.95912 15.9998 10.9008 15.9998 12.0008C15.9998 13.1008 15.6081 14.0424 14.8248 14.8258C14.0415 15.6091 13.0998 16.0008 11.9998 16.0008ZM11.9998 14.0008C12.5498 14.0008 13.0206 13.8049 13.4123 13.4133C13.804 13.0216 13.9998 12.5508 13.9998 12.0008C13.9998 11.4508 13.804 10.9799 13.4123 10.5883C13.0206 10.1966 12.5498 10.0008 11.9998 10.0008C11.4498 10.0008 10.979 10.1966 10.5873 10.5883C10.1956 10.9799 9.9998 11.4508 9.9998 12.0008C9.9998 12.5508 10.1956 13.0216 10.5873 13.4133C10.979 13.8049 11.4498 14.0008 11.9998 14.0008Z" fill="white"/>
</svg>
