<svg width="16" height="19" viewBox="0 0 16 19" fill="none" xmlns="http://www.w3.org/2000/svg">
<path d="M6.798 9.0865H8.298V3.7405H6.798V9.0865ZM7.548 12.5673C7.77683 12.5673 7.96867 12.4898 8.1235 12.335C8.27833 12.1803 8.35575 11.9886 8.35575 11.7598C8.35575 11.5308 8.27833 11.3389 8.1235 11.1842C7.96867 11.0294 7.77683 10.952 7.548 10.952C7.31917 10.952 7.12733 11.0294 6.9725 11.1842C6.81767 11.3389 6.74025 11.5308 6.74025 11.7598C6.74025 11.9886 6.81767 12.1803 6.9725 12.335C7.12733 12.4898 7.31917 12.5673 7.548 12.5673ZM7.548 17.0135C9.50433 15.2622 11.0014 13.5823 12.0393 11.974C13.0771 10.3657 13.596 8.957 13.596 7.748C13.596 5.925 13.0168 4.42633 11.8585 3.252C10.7002 2.07767 9.26333 1.4905 7.548 1.4905C5.83267 1.4905 4.39583 2.07767 3.2375 3.252C2.07917 4.42633 1.5 5.925 1.5 7.748C1.5 8.957 2.01892 10.3657 3.05675 11.974C4.09458 13.5823 5.59167 15.2622 7.548 17.0135ZM7.548 19.0095C5.03133 16.8288 3.14417 14.7994 1.8865 12.9212C0.628833 11.0429 0 9.3185 0 7.748C0 5.44033 0.746417 3.57208 2.23925 2.14325C3.73225 0.714416 5.50183 0 7.548 0C9.59417 0 11.3637 0.714416 12.8567 2.14325C14.3496 3.57208 15.096 5.44033 15.096 7.748C15.096 9.3185 14.4672 11.0429 13.2095 12.9212C11.9518 14.7994 10.0647 16.8288 7.548 19.0095Z" fill="#131416"/>
</svg>
