<svg width="24" height="24" viewBox="0 0 24 24" fill="none" xmlns="http://www.w3.org/2000/svg">
<path d="M3 22.15V5.15H9.25C9.16667 5.46667 9.10417 5.77917 9.0625 6.0875C9.02083 6.39583 9 6.7 9 7C9 9.01667 9.7 10.6875 11.1 12.0125C12.5 13.3375 14.1333 14 16 14C16.3333 14 16.6667 13.975 17 13.925C17.3333 13.875 17.6667 13.8 18 13.7V17.15H11L10.6 15.15H5V22.15H3ZM16 2C17.3833 2 18.5625 2.4875 19.5375 3.4625C20.5125 4.4375 21 5.61667 21 7C21 8.38333 20.5125 9.5625 19.5375 10.5375C18.5625 11.5125 17.3833 12 16 12C14.6167 12 13.4375 11.5125 12.4625 10.5375C11.4875 9.5625 11 8.38333 11 7C11 5.61667 11.4875 4.4375 12.4625 3.4625C13.4375 2.4875 14.6167 2 16 2ZM15.275 9.25L18.75 5.8L17.7 4.75L15.275 7.125L14.3 6.15L13.25 7.225L15.275 9.25Z" fill="#6D7882"/>
</svg>
