<svg width="16" height="16" viewBox="0 0 16 16" fill="none" xmlns="http://www.w3.org/2000/svg">
<rect width="16" height="16" rx="4" fill="white"/>
<path d="M2.3335 13.3333V9.66667H3.3335V11.6308L5.56683 9.3975L6.26933 10.1L4.036 12.3333H6.00016V13.3333H2.3335ZM10.0002 13.3333V12.3333H11.9643L9.731 10.1L10.4335 9.3975L12.6668 11.6308V9.66667H13.6668V13.3333H10.0002ZM5.56683 5.93583L3.3335 3.7025V5.66667H2.3335V2H6.00016V3H4.036L6.26933 5.23333L5.56683 5.93583ZM10.4335 5.93583L9.731 5.23333L11.9643 3H10.0002V2H13.6668V5.66667H12.6668V3.7025L10.4335 5.93583ZM8.00016 8.77567C7.69516 8.77567 7.43411 8.66706 7.217 8.44983C6.99977 8.23272 6.89116 7.97167 6.89116 7.66667C6.89116 7.36167 6.99977 7.10061 7.217 6.8835C7.43411 6.66628 7.69516 6.55767 8.00016 6.55767C8.30516 6.55767 8.56622 6.66628 8.78333 6.8835C9.00055 7.10061 9.10916 7.36167 9.10916 7.66667C9.10916 7.97167 9.00055 8.23272 8.78333 8.44983C8.56622 8.66706 8.30516 8.77567 8.00016 8.77567Z" fill="#33363D"/>
</svg>
