<svg width="20" height="20" viewBox="0 0 20 20" fill="none" xmlns="http://www.w3.org/2000/svg">
<path d="M11.7312 9.99836L7.17785 5.09614C7.06327 4.97279 7.00498 4.82096 7.00299 4.64067C7.001 4.46038 7.05729 4.3085 7.17186 4.18503C7.28644 4.06168 7.42746 4 7.59492 4C7.76237 4 7.90344 4.06168 8.01813 4.18503L12.7118 9.23196C12.8151 9.34323 12.8889 9.46359 12.9333 9.59305C12.9778 9.72251 13 9.85761 13 9.99836C13 10.1391 12.9778 10.2742 12.9333 10.4037C12.8889 10.5331 12.8151 10.6535 12.7118 10.7648L8.02411 15.8117C7.90953 15.935 7.76752 15.9978 7.59806 15.9999C7.42851 16.0021 7.28644 15.9415 7.17186 15.8181C7.05729 15.6948 7 15.543 7 15.3627C7 15.1824 7.05729 15.0305 7.17186 14.907L11.7312 9.99836Z" fill="#58616A"/>
</svg>
