<svg width="140" height="198" viewBox="0 0 140 198" fill="none" xmlns="http://www.w3.org/2000/svg">
<rect width="139.333" height="198" rx="12" fill="url(#paint0_linear_2466_29982)"/>
<rect width="139.333" height="198" rx="12" fill="url(#paint1_linear_2466_29982)"/>
<path d="M31.1554 24.3418C31.1427 25.916 32.2218 27.3506 33.9738 27.9346L33.3644 28.8867C32.0505 28.4233 31.0602 27.4966 30.5461 26.3096C30.0383 27.5854 29.0417 28.5947 27.6896 29.0771L27.0802 28.1377C28.8576 27.5029 29.924 25.9668 29.924 24.3418V23.25H31.1554V24.3418ZM36.4494 30.0801V34.0791H35.2433V31.0576H28.7433V30.0801H36.4494ZM36.4494 22.7041V29.5342H35.2433V22.7041H36.4494ZM48.6242 28.1504V29.1152H44.0285V30.334H47.3547V33.9395H39.4963V30.334H42.8351V29.1152H38.2521V28.1504H48.6242ZM47.6467 23.0596V24.0371H45.9963V26.208H47.5959V27.1855H39.2551V26.208H40.8674V24.0371H39.2043V23.0596H47.6467ZM40.6896 31.2861V32.9619H46.1867V31.2861H40.6896ZM42.0607 26.208H44.7902V24.0371H42.0607V26.208ZM53.4357 24.7861C53.4357 26.3096 54.5021 27.7441 56.2287 28.3281L55.6066 29.2803C54.3307 28.8296 53.3849 27.9219 52.8771 26.7793C52.382 28.0552 51.4045 29.0518 50.0715 29.5469L49.3986 28.5947C51.2013 27.9727 52.2424 26.4492 52.2424 24.748V23.4023H53.4357V24.7861ZM58.425 22.6914V26.1191H60.0754V27.1475H58.425V31.083H57.2189V22.6914H58.425ZM58.9201 32.8604V33.8379H51.2267V30.2705H52.4582V32.8604H58.9201ZM63.8713 23.2246C65.3693 23.2119 66.5246 24.0815 66.7785 25.3574H69.0002V22.7041H70.2062V28.8105H69.0002V26.3477H66.7912C66.5436 27.6553 65.382 28.5312 63.8713 28.5312C62.132 28.5312 60.8879 27.4395 60.8879 25.8652C60.8879 24.3164 62.132 23.2119 63.8713 23.2246ZM63.8713 24.2275C62.7922 24.2275 62.0431 24.8877 62.0431 25.8652C62.0431 26.8428 62.7922 27.5156 63.8713 27.5156C64.925 27.5156 65.674 26.8428 65.674 25.8652C65.674 24.8877 64.925 24.2275 63.8713 24.2275ZM63.9855 29.3564V30.6768H69.0002V29.3564H70.2062V33.9395H62.7922V29.3564H63.9855ZM63.9855 32.9492H69.0002V31.6289H63.9855V32.9492ZM80.1086 28.7471V30.7148C81.1496 30.6577 82.2033 30.5688 83.1935 30.4229L83.2824 31.3115C80.7052 31.7812 77.9504 31.8066 75.9191 31.8066L75.7668 30.8164C76.6808 30.8101 77.7599 30.8037 78.9025 30.7656V28.7471H80.1086ZM82.6603 24.1514V25.1289H80.1086C80.172 26.4619 81.2511 27.6172 82.9523 28.0742L82.3937 29.0137C81.0353 28.6265 80.0197 27.8013 79.5119 26.7158C79.0104 27.8584 78.0138 28.7217 76.6427 29.1152L76.0715 28.2012C77.7663 27.7188 78.8327 26.5254 78.8898 25.1289H76.3761V24.1514H78.9025V22.793H80.1086V24.1514H82.6603ZM85.1105 22.7041V34.1045H83.9045V22.7041H85.1105ZM91.0138 24.7227C91.0138 26.1572 92.0422 27.5664 93.756 28.1504L93.134 29.0898C91.8581 28.6455 90.9123 27.7378 90.4172 26.6143C89.922 27.8647 88.9255 28.8677 87.5734 29.3438L86.9513 28.3916C88.7033 27.7949 89.7824 26.2715 89.7824 24.7354V24.418H87.3195V23.4404H93.4513V24.418H91.0138V24.7227ZM96.422 30.0801V34.0791H95.216V31.0576H88.716V30.0801H96.422ZM96.422 22.7041V29.5088H95.216V26.5889H93.1086V25.5986H95.216V22.7041H96.422ZM101.881 23.5166C103.684 23.5039 104.966 24.6211 104.979 26.2207C104.966 27.8203 103.684 28.9375 101.881 28.9375C100.091 28.9375 98.7707 27.8203 98.7834 26.2207C98.7707 24.6211 100.091 23.5039 101.881 23.5166ZM101.881 24.5576C100.777 24.5576 99.964 25.2178 99.9767 26.2207C99.964 27.2236 100.777 27.8838 101.881 27.8838C102.986 27.8838 103.798 27.2236 103.798 26.2207C103.798 25.2178 102.986 24.5576 101.881 24.5576ZM107.581 22.7041V34.1045H106.375V22.7041H107.581ZM98.2375 30.6514C100.307 30.6514 103.176 30.626 105.664 30.2705L105.753 31.1465C103.176 31.6416 100.421 31.6543 98.3898 31.6543L98.2375 30.6514ZM38.3092 38.7041V50.1045H37.1032V38.7041H38.3092ZM30.7301 39.6562V42.5762H33.7897V39.6562H34.9831V47.375H29.5241V39.6562H30.7301ZM30.7301 46.3848H33.7897V43.5283H30.7301V46.3848ZM50.5348 47.6162V48.6064H40.1247V47.6162H50.5348ZM45.9391 41.1162C45.9391 42.8555 47.9069 44.3916 50.0778 44.7344L49.5954 45.6865C47.7609 45.3438 46.0661 44.271 45.3171 42.7793C44.5871 44.2837 42.905 45.3882 41.1022 45.7373L40.6071 44.7725C42.7272 44.4297 44.6823 42.8555 44.6823 41.1162V40.7607H40.988V39.7832H49.6335V40.7607H45.9391V41.1162ZM60.8053 38.7041V50.0791H59.5993V38.7041H60.8053ZM53.2516 39.8086V46.1436C54.9084 46.1309 56.654 45.9976 58.4821 45.623L58.6471 46.6387C56.6286 47.0449 54.8005 47.1846 53.0104 47.1846H52.0583V39.8086H53.2516ZM68.3717 40.3164C68.3717 42.1699 70.3522 43.9219 72.5358 44.3154L71.9772 45.3184C70.1618 44.9248 68.486 43.7314 67.7497 42.1318C67.0007 43.7188 65.3312 44.9121 63.5094 45.3184L62.9762 44.3154C65.1344 43.9092 67.1022 42.1699 67.1022 40.3164V39.4531H68.3717V40.3164ZM73.0055 47.5781V48.5811H62.5954V47.5781H73.0055ZM87.3639 38.7041V50.0791H86.2087V44.1504H84.7995V49.5205H83.6569V38.9199H84.7995V43.1602H86.2087V38.7041H87.3639ZM82.3747 39.9863V47.083H77.9567V39.9863H82.3747ZM79.0993 40.9385V46.1182H81.2448V40.9385H79.0993ZM93.0387 41.0654C93.0387 42.4238 94.1559 43.6934 95.9206 44.1758L95.3493 45.1152C94.0163 44.7471 93.0007 43.9219 92.4675 42.8428C91.9596 44.0298 90.9567 44.9629 89.5856 45.3945L88.9889 44.4424C90.7409 43.9092 91.8327 42.5381 91.8327 41.0654V41.002H89.3063V40.0371H91.8327V38.7041H93.0514V40.0371H95.5524V41.002H93.0387V41.0654ZM98.2438 38.7168V45.6484H97.0378V38.7168H98.2438ZM94.4225 45.8643C96.8092 45.8643 98.2819 46.6387 98.2819 47.959C98.2819 49.292 96.8092 50.0664 94.4225 50.0537C92.0231 50.0664 90.5505 49.292 90.5505 47.959C90.5505 46.6387 92.0231 45.8643 94.4225 45.8643ZM94.4225 46.8164C92.7341 46.8164 91.7692 47.2354 91.7692 47.959C91.7692 48.708 92.7341 49.127 94.4225 49.127C96.111 49.127 97.0885 48.708 97.0885 47.959C97.0885 47.2354 96.111 46.8164 94.4225 46.8164ZM110.419 44.6455V45.6104H100.047V44.6455H110.419ZM109.251 48.8604V49.8379H101.354V46.5371H102.573V48.8604H109.251ZM105.226 39.085C107.689 39.0723 109.289 39.9355 109.289 41.3574C109.289 42.792 107.689 43.6553 105.226 43.668C102.751 43.6553 101.164 42.792 101.164 41.3574C101.164 39.9355 102.751 39.0723 105.226 39.085ZM105.226 40.0498C103.487 40.0498 102.395 40.5449 102.408 41.3574C102.395 42.1953 103.487 42.6777 105.226 42.6777C106.965 42.6777 108.045 42.1953 108.045 41.3574C108.045 40.5449 106.965 40.0498 105.226 40.0498ZM47.8625 54.7041V66.1045H46.6564V54.7041H47.8625ZM44.6125 55.7578V56.7607H40.3849V62.2832C42.5431 62.2769 43.9206 62.2197 45.5265 61.9277L45.6535 62.9307C43.9523 63.2354 42.467 63.3115 40.1056 63.3115H39.1662V55.7578H44.6125ZM59.1613 54.7041V61.4707H57.9552V58.5889H55.8351V57.5986H57.9552V54.7041H59.1613ZM55.3527 61.7881C57.7394 61.7881 59.1994 62.5752 59.1994 63.9336C59.1994 65.292 57.7394 66.0664 55.3527 66.0791C52.966 66.0664 51.4933 65.292 51.506 63.9336C51.4933 62.5752 52.966 61.7881 55.3527 61.7881ZM55.3527 62.7275C53.6896 62.7275 52.6994 63.1592 52.6994 63.9336C52.6994 64.6953 53.6896 65.1396 55.3527 65.127C57.0158 65.1396 58.006 64.6953 58.006 63.9336C58.006 63.1592 57.0158 62.7275 55.3527 62.7275ZM53.7531 56.71C53.7531 58.1572 54.7814 59.5537 56.4953 60.1377L55.8732 61.0898C54.5973 60.6455 53.6579 59.7378 53.1691 58.6143C52.6676 59.8901 51.6711 60.9121 50.3127 61.4072L49.6779 60.4424C51.4426 59.833 52.5217 58.2969 52.5217 56.7227V56.4688H50.0588V55.4912H56.1906V56.4688H53.7531V56.71ZM70.3078 55.0469V55.9609H68.6574V57.9287H70.257V58.8555H61.9162V57.9287H63.5285V55.9609H61.8654V55.0469H70.3078ZM71.2853 59.6934V60.6455H60.9133V59.6934H71.2853ZM69.9777 61.5342V64.1367H63.3508V65.0508H70.2951V65.9648H62.1701V63.2861H68.7843V62.4355H62.1574V61.5342H69.9777ZM64.7218 57.9287H67.4513V55.9609H64.7218V57.9287ZM81.9367 54.7041V66.0791H80.7814V54.7041H81.9367ZM79.6261 54.9199V65.5205H78.4709V60.0361H77.1886C77.0871 62.2578 76.1349 63.6416 74.7258 63.6289C73.2404 63.6416 72.2756 62.0801 72.2756 59.6172C72.2756 57.1543 73.2404 55.6055 74.7258 55.6182C76.1095 55.6055 77.049 56.9194 77.1886 59.0586H78.4709V54.9199H79.6261ZM74.7258 56.748C73.9006 56.748 73.3927 57.8018 73.3927 59.6172C73.3927 61.4326 73.9006 62.4863 74.7258 62.4863C75.5636 62.4863 76.0842 61.4326 76.0842 59.6172C76.0842 57.8018 75.5636 56.748 74.7258 56.748ZM87.4845 57.5986C87.4845 59.6807 88.6525 61.75 90.3918 62.5371L89.6554 63.502C88.3605 62.8545 87.3893 61.5659 86.8879 60.0107C86.3864 61.6484 85.3898 63.0322 84.0822 63.7178L83.3205 62.7402C85.0851 61.9023 86.2658 59.7061 86.2658 57.5986V55.6562H87.4845V57.5986ZM92.8674 54.7041V66.1045H91.674V59.4648H89.1349V58.4873H91.674V54.7041H92.8674ZM96.714 55.8086L96.5998 62.3467H95.3429L95.2287 55.8086H96.714ZM95.9777 65.0889C95.4826 65.0889 95.0636 64.6826 95.0763 64.1875C95.0636 63.6924 95.4826 63.2861 95.9777 63.2861C96.4601 63.2861 96.8791 63.6924 96.8791 64.1875C96.8791 64.6826 96.4601 65.0889 95.9777 65.0889ZM100.269 55.8086L100.154 62.3467H98.8976L98.7834 55.8086H100.269ZM99.5324 65.0889C99.0373 65.0889 98.6183 64.6826 98.631 64.1875C98.6183 63.6924 99.0373 63.2861 99.5324 63.2861C100.015 63.2861 100.434 63.6924 100.434 64.1875C100.434 64.6826 100.015 65.0889 99.5324 65.0889Z" fill="white"/>
<rect x="45.667" y="80" width="48" height="46" rx="23" fill="url(#paint2_linear_2466_29982)"/>
<path d="M66.417 114C65.6503 114 64.9628 113.8 64.3545 113.4C63.7462 113 63.2753 112.45 62.942 111.75C62.6753 112.1 62.3378 112.371 61.9295 112.562C61.5212 112.754 61.1003 112.85 60.667 112.85C59.817 112.85 59.1045 112.558 58.5295 111.975C57.9545 111.392 57.667 110.683 57.667 109.85C57.667 109.133 57.9003 108.488 58.367 107.913C58.8337 107.338 59.4253 107.008 60.142 106.925C59.9087 106.592 59.7295 106.238 59.6045 105.863C59.4795 105.488 59.417 105.092 59.417 104.675C59.417 104.008 59.5878 103.383 59.9295 102.8C60.2712 102.217 60.7503 101.742 61.367 101.375C61.4503 101.675 61.5628 101.996 61.7045 102.338C61.8462 102.679 62.0087 102.975 62.192 103.225C61.9587 103.408 61.7753 103.629 61.642 103.887C61.5087 104.146 61.442 104.417 61.442 104.7C61.442 105.633 61.8253 106.208 62.592 106.425C63.3587 106.642 64.0837 106.817 64.767 106.95L65.242 107.75C65.0587 108.283 64.9003 108.738 64.767 109.113C64.6337 109.488 64.567 109.825 64.567 110.125C64.567 110.625 64.7462 111.062 65.1045 111.438C65.4628 111.812 65.9003 112 66.417 112C67.0503 112 67.5753 111.717 67.992 111.15C68.4087 110.583 68.7503 109.917 69.017 109.15C69.2837 108.383 69.4878 107.608 69.6295 106.825C69.7712 106.042 69.8837 105.442 69.967 105.025L71.917 105.55C71.767 106.3 71.5837 107.158 71.367 108.125C71.1503 109.092 70.8462 110.013 70.4545 110.888C70.0628 111.763 69.5462 112.5 68.9045 113.1C68.2628 113.7 67.4337 114 66.417 114ZM60.667 110.85C60.9503 110.85 61.1878 110.754 61.3795 110.562C61.5712 110.371 61.667 110.133 61.667 109.85C61.667 109.567 61.5712 109.329 61.3795 109.138C61.1878 108.946 60.9503 108.85 60.667 108.85C60.3837 108.85 60.1462 108.946 59.9545 109.138C59.7628 109.329 59.667 109.567 59.667 109.85C59.667 110.133 59.7628 110.371 59.9545 110.562C60.1462 110.754 60.3837 110.85 60.667 110.85ZM67.767 106.9C67.0003 106.217 66.3045 105.579 65.6795 104.988C65.0545 104.396 64.517 103.821 64.067 103.262C63.617 102.704 63.2712 102.146 63.0295 101.588C62.7878 101.029 62.667 100.45 62.667 99.85C62.667 98.7667 63.0378 97.8542 63.7795 97.1125C64.5212 96.3708 65.4337 96 66.517 96C66.5837 96 66.642 96.0042 66.692 96.0125C66.742 96.0208 66.8003 96.025 66.867 96.025C66.8003 95.8583 66.7503 95.6917 66.717 95.525C66.6837 95.3583 66.667 95.1833 66.667 95C66.667 94.1667 66.9587 93.4583 67.542 92.875C68.1253 92.2917 68.8337 92 69.667 92C70.5003 92 71.2087 92.2917 71.792 92.875C72.3753 93.4583 72.667 94.1667 72.667 95C72.667 95.1833 72.6503 95.3542 72.617 95.5125C72.5837 95.6708 72.5337 95.8333 72.467 96H72.817C73.817 96 74.667 96.3208 75.367 96.9625C76.067 97.6042 76.4837 98.4 76.617 99.35C76.317 99.3 75.9795 99.275 75.6045 99.275C75.2295 99.275 74.8837 99.2917 74.567 99.325C74.4503 98.9417 74.2378 98.625 73.9295 98.375C73.6212 98.125 73.2503 98 72.817 98C72.2337 98 71.7795 98.1708 71.4545 98.5125C71.1295 98.8542 70.6837 99.35 70.117 100H69.192C68.6087 99.3167 68.1545 98.8125 67.8295 98.4875C67.5045 98.1625 67.067 98 66.517 98C65.9837 98 65.542 98.175 65.192 98.525C64.842 98.875 64.667 99.3167 64.667 99.85C64.667 100.233 64.7753 100.629 64.992 101.038C65.2087 101.446 65.5128 101.879 65.9045 102.338C66.2962 102.796 66.7712 103.283 67.3295 103.8C67.8878 104.317 68.5087 104.875 69.192 105.475L67.767 106.9ZM69.667 96C69.9503 96 70.1878 95.9042 70.3795 95.7125C70.5712 95.5208 70.667 95.2833 70.667 95C70.667 94.7167 70.5712 94.4792 70.3795 94.2875C70.1878 94.0958 69.9503 94 69.667 94C69.3837 94 69.1462 94.0958 68.9545 94.2875C68.7628 94.4792 68.667 94.7167 68.667 95C68.667 95.2833 68.7628 95.5208 68.9545 95.7125C69.1462 95.9042 69.3837 96 69.667 96ZM72.892 114C72.5253 114 72.1628 113.95 71.8045 113.85C71.4462 113.75 71.1003 113.592 70.767 113.375C70.9503 113.142 71.1337 112.867 71.317 112.55C71.5003 112.233 71.667 111.942 71.817 111.675C72.0003 111.792 72.1837 111.875 72.367 111.925C72.5503 111.975 72.7337 112 72.917 112C73.4503 112 73.8962 111.812 74.2545 111.438C74.6128 111.062 74.792 110.617 74.792 110.1C74.792 109.783 74.7253 109.442 74.592 109.075C74.4587 108.708 74.3003 108.258 74.117 107.725L74.592 106.925C75.292 106.792 76.0212 106.617 76.7795 106.4C77.5378 106.183 77.917 105.608 77.917 104.675C77.917 104.008 77.6712 103.525 77.1795 103.225C76.6878 102.925 76.1503 102.775 75.567 102.775C74.867 102.775 74.0503 102.908 73.117 103.175C72.1837 103.442 71.092 103.783 69.842 104.2L69.317 102.25C70.617 101.833 71.7753 101.483 72.792 101.2C73.8087 100.917 74.742 100.775 75.592 100.775C76.742 100.775 77.7503 101.117 78.617 101.8C79.4837 102.483 79.917 103.442 79.917 104.675C79.917 105.092 79.8545 105.488 79.7295 105.863C79.6045 106.238 79.4253 106.592 79.192 106.925C79.9087 107.008 80.5003 107.338 80.967 107.913C81.4337 108.488 81.667 109.133 81.667 109.85C81.667 110.683 81.3795 111.392 80.8045 111.975C80.2295 112.558 79.517 112.85 78.667 112.85C78.2337 112.85 77.8128 112.754 77.4045 112.562C76.9962 112.371 76.6587 112.1 76.392 111.75C76.0587 112.45 75.5878 113 74.9795 113.4C74.3712 113.8 73.6753 114 72.892 114ZM78.692 110.85C78.9753 110.85 79.2087 110.754 79.392 110.562C79.5753 110.371 79.667 110.133 79.667 109.85C79.667 109.567 79.5712 109.325 79.3795 109.125C79.1878 108.925 78.9503 108.825 78.667 108.825C78.3837 108.825 78.1462 108.921 77.9545 109.113C77.7628 109.304 77.667 109.542 77.667 109.825C77.667 110.108 77.767 110.35 77.967 110.55C78.167 110.75 78.4087 110.85 78.692 110.85Z" fill="white"/>
<path d="M38.5719 140.47V155.494H36.7126V140.47H38.5719ZM28.7272 141.698V145.45H32.363V141.698H34.1891V151.958H26.8844V141.698H28.7272ZM28.7272 150.447H32.363V146.895H28.7272V150.447ZM54.4928 152.074V153.602H40.78V152.074H54.4928ZM48.5827 143.541C48.5827 145.749 50.8239 147.741 53.945 148.223L53.2145 149.684C50.6745 149.235 48.5993 147.882 47.6364 145.998C46.6652 147.907 44.6066 149.302 42.1081 149.767L41.3776 148.272C44.4157 147.808 46.6403 145.749 46.6403 143.541V143.309H41.9255V141.831H53.3141V143.309H48.5827V143.541ZM67.9899 140.47V155.478H66.1637V140.47H67.9899ZM58.1618 141.931V150.132C60.2702 150.099 62.5114 149.908 64.819 149.451L65.0514 150.995C62.4118 151.543 59.9548 151.709 57.6305 151.709H56.3356V141.931H58.1618ZM77.9176 142.528C77.9176 144.853 80.1921 147.177 83.3298 147.725L82.4997 149.269C79.9845 148.737 77.9259 147.218 76.9548 145.201C75.9587 147.202 73.9001 148.729 71.3932 149.269L70.5798 147.725C73.6842 147.16 75.9421 144.836 75.9587 142.528V141.416H77.9176V142.528ZM83.8776 152.041V153.568H70.1647V152.041H83.8776ZM97.8063 140.47V155.478H96.03V147.791H94.4362V154.747H92.693V140.735H94.4362V146.264H96.03V140.47H97.8063ZM91.2155 142.097V151.609H85.3219V142.097H91.2155ZM87.0485 143.558V150.148H89.4889V143.558H87.0485ZM108.448 142.146V143.607H105.244C105.252 145.276 106.564 146.911 108.963 147.542L108.099 148.97C106.356 148.513 105.078 147.484 104.381 146.164C103.7 147.633 102.422 148.787 100.629 149.318L99.7321 147.891C102.114 147.193 103.393 145.409 103.401 143.607H100.197V142.146H103.401V140.486H105.26V142.146H108.448ZM112.05 140.486V149.584H110.191V140.486H112.05ZM106.97 149.85C110.125 149.85 112.084 150.879 112.084 152.655C112.084 154.432 110.125 155.461 106.97 155.461C103.783 155.461 101.84 154.432 101.84 152.655C101.84 150.879 103.783 149.85 106.97 149.85ZM106.97 151.277C104.845 151.277 103.7 151.775 103.7 152.655C103.7 153.552 104.845 154.033 106.97 154.033C109.079 154.033 110.257 153.552 110.274 152.655C110.257 151.775 109.079 151.277 106.97 151.277ZM52.5339 160.47V166.181H54.8415V167.741H52.5339V175.478H50.6911V160.47H52.5339ZM43.1374 161.698V165.45H46.6735V161.698H48.5163V171.958H41.3112V161.698H43.1374ZM43.1374 170.447H46.6735V166.895H43.1374V170.447ZM69.1852 172.207V173.734H55.4723V172.207H61.3825V169.767H57.0993V164.853H65.7321V162.993H57.0661V161.499H67.5583V166.313H58.9421V168.256H67.9069V169.767H63.2087V172.207H69.1852ZM81.9186 160.47V166.33H84.1432V167.874H81.9186V175.444H80.0759V160.47H81.9186ZM77.9509 162.03C77.9509 166.446 76.1247 170.314 71.1276 172.771L70.0817 171.344C73.7341 169.526 75.7096 166.969 76.0915 163.558H70.8952V162.03H77.9509ZM97.3913 160.47V175.478H95.5319V160.47H97.3913ZM92.9089 162.063C92.9089 166.529 91.1823 170.331 85.9196 172.821L84.9567 171.344C88.883 169.476 90.7092 166.936 91.0329 163.524H85.7204V162.063H92.9089Z" fill="white"/>
<defs>
<linearGradient id="paint0_linear_2466_29982" x1="-0.376215" y1="4.30823e-06" x2="116.513" y2="210.859" gradientUnits="userSpaceOnUse">
<stop stop-color="#2DA34F"/>
<stop offset="1" stop-color="#1B5D88"/>
</linearGradient>
<linearGradient id="paint1_linear_2466_29982" x1="-221.7" y1="-155.306" x2="169.124" y2="-121.902" gradientUnits="userSpaceOnUse">
<stop stop-color="#2DA34F"/>
<stop offset="1" stop-color="#1B5D88"/>
</linearGradient>
<linearGradient id="paint2_linear_2466_29982" x1="69.667" y1="80" x2="69.667" y2="126" gradientUnits="userSpaceOnUse">
<stop stop-color="white" stop-opacity="0.1"/>
<stop offset="1" stop-color="white" stop-opacity="0.2"/>
</linearGradient>
</defs>
</svg>
