<svg width="16" height="16" viewBox="0 0 16 16" fill="none" xmlns="http://www.w3.org/2000/svg">
<path d="M2.23327 6.93363L7.5666 2.37067C7.81611 2.15721 8.18389 2.1572 8.4334 2.37067L13.7667 6.93363C13.9148 7.06029 14 7.24537 14 7.4402V13.4665C14 13.8347 13.7015 14.1332 13.3333 14.1332H10.1667C9.79848 14.1332 9.5 13.8347 9.5 13.4665V10.4667C9.5 10.2826 9.35076 10.1333 9.16667 10.1333H6.83333C6.64924 10.1333 6.5 10.2826 6.5 10.4667V13.4665C6.5 13.8347 6.20152 14.1332 5.83333 14.1332H2.66667C2.29848 14.1332 2 13.8347 2 13.4665V7.4402C2 7.24537 2.08523 7.06029 2.23327 6.93363Z" fill="white"/>
</svg>
