<svg width="1920" height="232" viewBox="0 0 1920 232" fill="none" xmlns="http://www.w3.org/2000/svg">
<g clip-path="url(#clip0_3827_6810)">
<path d="M0 0H1920C1920 128.13 1816.13 232 1688 232H0V0Z" fill="#F8F2FD"/>
<path d="M811.183 265.416C807.211 168.153 706.7 115.371 625.184 114.313C558.107 113.439 501.34 75.4621 442.722 46.848C413.532 32.5796 383.066 20.1659 350.828 15.75C323.287 11.9905 295.579 14.9654 269.409 25.2619C220.681 44.5559 181.524 86.9687 165.095 138.601C125.851 262.111 215.583 373.956 315.733 426.642C365.5 452.814 420.422 467.027 475.336 476.524C527.324 485.502 581.642 494.242 633.839 480.22C645.305 477.126 656.468 472.986 667.177 467.693C704.663 449.148 732.282 413.95 756.896 380.182C782.139 345.548 813.018 311.418 811.142 265.41L811.183 265.416Z" fill="url(#paint0_linear_3827_6810)"/>
<path d="M1548.29 -104.619C1483.59 -60.8976 1483.32 6.4201 1511.48 43.0048C1534.65 73.1102 1528.95 114.654 1530.26 152.978C1530.91 172.071 1533.26 190.929 1541.68 207.122C1548.88 220.95 1560.72 231.947 1576.99 239.103C1607.36 252.376 1650.06 251.432 1690.98 236.439C1788.83 200.547 1833.06 112.526 1833.39 45.4093C1833.55 12.0613 1823.75 -18.4115 1810.75 -46.8463C1798.44 -73.7614 1785.14 -101.606 1757.12 -118.69C1750.95 -122.437 1744.18 -125.599 1736.79 -128.062C1710.91 -136.674 1677.2 -133.73 1645.53 -130.071C1613.05 -126.317 1578.91 -125.278 1548.3 -104.599L1548.29 -104.619Z" fill="url(#paint1_linear_3827_6810)"/>
<path d="M1037.24 -2.36364C1035.36 43.8269 987.625 68.893 948.913 69.3956C917.058 69.8105 890.099 87.8459 862.262 101.435C848.4 108.211 833.931 114.106 818.621 116.203C805.542 117.989 792.383 116.576 779.955 111.686C756.814 102.523 738.219 82.3814 730.417 57.8614C711.78 -0.79374 754.393 -53.9092 801.955 -78.93C825.589 -91.3591 851.672 -98.1087 877.75 -102.619C902.44 -106.883 928.235 -111.033 953.023 -104.374C958.469 -102.905 963.77 -100.939 968.856 -98.4251C986.658 -89.6181 999.774 -72.9022 1011.46 -56.8659C1023.45 -40.4182 1038.12 -24.2099 1037.23 -2.36076L1037.24 -2.36364Z" fill="url(#paint2_linear_3827_6810)"/>
</g>
<defs>
<linearGradient id="paint0_linear_3827_6810" x1="332.628" y1="486.123" x2="347.28" y2="303.209" gradientUnits="userSpaceOnUse">
<stop stop-color="#4A1278" stop-opacity="0.08"/>
<stop offset="1" stop-color="#4A1278" stop-opacity="0.04"/>
</linearGradient>
<linearGradient id="paint1_linear_3827_6810" x1="1867.83" y1="12.2602" x2="1742.31" y2="91.0321" gradientUnits="userSpaceOnUse">
<stop stop-color="#4A1278" stop-opacity="0.04"/>
<stop offset="1" stop-color="#4A1278" stop-opacity="0.02"/>
</linearGradient>
<linearGradient id="paint2_linear_3827_6810" x1="809.978" y1="-107.178" x2="816.936" y2="-20.3115" gradientUnits="userSpaceOnUse">
<stop stop-color="#4A1278" stop-opacity="0.08"/>
<stop offset="1" stop-color="#4A1278" stop-opacity="0.04"/>
</linearGradient>
<clipPath id="clip0_3827_6810">
<path d="M0 0H1920C1920 128.13 1816.13 232 1688 232H0V0Z" fill="white"/>
</clipPath>
</defs>
</svg>
