<svg width="20" height="20" viewBox="0 0 20 20" fill="none" xmlns="http://www.w3.org/2000/svg">
<rect width="20" height="20" rx="10" fill="#F4F5F6"/>
<path d="M10.3571 9.6408V7.06044C10.3571 6.95925 10.3232 6.8744 10.2552 6.80591C10.1873 6.7375 10.1031 6.7033 10.0027 6.7033C9.90229 6.7033 9.81722 6.7375 9.74753 6.80591C9.67775 6.8744 9.64286 6.95925 9.64286 7.06044V9.76758C9.64286 9.83223 9.65485 9.89029 9.67885 9.94176C9.70275 9.99322 9.73585 10.0401 9.77816 10.0824L11.6853 11.9897C11.7628 12.0672 11.8477 12.1045 11.94 12.1016C12.0323 12.0988 12.1182 12.0576 12.1978 11.978C12.2774 11.8984 12.3172 11.8134 12.3172 11.7228C12.3172 11.6323 12.2758 11.5462 12.1931 11.4643L10.3571 9.6408ZM10.001 15C9.31223 15 8.66479 14.8699 8.05865 14.6096C7.45261 14.3494 6.92152 13.9913 6.46538 13.5353C6.00925 13.0793 5.65096 12.5478 5.39052 11.9407C5.13017 11.3336 5 10.6849 5 9.99464C5 9.30435 5.13013 8.65531 5.39038 8.04753C5.65064 7.43974 6.00875 6.91007 6.4647 6.45852C6.92065 6.00696 7.4522 5.65096 8.05934 5.39052C8.66639 5.13017 9.31506 5 10.0054 5C10.6957 5 11.3447 5.13123 11.9525 5.39368C12.5603 5.65614 13.0891 6.01232 13.5387 6.46223C13.9884 6.91213 14.3443 7.44121 14.6066 8.04945C14.8689 8.65769 15 9.30755 15 9.99904C15 10.6878 14.8699 11.3352 14.6096 11.9413C14.3494 12.5474 13.9935 13.0785 13.5422 13.5346C13.0908 13.9908 12.5608 14.349 11.9521 14.6095C11.3434 14.8698 10.693 15 10.001 15ZM10.0066 14.2857C11.1922 14.2857 12.2018 13.8668 13.0354 13.0288C13.869 12.1909 14.2857 11.1791 14.2857 9.99341C14.2857 8.80778 13.869 7.79817 13.0354 6.96456C12.2018 6.13104 11.1922 5.71429 10.0066 5.71429C8.82088 5.71429 7.80907 6.13104 6.97115 6.96456C6.13324 7.79817 5.71429 8.80778 5.71429 9.99341C5.71429 11.1791 6.13324 12.1909 6.97115 13.0288C7.80907 13.8668 8.82088 14.2857 10.0066 14.2857Z" fill="#6D7882"/>
</svg>
