<svg width="40" height="40" viewBox="0 0 40 40" fill="none" xmlns="http://www.w3.org/2000/svg">
<path d="M11.0258 31V28.9358H23.3515C25.1604 28.9358 26.7097 28.3263 27.9993 27.1073C29.2889 25.888 29.9337 24.3853 29.9337 22.5992C29.9337 20.8203 29.2889 19.3238 27.9993 18.1097C26.7097 16.8959 25.1604 16.289 23.3515 16.289H10.9427L15.7192 21.0607L14.2643 22.5138L7 15.2569L14.2643 8L15.7192 9.45352L10.9427 14.2252H23.3239C25.7071 14.2252 27.7489 15.0327 29.4493 16.6476C31.1498 18.2628 32 20.2467 32 22.5992C32 24.9518 31.1498 26.9401 29.4493 28.5641C27.7489 30.188 25.7071 31 23.3239 31H11.0258Z" fill="#1D1D1D"/>
</svg>
