<svg width="25" height="24" viewBox="0 0 25 24" fill="none" xmlns="http://www.w3.org/2000/svg">
<path d="M18 10.8984C18 12.9138 17.335 14.7736 16.2158 16.2734L19.2217 19.2793L19.3115 19.3779C19.6996 19.8544 19.6991 20.5421 19.3105 21.0186L19.2217 21.1172C18.714 21.6249 17.8905 21.6249 17.3828 21.1172L14.3779 18.1123C12.8775 19.2327 11.0165 19.8984 9 19.8984C4.02944 19.8984 0 15.869 0 10.8984C0 5.92787 4.02944 1.89844 9 1.89844C13.9706 1.89844 18 5.92787 18 10.8984ZM15.4004 10.8984C15.4004 7.36382 12.5346 4.49805 9 4.49805C5.46538 4.49805 2.59961 7.36382 2.59961 10.8984C2.59961 14.4331 5.46538 17.2988 9 17.2988C10.6584 17.2988 12.166 16.6648 13.3037 15.6289C13.3565 15.5429 13.4209 15.4629 13.4941 15.3896L13.5713 15.3184C13.6233 15.2742 13.6776 15.234 13.7344 15.1992C14.7682 14.062 15.4004 12.5553 15.4004 10.8984Z" fill="white"/>
</svg>
