<svg width="20" height="20" viewBox="0 0 20 20" fill="none" xmlns="http://www.w3.org/2000/svg">
<path d="M18 9C18 11.0153 17.335 12.8751 16.2158 14.375L19.2217 17.3809L19.3115 17.4795C19.6996 17.9559 19.6991 18.6437 19.3105 19.1201L19.2217 19.2188C18.714 19.7264 17.8905 19.7264 17.3828 19.2188L14.3779 16.2139C12.8775 17.3343 11.0165 18 9 18C4.02944 18 0 13.9706 0 9C0 4.02944 4.02944 0 9 0C13.9706 0 18 4.02944 18 9ZM15.4004 9C15.4004 5.46538 12.5346 2.59961 9 2.59961C5.46538 2.59961 2.59961 5.46538 2.59961 9C2.59961 12.5346 5.46538 15.4004 9 15.4004C10.6584 15.4004 12.166 14.7664 13.3037 13.7305C13.3565 13.6445 13.4209 13.5645 13.4941 13.4912L13.5713 13.4199C13.6233 13.3757 13.6776 13.3355 13.7344 13.3008C14.7682 12.1635 15.4004 10.6568 15.4004 9Z" fill="#F8F2FD"/>
</svg>
