<svg width="20" height="20" viewBox="0 0 20 20" fill="none" xmlns="http://www.w3.org/2000/svg">
<path d="M4.9987 18.3335C4.54036 18.3335 4.148 18.1703 3.82161 17.8439C3.49523 17.5175 3.33203 17.1252 3.33203 16.6668V8.3335C3.33203 7.87516 3.49523 7.4828 3.82161 7.15641C4.148 6.83002 4.54036 6.66683 4.9987 6.66683H5.83203V5.00016C5.83203 3.84739 6.23828 2.86475 7.05078 2.05225C7.86328 1.23975 8.84592 0.833496 9.9987 0.833496C11.1515 0.833496 12.1341 1.23975 12.9466 2.05225C13.7591 2.86475 14.1654 3.84739 14.1654 5.00016V6.66683H14.9987C15.457 6.66683 15.8494 6.83002 16.1758 7.15641C16.5022 7.4828 16.6654 7.87516 16.6654 8.3335V16.6668C16.6654 17.1252 16.5022 17.5175 16.1758 17.8439C15.8494 18.1703 15.457 18.3335 14.9987 18.3335H4.9987ZM9.9987 14.1668C10.457 14.1668 10.8494 14.0036 11.1758 13.6772C11.5022 13.3509 11.6654 12.9585 11.6654 12.5002C11.6654 12.0418 11.5022 11.6495 11.1758 11.3231C10.8494 10.9967 10.457 10.8335 9.9987 10.8335C9.54036 10.8335 9.148 10.9967 8.82161 11.3231C8.49523 11.6495 8.33203 12.0418 8.33203 12.5002C8.33203 12.9585 8.49523 13.3509 8.82161 13.6772C9.148 14.0036 9.54036 14.1668 9.9987 14.1668ZM7.4987 6.66683H12.4987V5.00016C12.4987 4.30572 12.2556 3.71544 11.7695 3.22933C11.2834 2.74322 10.6931 2.50016 9.9987 2.50016C9.30425 2.50016 8.71398 2.74322 8.22786 3.22933C7.74175 3.71544 7.4987 4.30572 7.4987 5.00016V6.66683Z" fill="#58616A"/>
</svg>
