<svg width="12" height="12" viewBox="0 0 12 12" fill="none" xmlns="http://www.w3.org/2000/svg">
<path d="M3.81081 6.32432H8.18919C8.28162 6.32432 8.35878 6.29378 8.42068 6.2327C8.48257 6.17162 8.51351 6.09547 8.51351 6.00426C8.51351 5.91304 8.48257 5.83547 8.42068 5.77155C8.35878 5.70763 8.28162 5.67568 8.18919 5.67568H3.81081C3.71838 5.67568 3.64122 5.70622 3.57932 5.7673C3.51743 5.82838 3.48649 5.90453 3.48649 5.99574C3.48649 6.08696 3.51743 6.16453 3.57932 6.22845C3.64122 6.29236 3.71838 6.32432 3.81081 6.32432ZM1.1477 12C0.819054 12 0.545608 11.8909 0.327365 11.6726C0.109122 11.4544 0 11.1809 0 10.8523V1.1477C0 0.819054 0.109122 0.545609 0.327365 0.327365C0.545608 0.109122 0.819054 0 1.1477 0H10.8523C11.1809 0 11.4544 0.109122 11.6726 0.327365C11.8909 0.545609 12 0.819054 12 1.1477V10.8523C12 11.1809 11.8909 11.4544 11.6726 11.6726C11.4544 11.8909 11.1809 12 10.8523 12H1.1477ZM1.1477 11.3514H10.8523C10.9772 11.3514 11.0916 11.2994 11.1955 11.1955C11.2994 11.0916 11.3514 10.9772 11.3514 10.8523V1.1477C11.3514 1.02284 11.2994 0.908446 11.1955 0.804527C11.0916 0.700608 10.9772 0.648649 10.8523 0.648649H1.1477C1.02284 0.648649 0.908446 0.700608 0.804527 0.804527C0.700608 0.908446 0.648649 1.02284 0.648649 1.1477V10.8523C0.648649 10.9772 0.700608 11.0916 0.804527 11.1955C0.908446 11.2994 1.02284 11.3514 1.1477 11.3514Z" fill="#58616A"/>
</svg>
