<svg width="14" height="14" viewBox="0 0 14 14" fill="none" xmlns="http://www.w3.org/2000/svg">
<path d="M1.33979 13.1667C0.964653 13.1667 0.647569 13.0372 0.388542 12.7781C0.129514 12.5191 0 12.202 0 11.8269V1.33979C0 0.964653 0.129514 0.64757 0.388542 0.388542C0.647569 0.129514 0.964653 0 1.33979 0H5.72104C5.87479 0 6.00354 0.0514578 6.10729 0.154374C6.2109 0.257152 6.26271 0.384791 6.26271 0.537291C6.26271 0.689791 6.2109 0.818889 6.10729 0.924583C6.00354 1.03042 5.87479 1.08333 5.72104 1.08333H1.33979C1.27562 1.08333 1.21688 1.11007 1.16354 1.16354C1.11007 1.21687 1.08333 1.27562 1.08333 1.33979V11.8269C1.08333 11.891 1.11007 11.9498 1.16354 12.0031C1.21688 12.0566 1.27562 12.0833 1.33979 12.0833H11.8269C11.891 12.0833 11.9498 12.0566 12.0031 12.0031C12.0566 11.9498 12.0833 11.891 12.0833 11.8269V7.44563C12.0833 7.29188 12.1347 7.16313 12.2375 7.05938C12.3404 6.95576 12.4681 6.90396 12.6206 6.90396C12.7731 6.90396 12.9022 6.95576 13.0079 7.05938C13.1138 7.16313 13.1667 7.29188 13.1667 7.44563V11.8269C13.1667 12.202 13.0372 12.5191 12.7781 12.7781C12.5191 13.0372 12.202 13.1667 11.8269 13.1667H1.33979Z" fill="#1B5D88"/>
<path d="M12.0837 1.85729L8.03887 5.90229C7.92345 6.01757 7.79921 6.07312 7.66616 6.06896C7.53324 6.06465 7.40637 6.00215 7.28553 5.88146C7.16484 5.76062 7.10449 5.6316 7.10449 5.49438C7.10449 5.35715 7.16484 5.22813 7.28553 5.10729L11.3097 1.08333H9.12533C8.97158 1.08333 8.84289 1.03194 8.73928 0.929166C8.63553 0.82625 8.58366 0.698542 8.58366 0.546042C8.58366 0.393542 8.63553 0.264444 8.73928 0.15875C8.84289 0.0529166 8.97158 0 9.12533 0H12.497C12.6882 0 12.8477 0.0638891 12.9753 0.191667C13.1031 0.319306 13.167 0.478749 13.167 0.669999V4.04167C13.167 4.19542 13.1155 4.3241 13.0126 4.42771C12.9098 4.53146 12.7822 4.58333 12.6297 4.58333C12.4772 4.58333 12.3481 4.53146 12.2424 4.42771C12.1366 4.3241 12.0837 4.19542 12.0837 4.04167V1.85729Z" fill="#2DA34F"/>
</svg>
