<svg width="16" height="16" viewBox="0 0 16 16" fill="none" xmlns="http://www.w3.org/2000/svg">
<path d="M0.790123 12.2408C0.566255 12.2408 0.378601 12.165 0.22716 12.0136C0.0757202 11.8622 0 11.6745 0 11.4506C0 11.2268 0.0757202 11.0391 0.22716 10.8877C0.378601 10.7362 0.566255 10.6605 0.790123 10.6605H13.4321C13.656 10.6605 13.8436 10.7362 13.9951 10.8877C14.1465 11.0391 14.2222 11.2268 14.2222 11.4506C14.2222 11.6745 14.1465 11.8622 13.9951 12.0136C13.8436 12.165 13.656 12.2408 13.4321 12.2408H0.790123ZM2.37037 8.29014C2.1465 8.29014 1.95885 8.21442 1.80741 8.06298C1.65597 7.91154 1.58025 7.72389 1.58025 7.50002C1.58025 7.27615 1.65597 7.0885 1.80741 6.93706C1.95885 6.78561 2.1465 6.70989 2.37037 6.70989H13.4321C13.656 6.70989 13.8436 6.78561 13.9951 6.93706C14.1465 7.0885 14.2222 7.27615 14.2222 7.50002C14.2222 7.72389 14.1465 7.91154 13.9951 8.06298C13.8436 8.21442 13.656 8.29014 13.4321 8.29014H7.11111H2.37037ZM0.790123 4.33952C0.566255 4.33952 0.378601 4.2638 0.22716 4.11236C0.0757202 3.96092 0 3.77327 0 3.5494C0 3.32553 0.0757202 3.13788 0.22716 2.98644C0.378601 2.835 0.566255 2.75928 0.790123 2.75928H13.4321C13.656 2.75928 13.8436 2.835 13.9951 2.98644C14.1465 3.13788 14.2222 3.32553 14.2222 3.5494C14.2222 3.77327 14.1465 3.96092 13.9951 4.11236C13.8436 4.2638 13.656 4.33952 13.4321 4.33952H0.790123Z" fill="#1E2124"/>
</svg>
