<svg width="80" height="80" viewBox="0 0 80 80" fill="none" xmlns="http://www.w3.org/2000/svg">
<rect width="80" height="80" rx="40" fill="#F8F2FD"/>
<rect x="3" y="3" width="74" height="74" rx="37" stroke="#E0C5F6" stroke-opacity="0.3" stroke-width="6"/>
<g clip-path="url(#clip0_2582_4768)">
<path d="M61.1313 33.1035H37.8124C36.2292 33.1035 34.9453 34.6064 34.9453 36.4585V46.5253C34.9453 48.3794 36.2292 49.8803 37.8124 49.8803H47.3303V56L53.9191 49.8803H61.1333C62.7165 49.8803 64.0004 48.3774 64.0004 46.5253V36.4585C64.0004 34.6044 62.7165 33.1035 61.1333 33.1035H61.1313Z" fill="#9940E2"/>
<path d="M30.8578 42.423C30.6638 42.423 30.4739 42.3556 30.3211 42.2269L25.0059 37.7224H19.2387C17.4532 37.7224 16 36.1991 16 34.3286V26.5937C16 24.7233 17.4532 23.2 19.2387 23.2H38.8688C40.6543 23.2 42.1075 24.7233 42.1075 26.5937V34.3266C42.1075 36.1991 40.6543 37.7203 38.8688 37.7203H31.6835V41.6041C31.6835 41.9227 31.4957 42.2126 31.2025 42.3454C31.0931 42.3964 30.9755 42.4209 30.8578 42.4209V42.423ZM19.2387 24.8335C18.3635 24.8335 17.6513 25.6238 17.6513 26.5937V34.3266C17.6513 35.2965 18.3635 36.0868 19.2387 36.0868H25.3114C25.5075 36.0868 25.6995 36.1562 25.8481 36.2828L30.0322 39.8276V36.9035C30.0322 36.4523 30.4017 36.0868 30.8578 36.0868H38.8688C39.744 36.0868 40.4562 35.2965 40.4562 34.3266V26.5937C40.4562 25.6238 39.744 24.8335 38.8688 24.8335H19.2387Z" fill="#13051F"/>
<path d="M28.9286 26.4855C29.3931 26.4855 29.7729 26.8755 29.7729 27.3533V31.7354C29.7729 32.2214 29.3931 32.6032 28.9286 32.6032C28.4642 32.6032 28.0844 32.2214 28.0844 31.7354V27.3533C28.0844 26.8755 28.4559 26.4855 28.9286 26.4855ZM28.9204 33.0096C29.3765 33.0096 29.7563 33.3996 29.7563 33.8692C29.7563 34.3389 29.3765 34.7289 28.9204 34.7289C28.4642 34.7289 28.0844 34.3389 28.0844 33.8692C28.0844 33.3996 28.4642 33.0096 28.9204 33.0096Z" fill="#13051F"/>
<path d="M49.6515 44.3914C49.1107 44.3914 48.638 44.0749 48.638 43.5317V43.1581C48.638 42.0942 48.9682 41.5837 49.6969 41.0181C50.7104 40.236 50.9539 39.6928 50.7331 39.1721C50.5576 38.7413 50.0932 38.5269 49.6535 38.5269C49.0033 38.5269 48.5079 38.9577 48.2871 39.4111C48.0435 39.9215 47.3602 40.1462 46.8318 39.8746C46.3364 39.6255 46.1713 39.0476 46.4128 38.4248C46.7761 37.4957 48.0228 36.489 49.6535 36.489C51.053 36.489 52.3885 37.1241 52.8736 38.4023C53.4805 40.0094 52.5867 41.1079 51.2532 42.1044C50.7455 42.4658 50.6691 42.7721 50.6691 43.1581V43.5317C50.6691 44.0749 50.118 44.3914 49.6556 44.3914H49.6515ZM49.6515 44.9223C50.2459 44.9223 50.7434 45.4328 50.7434 46.0433C50.7434 46.6539 50.248 47.1644 49.6515 47.1644C49.0549 47.1644 48.5595 46.6539 48.5595 46.0433C48.5595 45.4328 49.0549 44.9223 49.6515 44.9223Z" fill="#13051F"/>
</g>
<defs>
<clipPath id="clip0_2582_4768">
<rect width="48" height="48" fill="white" transform="translate(16 16)"/>
</clipPath>
</defs>
</svg>
