<svg width="20" height="20" viewBox="0 0 20 20" fill="none" xmlns="http://www.w3.org/2000/svg">
<rect x="0.5" y="0.5" width="19" height="19" rx="9.5" fill="#F4F5F6"/>
<rect x="0.5" y="0.5" width="19" height="19" rx="9.5" stroke="#E6E8EA"/>
<path d="M9 10.8244L12.4978 7.25191C12.6622 7.08397 12.8714 7 13.1256 7C13.3797 7 13.5889 7.08397 13.7534 7.25191C13.9178 7.41985 14 7.63359 14 7.89313C14 8.15267 13.9178 8.36641 13.7534 8.53435L9.6278 12.7481C9.53812 12.8397 9.44096 12.9046 9.33632 12.9427C9.23169 12.9809 9.11958 13 9 13C8.88042 13 8.76831 12.9809 8.66368 12.9427C8.55904 12.9046 8.46188 12.8397 8.3722 12.7481L6.24664 10.5344C6.08221 10.3664 6 10.1527 6 9.89313C6 9.63359 6.08221 9.41985 6.24664 9.25191C6.41106 9.08397 6.62033 9 6.87444 9C7.12855 9 7.33782 9.08397 7.50224 9.25191L9 10.8244Z" fill="#6D7882"/>
</svg>
