<svg width="16" height="16" viewBox="0 0 16 16" fill="none" xmlns="http://www.w3.org/2000/svg">
<path d="M4.66684 13.3316V5.98155C4.66684 5.61489 4.80017 5.30377 5.06684 5.04822C5.33351 4.79266 5.65017 4.66489 6.01684 4.66489H13.3335C13.7002 4.66489 14.0141 4.79544 14.2752 5.05655C14.5363 5.31766 14.6668 5.63155 14.6668 5.99822V11.3316L11.3335 14.6649H6.00017C5.63351 14.6649 5.31962 14.5343 5.05851 14.2732C4.79739 14.0121 4.66684 13.6982 4.66684 13.3316ZM1.35017 4.16489C1.28351 3.79822 1.35573 3.46766 1.56684 3.17322C1.77795 2.87877 2.06684 2.69822 2.43351 2.63155L9.66684 1.34822C10.0335 1.28155 10.3641 1.35377 10.6585 1.56489C10.953 1.776 11.1335 2.06489 11.2002 2.43155L11.3668 3.33155H6.00017C5.26684 3.33155 4.63906 3.59266 4.11684 4.11489C3.59462 4.63711 3.33351 5.26489 3.33351 5.99822V12.3649C3.15573 12.2649 3.00295 12.1316 2.87517 11.9649C2.74739 11.7982 2.66684 11.6093 2.63351 11.3982L1.35017 4.16489ZM13.3335 10.6649H10.6668V13.3316L13.3335 10.6649Z" fill="#464C53"/>
</svg>
