<svg width="20" height="20" viewBox="0 0 20 20" fill="none" xmlns="http://www.w3.org/2000/svg">
<path d="M17.6631 12.6667C18.0313 12.6667 18.3301 12.9656 18.3301 13.3337V15.9998C18.3301 16.3679 18.0313 16.6667 17.6631 16.6667H2.33008C2.15344 16.6667 1.98431 16.5963 1.85938 16.4714C1.73435 16.3464 1.66402 16.1766 1.66406 15.9998V13.3337C1.66415 12.9656 1.96294 12.6667 2.33105 12.6667C2.69924 12.6668 2.99814 12.9656 2.99805 13.3337L2.99707 15.3337H16.9961V13.3337C16.9961 12.9656 17.2949 12.6667 17.6631 12.6667ZM9.99609 2.49976C10.3643 2.49976 10.6631 2.79856 10.6631 3.16675V11.2615L13.6826 8.12085C13.9378 7.8557 14.3596 7.84739 14.625 8.10229C14.8904 8.35749 14.8988 8.78025 14.6436 9.04565L10.4766 13.3787C10.3509 13.5092 10.1773 13.5828 9.99609 13.5828C9.81487 13.5827 9.64124 13.5093 9.51562 13.3787L5.34961 9.04565C5.09441 8.78025 5.10276 8.35749 5.36816 8.10229C5.63359 7.84751 6.05548 7.85559 6.31055 8.12085L9.33008 11.2615V3.16675C9.33008 2.79867 9.62805 2.49993 9.99609 2.49976Z" fill="#1D1D1D"/>
</svg>
