<svg width="24" height="24" viewBox="0 0 24 24" fill="none" xmlns="http://www.w3.org/2000/svg">
<path d="M12.001 7C15.6302 7.00005 18.8947 8.96975 19.915 11.6484C20.0151 11.911 20.0304 12.2059 19.9404 12.4873C19.3182 14.4302 16.8655 17 12.001 17C7.11691 17 4.71104 14.1796 4.08008 12.5088C3.97725 12.2365 3.97643 11.9459 4.06152 11.6816C4.50469 10.3057 5.60945 9.136 7.00977 8.31836C8.41661 7.49695 10.1702 7 12.001 7ZM12.001 8.26953C10.3984 8.26953 8.87042 8.70623 7.66309 9.41113C6.44927 10.1199 5.60627 11.0697 5.28516 12.0664V12.0693C5.7425 13.2737 7.68879 15.7305 12.001 15.7305C16.3649 15.7304 18.2787 13.4655 18.7148 12.1055L18.7129 12.0957C17.9264 10.031 15.2367 8.26958 12.001 8.26953ZM12.001 8.98438C13.6861 8.98455 15.0517 10.3345 15.0518 12C15.0518 13.6655 13.6862 15.0154 12.001 15.0156C10.3156 15.0156 8.94922 13.6656 8.94922 12C8.94925 10.3344 10.3157 8.98438 12.001 8.98438ZM12.001 10.2539C11.0253 10.2539 10.2344 11.0357 10.2344 12C10.2344 12.9643 11.0253 13.7461 12.001 13.7461C12.9765 13.7459 13.7676 12.9642 13.7676 12C13.7676 11.0358 12.9765 10.2541 12.001 10.2539Z" fill="#58616A"/>
</svg>
