<svg width="1410" height="860" viewBox="0 0 1410 860" fill="none" xmlns="http://www.w3.org/2000/svg">
<g clip-path="url(#clip0_2121_11413)">
<rect width="1410" height="860" fill="#F8F2FD"/>
<path d="M650.796 711.416C646.825 614.153 546.313 561.371 464.797 560.313C397.721 559.439 340.953 521.462 282.335 492.848C253.145 478.58 222.68 466.166 190.441 461.75C162.9 457.991 135.192 460.965 109.022 471.262C60.2939 490.556 21.1376 532.969 4.70868 584.601C-34.5352 708.111 55.1966 819.956 155.347 872.642C205.114 898.814 260.035 913.027 314.949 922.523C366.938 931.502 421.255 940.242 473.452 926.22C484.918 923.126 496.082 918.986 506.791 913.693C544.276 895.148 571.896 859.95 596.509 826.182C621.752 791.548 652.631 757.418 650.756 711.41L650.796 711.416Z" fill="url(#paint0_linear_2121_11413)" fill-opacity="0.4"/>
<path d="M366.935 226.346C411.461 261.073 472.519 236.399 503.564 200.728C529.112 171.376 567.21 160.504 601.859 145.301C619.122 137.738 636.043 128.914 650.089 116.306C662.084 105.53 671.161 92.154 676.422 76.7123C686.164 47.9143 682.085 14.6794 665.402 -11.9576C625.474 -75.6519 542.326 -77.9029 481.447 -53.3527C451.198 -41.1499 424.308 -22.1801 399.507 -1.44486C376.033 18.1906 351.791 38.9457 338.415 67.301C335.483 73.5351 333.128 80.0276 331.452 86.7515C325.597 110.294 330.811 135.718 336.519 159.276C342.375 183.436 345.893 209.902 366.953 226.33L366.935 226.346Z" fill="url(#paint1_linear_2121_11413)" fill-opacity="0.5"/>
<path d="M952.542 347.406C1023.73 413.8 1132.32 380.699 1191.05 324.156C1239.38 277.632 1306.45 264.746 1368.26 243.899C1399.05 233.532 1429.45 220.948 1455.48 201.43C1477.72 184.747 1495.34 163.155 1506.71 137.437C1527.81 89.4637 1525.86 31.7729 1501.25 -16.5012C1442.36 -131.94 1299.92 -148.428 1191.64 -115.513C1137.85 -99.1497 1088.79 -70.6569 1043.06 -38.815C999.765 -8.66031 954.985 23.3003 927.712 69.962C921.73 80.2221 916.7 91.0136 912.802 102.306C899.173 141.844 904.266 186.295 910.492 227.614C916.88 269.992 918.903 315.974 952.575 347.382L952.542 347.406Z" fill="url(#paint2_linear_2121_11413)" fill-opacity="0.5"/>
</g>
<defs>
<linearGradient id="paint0_linear_2121_11413" x1="193.158" y1="657.254" x2="209.9" y2="461.971" gradientUnits="userSpaceOnUse">
<stop stop-color="#3719A6" stop-opacity="0"/>
<stop offset="1" stop-color="#3719A6" stop-opacity="0.08"/>
</linearGradient>
<linearGradient id="paint1_linear_2121_11413" x1="562.566" y1="44.1721" x2="642.692" y2="124.833" gradientUnits="userSpaceOnUse">
<stop stop-color="#3719A6" stop-opacity="0"/>
<stop offset="1" stop-color="#3719A6" stop-opacity="0.08"/>
</linearGradient>
<linearGradient id="paint2_linear_2121_11413" x1="1137.82" y1="-145.948" x2="1255.96" y2="-5.53948" gradientUnits="userSpaceOnUse">
<stop stop-color="#FF6695" stop-opacity="0.08"/>
<stop offset="1" stop-color="#FF6695" stop-opacity="0"/>
</linearGradient>
<clipPath id="clip0_2121_11413">
<rect width="1410" height="860" fill="white"/>
</clipPath>
</defs>
</svg>
