<svg width="187" height="180" viewBox="0 0 187 180" fill="none" xmlns="http://www.w3.org/2000/svg">
<rect width="186.4" height="180" rx="12" fill="url(#paint0_linear_3827_6814)"/>
<path d="M37.931 24.3418C37.9183 25.916 38.9974 27.3506 40.7493 27.9346L40.1399 28.8867C38.826 28.4233 37.8357 27.4966 37.3216 26.3096C36.8138 27.5854 35.8172 28.5947 34.4651 29.0771L33.8558 28.1377C35.6331 27.5029 36.6995 25.9668 36.6995 24.3418V23.25H37.931V24.3418ZM43.2249 30.0801V34.0791H42.0188V31.0576H35.5188V30.0801H43.2249ZM43.2249 22.7041V29.5342H42.0188V22.7041H43.2249ZM55.3997 28.1504V29.1152H50.804V30.334H54.1302V33.9395H46.2718V30.334H49.6106V29.1152H45.0276V28.1504H55.3997ZM54.4222 23.0596V24.0371H52.7718V26.208H54.3714V27.1855H46.0306V26.208H47.6429V24.0371H45.9798V23.0596H54.4222ZM47.4651 31.2861V32.9619H52.9622V31.2861H47.4651ZM48.8362 26.208H51.5657V24.0371H48.8362V26.208ZM60.2112 24.7861C60.2112 26.3096 61.2776 27.7441 63.0042 28.3281L62.3821 29.2803C61.1062 28.8296 60.1604 27.9219 59.6526 26.7793C59.1575 28.0552 58.18 29.0518 56.847 29.5469L56.1741 28.5947C57.9769 27.9727 59.0179 26.4492 59.0179 24.748V23.4023H60.2112V24.7861ZM65.2005 22.6914V26.1191H66.8509V27.1475H65.2005V31.083H63.9944V22.6914H65.2005ZM65.6956 32.8604V33.8379H58.0022V30.2705H59.2337V32.8604H65.6956ZM70.6468 23.2246C72.1448 23.2119 73.3001 24.0815 73.554 25.3574H75.7757V22.7041H76.9817V28.8105H75.7757V26.3477H73.5667C73.3191 27.6553 72.1575 28.5312 70.6468 28.5312C68.9075 28.5312 67.6634 27.4395 67.6634 25.8652C67.6634 24.3164 68.9075 23.2119 70.6468 23.2246ZM70.6468 24.2275C69.5677 24.2275 68.8186 24.8877 68.8186 25.8652C68.8186 26.8428 69.5677 27.5156 70.6468 27.5156C71.7005 27.5156 72.4495 26.8428 72.4495 25.8652C72.4495 24.8877 71.7005 24.2275 70.6468 24.2275ZM70.761 29.3564V30.6768H75.7757V29.3564H76.9817V33.9395H69.5677V29.3564H70.761ZM70.761 32.9492H75.7757V31.6289H70.761V32.9492ZM88.2171 22.7041V29.4707H87.011V26.5889H84.8909V25.5986H87.011V22.7041H88.2171ZM84.4085 29.7881C86.7952 29.7881 88.2552 30.5752 88.2552 31.9336C88.2552 33.292 86.7952 34.0664 84.4085 34.0791C82.0218 34.0664 80.5491 33.292 80.5618 31.9336C80.5491 30.5752 82.0218 29.7881 84.4085 29.7881ZM84.4085 30.7275C82.7454 30.7275 81.7552 31.1592 81.7552 31.9336C81.7552 32.6953 82.7454 33.1396 84.4085 33.127C86.0716 33.1396 87.0618 32.6953 87.0618 31.9336C87.0618 31.1592 86.0716 30.7275 84.4085 30.7275ZM82.8089 24.71C82.8089 26.1572 83.8372 27.5537 85.5511 28.1377L84.929 29.0898C83.6531 28.6455 82.7137 27.7378 82.2249 26.6143C81.7234 27.8901 80.7269 28.9121 79.3685 29.4072L78.7337 28.4424C80.4983 27.833 81.5774 26.2969 81.5774 24.7227V24.4688H79.1145V23.4912H85.2464V24.4688H82.8089V24.71ZM100.379 31.667V32.6699H89.969V31.667H94.552V29.3311H91.1624V23.4785H92.3685V25.4336H97.9544V23.4785H99.1478V29.3311H95.7454V31.667H100.379ZM92.3685 28.3535H97.9544V26.4111H92.3685V28.3535ZM111.602 27.9219V28.8486H101.192V27.9219H111.602ZM110.32 29.6484V32.1494H103.642V33.0889H110.675V33.9395H102.436V31.3496H109.126V30.5117H102.423V29.6484H110.32ZM110.294 22.9961V25.459H103.718V26.3223H110.485V27.1729H102.525V24.6592H109.088V23.8467H102.499V22.9961H110.294ZM125.122 22.7168V26.373H126.773V27.376H125.122V31.2227H123.916V22.7168H125.122ZM122.977 24.0371V25.0146H116.198V24.0371H118.991V22.7041H120.197V24.0371H122.977ZM119.587 25.5605C121.225 25.5605 122.342 26.4111 122.342 27.7061C122.342 29.001 121.225 29.8389 119.587 29.8389C117.937 29.8389 116.82 29.001 116.82 27.7061C116.82 26.4111 117.937 25.5605 119.587 25.5605ZM119.587 26.4873C118.622 26.4873 117.975 26.957 117.988 27.7061C117.975 28.4424 118.622 28.8994 119.587 28.8994C120.552 28.8994 121.2 28.4424 121.212 27.7061C121.2 26.957 120.552 26.4873 119.587 26.4873ZM125.605 32.8604V33.8379H117.911V30.5498H119.117V32.8604H125.605ZM136.624 26.043V27.0078H128.817V23.0977H130.023V26.043H136.624ZM137.805 28.2393V29.2041H133.298V31.4512H132.105V29.2041H127.42V28.2393H137.805ZM136.713 32.8604V33.8379H128.715V30.4863H129.908V32.8604H136.713ZM148.444 22.7041V34.0791H147.288V22.7041H148.444ZM146.133 22.9199V33.5205H144.978V28.0361H143.696C143.594 30.2578 142.642 31.6416 141.233 31.6289C139.747 31.6416 138.783 30.0801 138.783 27.6172C138.783 25.1543 139.747 23.6055 141.233 23.6182C142.617 23.6055 143.556 24.9194 143.696 27.0586H144.978V22.9199H146.133ZM141.233 24.748C140.408 24.748 139.9 25.8018 139.9 27.6172C139.9 29.4326 140.408 30.4863 141.233 30.4863C142.071 30.4863 142.591 29.4326 142.591 27.6172C142.591 25.8018 142.071 24.748 141.233 24.748ZM151.986 23.8086L151.871 30.3467H150.615L150.5 23.8086H151.986ZM151.249 33.0889C150.754 33.0889 150.335 32.6826 150.348 32.1875C150.335 31.6924 150.754 31.2861 151.249 31.2861C151.732 31.2861 152.151 31.6924 152.151 32.1875C152.151 32.6826 151.732 33.0889 151.249 33.0889ZM43.5042 42.0557C43.5042 43.96 44.7483 45.9277 46.5003 46.6768L45.8401 47.6162C44.5008 47.0259 43.4344 45.7754 42.9075 44.252C42.3807 45.877 41.3079 47.2607 39.9876 47.9082L39.2894 46.9561C41.0032 46.1562 42.2728 44.0107 42.2854 42.0557V40.8496H39.6829V39.8467H46.094V40.8496H43.5042V42.0557ZM48.7347 38.7041V50.0791H47.5286V38.7041H48.7347ZM59.7669 43.9473V44.9121H56.3265V47.6924H60.9603V48.6826H50.5501V47.6924H55.1331V44.9121H51.845V39.5801H59.6653V40.5576H53.0511V43.9473H59.7669ZM72.1956 47.7051V48.7207H61.7854V47.7051H66.3685V45.7119H63.055V42.0938H69.7327V40.4941H63.0296V39.5039H70.9261V43.0586H64.2483V44.7217H71.1927V45.7119H67.5618V47.7051H72.1956ZM87.1761 47.667V48.6699H76.7659V47.667H81.3489V45.3311H77.9593V39.4785H79.1653V41.4336H84.7513V39.4785H85.9446V45.3311H82.5423V47.667H87.1761ZM79.1653 44.3535H84.7513V42.4111H79.1653V44.3535ZM97.2054 42.0303V42.9951H89.3724V39.1104H90.5657V42.0303H97.2054ZM98.3987 44.4297V45.3945H87.9886V44.4297H98.3987ZM97.2815 48.8223V49.8125H89.2835V46.4736H90.4895V48.8223H97.2815ZM107.12 40.3418C107.108 41.916 108.187 43.3506 109.939 43.9346L109.329 44.8867C108.015 44.4233 107.025 43.4966 106.511 42.3096C106.003 43.5854 105.007 44.5947 103.655 45.0771L103.045 44.1377C104.823 43.5029 105.889 41.9668 105.889 40.3418V39.25H107.12V40.3418ZM112.414 46.0801V50.0791H111.208V47.0576H104.708V46.0801H112.414ZM112.414 38.7041V45.5342H111.208V38.7041H112.414ZM124.589 44.1504V45.1152H119.993V46.334H123.32V49.9395H115.461V46.334H118.8V45.1152H114.217V44.1504H124.589ZM123.612 39.0596V40.0371H121.961V42.208H123.561V43.1855H115.22V42.208H116.832V40.0371H115.169V39.0596H123.612ZM116.655 47.2861V48.9619H122.152V47.2861H116.655ZM118.026 42.208H120.755V40.0371H118.026V42.208ZM129.401 40.7861C129.401 42.3096 130.467 43.7441 132.194 44.3281L131.572 45.2803C130.296 44.8296 129.35 43.9219 128.842 42.7793C128.347 44.0552 127.369 45.0518 126.036 45.5469L125.364 44.5947C127.166 43.9727 128.207 42.4492 128.207 40.748V39.4023H129.401V40.7861ZM134.39 38.6914V42.1191H136.04V43.1475H134.39V47.083H133.184V38.6914H134.39ZM134.885 48.8604V49.8379H127.192V46.2705H128.423V48.8604H134.885ZM139.836 39.2246C141.334 39.2119 142.49 40.0815 142.743 41.3574H144.965V38.7041H146.171V44.8105H144.965V42.3477H142.756C142.509 43.6553 141.347 44.5312 139.836 44.5312C138.097 44.5312 136.853 43.4395 136.853 41.8652C136.853 40.3164 138.097 39.2119 139.836 39.2246ZM139.836 40.2275C138.757 40.2275 138.008 40.8877 138.008 41.8652C138.008 42.8428 138.757 43.5156 139.836 43.5156C140.89 43.5156 141.639 42.8428 141.639 41.8652C141.639 40.8877 140.89 40.2275 139.836 40.2275ZM139.95 45.3564V46.6768H144.965V45.3564H146.171V49.9395H138.757V45.3564H139.95ZM139.95 48.9492H144.965V47.6289H139.95V48.9492Z" fill="white"/>
<rect x="70.7002" y="64" width="45" height="44" rx="22" fill="url(#paint1_linear_3827_6814)"/>
<path d="M88.3002 92.325C88.6169 92.025 88.9794 91.6542 89.3877 91.2125C89.796 90.7708 90.1919 90.3 90.5752 89.8C90.9585 89.3 91.2752 88.7875 91.5252 88.2625C91.7752 87.7375 91.9002 87.2333 91.9002 86.75C91.9002 85.6667 91.5627 84.7708 90.8877 84.0625C90.2127 83.3542 89.3502 83 88.3002 83C87.2502 83 86.3877 83.3542 85.7127 84.0625C85.0377 84.7708 84.7002 85.6667 84.7002 86.75C84.7002 87.2333 84.8252 87.7375 85.0752 88.2625C85.3252 88.7875 85.6419 89.3 86.0252 89.8C86.4085 90.3 86.8044 90.7708 87.2127 91.2125C87.621 91.6542 87.9835 92.025 88.3002 92.325ZM83.7002 96V94H87.1502C86.6835 93.5667 86.1919 93.075 85.6752 92.525C85.1585 91.975 84.6835 91.3833 84.2502 90.75C83.8169 90.1167 83.4502 89.4667 83.1502 88.8C82.8502 88.1333 82.7002 87.45 82.7002 86.75C82.7002 85.1167 83.2335 83.75 84.3002 82.65C85.3669 81.55 86.7002 81 88.3002 81C89.9002 81 91.2335 81.55 92.3002 82.65C93.3669 83.75 93.9002 85.1167 93.9002 86.75C93.9002 87.45 93.7502 88.1333 93.4502 88.8C93.1502 89.4667 92.7835 90.1167 92.3502 90.75C91.9169 91.3833 91.4419 91.975 90.9252 92.525C90.4085 93.075 89.9169 93.5667 89.4502 94H103.7V96H83.7002ZM96.7002 92L94.8252 88.975L95.9502 87L96.7002 88.225L97.4502 87H101.7V78H91.7002V79H89.7002V78C89.7002 77.45 89.896 76.9792 90.2877 76.5875C90.6794 76.1958 91.1502 76 91.7002 76H101.7C102.25 76 102.721 76.1958 103.113 76.5875C103.504 76.9792 103.7 77.45 103.7 78V87C103.7 87.55 103.504 88.0208 103.113 88.4125C102.721 88.8042 102.25 89 101.7 89H98.5752L96.7002 92ZM94.7752 85L96.8002 83.775L98.8252 85L98.3002 82.7L100.1 81.125L97.7252 80.925L96.8002 78.75L95.8752 80.925L93.5002 81.125L95.3002 82.7L94.7752 85ZM88.3002 88C88.7169 88 89.071 87.8542 89.3627 87.5625C89.6544 87.2708 89.8002 86.9167 89.8002 86.5C89.8002 86.0833 89.6544 85.7292 89.3627 85.4375C89.071 85.1458 88.7169 85 88.3002 85C87.8835 85 87.5294 85.1458 87.2377 85.4375C86.946 85.7292 86.8002 86.0833 86.8002 86.5C86.8002 86.9167 86.946 87.2708 87.2377 87.5625C87.5294 87.8542 87.8835 88 88.3002 88Z" fill="white"/>
<path d="M55.2156 124.611C55.2156 126.587 56.4441 128.446 58.8348 129.193L57.9217 130.654C56.1868 130.073 54.95 128.936 54.2859 127.467C53.597 129.044 52.3436 130.297 50.5672 130.903L49.6375 129.459C52.0613 128.629 53.3064 126.653 53.3064 124.611V123.184H55.2156V124.611ZM62.1219 132.132V137.478H60.2625V133.609H51.8787V132.132H62.1219ZM62.1219 122.47V131.451H60.2625V122.47H62.1219ZM77.993 129.575V131.053H72.0496V132.497H76.3328V137.295H65.9236V132.497H70.2234V131.053H64.3133V129.575H77.993ZM76.7312 122.918V124.396H74.6727V126.969H76.6482V128.463H65.6248V126.969H67.6004V124.396H65.5418V122.918H76.7312ZM67.7498 133.925V135.801H74.5398V133.925H67.7498ZM69.4432 126.969H72.8133V124.396H69.4432V126.969ZM84.3846 125.126C84.368 127.102 85.6131 128.978 87.9705 129.741L87.0076 131.202C85.3392 130.638 84.1604 129.509 83.5047 128.064C82.8323 129.658 81.5955 130.903 79.8523 131.518L78.823 130.057C81.2967 129.26 82.5252 127.234 82.5252 125.109V123.399H84.3846V125.126ZM90.8426 122.47V126.902H92.9344V128.463H90.8426V133.493H88.9998V122.47H90.8426ZM91.4402 135.685V137.179H81.2303V132.414H83.1228V135.685H91.4402ZM97.865 123.134C99.8074 123.117 101.335 124.238 101.717 125.89H104.423V122.47H106.265V130.521H104.423V127.384H101.733C101.36 129.069 99.8157 130.206 97.865 130.206C95.5574 130.206 93.8973 128.729 93.8973 126.653C93.8973 124.611 95.5574 123.117 97.865 123.134ZM97.865 124.678C96.5701 124.678 95.657 125.441 95.657 126.653C95.657 127.849 96.5701 128.646 97.865 128.646C99.1268 128.646 100.023 127.849 100.04 126.653C100.023 125.441 99.1268 124.678 97.865 124.678ZM98.1971 131.219V132.812H104.423V131.219H106.265V137.295H96.3709V131.219H98.1971ZM98.1971 135.801H104.423V134.24H98.1971V135.801ZM114.052 126.736C114.052 129.193 115.496 131.783 117.92 132.796L116.907 134.257C115.131 133.493 113.836 131.916 113.155 130.007C112.458 132.065 111.146 133.792 109.387 134.622L108.324 133.178C110.698 132.082 112.176 129.293 112.176 126.736V125.475H108.872V123.947H117.339V125.475H114.052V126.736ZM120.875 122.47V137.478H119.015V122.47H120.875ZM135.268 129.293V130.754H130.819V134.19H136.796V135.701H123.083V134.19H128.993V130.754H124.743V123.582H135.152V125.06H126.586V129.293H135.268ZM76.0672 142.47V148.181H78.3748V149.741H76.0672V157.478H74.2244V142.47H76.0672ZM66.6707 143.698V147.45H70.2068V143.698H72.0496V153.958H64.8445V143.698H66.6707ZM66.6707 152.447H70.2068V148.895H66.6707V152.447ZM92.7186 154.207V155.734H79.0057V154.207H84.9158V151.767H80.6326V146.853H89.2654V144.993H80.5994V143.499H91.0916V148.313H82.4754V150.256H91.4402V151.767H86.742V154.207H92.7186ZM105.452 142.47V148.33H107.677V149.874H105.452V157.444H103.609V142.47H105.452ZM101.484 144.03C101.484 148.446 99.658 152.314 94.6609 154.771L93.615 153.344C97.2674 151.526 99.243 148.969 99.6248 145.558H94.4285V144.03H101.484ZM120.925 142.47V157.478H119.065V142.47H120.925ZM116.442 144.063C116.442 148.529 114.716 152.331 109.453 154.821L108.49 153.344C112.416 151.476 114.242 148.936 114.566 145.524H109.254V144.063H116.442Z" fill="white"/>
<defs>
<linearGradient id="paint0_linear_3827_6814" x1="-103" y1="-97" x2="25.1722" y2="240.956" gradientUnits="userSpaceOnUse">
<stop stop-color="#FF004E"/>
<stop offset="0.5" stop-color="#6719A6"/>
<stop offset="1" stop-color="#135784"/>
</linearGradient>
<linearGradient id="paint1_linear_3827_6814" x1="93.2002" y1="64" x2="93.2002" y2="108" gradientUnits="userSpaceOnUse">
<stop stop-color="white" stop-opacity="0.1"/>
<stop offset="1" stop-color="white" stop-opacity="0.2"/>
</linearGradient>
</defs>
</svg>
