<svg width="32" height="32" viewBox="0 0 32 32" fill="none" xmlns="http://www.w3.org/2000/svg">
<path d="M16.002 28.6654C14.2318 28.6654 12.5759 28.3389 11.0343 27.686C9.49279 27.0331 8.15045 26.1354 7.00734 24.9927C5.86423 23.85 4.96612 22.5083 4.31301 20.9674C3.65967 19.4265 3.33301 17.771 3.33301 16.001C3.33301 14.2399 3.65956 12.5886 4.31267 11.047C4.96556 9.50548 5.86345 8.16314 7.00634 7.02003C8.14923 5.87692 9.49123 4.97648 11.0323 4.3187C12.5735 3.66092 14.2292 3.33203 15.9997 3.33203C17.2412 3.33203 18.4449 3.50881 19.6107 3.86236C20.7767 4.21592 21.877 4.73092 22.9117 5.40737C23.1259 5.53603 23.2603 5.71436 23.315 5.94236C23.3697 6.17036 23.3236 6.38037 23.1767 6.57237C23.0296 6.76437 22.8402 6.87325 22.6087 6.89903C22.3771 6.92503 22.1562 6.87081 21.946 6.73636C21.0582 6.16814 20.111 5.73792 19.1043 5.4457C18.0979 5.15347 17.063 5.00737 15.9997 5.00737C12.9177 5.00737 10.3152 6.0687 8.19234 8.19137C6.06967 10.3143 5.00834 12.9167 5.00834 15.9987C5.00834 19.0807 6.06967 21.6831 8.19234 23.806C10.3152 25.9287 12.9177 26.99 15.9997 26.99C19.0817 26.99 21.6841 25.9287 23.807 23.806C25.9297 21.6831 26.991 19.0807 26.991 15.9987C26.991 15.6176 26.9752 15.2497 26.9437 14.895C26.9121 14.5401 26.8587 14.1887 26.7833 13.8407C26.7389 13.5989 26.7735 13.3719 26.887 13.1597C27.0003 12.9475 27.174 12.8195 27.408 12.7757C27.6436 12.7226 27.8597 12.7656 28.0563 12.9047C28.2532 13.0438 28.3739 13.2318 28.4183 13.4687C28.4981 13.8716 28.5595 14.2829 28.6023 14.7027C28.645 15.1225 28.6663 15.5545 28.6663 15.9987C28.6663 17.7691 28.3376 19.4249 27.68 20.966C27.0227 22.5071 26.1227 23.8491 24.98 24.992C23.8373 26.1349 22.4956 27.0328 20.9547 27.6857C19.4138 28.3388 17.7629 28.6654 16.002 28.6654ZM14.0577 19.1714L26.834 6.38836C26.9947 6.2277 27.1939 6.14414 27.4317 6.1377C27.6697 6.13103 27.881 6.21559 28.0657 6.39137C28.2421 6.56781 28.3303 6.77392 28.3303 7.0097C28.3303 7.2457 28.2412 7.45281 28.063 7.63103L14.7887 20.9037C14.5807 21.1175 14.337 21.2244 14.0577 21.2244C13.7786 21.2244 13.535 21.1175 13.327 20.9037L9.54168 17.1047C9.38101 16.944 9.30079 16.7414 9.30101 16.4967C9.30123 16.2518 9.38601 16.0448 9.55534 15.8757C9.72445 15.7064 9.92923 15.6217 10.1697 15.6217C10.4101 15.6217 10.615 15.7064 10.7843 15.8757L14.0577 19.1714Z" fill="#B1B8BE"/>
</svg>
