<svg width="32" height="32" viewBox="0 0 32 32" fill="none" xmlns="http://www.w3.org/2000/svg">
<circle cx="15.9951" cy="15.9931" r="12.665" fill="#9940E2"/>
<path d="M14.0574 19.1708L26.8338 6.38775C26.9944 6.22708 27.1937 6.14353 27.4314 6.13708C27.6695 6.13042 27.8808 6.21497 28.0654 6.39075C28.2419 6.5672 28.3301 6.77331 28.3301 7.00909C28.3301 7.24509 28.241 7.4522 28.0628 7.63042L14.7884 20.9031C14.5804 21.1169 14.3368 21.2238 14.0574 21.2238C13.7783 21.2238 13.5348 21.1169 13.3268 20.9031L9.54145 17.1041C9.38078 16.9434 9.30056 16.7408 9.30078 16.4961C9.301 16.2512 9.38578 16.0442 9.55512 15.8751C9.72423 15.7058 9.929 15.6211 10.1694 15.6211C10.4099 15.6211 10.6148 15.7058 10.7841 15.8751L14.0574 19.1708Z" fill="white"/>
</svg>
