<svg width="16" height="16" viewBox="0 0 16 16" fill="none" xmlns="http://www.w3.org/2000/svg">
<path d="M5.8366 11.6895C4.21504 11.6895 2.83688 11.1213 1.70213 9.98478C0.567376 8.8483 0 7.46829 0 5.84475C0 4.22121 0.567376 2.8412 1.70213 1.70472C2.83688 0.568239 4.21479 0 5.83587 0C7.45694 0 8.83485 0.568239 9.96961 1.70472C11.1044 2.8412 11.6717 4.22145 11.6717 5.84548C11.6717 6.50123 11.5704 7.11963 11.3678 7.7007C11.1651 8.28177 10.8855 8.81583 10.5289 9.30289L15.7325 14.5145C15.9108 14.693 16 14.896 16 15.1233C16 15.3506 15.9108 15.5535 15.7325 15.7321C15.5542 15.9107 15.3475 16 15.1125 16C14.8774 16 14.6707 15.9107 14.4924 15.7321L9.28875 10.5449C8.80243 10.9021 8.26918 11.1821 7.689 11.3851C7.10881 11.588 6.49135 11.6895 5.8366 11.6895ZM5.83587 9.93607C6.97062 9.93607 7.93516 9.53831 8.72948 8.74277C9.52381 7.94724 9.92097 6.98123 9.92097 5.84475C9.92097 4.70827 9.52381 3.74226 8.72948 2.94673C7.93516 2.15119 6.97062 1.75342 5.83587 1.75342C4.70111 1.75342 3.73658 2.15119 2.94225 2.94673C2.14792 3.74226 1.75076 4.70827 1.75076 5.84475C1.75076 6.98123 2.14792 7.94724 2.94225 8.74277C3.73658 9.53831 4.70111 9.93607 5.83587 9.93607Z" fill="#1E2124"/>
</svg>
