<svg width="140" height="197" viewBox="0 0 140 197" fill="none" xmlns="http://www.w3.org/2000/svg">
<rect width="139.333" height="197" rx="12" fill="url(#paint0_linear_2466_29969)"/>
<path d="M44.2633 24.3418C44.2506 25.916 45.3298 27.3506 47.0817 27.9346L46.4723 28.8867C45.1584 28.4233 44.1681 27.4966 43.654 26.3096C43.1462 27.5854 42.1496 28.5947 40.7975 29.0771L40.1881 28.1377C41.9655 27.5029 43.0319 25.9668 43.0319 24.3418V23.25H44.2633V24.3418ZM49.5573 30.0801V34.0791H48.3512V31.0576H41.8512V30.0801H49.5573ZM49.5573 22.7041V29.5342H48.3512V22.7041H49.5573ZM61.7321 28.1504V29.1152H57.1364V30.334H60.4626V33.9395H52.6042V30.334H55.943V29.1152H51.36V28.1504H61.7321ZM60.7546 23.0596V24.0371H59.1042V26.208H60.7038V27.1855H52.363V26.208H53.9753V24.0371H52.3122V23.0596H60.7546ZM53.7975 31.2861V32.9619H59.2946V31.2861H53.7975ZM55.1686 26.208H57.8981V24.0371H55.1686V26.208ZM72.0788 22.7041V29.4707H70.8727V26.5889H68.7526V25.5986H70.8727V22.7041H72.0788ZM68.2702 29.7881C70.6569 29.7881 72.1169 30.5752 72.1169 31.9336C72.1169 33.292 70.6569 34.0664 68.2702 34.0791C65.8835 34.0664 64.4108 33.292 64.4235 31.9336C64.4108 30.5752 65.8835 29.7881 68.2702 29.7881ZM68.2702 30.7275C66.6071 30.7275 65.6169 31.1592 65.6169 31.9336C65.6169 32.6953 66.6071 33.1396 68.2702 33.127C69.9333 33.1396 70.9235 32.6953 70.9235 31.9336C70.9235 31.1592 69.9333 30.7275 68.2702 30.7275ZM66.6706 24.71C66.6706 26.1572 67.6989 27.5537 69.4128 28.1377L68.7907 29.0898C67.5148 28.6455 66.5754 27.7378 66.0866 26.6143C65.5851 27.8901 64.5885 28.9121 63.2301 29.4072L62.5954 28.4424C64.36 27.833 65.4391 26.2969 65.4391 24.7227V24.4688H62.9762V23.4912H69.1081V24.4688H66.6706V24.71ZM84.2409 31.667V32.6699H73.8307V31.667H78.4137V29.3311H75.0241V23.4785H76.2301V25.4336H81.8161V23.4785H83.0094V29.3311H79.6071V31.667H84.2409ZM76.2301 28.3535H81.8161V26.4111H76.2301V28.3535ZM88.7731 23.5166C90.5758 23.5039 91.8581 24.6211 91.8708 26.2207C91.8581 27.8203 90.5758 28.9375 88.7731 28.9375C86.9831 28.9375 85.6628 27.8203 85.6755 26.2207C85.6628 24.6211 86.9831 23.5039 88.7731 23.5166ZM88.7731 24.5576C87.6686 24.5576 86.8561 25.2178 86.8688 26.2207C86.8561 27.2236 87.6686 27.8838 88.7731 27.8838C89.8776 27.8838 90.6901 27.2236 90.6901 26.2207C90.6901 25.2178 89.8776 24.5576 88.7731 24.5576ZM94.4733 22.7041V34.1045H93.2673V22.7041H94.4733ZM85.1296 30.6514C87.1989 30.6514 90.068 30.626 92.5563 30.2705L92.6452 31.1465C90.068 31.6416 87.3131 31.6543 85.2819 31.6543L85.1296 30.6514ZM43.0446 47.6543V48.6572H32.6344V47.6543H37.2174V45.0264H33.8278V39.6182H41.8005V45.0264H38.4108V47.6543H43.0446ZM34.9958 40.583V44.0742H40.6198V40.583H34.9958ZM54.2546 44.4043V45.3691H43.8698V44.4043H54.2546ZM53.0866 42.2715V43.2617H45.1647V39.1738H52.9723V40.1387H46.3708V42.2715H53.0866ZM53.1628 48.8477V49.8379H45.1774V46.4863H46.3708V48.8477H53.1628ZM68.6256 38.7041V50.0791H67.4577V38.7041H68.6256ZM66.277 38.9453V49.5078H65.1344V43.9854H62.7985V42.9824H65.1344V38.9453H66.277ZM63.5729 40.0625V41.0527H60.4372V46.3975C61.9289 46.3848 62.9318 46.3213 64.1061 46.0674L64.2077 47.083C62.9001 47.3496 61.7829 47.4004 60.0055 47.4004H59.2565V40.0625H63.5729ZM79.5055 38.7041V50.1045H78.2995V38.7041H79.5055ZM73.4245 39.5547C75.113 39.5547 76.3571 41.1035 76.3571 43.541C76.3571 45.9912 75.113 47.54 73.4245 47.54C71.7106 47.54 70.4792 45.9912 70.4792 43.541C70.4792 41.1035 71.7106 39.5547 73.4245 39.5547ZM73.4245 40.6338C72.3708 40.6338 71.6471 41.751 71.6471 43.541C71.6471 45.3438 72.3708 46.4609 73.4245 46.4609C74.4655 46.4609 75.1891 45.3438 75.1891 43.541C75.1891 41.751 74.4655 40.6338 73.4245 40.6338ZM90.8044 38.7041V50.1045H89.611V43.8965H87.3512V42.9062H89.611V38.7041H90.8044ZM87.1608 39.7197V40.6973H83.0602V42.9062H86.6784V43.8711H83.0602V46.4102C84.9645 46.4038 86.2848 46.3594 87.7956 46.0928L87.9225 47.0703C86.2721 47.3369 84.8376 47.4004 82.7301 47.4131H81.8415V39.7197H87.1608ZM102.954 43.9219V44.8486H92.5436V43.9219H102.954ZM101.672 45.6484V48.1494H94.9938V49.0889H102.027V49.9395H93.7878V47.3496H100.478V46.5117H93.7751V45.6484H101.672ZM101.646 38.9961V41.459H95.07V42.3223H101.837V43.1729H93.8766V40.6592H100.44V39.8467H93.8512V38.9961H101.646ZM60.3927 54.7168V58.373H62.0431V59.376H60.3927V63.2227H59.1867V54.7168H60.3927ZM58.2472 56.0371V57.0146H51.4679V56.0371H54.2609V54.7041H55.467V56.0371H58.2472ZM54.8576 57.5605C56.4953 57.5605 57.6125 58.4111 57.6125 59.7061C57.6125 61.001 56.4953 61.8389 54.8576 61.8389C53.2072 61.8389 52.09 61.001 52.09 59.7061C52.09 58.4111 53.2072 57.5605 54.8576 57.5605ZM54.8576 58.4873C53.8927 58.4873 53.2453 58.957 53.258 59.7061C53.2453 60.4424 53.8927 60.8994 54.8576 60.8994C55.8224 60.8994 56.4699 60.4424 56.4826 59.7061C56.4699 58.957 55.8224 58.4873 54.8576 58.4873ZM60.8752 64.8604V65.8379H53.1818V62.5498H54.3879V64.8604H60.8752ZM71.8947 58.043V59.0078H64.0871V55.0977H65.2931V58.043H71.8947ZM73.0754 60.2393V61.2041H68.5685V63.4512H67.3752V61.2041H62.6906V60.2393H73.0754ZM71.9836 64.8604V65.8379H63.9855V62.4863H65.1789V64.8604H71.9836ZM83.714 54.7041V66.0791H82.5588V54.7041H83.714ZM81.4035 54.9199V65.5205H80.2482V60.0361H78.966C78.8644 62.2578 77.9123 63.6416 76.5031 63.6289C75.0177 63.6416 74.0529 62.0801 74.0529 59.6172C74.0529 57.1543 75.0177 55.6055 76.5031 55.6182C77.8869 55.6055 78.8263 56.9194 78.966 59.0586H80.2482V54.9199H81.4035ZM76.5031 56.748C75.6779 56.748 75.1701 57.8018 75.1701 59.6172C75.1701 61.4326 75.6779 62.4863 76.5031 62.4863C77.341 62.4863 77.8615 61.4326 77.8615 59.6172C77.8615 57.8018 77.341 56.748 76.5031 56.748ZM87.256 55.8086L87.1418 62.3467H85.8849L85.7707 55.8086H87.256ZM86.5197 65.0889C86.0246 65.0889 85.6056 64.6826 85.6183 64.1875C85.6056 63.6924 86.0246 63.2861 86.5197 63.2861C87.0021 63.2861 87.4211 63.6924 87.4211 64.1875C87.4211 64.6826 87.0021 65.0889 86.5197 65.0889Z" fill="white"/>
<rect x="48.167" y="80" width="43" height="45" rx="21.5" fill="url(#paint1_linear_2466_29969)"/>
<path d="M69.667 113C68.8337 113 68.1253 112.708 67.542 112.125C66.9587 111.542 66.667 110.833 66.667 110C66.667 109.35 66.8545 108.767 67.2295 108.25C67.6045 107.733 68.0837 107.375 68.667 107.175V105.35C68.4837 105.283 68.3087 105.204 68.142 105.113C67.9753 105.021 67.8253 104.908 67.692 104.775L66.117 105.7C66.1337 105.783 66.1462 105.871 66.1545 105.963C66.1628 106.054 66.167 106.15 66.167 106.25C66.167 107.083 65.8753 107.792 65.292 108.375C64.7087 108.958 64.0003 109.25 63.167 109.25C62.3337 109.25 61.6253 108.958 61.042 108.375C60.4587 107.792 60.167 107.083 60.167 106.25C60.167 105.417 60.4587 104.708 61.042 104.125C61.6253 103.542 62.3337 103.25 63.167 103.25C63.5503 103.25 63.9087 103.312 64.242 103.438C64.5753 103.562 64.8753 103.742 65.142 103.975L66.692 103.075C66.6753 102.992 66.6628 102.9 66.6545 102.8C66.6462 102.7 66.642 102.6 66.642 102.5C66.642 102.4 66.6462 102.304 66.6545 102.213C66.6628 102.121 66.6753 102.033 66.692 101.95L65.142 101.025C64.8753 101.258 64.5753 101.438 64.242 101.562C63.9087 101.688 63.5503 101.75 63.167 101.75C62.3337 101.75 61.6253 101.458 61.042 100.875C60.4587 100.292 60.167 99.5833 60.167 98.75C60.167 97.9167 60.4587 97.2083 61.042 96.625C61.6253 96.0417 62.3337 95.75 63.167 95.75C64.0003 95.75 64.7087 96.0417 65.292 96.625C65.8753 97.2083 66.167 97.9167 66.167 98.75C66.167 98.85 66.1628 98.95 66.1545 99.05C66.1462 99.15 66.1337 99.2417 66.117 99.325L67.692 100.225C67.8253 100.092 67.9753 99.9833 68.142 99.9C68.3087 99.8167 68.4837 99.7417 68.667 99.675V97.85C68.0837 97.65 67.6045 97.2875 67.2295 96.7625C66.8545 96.2375 66.667 95.65 66.667 95C66.667 94.1667 66.9587 93.4583 67.542 92.875C68.1253 92.2917 68.8337 92 69.667 92C70.5003 92 71.2087 92.2917 71.792 92.875C72.3753 93.4583 72.667 94.1667 72.667 95C72.667 95.65 72.4795 96.2375 72.1045 96.7625C71.7295 97.2875 71.2503 97.65 70.667 97.85V99.675C70.8503 99.7417 71.0212 99.8208 71.1795 99.9125C71.3378 100.004 71.4837 100.117 71.617 100.25L73.217 99.3C73.2003 99.2167 73.1878 99.1292 73.1795 99.0375C73.1712 98.9458 73.167 98.85 73.167 98.75C73.167 97.9167 73.4587 97.2083 74.042 96.625C74.6253 96.0417 75.3337 95.75 76.167 95.75C77.0003 95.75 77.7087 96.0417 78.292 96.625C78.8753 97.2083 79.167 97.9167 79.167 98.75C79.167 99.5833 78.8753 100.292 78.292 100.875C77.7087 101.458 77.0003 101.75 76.167 101.75C75.7837 101.75 75.4295 101.688 75.1045 101.562C74.7795 101.438 74.4837 101.258 74.217 101.025L72.592 101.975C72.6087 102.058 72.6212 102.146 72.6295 102.238C72.6378 102.329 72.642 102.417 72.642 102.5C72.642 102.583 72.6378 102.675 72.6295 102.775C72.6212 102.875 72.6087 102.967 72.592 103.05L74.217 103.975C74.4837 103.742 74.7795 103.562 75.1045 103.438C75.4295 103.312 75.7837 103.25 76.167 103.25C77.0003 103.25 77.7087 103.542 78.292 104.125C78.8753 104.708 79.167 105.417 79.167 106.25C79.167 107.083 78.8753 107.792 78.292 108.375C77.7087 108.958 77.0003 109.25 76.167 109.25C75.3337 109.25 74.6253 108.958 74.042 108.375C73.4587 107.792 73.167 107.083 73.167 106.25C73.167 106.15 73.1712 106.054 73.1795 105.963C73.1878 105.871 73.2003 105.783 73.217 105.7L71.617 104.775C71.4837 104.908 71.3378 105.017 71.1795 105.1C71.0212 105.183 70.8503 105.258 70.667 105.325V107.175C71.2503 107.375 71.7295 107.733 72.1045 108.25C72.4795 108.767 72.667 109.35 72.667 110C72.667 110.833 72.3753 111.542 71.792 112.125C71.2087 112.708 70.5003 113 69.667 113ZM69.667 111C69.9503 111 70.1878 110.904 70.3795 110.712C70.5712 110.521 70.667 110.283 70.667 110C70.667 109.717 70.5712 109.479 70.3795 109.288C70.1878 109.096 69.9503 109 69.667 109C69.3837 109 69.1462 109.096 68.9545 109.288C68.7628 109.479 68.667 109.717 68.667 110C68.667 110.283 68.7628 110.521 68.9545 110.712C69.1462 110.904 69.3837 111 69.667 111ZM63.167 107.25C63.4503 107.25 63.6878 107.154 63.8795 106.963C64.0712 106.771 64.167 106.533 64.167 106.25C64.167 105.967 64.0712 105.729 63.8795 105.538C63.6878 105.346 63.4503 105.25 63.167 105.25C62.8837 105.25 62.6462 105.346 62.4545 105.538C62.2628 105.729 62.167 105.967 62.167 106.25C62.167 106.533 62.2628 106.771 62.4545 106.963C62.6462 107.154 62.8837 107.25 63.167 107.25ZM76.167 107.25C76.4503 107.25 76.6878 107.154 76.8795 106.963C77.0712 106.771 77.167 106.533 77.167 106.25C77.167 105.967 77.0712 105.729 76.8795 105.538C76.6878 105.346 76.4503 105.25 76.167 105.25C75.8837 105.25 75.6462 105.346 75.4545 105.538C75.2628 105.729 75.167 105.967 75.167 106.25C75.167 106.533 75.2628 106.771 75.4545 106.963C75.6462 107.154 75.8837 107.25 76.167 107.25ZM69.667 103.5C69.9503 103.5 70.1878 103.404 70.3795 103.213C70.5712 103.021 70.667 102.783 70.667 102.5C70.667 102.217 70.5712 101.979 70.3795 101.788C70.1878 101.596 69.9503 101.5 69.667 101.5C69.3837 101.5 69.1462 101.596 68.9545 101.788C68.7628 101.979 68.667 102.217 68.667 102.5C68.667 102.783 68.7628 103.021 68.9545 103.213C69.1462 103.404 69.3837 103.5 69.667 103.5ZM63.167 99.75C63.4503 99.75 63.6878 99.6542 63.8795 99.4625C64.0712 99.2708 64.167 99.0333 64.167 98.75C64.167 98.4667 64.0712 98.2292 63.8795 98.0375C63.6878 97.8458 63.4503 97.75 63.167 97.75C62.8837 97.75 62.6462 97.8458 62.4545 98.0375C62.2628 98.2292 62.167 98.4667 62.167 98.75C62.167 99.0333 62.2628 99.2708 62.4545 99.4625C62.6462 99.6542 62.8837 99.75 63.167 99.75ZM76.167 99.75C76.4503 99.75 76.6878 99.6542 76.8795 99.4625C77.0712 99.2708 77.167 99.0333 77.167 98.75C77.167 98.4667 77.0712 98.2292 76.8795 98.0375C76.6878 97.8458 76.4503 97.75 76.167 97.75C75.8837 97.75 75.6462 97.8458 75.4545 98.0375C75.2628 98.2292 75.167 98.4667 75.167 98.75C75.167 99.0333 75.2628 99.2708 75.4545 99.4625C75.6462 99.6542 75.8837 99.75 76.167 99.75ZM69.667 96C69.9503 96 70.1878 95.9042 70.3795 95.7125C70.5712 95.5208 70.667 95.2833 70.667 95C70.667 94.7167 70.5712 94.4792 70.3795 94.2875C70.1878 94.0958 69.9503 94 69.667 94C69.3837 94 69.1462 94.0958 68.9545 94.2875C68.7628 94.4792 68.667 94.7167 68.667 95C68.667 95.2833 68.7628 95.5208 68.9545 95.7125C69.1462 95.9042 69.3837 96 69.667 96Z" fill="white"/>
<path d="M36.5798 141.611C36.5798 143.587 37.8083 145.446 40.1989 146.193L39.2858 147.654C37.5509 147.073 36.3141 145.936 35.6501 144.467C34.9611 146.044 33.7077 147.297 31.9313 147.903L31.0016 146.459C33.4255 145.629 34.6706 143.653 34.6706 141.611V140.184H36.5798V141.611ZM43.486 149.132V154.478H41.6266V150.609H33.2428V149.132H43.486ZM43.486 139.47V148.451H41.6266V139.47H43.486ZM59.3571 146.575V148.053H53.4137V149.497H57.6969V154.295H47.2878V149.497H51.5876V148.053H45.6774V146.575H59.3571ZM58.0954 139.918V141.396H56.0368V143.969H58.0124V145.463H46.9889V143.969H48.9645V141.396H46.9059V139.918H58.0954ZM49.1139 150.925V152.801H55.904V150.925H49.1139ZM50.8073 143.969H54.1774V141.396H50.8073V143.969ZM72.9372 139.47V148.385H71.0944V144.716H68.5378V143.205H71.0944V139.47H72.9372ZM67.8571 148.767C71.0446 148.767 72.987 149.812 72.987 151.622C72.987 153.432 71.0446 154.478 67.8571 154.478C64.6862 154.478 62.7438 153.432 62.7604 151.622C62.7438 149.812 64.6862 148.767 67.8571 148.767ZM67.8571 150.178C65.7653 150.178 64.5866 150.676 64.5866 151.622C64.5866 152.552 65.7653 153.05 67.8571 153.05C69.9489 153.05 71.1442 152.552 71.1442 151.622C71.1442 150.676 69.9489 150.178 67.8571 150.178ZM65.8815 142.043C65.8815 143.869 67.0934 145.712 69.4176 146.492L68.488 147.953C66.8195 147.389 65.6325 146.243 64.985 144.832C64.321 146.434 63.0675 147.712 61.2829 148.352L60.32 146.891C62.7272 146.061 64.0055 144.035 64.0055 142.06V141.943H60.8844V140.449H68.986V141.943H65.8815V142.043ZM88.7751 151.157V152.668H75.0622V151.157H80.9723V148.235H76.5729V140.466H78.4157V142.923H85.3717V140.466H87.2145V148.235H82.7985V151.157H88.7751ZM78.4157 146.741H85.3717V144.4H78.4157V146.741ZM90.3522 153V151.473L94.2204 147.339C95.3493 146.144 95.9967 145.446 96.0133 144.4C96.0133 143.238 95.1833 142.574 94.1208 142.574C93.0085 142.574 92.2614 143.321 92.278 144.566H90.3024C90.3024 142.309 91.8962 140.814 94.154 140.814C96.4118 140.814 98.0055 142.275 98.0055 144.301C98.0055 145.629 97.4245 146.708 95.2331 148.982L93.2243 151.107V151.19H98.1715V153H90.3522ZM99.5495 150.759V149.065L103.849 140.98H105.941L101.741 148.899V148.982H104.912V145.479H106.921V148.982H108.398V150.759H106.921V153H104.879V150.759H99.5495ZM52.5339 159.47V165.181H54.8415V166.741H52.5339V174.478H50.6911V159.47H52.5339ZM43.1374 160.698V164.45H46.6735V160.698H48.5163V170.958H41.3112V160.698H43.1374ZM43.1374 169.447H46.6735V165.895H43.1374V169.447ZM69.1852 171.207V172.734H55.4723V171.207H61.3825V168.767H57.0993V163.853H65.7321V161.993H57.0661V160.499H67.5583V165.313H58.9421V167.256H67.9069V168.767H63.2087V171.207H69.1852ZM81.9186 159.47V165.33H84.1432V166.874H81.9186V174.444H80.0758V159.47H81.9186ZM77.9508 161.03C77.9508 165.446 76.1247 169.314 71.1276 171.771L70.0817 170.344C73.734 168.526 75.7096 165.969 76.0915 162.558H70.8952V161.03H77.9508ZM97.3913 159.47V174.478H95.5319V159.47H97.3913ZM92.9089 161.063C92.9089 165.529 91.1823 169.331 85.9196 171.821L84.9567 170.344C88.883 168.476 90.7091 165.936 91.0329 162.524H85.7204V161.063H92.9089Z" fill="white"/>
<defs>
<linearGradient id="paint0_linear_2466_29969" x1="0" y1="0" x2="114.961" y2="210.128" gradientUnits="userSpaceOnUse">
<stop stop-color="#6719A6"/>
<stop offset="1" stop-color="#FF004E"/>
</linearGradient>
<linearGradient id="paint1_linear_2466_29969" x1="69.667" y1="80" x2="69.667" y2="125" gradientUnits="userSpaceOnUse">
<stop stop-color="white" stop-opacity="0.1"/>
<stop offset="1" stop-color="white" stop-opacity="0.2"/>
</linearGradient>
</defs>
</svg>
