<svg width="32" height="32" viewBox="0 0 32 32" fill="none" xmlns="http://www.w3.org/2000/svg">
<rect width="32" height="32" rx="16" fill="#6719A6"/>
<g clip-path="url(#clip0_3858_3709)">
<path d="M12.5 8H11.5C9.57 8 8 9.57 8 11.5V12.5C8 13.88 9.12 15 10.5 15H14.5C14.775 15 15 14.775 15 14.5V10.5C15 9.12 13.88 8 12.5 8Z" fill="#F8F2FD"/>
<path d="M14.5 17H10.5C9.12 17 8 18.12 8 19.5V20.5C8 22.43 9.57 24 11.5 24H12.5C13.88 24 15 22.88 15 21.5V17.5C15 17.225 14.775 17 14.5 17Z" fill="#E0C5F6"/>
<path d="M20.5 8H19.5C18.12 8 17 9.12 17 10.5V14.5C17 14.775 17.225 15 17.5 15H21.5C22.88 15 24 13.88 24 12.5V11.5C24 9.57 22.43 8 20.5 8Z" fill="#E0C5F6"/>
<path d="M23.5 17.5H17.5C17.225 17.5 17 17.725 17 18C17 18.275 17.225 18.5 17.5 18.5H23.5C23.775 18.5 24 18.275 24 18C24 17.725 23.775 17.5 23.5 17.5Z" fill="white"/>
<path d="M23.5 20H17.5C17.225 20 17 20.225 17 20.5C17 20.775 17.225 21 17.5 21H23.5C23.775 21 24 20.775 24 20.5C24 20.225 23.775 20 23.5 20Z" fill="white"/>
<path d="M23.5 22.5H17.5C17.225 22.5 17 22.725 17 23C17 23.275 17.225 23.5 17.5 23.5H23.5C23.775 23.5 24 23.275 24 23C24 22.725 23.775 22.5 23.5 22.5Z" fill="white"/>
</g>
<defs>
<clipPath id="clip0_3858_3709">
<rect width="16" height="16" fill="white" transform="translate(8 8)"/>
</clipPath>
</defs>
</svg>
