<svg width="16" height="14" viewBox="0 0 16 14" fill="none" xmlns="http://www.w3.org/2000/svg">
<path d="M11.2 3.88889V1.55556H4.8V3.88889H3.2V0H12.8V3.88889H11.2ZM12.8 7.38889C13.0267 7.38889 13.2167 7.31435 13.37 7.16528C13.5233 7.0162 13.6 6.83148 13.6 6.61111C13.6 6.39074 13.5233 6.20602 13.37 6.05694C13.2167 5.90787 13.0267 5.83333 12.8 5.83333C12.5733 5.83333 12.3833 5.90787 12.23 6.05694C12.0767 6.20602 12 6.39074 12 6.61111C12 6.83148 12.0767 7.0162 12.23 7.16528C12.3833 7.31435 12.5733 7.38889 12.8 7.38889ZM11.2 12.4444V9.33333H4.8V12.4444H11.2ZM12.8 14H3.2V10.8889H0V6.22222C0 5.56111 0.233333 5.00694 0.7 4.55972C1.16667 4.1125 1.73333 3.88889 2.4 3.88889H13.6C14.28 3.88889 14.85 4.1125 15.31 4.55972C15.77 5.00694 16 5.56111 16 6.22222V10.8889H12.8V14ZM14.4 9.33333V6.22222C14.4 6.00185 14.3233 5.81713 14.17 5.66806C14.0167 5.51898 13.8267 5.44444 13.6 5.44444H2.4C2.17333 5.44444 1.98333 5.51898 1.83 5.66806C1.67667 5.81713 1.6 6.00185 1.6 6.22222V9.33333H3.2V7.77778H12.8V9.33333H14.4Z" fill="#58616A"/>
</svg>
