<svg width="16" height="16" viewBox="0 0 16 16" fill="none" xmlns="http://www.w3.org/2000/svg">
<path d="M2.66732 13.3346C2.30065 13.3346 1.98676 13.2041 1.72565 12.943C1.46454 12.6819 1.33398 12.368 1.33398 12.0013V4.0013C1.33398 3.63464 1.46454 3.32075 1.72565 3.05964C1.98676 2.79852 2.30065 2.66797 2.66732 2.66797H13.334C13.7007 2.66797 14.0145 2.79852 14.2757 3.05964C14.5368 3.32075 14.6673 3.63464 14.6673 4.0013V12.0013C14.6673 12.368 14.5368 12.6819 14.2757 12.943C14.0145 13.2041 13.7007 13.3346 13.334 13.3346H2.66732ZM8.00065 8.66797L13.334 5.33464V4.0013L8.00065 7.33464L2.66732 4.0013V5.33464L8.00065 8.66797Z" fill="#464C53"/>
</svg>
