<svg width="24" height="24" viewBox="0 0 24 24" fill="none" xmlns="http://www.w3.org/2000/svg">
<path d="M4.69625 20.0267C4.40142 20.1409 4.12833 20.1082 3.877 19.9287C3.62567 19.7492 3.5 19.5037 3.5 19.1922V6.07695C3.5 5.87945 3.55292 5.7022 3.65875 5.5452C3.76442 5.3882 3.91283 5.27445 4.104 5.20395L9 3.53845L15 5.63845L19.3038 3.9732C19.5986 3.85904 19.8717 3.88687 20.123 4.0567C20.3743 4.22654 20.5 4.46404 20.5 4.7692V12.3385C20.3013 12.0641 20.076 11.8119 19.824 11.5817C19.5722 11.3515 19.2975 11.1486 19 10.973V5.69995L15.75 6.92695V10.1155C15.4833 10.1218 15.2266 10.1445 14.9798 10.1837C14.7331 10.2227 14.4898 10.2845 14.25 10.3692V6.92695L9.75 5.3537V18.0827L4.69625 20.0267ZM5 18.3L8.25 17.0537V5.3537L5 6.44995V18.3ZM15.9423 18.1057C16.5538 18.1057 17.0631 17.915 17.4703 17.5337C17.8772 17.1522 18.0859 16.625 18.0962 15.952C18.1064 15.3403 17.9028 14.8284 17.4855 14.4162C17.0682 14.004 16.5538 13.798 15.9423 13.798C15.3308 13.798 14.8189 14.004 14.4068 14.4162C13.9946 14.8284 13.7885 15.3403 13.7885 15.952C13.7885 16.5635 13.9946 17.0753 14.4068 17.4875C14.8189 17.8996 15.3308 18.1057 15.9423 18.1057ZM15.9423 19.6057C14.9384 19.6057 14.0785 19.2477 13.3625 18.5317C12.6465 17.8157 12.2885 16.9558 12.2885 15.952C12.2885 14.9481 12.6465 14.0882 13.3625 13.3722C14.0785 12.656 14.9384 12.298 15.9423 12.298C16.9461 12.298 17.806 12.656 18.522 13.3722C19.238 14.0882 19.596 14.9481 19.596 15.952C19.596 16.3288 19.5454 16.6849 19.4443 17.0202C19.3429 17.3554 19.1942 17.6665 18.998 17.9537L21.5 20.4462L20.4557 21.5L17.9538 18.998C17.6666 19.2006 17.3554 19.3525 17.0203 19.4537C16.6849 19.555 16.3256 19.6057 15.9423 19.6057Z" fill="#58616A"/>
</svg>
