<svg width="14" height="16" viewBox="0 0 14 16" fill="none" xmlns="http://www.w3.org/2000/svg">
<path d="M11.6667 16C11.0185 16 10.4676 15.7667 10.0139 15.3C9.56019 14.8333 9.33333 14.2667 9.33333 13.6C9.33333 13.52 9.35278 13.3333 9.39167 13.04L3.92778 9.76C3.72037 9.96 3.48056 10.1167 3.20833 10.23C2.93611 10.3433 2.64444 10.4 2.33333 10.4C1.68519 10.4 1.13426 10.1667 0.680556 9.7C0.226852 9.23333 0 8.66667 0 8C0 7.33333 0.226852 6.76667 0.680556 6.3C1.13426 5.83333 1.68519 5.6 2.33333 5.6C2.64444 5.6 2.93611 5.65667 3.20833 5.77C3.48056 5.88333 3.72037 6.04 3.92778 6.24L9.39167 2.96C9.36574 2.86667 9.34954 2.77667 9.34306 2.69C9.33657 2.60333 9.33333 2.50667 9.33333 2.4C9.33333 1.73333 9.56019 1.16667 10.0139 0.7C10.4676 0.233333 11.0185 0 11.6667 0C12.3148 0 12.8657 0.233333 13.3194 0.7C13.7731 1.16667 14 1.73333 14 2.4C14 3.06667 13.7731 3.63333 13.3194 4.1C12.8657 4.56667 12.3148 4.8 11.6667 4.8C11.3556 4.8 11.0639 4.74333 10.7917 4.63C10.5194 4.51667 10.2796 4.36 10.0722 4.16L4.60833 7.44C4.63426 7.53333 4.65046 7.62333 4.65694 7.71C4.66343 7.79667 4.66667 7.89333 4.66667 8C4.66667 8.10667 4.66343 8.20333 4.65694 8.29C4.65046 8.37667 4.63426 8.46667 4.60833 8.56L10.0722 11.84C10.2796 11.64 10.5194 11.4833 10.7917 11.37C11.0639 11.2567 11.3556 11.2 11.6667 11.2C12.3148 11.2 12.8657 11.4333 13.3194 11.9C13.7731 12.3667 14 12.9333 14 13.6C14 14.2667 13.7731 14.8333 13.3194 15.3C12.8657 15.7667 12.3148 16 11.6667 16ZM11.6667 14.4C11.887 14.4 12.0718 14.3233 12.2208 14.17C12.3699 14.0167 12.4444 13.8267 12.4444 13.6C12.4444 13.3733 12.3699 13.1833 12.2208 13.03C12.0718 12.8767 11.887 12.8 11.6667 12.8C11.4463 12.8 11.2616 12.8767 11.1125 13.03C10.9634 13.1833 10.8889 13.3733 10.8889 13.6C10.8889 13.8267 10.9634 14.0167 11.1125 14.17C11.2616 14.3233 11.4463 14.4 11.6667 14.4ZM2.33333 8.8C2.5537 8.8 2.73843 8.72333 2.8875 8.57C3.03657 8.41667 3.11111 8.22667 3.11111 8C3.11111 7.77333 3.03657 7.58333 2.8875 7.43C2.73843 7.27667 2.5537 7.2 2.33333 7.2C2.11296 7.2 1.92824 7.27667 1.77917 7.43C1.63009 7.58333 1.55556 7.77333 1.55556 8C1.55556 8.22667 1.63009 8.41667 1.77917 8.57C1.92824 8.72333 2.11296 8.8 2.33333 8.8ZM11.6667 3.2C11.887 3.2 12.0718 3.12333 12.2208 2.97C12.3699 2.81667 12.4444 2.62667 12.4444 2.4C12.4444 2.17333 12.3699 1.98333 12.2208 1.83C12.0718 1.67667 11.887 1.6 11.6667 1.6C11.4463 1.6 11.2616 1.67667 11.1125 1.83C10.9634 1.98333 10.8889 2.17333 10.8889 2.4C10.8889 2.62667 10.9634 2.81667 11.1125 2.97C11.2616 3.12333 11.4463 3.2 11.6667 3.2Z" fill="#58616A"/>
</svg>
