<svg width="16" height="16" viewBox="0 0 16 16" fill="none" xmlns="http://www.w3.org/2000/svg">
<path d="M8 9.12011L1.36135 15.7591C1.20875 15.9117 1.02407 15.99 0.807313 15.994C0.590552 15.998 0.401757 15.9197 0.240928 15.7591C0.0803092 15.5982 0 15.4115 0 15.1987C0 14.9862 0.0803092 14.7995 0.240928 14.6386L6.87989 8L0.240928 1.36135C0.0883296 1.20875 0.0100255 1.02407 0.00601535 0.807313C0.00200517 0.590552 0.0803092 0.401757 0.240928 0.240927C0.401757 0.0803087 0.588547 0 0.801298 0C1.01384 0 1.20052 0.0803087 1.36135 0.240927L8 6.87989L14.6386 0.240927C14.7912 0.0883291 14.9759 0.0100255 15.1927 0.00601535C15.4094 0.00200517 15.5982 0.0803087 15.7591 0.240927C15.9197 0.401757 16 0.588547 16 0.801298C16 1.01384 15.9197 1.20052 15.7591 1.36135L9.12011 8L15.7591 14.6386C15.9117 14.7912 15.99 14.9759 15.994 15.1927C15.998 15.4094 15.9197 15.5982 15.7591 15.7591C15.5982 15.9197 15.4115 16 15.1987 16C14.9862 16 14.7995 15.9197 14.6386 15.7591L8 9.12011Z" fill="white" fill-opacity="0.5"/>
</svg>
