<svg width="1920" height="1080" viewBox="0 0 1920 1080" fill="none" xmlns="http://www.w3.org/2000/svg">
<rect width="1920" height="1080" fill="url(#paint0_linear_2061_44243)"/>
<rect width="1920" height="1080" fill="url(#paint1_linear_2061_44243)"/>
<rect width="1920" height="1080" fill="url(#paint2_linear_2061_44243)"/>
<path d="M1484.06 452H1368.93C1357.37 452 1348 461.964 1348 474.252V519.806C1348 532.094 1357.37 542.058 1368.93 542.058H1404.87L1426.5 569.893L1448.13 542.058H1484.07C1495.63 542.058 1505 532.094 1505 519.806V474.252C1505 461.964 1495.63 452 1484.07 452H1484.06ZM1392.65 506.664C1387.31 506.664 1382.98 502.06 1382.98 496.384C1382.98 490.708 1387.31 486.104 1392.65 486.104C1397.99 486.104 1402.32 490.708 1402.32 496.384C1402.32 502.06 1397.99 506.664 1392.65 506.664ZM1426.5 506.664C1421.16 506.664 1416.83 502.06 1416.83 496.384C1416.83 490.708 1421.16 486.104 1426.5 486.104C1431.84 486.104 1436.17 490.708 1436.17 496.384C1436.17 502.06 1431.84 506.664 1426.5 506.664ZM1460.35 506.664C1455.01 506.664 1450.68 502.06 1450.68 496.384C1450.68 490.708 1455.01 486.104 1460.35 486.104C1465.69 486.104 1470.02 490.708 1470.02 496.384C1470.02 502.06 1465.69 506.664 1460.35 506.664Z" fill="white" fill-opacity="0.1"/>
<path d="M1377.33 523.172H1296.67C1288.57 523.172 1282 530.174 1282 538.808V570.819C1282 579.454 1288.57 586.456 1296.67 586.456H1321.84L1337 606.015L1352.16 586.456H1377.33C1385.43 586.456 1392 579.454 1392 570.819V538.808C1392 530.174 1385.43 523.172 1377.33 523.172H1377.33ZM1313.28 561.584C1309.54 561.584 1306.51 558.349 1306.51 554.361C1306.51 550.372 1309.54 547.137 1313.28 547.137C1317.02 547.137 1320.06 550.372 1320.06 554.361C1320.06 558.349 1317.02 561.584 1313.28 561.584ZM1337 561.584C1333.26 561.584 1330.22 558.349 1330.22 554.361C1330.22 550.372 1333.26 547.137 1337 547.137C1340.74 547.137 1343.78 550.372 1343.78 554.361C1343.78 558.349 1340.74 561.584 1337 561.584ZM1360.71 561.584C1356.97 561.584 1353.94 558.349 1353.94 554.361C1353.94 550.372 1356.97 547.137 1360.71 547.137C1364.46 547.137 1367.49 550.372 1367.49 554.361C1367.49 558.349 1364.46 561.584 1360.71 561.584Z" fill="white" fill-opacity="0.1"/>
<path d="M554.265 399H489.732C483.254 399 478 404.578 478 411.457V436.96C478 443.839 483.254 449.417 489.732 449.417H509.875L522 465L534.125 449.417H554.268C560.746 449.417 566 443.839 566 436.96V411.457C566 404.578 560.746 399 554.268 399H554.265ZM503.026 429.602C500.033 429.602 497.606 427.025 497.606 423.847C497.606 420.67 500.033 418.093 503.026 418.093C506.018 418.093 508.446 420.67 508.446 423.847C508.446 427.025 506.018 429.602 503.026 429.602ZM522 429.602C519.007 429.602 516.58 427.025 516.58 423.847C516.58 420.67 519.007 418.093 522 418.093C524.993 418.093 527.42 420.67 527.42 423.847C527.42 427.025 524.993 429.602 522 429.602ZM540.972 429.602C537.979 429.602 535.551 427.025 535.551 423.847C535.551 420.67 537.979 418.093 540.972 418.093C543.964 418.093 546.392 420.67 546.392 423.847C546.392 427.025 543.964 429.602 540.972 429.602Z" fill="white" fill-opacity="0.06"/>
<path d="M782.276 244.523C782.276 236.599 783.838 233.574 790.079 229.406L793.397 227.215C797.882 224.294 800.809 220.856 800.809 216.787C800.809 212.51 797.589 208.655 791.933 208.655C786.278 208.655 783.155 211.471 781.691 216.474C780.52 220.647 776.426 222.416 772.327 221.06C768.526 219.813 766.379 216.474 767.159 211.993C769.014 201.461 778.28 193.016 790.86 193.016C806.66 193.016 817 202.4 817 216.891C817 226.798 811.637 232.844 803.932 238.164L800.907 240.251C798.858 241.711 798.272 243.172 798.272 245.462V247.549C798.272 252.969 795.149 255.994 790.274 255.994C785.399 255.994 782.276 252.969 782.276 247.549V244.523ZM790.274 263.292C795.637 263.292 800.126 268.086 800.126 273.824C800.126 279.562 795.642 284.356 790.274 284.356C784.907 284.356 780.422 279.562 780.422 273.824C780.422 268.086 784.911 263.292 790.274 263.292Z" fill="white" fill-opacity="0.08"/>
<path d="M838.47 197.111C838.47 186.515 840.563 182.469 848.926 176.896L853.372 173.966C859.381 170.06 863.304 165.463 863.304 160.022C863.304 154.302 858.989 149.147 851.411 149.147C843.832 149.147 839.647 152.914 837.686 159.603C836.117 165.184 830.63 167.549 825.138 165.735C820.044 164.068 817.167 159.603 818.213 153.611C820.698 139.528 833.115 128.234 849.972 128.234C871.145 128.234 885 140.783 885 160.161C885 173.408 877.814 181.493 867.489 188.607L863.435 191.398C860.689 193.351 859.904 195.304 859.904 198.366V201.156C859.904 208.404 855.72 212.45 849.187 212.45C842.655 212.45 838.47 208.404 838.47 201.156V197.111ZM849.187 222.209C856.374 222.209 862.389 228.619 862.389 236.292C862.389 243.965 856.38 250.376 849.187 250.376C841.995 250.376 835.986 243.965 835.986 236.292C835.986 228.619 842.001 222.209 849.187 222.209Z" fill="white" fill-opacity="0.08"/>
<defs>
<linearGradient id="paint0_linear_2061_44243" x1="-1915.5" y1="-1681.61" x2="4082.68" y2="-1490.65" gradientUnits="userSpaceOnUse">
<stop stop-color="#2DA34F"/>
<stop offset="1" stop-color="#811FD0"/>
</linearGradient>
<linearGradient id="paint1_linear_2061_44243" x1="-161" y1="-184.817" x2="3866.87" y2="193.824" gradientUnits="userSpaceOnUse">
<stop stop-color="#811FD0"/>
<stop offset="1" stop-color="#FFAA00"/>
</linearGradient>
<linearGradient id="paint2_linear_2061_44243" x1="1.87144e-05" y1="-551" x2="2892.4" y2="861.042" gradientUnits="userSpaceOnUse">
<stop stop-color="#4A1278"/>
<stop offset="0.5" stop-color="#6719A6"/>
<stop offset="1" stop-color="#FF004E"/>
</linearGradient>
</defs>
</svg>
