<svg width="1920" height="1080" viewBox="0 0 1920 1080" fill="none" xmlns="http://www.w3.org/2000/svg">
<rect width="1920" height="1080" fill="url(#paint0_linear_1734_44669)"/>
<path d="M47.2278 988.778C53.687 988.778 59.3759 990.052 64.2944 992.6C69.2722 995.148 73.1241 998.763 75.85 1003.44C78.6352 1008.13 80.0278 1013.61 80.0278 1019.89C80.0278 1026.11 78.6352 1031.59 75.85 1036.33C73.1241 1041.01 69.2722 1044.63 64.2944 1047.18C59.3759 1049.73 53.687 1051 47.2278 1051H19.6722V988.778H47.2278ZM46.4278 1037.67C51.8796 1037.67 56.2352 1036.1 59.4944 1032.96C62.7537 1029.76 64.3833 1025.4 64.3833 1019.89C64.3833 1014.38 62.7537 1010.05 59.4944 1006.91C56.2352 1003.71 51.8796 1002.11 46.4278 1002.11H35.2278V1037.67H46.4278ZM102.361 988.778V1051H86.8948V988.778H102.361ZM166.12 1018.64V1044.24C162.861 1046.79 159.068 1048.75 154.742 1050.11C150.416 1051.47 146.061 1052.16 141.675 1052.16C135.512 1052.16 129.942 1050.79 124.964 1048.07C120.046 1045.28 116.164 1041.43 113.32 1036.51C110.535 1031.59 109.142 1026.05 109.142 1019.89C109.142 1013.67 110.535 1008.13 113.32 1003.27C116.164 998.348 120.075 994.526 125.053 991.8C130.09 989.015 135.749 987.622 142.031 987.622C147.423 987.622 152.253 988.57 156.52 990.467C160.846 992.363 164.461 995.119 167.364 998.733L157.409 1008.42C153.32 1003.74 148.431 1001.4 142.742 1001.4C139.186 1001.4 136.046 1002.17 133.32 1003.71C130.653 1005.25 128.579 1007.41 127.098 1010.2C125.616 1012.99 124.875 1016.21 124.875 1019.89C124.875 1023.44 125.616 1026.64 127.098 1029.49C128.579 1032.27 130.653 1034.44 133.32 1035.98C135.986 1037.52 139.068 1038.29 142.564 1038.29C146.001 1038.29 149.142 1037.64 151.986 1036.33V1018.64H166.12ZM190.408 988.778V1051H174.942V988.778H190.408ZM194.522 1002.02V988.778H246.878V1002.02H228.478V1051H213.011V1002.02H194.522ZM260.608 1038.47L255.808 1051H239.897L266.208 988.778H281.497L307.719 1051H291.541L286.741 1038.47H260.608ZM273.675 1004.69L265.497 1026.11H281.852L273.675 1004.69ZM325.877 988.778V1037.76H354.677V1051H310.41V988.778H325.877ZM385.549 1029.49C382.764 1029.49 380.453 1028.6 378.616 1026.82C376.838 1024.99 375.949 1022.64 375.949 1019.8C375.949 1016.9 376.838 1014.59 378.616 1012.87C380.453 1011.09 382.764 1010.2 385.549 1010.2C388.394 1010.2 390.705 1011.09 392.483 1012.87C394.26 1014.59 395.149 1016.9 395.149 1019.8C395.149 1022.7 394.26 1025.04 392.483 1026.82C390.705 1028.6 388.394 1029.49 385.549 1029.49ZM438.04 1016.24H464.618V1029.31H438.04V1051H422.485V988.778H468.085V1001.76H438.04V1016.24ZM504.588 1052.16C498.365 1052.16 492.765 1050.76 487.787 1047.98C482.81 1045.19 478.899 1041.34 476.054 1036.42C473.269 1031.5 471.876 1025.99 471.876 1019.89C471.876 1013.79 473.269 1008.27 476.054 1003.36C478.899 998.437 482.81 994.585 487.787 991.8C492.765 989.015 498.365 987.622 504.588 987.622C510.75 987.622 516.321 989.015 521.299 991.8C526.276 994.585 530.158 998.437 532.943 1003.36C535.788 1008.21 537.21 1013.73 537.21 1019.89C537.21 1026.05 535.788 1031.59 532.943 1036.51C530.158 1041.37 526.276 1045.19 521.299 1047.98C516.321 1050.76 510.75 1052.16 504.588 1052.16ZM504.588 1038.29C507.788 1038.29 510.662 1037.52 513.21 1035.98C515.817 1034.44 517.832 1032.27 519.254 1029.49C520.736 1026.7 521.476 1023.5 521.476 1019.89C521.476 1016.27 520.736 1013.07 519.254 1010.29C517.832 1007.44 515.817 1005.25 513.21 1003.71C510.662 1002.17 507.788 1001.4 504.588 1001.4C501.328 1001.4 498.395 1002.17 495.787 1003.71C493.239 1005.25 491.225 1007.44 489.743 1010.29C488.321 1013.07 487.61 1016.27 487.61 1019.89C487.61 1023.5 488.321 1026.7 489.743 1029.49C491.225 1032.27 493.239 1034.44 495.787 1035.98C498.395 1037.52 501.328 1038.29 504.588 1038.29ZM573.259 1052.16C567.037 1052.16 561.437 1050.76 556.459 1047.98C551.482 1045.19 547.57 1041.34 544.726 1036.42C541.941 1031.5 540.548 1025.99 540.548 1019.89C540.548 1013.79 541.941 1008.27 544.726 1003.36C547.57 998.437 551.482 994.585 556.459 991.8C561.437 989.015 567.037 987.622 573.259 987.622C579.422 987.622 584.993 989.015 589.97 991.8C594.948 994.585 598.83 998.437 601.615 1003.36C604.459 1008.21 605.882 1013.73 605.882 1019.89C605.882 1026.05 604.459 1031.59 601.615 1036.51C598.83 1041.37 594.948 1045.19 589.97 1047.98C584.993 1050.76 579.422 1052.16 573.259 1052.16ZM573.259 1038.29C576.459 1038.29 579.333 1037.52 581.882 1035.98C584.489 1034.44 586.504 1032.27 587.926 1029.49C589.408 1026.7 590.148 1023.5 590.148 1019.89C590.148 1016.27 589.408 1013.07 587.926 1010.29C586.504 1007.44 584.489 1005.25 581.882 1003.71C579.333 1002.17 576.459 1001.4 573.259 1001.4C570 1001.4 567.067 1002.17 564.459 1003.71C561.911 1005.25 559.896 1007.44 558.415 1010.29C556.993 1013.07 556.282 1016.27 556.282 1019.89C556.282 1023.5 556.993 1026.7 558.415 1029.49C559.896 1032.27 561.911 1034.44 564.459 1035.98C567.067 1037.52 570 1038.29 573.259 1038.29ZM640.509 988.778C646.968 988.778 652.657 990.052 657.576 992.6C662.553 995.148 666.405 998.763 669.131 1003.44C671.916 1008.13 673.309 1013.61 673.309 1019.89C673.309 1026.11 671.916 1031.59 669.131 1036.33C666.405 1041.01 662.553 1044.63 657.576 1047.18C652.657 1049.73 646.968 1051 640.509 1051H612.953V988.778H640.509ZM639.709 1037.67C645.161 1037.67 649.516 1036.1 652.776 1032.96C656.035 1029.76 657.665 1025.4 657.665 1019.89C657.665 1014.38 656.035 1010.05 652.776 1006.91C649.516 1003.71 645.161 1002.11 639.709 1002.11H628.509V1037.67H639.709ZM706.643 1029.49C703.858 1029.49 701.547 1028.6 699.71 1026.82C697.932 1024.99 697.043 1022.64 697.043 1019.8C697.043 1016.9 697.932 1014.59 699.71 1012.87C701.547 1011.09 703.858 1010.2 706.643 1010.2C709.488 1010.2 711.799 1011.09 713.576 1012.87C715.354 1014.59 716.243 1016.9 716.243 1019.8C716.243 1022.7 715.354 1025.04 713.576 1026.82C711.799 1028.6 709.488 1029.49 706.643 1029.49ZM758.69 988.778V1051H743.223V988.778H758.69ZM824.226 1051H811.426L784.137 1016.33V1051H768.848V988.778H781.648L808.937 1023.36V988.778H824.226V1051ZM850.306 1016.24H876.884V1029.31H850.306V1051H834.75V988.778H880.35V1001.76H850.306V1016.24ZM916.853 1052.16C910.631 1052.16 905.031 1050.76 900.053 1047.98C895.075 1045.19 891.164 1041.34 888.32 1036.42C885.535 1031.5 884.142 1025.99 884.142 1019.89C884.142 1013.79 885.535 1008.27 888.32 1003.36C891.164 998.437 895.075 994.585 900.053 991.8C905.031 989.015 910.631 987.622 916.853 987.622C923.016 987.622 928.586 989.015 933.564 991.8C938.542 994.585 942.423 998.437 945.209 1003.36C948.053 1008.21 949.475 1013.73 949.475 1019.89C949.475 1026.05 948.053 1031.59 945.209 1036.51C942.423 1041.37 938.542 1045.19 933.564 1047.98C928.586 1050.76 923.016 1052.16 916.853 1052.16ZM916.853 1038.29C920.053 1038.29 922.927 1037.52 925.475 1035.98C928.083 1034.44 930.098 1032.27 931.52 1029.49C933.001 1026.7 933.742 1023.5 933.742 1019.89C933.742 1016.27 933.001 1013.07 931.52 1010.29C930.098 1007.44 928.083 1005.25 925.475 1003.71C922.927 1002.17 920.053 1001.4 916.853 1001.4C913.594 1001.4 910.661 1002.17 908.053 1003.71C905.505 1005.25 903.49 1007.44 902.009 1010.29C900.586 1013.07 899.875 1016.27 899.875 1019.89C899.875 1023.5 900.586 1026.7 902.009 1029.49C903.49 1032.27 905.505 1034.44 908.053 1035.98C910.661 1037.52 913.594 1038.29 916.853 1038.29ZM982.681 1034.38C982.681 1034.32 982.799 1034.29 983.036 1034.29H972.103V1051H956.547V988.778H983.036C988.31 988.778 992.903 989.726 996.814 991.622C1000.73 993.459 1003.75 996.096 1005.88 999.533C1008.01 1002.97 1009.08 1007.03 1009.08 1011.71C1009.08 1016.21 1008.04 1020.16 1005.97 1023.53C1003.9 1026.91 1000.99 1029.52 997.258 1031.36L1010.15 1051H993.614L982.681 1034.38ZM982.058 1021.31C985.792 1021.31 988.606 1020.48 990.503 1018.82C992.399 1017.1 993.347 1014.73 993.347 1011.71C993.347 1008.63 992.399 1006.26 990.503 1004.6C988.606 1002.88 985.792 1002.02 982.058 1002.02H972.103V1021.31H982.058ZM1069.44 1016.78L1053.44 1044.78H1046.5L1030.68 1017.67V1051H1016.19V988.778H1028.99L1050.24 1025.58L1071.12 988.778H1083.93L1084.01 1051H1069.53L1069.44 1016.78ZM1107.4 1038.47L1102.6 1051H1086.69L1113 988.778H1128.29L1154.52 1051H1138.34L1133.54 1038.47H1107.4ZM1120.47 1004.69L1112.29 1026.11H1128.65L1120.47 1004.69ZM1147.57 1002.02V988.778H1199.92V1002.02H1181.52V1051H1166.06V1002.02H1147.57ZM1219.47 988.778V1051H1204V988.778H1219.47ZM1258.96 1052.16C1252.74 1052.16 1247.14 1050.76 1242.16 1047.98C1237.18 1045.19 1233.27 1041.34 1230.43 1036.42C1227.64 1031.5 1226.25 1025.99 1226.25 1019.89C1226.25 1013.79 1227.64 1008.27 1230.43 1003.36C1233.27 998.437 1237.18 994.585 1242.16 991.8C1247.14 989.015 1252.74 987.622 1258.96 987.622C1265.13 987.622 1270.7 989.015 1275.67 991.8C1280.65 994.585 1284.53 998.437 1287.32 1003.36C1290.16 1008.21 1291.58 1013.73 1291.58 1019.89C1291.58 1026.05 1290.16 1031.59 1287.32 1036.51C1284.53 1041.37 1280.65 1045.19 1275.67 1047.98C1270.7 1050.76 1265.13 1052.16 1258.96 1052.16ZM1258.96 1038.29C1262.16 1038.29 1265.04 1037.52 1267.58 1035.98C1270.19 1034.44 1272.21 1032.27 1273.63 1029.49C1275.11 1026.7 1275.85 1023.5 1275.85 1019.89C1275.85 1016.27 1275.11 1013.07 1273.63 1010.29C1272.21 1007.44 1270.19 1005.25 1267.58 1003.71C1265.04 1002.17 1262.16 1001.4 1258.96 1001.4C1255.7 1001.4 1252.77 1002.17 1250.16 1003.71C1247.61 1005.25 1245.6 1007.44 1244.12 1010.29C1242.7 1013.07 1241.98 1016.27 1241.98 1019.89C1241.98 1023.5 1242.7 1026.7 1244.12 1029.49C1245.6 1032.27 1247.61 1034.44 1250.16 1035.98C1252.77 1037.52 1255.7 1038.29 1258.96 1038.29ZM1353.68 1051H1340.88L1313.59 1016.33V1051H1298.3V988.778H1311.1L1338.39 1023.36V988.778H1353.68V1051ZM1390.31 1029.49C1387.53 1029.49 1385.22 1028.6 1383.38 1026.82C1381.6 1024.99 1380.71 1022.64 1380.71 1019.8C1380.71 1016.9 1381.6 1014.59 1383.38 1012.87C1385.22 1011.09 1387.53 1010.2 1390.31 1010.2C1393.16 1010.2 1395.47 1011.09 1397.25 1012.87C1399.03 1014.59 1399.91 1016.9 1399.91 1019.8C1399.91 1022.7 1399.03 1025.04 1397.25 1026.82C1395.47 1028.6 1393.16 1029.49 1390.31 1029.49ZM1453.74 988.778C1459.01 988.778 1463.61 989.726 1467.52 991.622C1471.43 993.459 1474.45 996.096 1476.58 999.533C1478.72 1002.97 1479.78 1007.03 1479.78 1011.71C1479.78 1016.33 1478.72 1020.36 1476.58 1023.8C1474.45 1027.24 1471.43 1029.87 1467.52 1031.71C1463.61 1033.55 1459.01 1034.47 1453.74 1034.47H1442.81V1051H1427.25V988.778H1453.74ZM1452.76 1021.22C1456.49 1021.22 1459.31 1020.39 1461.21 1018.73C1463.1 1017.07 1464.05 1014.73 1464.05 1011.71C1464.05 1008.63 1463.1 1006.26 1461.21 1004.6C1459.31 1002.88 1456.49 1002.02 1452.76 1002.02H1442.81V1021.22H1452.76ZM1502.21 988.778V1037.76H1531.01V1051H1486.74V988.778H1502.21ZM1550.45 1038.47L1545.65 1051H1529.74L1556.05 988.778H1571.34L1597.56 1051H1581.39L1576.59 1038.47H1550.45ZM1563.52 1004.69L1555.34 1026.11H1571.7L1563.52 1004.69ZM1590.62 1002.02V988.778H1642.97V1002.02H1624.57V1051H1609.1V1002.02H1590.62ZM1662.96 1016.24H1689.54V1029.31H1662.96V1051H1647.41V988.778H1693.01V1001.76H1662.96V1016.24ZM1729.51 1052.16C1723.29 1052.16 1717.69 1050.76 1712.71 1047.98C1707.73 1045.19 1703.82 1041.34 1700.98 1036.42C1698.19 1031.5 1696.8 1025.99 1696.8 1019.89C1696.8 1013.79 1698.19 1008.27 1700.98 1003.36C1703.82 998.437 1707.73 994.585 1712.71 991.8C1717.69 989.015 1723.29 987.622 1729.51 987.622C1735.67 987.622 1741.24 989.015 1746.22 991.8C1751.2 994.585 1755.08 998.437 1757.86 1003.36C1760.71 1008.21 1762.13 1013.73 1762.13 1019.89C1762.13 1026.05 1760.71 1031.59 1757.86 1036.51C1755.08 1041.37 1751.2 1045.19 1746.22 1047.98C1741.24 1050.76 1735.67 1052.16 1729.51 1052.16ZM1729.51 1038.29C1732.71 1038.29 1735.58 1037.52 1738.13 1035.98C1740.74 1034.44 1742.75 1032.27 1744.18 1029.49C1745.66 1026.7 1746.4 1023.5 1746.4 1019.89C1746.4 1016.27 1745.66 1013.07 1744.18 1010.29C1742.75 1007.44 1740.74 1005.25 1738.13 1003.71C1735.58 1002.17 1732.71 1001.4 1729.51 1001.4C1726.25 1001.4 1723.32 1002.17 1720.71 1003.71C1718.16 1005.25 1716.15 1007.44 1714.66 1010.29C1713.24 1013.07 1712.53 1016.27 1712.53 1019.89C1712.53 1023.5 1713.24 1026.7 1714.66 1029.49C1716.15 1032.27 1718.16 1034.44 1720.71 1035.98C1723.32 1037.52 1726.25 1038.29 1729.51 1038.29ZM1795.34 1034.38C1795.34 1034.32 1795.46 1034.29 1795.69 1034.29H1784.76V1051H1769.2V988.778H1795.69C1800.97 988.778 1805.56 989.726 1809.47 991.622C1813.38 993.459 1816.4 996.096 1818.54 999.533C1820.67 1002.97 1821.74 1007.03 1821.74 1011.71C1821.74 1016.21 1820.7 1020.16 1818.63 1023.53C1816.55 1026.91 1813.65 1029.52 1809.91 1031.36L1822.8 1051H1806.27L1795.34 1034.38ZM1794.71 1021.31C1798.45 1021.31 1801.26 1020.48 1803.16 1018.82C1805.06 1017.1 1806 1014.73 1806 1011.71C1806 1008.63 1805.06 1006.26 1803.16 1004.6C1801.26 1002.88 1798.45 1002.02 1794.71 1002.02H1784.76V1021.31H1794.71ZM1882.09 1016.78L1866.09 1044.78H1859.16L1843.34 1017.67V1051H1828.85V988.778H1841.65L1862.89 1025.58L1883.78 988.778H1896.58L1896.67 1051H1882.18L1882.09 1016.78Z" fill="url(#paint1_linear_1734_44669)"/>
<path d="M1484.06 452H1368.93C1357.37 452 1348 461.964 1348 474.252V519.806C1348 532.094 1357.37 542.058 1368.93 542.058H1404.87L1426.5 569.893L1448.13 542.058H1484.07C1495.63 542.058 1505 532.094 1505 519.806V474.252C1505 461.964 1495.63 452 1484.07 452H1484.06ZM1392.65 506.664C1387.31 506.664 1382.98 502.06 1382.98 496.384C1382.98 490.708 1387.31 486.104 1392.65 486.104C1397.99 486.104 1402.32 490.708 1402.32 496.384C1402.32 502.06 1397.99 506.664 1392.65 506.664ZM1426.5 506.664C1421.16 506.664 1416.83 502.06 1416.83 496.384C1416.83 490.708 1421.16 486.104 1426.5 486.104C1431.84 486.104 1436.17 490.708 1436.17 496.384C1436.17 502.06 1431.84 506.664 1426.5 506.664ZM1460.35 506.664C1455.01 506.664 1450.68 502.06 1450.68 496.384C1450.68 490.708 1455.01 486.104 1460.35 486.104C1465.69 486.104 1470.02 490.708 1470.02 496.384C1470.02 502.06 1465.69 506.664 1460.35 506.664Z" fill="white" fill-opacity="0.1"/>
<path d="M1377.33 523.172H1296.67C1288.57 523.172 1282 530.174 1282 538.808V570.819C1282 579.454 1288.57 586.456 1296.67 586.456H1321.84L1337 606.015L1352.16 586.456H1377.33C1385.43 586.456 1392 579.454 1392 570.819V538.808C1392 530.174 1385.43 523.172 1377.33 523.172H1377.33ZM1313.28 561.584C1309.54 561.584 1306.51 558.349 1306.51 554.361C1306.51 550.372 1309.54 547.137 1313.28 547.137C1317.02 547.137 1320.06 550.372 1320.06 554.361C1320.06 558.349 1317.02 561.584 1313.28 561.584ZM1337 561.584C1333.26 561.584 1330.22 558.349 1330.22 554.361C1330.22 550.372 1333.26 547.137 1337 547.137C1340.74 547.137 1343.78 550.372 1343.78 554.361C1343.78 558.349 1340.74 561.584 1337 561.584ZM1360.71 561.584C1356.97 561.584 1353.94 558.349 1353.94 554.361C1353.94 550.372 1356.97 547.137 1360.71 547.137C1364.46 547.137 1367.49 550.372 1367.49 554.361C1367.49 558.349 1364.46 561.584 1360.71 561.584Z" fill="white" fill-opacity="0.1"/>
<path d="M554.265 399H489.732C483.254 399 478 404.578 478 411.457V436.96C478 443.839 483.254 449.417 489.732 449.417H509.875L522 465L534.125 449.417H554.268C560.746 449.417 566 443.839 566 436.96V411.457C566 404.578 560.746 399 554.268 399H554.265ZM503.026 429.602C500.033 429.602 497.606 427.025 497.606 423.847C497.606 420.67 500.033 418.093 503.026 418.093C506.018 418.093 508.446 420.67 508.446 423.847C508.446 427.025 506.018 429.602 503.026 429.602ZM522 429.602C519.007 429.602 516.58 427.025 516.58 423.847C516.58 420.67 519.007 418.093 522 418.093C524.993 418.093 527.42 420.67 527.42 423.847C527.42 427.025 524.993 429.602 522 429.602ZM540.972 429.602C537.979 429.602 535.551 427.025 535.551 423.847C535.551 420.67 537.979 418.093 540.972 418.093C543.964 418.093 546.392 420.67 546.392 423.847C546.392 427.025 543.964 429.602 540.972 429.602Z" fill="white" fill-opacity="0.06"/>
<path d="M782.276 244.523C782.276 236.599 783.838 233.574 790.079 229.406L793.397 227.215C797.882 224.294 800.809 220.856 800.809 216.787C800.809 212.51 797.589 208.655 791.933 208.655C786.278 208.655 783.155 211.471 781.691 216.474C780.52 220.647 776.426 222.416 772.327 221.06C768.526 219.813 766.379 216.474 767.159 211.993C769.014 201.461 778.28 193.016 790.86 193.016C806.66 193.016 817 202.4 817 216.891C817 226.798 811.637 232.844 803.932 238.164L800.907 240.251C798.858 241.711 798.272 243.172 798.272 245.462V247.549C798.272 252.969 795.149 255.994 790.274 255.994C785.399 255.994 782.276 252.969 782.276 247.549V244.523ZM790.274 263.292C795.637 263.292 800.126 268.086 800.126 273.824C800.126 279.562 795.642 284.356 790.274 284.356C784.907 284.356 780.422 279.562 780.422 273.824C780.422 268.086 784.911 263.292 790.274 263.292Z" fill="white" fill-opacity="0.08"/>
<path d="M838.47 197.111C838.47 186.515 840.563 182.469 848.926 176.896L853.372 173.966C859.381 170.06 863.304 165.463 863.304 160.022C863.304 154.302 858.989 149.147 851.411 149.147C843.832 149.147 839.647 152.914 837.686 159.603C836.117 165.184 830.63 167.549 825.138 165.735C820.044 164.068 817.167 159.603 818.213 153.611C820.698 139.528 833.115 128.234 849.972 128.234C871.145 128.234 885 140.783 885 160.161C885 173.408 877.814 181.493 867.489 188.607L863.435 191.398C860.689 193.351 859.904 195.304 859.904 198.366V201.156C859.904 208.404 855.72 212.45 849.187 212.45C842.655 212.45 838.47 208.404 838.47 201.156V197.111ZM849.187 222.209C856.374 222.209 862.389 228.619 862.389 236.292C862.389 243.965 856.38 250.376 849.187 250.376C841.995 250.376 835.986 243.965 835.986 236.292C835.986 228.619 842.001 222.209 849.187 222.209Z" fill="white" fill-opacity="0.08"/>
<defs>
<linearGradient id="paint0_linear_1734_44669" x1="0" y1="540" x2="1920" y2="540" gradientUnits="userSpaceOnUse">
<stop stop-color="#2DA34F"/>
<stop offset="1" stop-color="#1B5D88"/>
</linearGradient>
<linearGradient id="paint1_linear_1734_44669" x1="951.913" y1="990" x2="951.913" y2="1050.94" gradientUnits="userSpaceOnUse">
<stop stop-color="white" stop-opacity="0.08"/>
<stop offset="1" stop-color="white" stop-opacity="0.04"/>
</linearGradient>
</defs>
</svg>
