<svg width="10" height="10" viewBox="0 0 10 10" fill="none" xmlns="http://www.w3.org/2000/svg">
<g clip-path="url(#clip0_1279_41068)">
<path d="M5.0001 0.695313C4.79138 0.695287 4.58617 0.749069 4.40429 0.851468C4.22241 0.953867 4.07 1.10142 3.96177 1.2799L0.582602 6.92031C0.475267 7.10383 0.418002 7.31231 0.416533 7.52491C0.415064 7.73751 0.469444 7.94676 0.574233 8.13175C0.679021 8.31673 0.830545 8.47096 1.01365 8.579C1.19675 8.68704 1.40501 8.74511 1.6176 8.7474H8.37802C8.59042 8.7459 8.79871 8.6887 8.9821 8.58153C9.16548 8.47435 9.31754 8.32094 9.4231 8.13661C9.52865 7.95229 9.584 7.7435 9.58362 7.53109C9.58324 7.31869 9.52714 7.11009 9.42094 6.92615L6.03927 1.28198C5.93113 1.10308 5.77868 0.955101 5.59664 0.852332C5.41461 0.749563 5.20914 0.695482 5.0001 0.695313Z" fill="#FF0000"/>
</g>
<defs>
<clipPath id="clip0_1279_41068">
<rect width="10" height="10" fill="white"/>
</clipPath>
</defs>
</svg>
