<svg width="20" height="20" viewBox="0 0 20 20" fill="none" xmlns="http://www.w3.org/2000/svg">
<path d="M2.87801 2.26918C2.94781 2.41001 3.09231 2.4994 3.25029 2.4994H16.5848C16.7428 2.4994 16.8873 2.41001 16.9571 2.26918L17.7911 0.602512C17.8547 0.473931 17.8486 0.319633 17.7727 0.197174C17.6968 0.0747148 17.5633 1.48284e-05 17.4176 1.48284e-05H2.41634C2.27184 -0.00120976 2.13836 0.0734902 2.06243 0.195949C1.98651 0.319633 1.97916 0.472706 2.04407 0.601288L2.87801 2.26795V2.26918Z" fill="#8B320A"/>
<path d="M16.9571 17.7302C16.8873 17.5882 16.7428 17.5 16.5848 17.5H3.25029C3.09231 17.5 2.94781 17.5894 2.87801 17.7302L2.04407 19.3969C1.97916 19.5267 1.98651 19.6798 2.06243 19.8022C2.13836 19.9259 2.27184 19.9994 2.41757 19.9994H17.4188C17.5633 19.9994 17.6968 19.9247 17.7739 19.8022C17.8498 19.6798 17.856 19.5267 17.7923 19.3969L16.9583 17.7302H16.9571Z" fill="#8B320A"/>
<path d="M16.9894 1.98196C16.9428 1.79582 16.7763 1.66602 16.5852 1.66602H3.25069C3.04741 1.66602 2.87352 1.81297 2.84045 2.0138C2.82331 2.11789 2.41797 4.60503 2.41797 9.58298C2.41797 14.5609 2.8331 17.9347 2.838 17.969C2.86372 18.1771 3.04128 18.3339 3.25069 18.3339H16.5852C16.7885 18.3339 16.9624 18.1857 16.9955 17.9849C17.0126 17.882 17.418 15.3839 17.418 9.58298C17.418 3.76496 17.0065 2.05176 16.9894 1.98196Z" fill="#C85305"/>
<path d="M2.41602 9.58303C2.41602 10.6325 2.43438 11.6097 2.46377 12.5H17.3793C17.4025 11.6391 17.416 10.6692 17.416 9.58303C17.416 8.82011 17.4087 8.12699 17.3964 7.5H2.44173C2.42581 8.13801 2.41724 8.83235 2.41724 9.58303H2.41602Z" fill="#FFAF40"/>
<path d="M9.91699 4.99805C7.16044 4.99805 4.91699 7.24149 4.91699 9.99804C4.91699 12.7546 7.16044 14.998 9.91699 14.998C12.6735 14.998 14.917 12.7546 14.917 9.99804C14.917 7.24149 12.6735 4.99805 9.91699 4.99805Z" fill="#FFC751"/>
<path d="M9.91701 13.3333C8.76835 13.3333 7.83398 12.3977 7.83398 11.249C7.83398 10.1004 8.76835 9.16602 9.91701 9.16602C11.0657 9.16602 12 10.1004 12 11.249C12 12.3977 11.0657 13.3333 9.91701 13.3333Z" fill="#E57028"/>
<path d="M9.91713 8.75027C9.34279 8.75027 8.875 8.28247 8.875 7.70814C8.875 7.13381 9.34279 6.66602 9.91713 6.66602C10.4915 6.66602 10.9593 7.13381 10.9593 7.70814C10.9593 8.28247 10.4915 8.75027 9.91713 8.75027Z" fill="#E57028"/>
<path d="M7.58509 9.54396C7.30711 9.54396 7.04505 9.4362 6.84789 9.23904C6.44133 8.83248 6.44133 8.1712 6.84789 7.76586C7.04505 7.5687 7.30589 7.46094 7.58509 7.46094C7.8643 7.46094 8.12514 7.5687 8.32107 7.76586C8.72763 8.17242 8.72763 8.83248 8.32107 9.23904C8.12514 9.4362 7.86308 9.54396 7.58509 9.54396Z" fill="#E57028"/>
<path d="M12.2482 9.54396C11.9702 9.54396 11.7081 9.4362 11.511 9.23904C11.315 9.04188 11.2061 8.78104 11.2061 8.50184C11.2061 8.22263 11.315 7.96179 11.511 7.76586C11.7081 7.5687 11.969 7.46094 12.2482 7.46094C12.5274 7.46094 12.7882 7.5687 12.9854 7.76586C13.1813 7.96179 13.2903 8.22386 13.2903 8.50184C13.2903 8.77982 13.1813 9.04188 12.9854 9.23904C12.7894 9.4362 12.5274 9.54396 12.2482 9.54396Z" fill="#E57028"/>
</svg>
