<svg width="20" height="20" viewBox="0 0 20 20" fill="none" xmlns="http://www.w3.org/2000/svg">
<g clip-path="url(#clip0_802_1939)">
<path d="M10.8301 4.91098C10.5431 4.80816 10.2873 4.56857 10.1295 4.284H10.2551C10.3239 4.284 10.3797 4.2282 10.3797 4.15934C10.3797 4.09047 10.3239 4.03467 10.2551 4.03467H10.0892C10.0475 4.03467 10.0118 4.00586 10.0014 3.96543C10.0012 3.96484 10.0011 3.9642 10.0009 3.96361C9.98655 3.90727 10.0306 3.85276 10.0888 3.85276H10.2551C10.3239 3.85276 10.3797 3.79696 10.3797 3.72809C10.3797 3.65923 10.3239 3.60343 10.2551 3.60343H10.0551C10.0053 3.60343 9.96508 3.5631 9.96508 3.51341V3.12109H2.69198V3.51341C2.69198 3.56316 2.65165 3.60343 2.60196 3.60343H2.40199C2.33312 3.60343 2.27732 3.65923 2.27732 3.72809C2.27732 3.79696 2.33312 3.85276 2.40199 3.85276H2.56827C2.62643 3.85276 2.6705 3.90727 2.65615 3.96361C2.65599 3.9642 2.65583 3.96484 2.65567 3.96543C2.64528 4.00586 2.60956 4.03467 2.56784 4.03467H2.40199C2.33312 4.03467 2.27732 4.09047 2.27732 4.15934C2.27732 4.2282 2.33312 4.284 2.40199 4.284H2.52757C2.36981 4.56857 2.11393 4.80816 1.827 4.91098C0.836485 5.26586 0.12793 6.2129 0.12793 7.32542V19.275C0.12793 19.6751 0.452298 19.9994 0.85239 19.9994H11.8048C12.2049 19.9994 12.5292 19.6751 12.5292 19.2751V7.32542C12.5292 6.2129 11.8207 5.26586 10.8301 4.91098H10.8301Z" fill="#EDF4DF"/>
<mask id="mask0_802_1939" style="mask-type:luminance" maskUnits="userSpaceOnUse" x="0" y="3" width="13" height="17">
<path d="M10.8301 4.91098C10.5431 4.80816 10.2873 4.56857 10.1295 4.284H10.2551C10.3239 4.284 10.3797 4.2282 10.3797 4.15934C10.3797 4.09047 10.3239 4.03467 10.2551 4.03467H10.0892C10.0475 4.03467 10.0118 4.00586 10.0014 3.96543C10.0012 3.96484 10.0011 3.9642 10.0009 3.96361C9.98655 3.90727 10.0306 3.85276 10.0888 3.85276H10.2551C10.3239 3.85276 10.3797 3.79696 10.3797 3.72809C10.3797 3.65923 10.3239 3.60343 10.2551 3.60343H10.0551C10.0053 3.60343 9.96508 3.5631 9.96508 3.51341V3.12109H2.69198V3.51341C2.69198 3.56316 2.65165 3.60343 2.60196 3.60343H2.40199C2.33312 3.60343 2.27732 3.65923 2.27732 3.72809C2.27732 3.79696 2.33312 3.85276 2.40199 3.85276H2.56827C2.62643 3.85276 2.6705 3.90727 2.65615 3.96361C2.65599 3.9642 2.65583 3.96484 2.65567 3.96543C2.64528 4.00586 2.60956 4.03467 2.56784 4.03467H2.40199C2.33312 4.03467 2.27732 4.09047 2.27732 4.15934C2.27732 4.2282 2.33312 4.284 2.40199 4.284H2.52757C2.36981 4.56857 2.11393 4.80816 1.827 4.91098C0.836485 5.26586 0.12793 6.2129 0.12793 7.32542V19.275C0.12793 19.6751 0.452298 19.9994 0.85239 19.9994H11.8048C12.2049 19.9994 12.5292 19.6751 12.5292 19.2751V7.32542C12.5292 6.2129 11.8207 5.26586 10.8301 4.91098H10.8301Z" fill="white"/>
</mask>
<g mask="url(#mask0_802_1939)">
<g style="mix-blend-mode:overlay" opacity="0.6">
<path d="M10.1803 3.12109H2.52734V3.53167H10.1803V3.12109Z" fill="black"/>
</g>
<g style="mix-blend-mode:overlay" opacity="0.6">
<path d="M10.1559 3.85547H2.50293V4.02812H10.1559V3.85547Z" fill="black"/>
</g>
<g style="mix-blend-mode:overlay" opacity="0.6">
<path d="M10.4203 4.28125H2.2373V4.46895H10.4203V4.28125Z" fill="black"/>
</g>
<path d="M11.8057 20.0001C12.2058 20.0001 12.5301 19.6758 12.5301 19.2758V7.32617" fill="#EDF4DF"/>
</g>
<g style="mix-blend-mode:overlay" opacity="0.6">
<path d="M10.8308 4.91103C10.5438 4.80821 10.288 4.56863 10.1302 4.28406H10.2558C10.3246 4.28406 10.3804 4.22826 10.3804 4.15939C10.3804 4.09052 10.3246 4.03472 10.2558 4.03472H10.0899C10.0482 4.03472 10.0125 4.00591 10.0021 3.96548C10.0019 3.96489 10.0018 3.96425 10.0016 3.96366C9.98726 3.90733 10.0313 3.85281 10.0894 3.85281H10.2557C10.3246 3.85281 10.3804 3.79701 10.3804 3.72815C10.3804 3.65928 10.3246 3.60348 10.2557 3.60348H10.0558C10.006 3.60348 9.96573 3.56316 9.96573 3.51346V3.12109H8.31984C8.45956 4.72585 9.30012 6.11908 9.91609 7.62477C10.9974 10.12 10.4983 13.1143 9.58336 15.6928C9.28127 16.6852 8.66531 19.4482 7.85254 19.9995H11.8054C12.2055 19.9995 12.5298 19.6752 12.5298 19.2751V7.32547C12.5298 6.21296 11.8212 5.26591 10.8307 4.91103H10.8308Z" fill="black"/>
</g>
<path d="M10.1103 0H2.54955C2.03516 0 1.61816 0.416982 1.61816 0.931355V2.43704C1.61816 2.95142 2.03516 3.3684 2.54955 3.3684H10.1103C10.6247 3.3684 11.0417 2.95142 11.0417 2.43704V0.931355C11.0417 0.416982 10.6247 0 10.1103 0Z" fill="#7BD667"/>
<g opacity="0.7">
<path d="M2.63317 0.648438C2.85166 0.648438 3.02903 0.825798 3.02903 1.04428V2.32211C3.02903 2.5406 2.85166 2.71796 2.63317 2.71796C2.41467 2.71796 2.2373 2.5406 2.2373 2.32211V1.04428C2.2373 0.825798 2.41467 0.648438 2.63317 0.648438Z" fill="#60B74B"/>
<path d="M4.11266 0.648438C4.33115 0.648438 4.50852 0.825798 4.50852 1.04428V2.32211C4.50852 2.5406 4.33115 2.71796 4.11266 2.71796C3.89416 2.71796 3.7168 2.5406 3.7168 2.32211V1.04428C3.7168 0.825798 3.89416 0.648438 4.11266 0.648438Z" fill="#60B74B"/>
<path d="M5.5902 0.648438C5.80869 0.648438 5.98606 0.825798 5.98606 1.04428V2.32211C5.98606 2.5406 5.80869 2.71796 5.5902 2.71796C5.3717 2.71796 5.19434 2.5406 5.19434 2.32211V1.04428C5.19434 0.825798 5.3717 0.648438 5.5902 0.648438Z" fill="#60B74B"/>
<path d="M7.06871 0.648438C7.28721 0.648438 7.46457 0.825798 7.46457 1.04428V2.32211C7.46457 2.5406 7.28721 2.71796 7.06871 2.71796C6.85022 2.71796 6.67285 2.5406 6.67285 2.32211V1.04428C6.67285 0.825798 6.85022 0.648438 7.06871 0.648438Z" fill="#60B74B"/>
<path d="M8.94211 1.04428C8.94211 0.825664 8.76488 0.648438 8.54625 0.648438C8.32762 0.648438 8.15039 0.825664 8.15039 1.04428V2.32206C8.15039 2.54068 8.32762 2.71791 8.54625 2.71791C8.76488 2.71791 8.94211 2.54068 8.94211 2.32206V1.04428Z" fill="#60B74B"/>
<path d="M10.0257 0.648438C10.2442 0.648438 10.4216 0.825798 10.4216 1.04428V2.32211C10.4216 2.5406 10.2442 2.71796 10.0257 2.71796C9.80725 2.71796 9.62988 2.5406 9.62988 2.32211V1.04428C9.62988 0.825798 9.80725 0.648438 10.0257 0.648438Z" fill="#60B74B"/>
</g>
<path d="M12.5332 8.07812H0.125528C0.0562006 8.07812 0 8.13432 0 8.20365V14.933C0 15.0023 0.0562006 15.0585 0.125528 15.0585H12.5332C12.6025 15.0585 12.6587 15.0023 12.6587 14.933V8.20365C12.6587 8.13432 12.6025 8.07812 12.5332 8.07812Z" fill="#7BD667"/>
<g style="mix-blend-mode:overlay" opacity="0.3">
<path d="M12.5333 8.07812H10.0941C10.7131 10.3438 10.8958 13.0391 9.79688 15.0585H12.5333C12.6027 15.0585 12.6588 15.0023 12.6588 14.933V8.2037C12.6588 8.13435 12.6026 8.07818 12.5333 8.07818V8.07812Z" fill="black"/>
</g>
<path d="M8.49452 10.7154H7.46502C7.30956 10.7154 7.18355 10.5894 7.18355 10.4339V9.40451C7.18355 9.24905 7.05754 9.12305 6.90207 9.12305H5.75765C5.60219 9.12305 5.47618 9.24905 5.47618 9.40451V10.4339C5.47618 10.5894 5.35017 10.7154 5.19471 10.7154H4.16526C4.0098 10.7154 3.88379 10.8414 3.88379 10.9968V12.1412C3.88379 12.2967 4.0098 12.4227 4.16526 12.4227H5.19471C5.35017 12.4227 5.47618 12.5487 5.47618 12.7041V13.7336C5.47618 13.889 5.60219 14.015 5.75765 14.015H6.90207C7.05754 14.015 7.18355 13.889 7.18355 13.7336V12.7041C7.18355 12.5487 7.30956 12.4227 7.46502 12.4227H8.49452C8.64998 12.4227 8.77599 12.2967 8.77599 12.1412V10.9968C8.77599 10.8414 8.64998 10.7154 8.49452 10.7154Z" fill="#EDF4DF"/>
<path d="M15.2937 18.0714C17.7648 18.0714 19.768 16.0682 19.768 13.5972C19.768 11.1262 17.7648 9.12305 15.2937 9.12305C12.8226 9.12305 10.8193 11.1262 10.8193 13.5972C10.8193 16.0682 12.8226 18.0714 15.2937 18.0714Z" fill="#F7F2DF"/>
<path d="M17.9868 12.6855H12.6029C12.0995 12.6855 11.6914 13.0936 11.6914 13.597V13.5971C11.6914 14.1005 12.0995 14.5086 12.6029 14.5086H17.9868C18.4903 14.5086 18.8984 14.1005 18.8984 13.5971V13.597C18.8984 13.0936 18.4903 12.6855 17.9868 12.6855Z" fill="#FFD772"/>
<g style="mix-blend-mode:overlay" opacity="0.6">
<path d="M19.7684 13.597C19.7684 16.068 17.7654 18.071 15.2942 18.071C14.4621 18.071 13.6824 17.8434 13.0156 17.4479C15.0895 17.1793 16.6917 15.4065 16.6917 13.2593C16.6917 11.462 15.5699 9.92722 13.9878 9.31733C14.4008 9.19041 14.8393 9.12305 15.2942 9.12305C17.7654 9.12305 19.7684 11.126 19.7684 13.597Z" fill="black"/>
</g>
<path d="M11.4063 10.0805C10.3845 9.39321 10.1135 8.0078 10.8007 6.98605L13.0086 3.70414C13.6959 2.68239 15.0814 2.41131 16.1032 3.09858C17.1249 3.78591 17.396 5.17132 16.7087 6.19307L14.5009 9.47498C13.8136 10.4967 12.4281 10.7678 11.4063 10.0805Z" fill="#F7F2DF"/>
<path d="M15.7038 7.68668L14.5008 9.47501C13.8136 10.4965 12.4281 10.768 11.4062 10.0806C10.3847 9.3934 10.1135 8.00756 10.8006 6.98602L12.0039 5.19727C12.5307 5.69175 13.1161 6.16005 13.7546 6.58959C14.3931 7.01912 15.0475 7.38471 15.7038 7.68668Z" fill="#F28270"/>
<g style="mix-blend-mode:overlay" opacity="0.6">
<path d="M16.7089 6.19288L14.5012 9.47474C13.814 10.4962 12.4285 10.7677 11.4065 10.0803C11.2384 9.96719 11.0903 9.83508 10.9639 9.68867C11.8935 10.0037 12.9547 9.67341 13.5285 8.82045L15.7363 5.53859C16.08 5.02761 16.1841 4.42586 16.0749 3.86583C16.0014 3.49044 15.8317 3.13389 15.5738 2.83594C15.7571 2.8979 15.9353 2.98524 16.1034 3.09834C16.6144 3.44203 16.9377 3.96018 17.0472 4.51979C17.1568 5.08009 17.0528 5.68189 16.709 6.19282L16.7089 6.19288Z" fill="black"/>
</g>
</g>
<defs>
<clipPath id="clip0_802_1939">
<rect width="20" height="20" fill="white"/>
</clipPath>
</defs>
</svg>
