<svg width="20" height="20" viewBox="0 0 20 20" fill="none" xmlns="http://www.w3.org/2000/svg">
<g clip-path="url(#clip0_802_4657)">
<path d="M12.4434 3.66586L12.5568 3.79875L16.7695 8.7457L16.9097 8.91007C17.5217 8.31412 17.9281 7.48494 17.9912 6.54892C18.1243 4.59318 16.7089 2.89932 14.8368 2.77308C14.0614 2.72087 13.3277 2.94557 12.7248 3.3658C12.613 3.44332 12.5055 3.5277 12.4033 3.6184L12.4435 3.66586H12.4434Z" fill="#FFBA00"/>
<path d="M16.7693 8.74656L12.5566 3.79961C12.6141 3.75969 12.6599 3.71323 12.7138 3.65164C12.7924 3.56041 12.8746 3.53668 12.9788 3.49112C13.0942 3.44086 13.1644 3.33181 13.2726 3.27138C13.4871 3.15135 13.7783 3.09219 14.0161 3.04684C14.092 3.0327 14.1746 3.01092 14.2522 3.00939C14.3223 3.00818 14.3888 3.03334 14.4609 3.03365C14.583 3.03344 14.7003 2.99278 14.8206 2.97633C14.8475 2.97227 14.8743 2.96948 14.9021 2.96905C15.1325 2.96331 15.3376 3.03998 15.5479 3.13659C15.5943 3.15837 15.6462 3.16812 15.692 3.19138C15.742 3.21711 15.7724 3.26267 15.8178 3.29373C15.8961 3.34789 16.0079 3.35253 16.0962 3.39061C16.1497 3.41428 16.2053 3.43448 16.2511 3.47319C16.2942 3.50973 16.3113 3.5641 16.35 3.60154C16.4457 3.69335 16.5552 3.75046 16.6745 3.80399C16.7746 3.84928 16.813 3.96076 16.8936 4.02652C17.0067 4.11881 17.0927 4.245 17.1855 4.35674C17.2706 4.45931 17.2614 4.59272 17.3312 4.70352C17.4065 4.82222 17.4787 4.94019 17.5127 5.08078C17.53 5.15081 17.5225 5.23027 17.5495 5.29588C17.5761 5.36026 17.6302 5.41853 17.6658 5.47865C17.7379 5.59983 17.7404 5.76025 17.762 5.89831C17.7751 5.98194 17.8151 6.03673 17.8107 6.12443C17.799 6.32714 17.7683 6.5435 17.7781 6.74584C17.7887 6.96353 17.7052 7.16655 17.6288 7.36462C17.5866 7.47441 17.5816 7.58531 17.5498 7.69674C17.5186 7.80463 17.4308 7.86511 17.3879 7.96447C17.3399 8.07589 17.3455 8.17988 17.2428 8.25772C17.1407 8.33476 17.1098 8.37748 17.0515 8.49412C16.998 8.60117 16.9028 8.61098 16.8229 8.68681C16.8029 8.70638 16.7854 8.72652 16.7694 8.74656H16.7693Z" fill="white"/>
<path d="M14.6843 3.44107C14.7162 3.4685 14.7361 3.50694 14.7326 3.56252L14.7288 3.61726C14.7286 3.61916 14.7284 3.62095 14.7283 3.6229C14.7225 3.70474 14.7176 3.78664 14.7121 3.86864C14.701 4.04187 14.6897 4.21521 14.6781 4.38833C14.6639 4.59473 14.6502 4.80129 14.6369 5.0079C14.6255 5.1882 14.6143 5.3687 14.6017 5.54905C14.5973 5.61265 14.5921 5.67614 14.5894 5.74C14.5882 5.76447 14.5864 5.78846 14.5836 5.81272C14.5788 5.85675 14.5812 5.91961 14.5646 5.96016C14.546 6.00631 14.5058 6.07628 14.4515 6.04818C14.4264 6.0352 14.4013 6.00045 14.3807 5.98041C14.2761 5.87943 14.1867 5.76341 14.0923 5.65215C13.9738 5.51209 13.8559 5.37097 13.7388 5.22943C13.6133 5.07782 13.4861 4.92732 13.3593 4.77687C13.2579 4.65638 13.1567 4.53546 13.0552 4.41486C13.0141 4.36597 12.9731 4.31672 12.9318 4.26773C12.9318 4.26773 12.8713 4.19543 12.8713 4.19554C12.8161 4.12946 12.8471 4.0578 12.893 3.99958C12.9478 3.93007 12.9997 3.87043 13.0809 3.835C13.1281 3.81432 13.1801 3.80088 13.2253 3.77546C13.2757 3.74725 13.3124 3.70074 13.3655 3.67563C13.4228 3.64853 13.4765 3.64969 13.5376 3.64658C13.6612 3.64046 13.7598 3.539 13.8644 3.48062C13.914 3.4531 13.969 3.44382 14.0245 3.43865C14.0782 3.43364 14.1328 3.44566 14.1859 3.43301C14.2843 3.41007 14.3721 3.3403 14.4768 3.36435C14.5411 3.37906 14.6297 3.39393 14.6843 3.44102V3.44107Z" fill="#FFE63D"/>
<path d="M16.6083 4.29172C16.6126 4.33465 16.6011 4.37694 16.5614 4.41428L16.5222 4.45103C16.5209 4.45224 16.5194 4.45351 16.5181 4.45472C16.4592 4.50936 16.4008 4.56488 16.3422 4.61994C16.2187 4.73674 16.0947 4.85323 15.9706 4.96951C15.8228 5.10809 15.6749 5.24689 15.5275 5.386C15.3989 5.5076 15.2702 5.62952 15.1409 5.75039C15.0952 5.79289 15.049 5.83492 15.0045 5.87885C14.9875 5.89562 14.97 5.91165 14.9519 5.92721C14.919 5.95537 14.8786 6.00214 14.8397 6.01933C14.7956 6.03895 14.7202 6.0601 14.7003 6.0004C14.6912 5.97272 14.6965 5.92942 14.6954 5.9C14.6882 5.75097 14.702 5.60226 14.7093 5.45334C14.7184 5.26598 14.7289 5.07851 14.7399 4.89115C14.752 4.69044 14.7622 4.48947 14.7724 4.2884C14.7805 4.12767 14.7893 3.96678 14.7975 3.80605C14.8008 3.74066 14.8047 3.67537 14.808 3.61009L14.8133 3.51395C14.818 3.42605 14.8881 3.3971 14.9596 3.38855C15.0449 3.37827 15.122 3.37326 15.2034 3.4069C15.2509 3.42626 15.2967 3.45458 15.346 3.46924C15.4006 3.48558 15.4579 3.47899 15.5126 3.4995C15.5713 3.5216 15.6088 3.56173 15.6546 3.60392C15.7466 3.68961 15.8846 3.6884 15.9981 3.72273C16.0518 3.73886 16.0971 3.7723 16.1398 3.80889C16.1818 3.84465 16.2125 3.89295 16.2587 3.92269C16.344 3.97769 16.4532 3.99156 16.5119 4.08506C16.5476 4.14249 16.6009 4.218 16.6082 4.29167L16.6083 4.29172Z" fill="#FFE63D"/>
<path d="M17.3741 6.40207C17.3476 6.43529 17.3106 6.45633 17.2575 6.45274L17.205 6.44911C17.2032 6.44889 17.2014 6.44874 17.1996 6.44858C17.1214 6.44288 17.0429 6.43787 16.9645 6.43281C16.7986 6.4219 16.6327 6.41061 16.4671 6.39896C16.2694 6.38524 16.0717 6.37169 15.874 6.35872C15.7015 6.34743 15.5287 6.33647 15.356 6.32413C15.2953 6.31975 15.2344 6.31453 15.1735 6.31189C15.15 6.31084 15.127 6.30894 15.1038 6.30641C15.0617 6.30135 15.0017 6.30388 14.9628 6.28679C14.9189 6.26749 14.8522 6.22594 14.8794 6.16909C14.8922 6.14278 14.9256 6.11662 14.9449 6.09484C15.0427 5.98536 15.1542 5.89134 15.2616 5.79252C15.3969 5.66801 15.533 5.54456 15.6694 5.42164C15.8155 5.28997 15.9606 5.15655 16.1059 5.02355C16.2222 4.91714 16.339 4.81099 16.455 4.70441C16.5024 4.66117 16.5497 4.61809 16.5971 4.57511L16.6667 4.51151C16.7303 4.45371 16.7988 4.48578 16.8541 4.53334C16.9202 4.59024 16.977 4.64445 17.0101 4.72888C17.0297 4.77818 17.042 4.8325 17.0659 4.87954C17.0926 4.93206 17.1367 4.97024 17.1603 5.02561C17.1858 5.08536 17.1842 5.14147 17.1868 5.20533C17.1916 5.33437 17.288 5.43693 17.3428 5.54604C17.3691 5.59761 17.3773 5.65509 17.3819 5.71273C17.3862 5.76905 17.3744 5.826 17.3859 5.88153C17.4072 5.9841 17.473 6.07549 17.4493 6.18502C17.4348 6.25225 17.4196 6.34506 17.374 6.40212L17.3741 6.40207Z" fill="#FFE63D"/>
<path d="M16.4998 8.40855C16.4587 8.41293 16.4184 8.40085 16.383 8.3593L16.3485 8.31822C16.3473 8.31685 16.3462 8.31553 16.3451 8.31411C16.2934 8.25246 16.2411 8.19145 16.1892 8.13028C16.0792 8.00092 15.9693 7.87141 15.8596 7.74158C15.7289 7.58701 15.5981 7.43224 15.4668 7.27815C15.3521 7.14352 15.2372 7.00905 15.1235 6.87379C15.0832 6.82585 15.0437 6.77766 15.0021 6.73104C14.9864 6.71316 14.9713 6.69492 14.9566 6.67604C14.9302 6.64155 14.886 6.59936 14.87 6.55871C14.8518 6.51262 14.8325 6.43394 14.8897 6.41316C14.9167 6.40377 14.9579 6.40952 14.9861 6.4081C15.1289 6.40108 15.2712 6.41574 15.4136 6.4235C15.593 6.4333 15.7724 6.44464 15.9515 6.45661C16.1436 6.46937 16.3358 6.48008 16.5282 6.49121C16.6822 6.50001 16.836 6.5094 16.9898 6.51831C17.0525 6.522 17.1149 6.52585 17.1773 6.5297L17.2694 6.53524C17.3532 6.54041 17.3801 6.6135 17.3875 6.68822C17.396 6.77734 17.3996 6.85776 17.3665 6.94261C17.3471 6.99234 17.3193 7.04027 17.3046 7.09153C17.2883 7.14874 17.2939 7.20844 17.2735 7.26539C17.2514 7.32682 17.2125 7.36585 17.1715 7.41341C17.0881 7.5096 17.0873 7.65367 17.0529 7.77227C17.0369 7.82811 17.0042 7.87562 16.9686 7.92024C16.9337 7.9638 16.8873 7.99575 16.8578 8.04411C16.804 8.13312 16.7893 8.24703 16.6988 8.30804C16.6433 8.34553 16.5703 8.40101 16.4998 8.4085L16.4998 8.40855Z" fill="#FFE63D"/>
<path d="M5.58016 1.50005C5.58016 1.50005 5.3793 5.1362 5.98161 5.89509C6.61524 6.69343 7.10378 7.25367 7.26435 8.77203C7.42503 10.2904 7.26435 19.0012 7.26435 19.0012C7.26435 19.6632 5.82783 20.0004 4.1642 20.0004C2.50058 20.0004 1.07136 19.6632 1.07136 19.0011C1.07136 19.0011 0.910795 10.2904 1.07136 8.77198C1.23193 7.25362 1.72307 6.69337 2.35671 5.89504C2.95901 5.13615 2.75799 1.5 2.75799 1.5H5.58011L5.58016 1.50005Z" fill="#00D16E"/>
<path d="M2.75677 0C2.69644 0 2.64746 0.0486732 2.64746 0.108684V1.38974C2.64746 1.44981 2.69644 1.49843 2.75677 1.49843H5.58095C5.64127 1.49843 5.69026 1.44981 5.69026 1.38974V0.108684C5.69026 0.0486732 5.64127 0 5.58095 0H2.75677Z" fill="#00A37F"/>
<path d="M2.83984 9.05078H7.28566C7.37583 10.5775 7.3224 15.1922 7.28731 17.5617H2.83984V9.05078Z" fill="#D2FAFF"/>
<path d="M14.7721 20.0005C14.0426 19.1387 12.6749 19.1842 12.6749 19.1842V16.8711H12.1047V19.1842C12.1047 19.1842 10.737 19.1387 10.0078 20.0005H14.7721H14.7721Z" fill="#D2FAFF"/>
<path d="M15.9917 5.62305C15.9005 5.75905 15.08 6.53001 15.2623 8.52562C15.4446 10.5213 16.5387 16.0997 13.0283 17.1428H11.7517C8.24097 16.0997 9.33515 10.5213 9.51767 8.52562C9.69976 6.53007 8.87948 5.7591 8.78809 5.62305H15.9917H15.9917Z" fill="#D2FAFF"/>
<path d="M14.8541 8.56309C14.7946 7.91252 14.831 7.32543 14.9589 6.80273H9.82142C9.94923 7.32527 9.98586 7.91236 9.92633 8.56309C9.90645 8.78273 9.8765 9.03653 9.84183 9.33047C9.57238 11.6178 9.07249 15.8623 11.8139 16.7352H12.9666C15.7073 15.8625 15.2078 11.6184 14.9386 9.33132C14.9039 9.03701 14.874 8.78289 14.8541 8.56309H14.8541Z" fill="#FFCC42"/>
</g>
<defs>
<clipPath id="clip0_802_4657">
<rect width="17" height="20" fill="white" transform="translate(1)"/>
</clipPath>
</defs>
</svg>
