<svg width="20" height="20" viewBox="0 0 20 20" fill="none" xmlns="http://www.w3.org/2000/svg">
<path d="M0.0908203 5.23438V15.6501C0.0908203 16.8013 4.52783 17.7339 10.0005 17.7339C15.4731 17.7339 19.9101 16.8013 19.9101 15.6501V5.23438H0.0908203Z" fill="#394988"/>
<path d="M0.829568 16.5415C0.319899 16.2848 0.00722935 16.0011 0 15.6486V5.23295C0 5.20945 0.00903669 5.18595 0.0271101 5.16969C0.0433761 5.15342 0.0668715 5.14258 0.0903669 5.14258H19.9096C19.9331 5.14258 19.9566 5.15161 19.9729 5.16969C19.9892 5.18595 19.9982 5.20945 19.9982 5.23295V15.6486C19.9928 16.0011 19.6783 16.2848 19.1704 16.5415C18.6571 16.7963 17.927 17.0204 17.0251 17.2102C15.2232 17.5879 12.7417 17.8211 10 17.8229C5.88469 17.8229 2.364 17.3005 0.827761 16.5415H0.829568ZM0.180734 15.6486C0.175312 15.8709 0.41388 16.1348 0.909091 16.3788C1.39888 16.6228 2.12001 16.8469 3.01102 17.0331C4.79487 17.409 7.26911 17.6421 10 17.6403C14.0954 17.6403 17.6161 17.1126 19.0909 16.377C19.5861 16.133 19.8265 15.8691 19.8193 15.6468V5.32331H0.180734V15.6486Z" fill="#394988"/>
<path d="M14.9573 12.1046C13.7121 14.3891 11.621 15.1608 11.621 15.1608C10.4336 16.0681 8.49249 15.4319 8.49249 15.4319C8.86842 15.2584 9.47749 14.756 9.47749 14.756C8.37682 14.4668 7.1894 13.1655 7.1894 13.1655C6.0309 14.4668 5.0459 14.5824 5.0459 14.5824C5.24832 14.3511 5.51038 12.0793 5.51038 12.0793L5.51581 12.1046C5.51581 12.1046 5.25555 9.83276 5.05132 9.60142C5.05132 9.60142 6.03632 9.71709 7.19482 11.0202C7.19482 11.0202 8.38224 9.71709 9.48472 9.42973C9.48472 9.42973 8.44189 8.5622 8.06415 8.3887C8.06415 8.3887 10.5276 7.7236 11.6282 9.02488C11.6282 9.02488 13.7139 9.82011 14.961 12.1064L14.9573 12.1046Z" fill="white"/>
<path d="M13.1317 11.6432C13.1317 11.907 12.9166 12.1203 12.6528 12.1203C12.3889 12.1203 12.1738 11.907 12.1738 11.6432C12.1738 11.3793 12.3889 11.166 12.6528 11.166C12.9166 11.166 13.1317 11.3793 13.1317 11.6432Z" fill="#4A4B4B"/>
<path d="M12.0859 11.6417C12.0859 11.3272 12.3408 11.0742 12.6552 11.0742C12.9697 11.0742 13.2228 11.3272 13.2228 11.6417C13.2228 11.9562 12.9679 12.2092 12.6552 12.2092C12.3408 12.2092 12.0859 11.9544 12.0859 11.6417ZM12.2667 11.6417C12.2667 11.855 12.4402 12.0285 12.6552 12.0285C12.8685 12.0285 13.042 11.855 13.0438 11.6417C13.0438 11.4285 12.8703 11.255 12.6552 11.255C12.442 11.255 12.2685 11.4285 12.2667 11.6417Z" fill="#4A4B4B"/>
<path d="M11.4605 13.6099C11.099 12.9611 10.9707 12.3863 10.9707 11.9038C10.9707 10.8519 11.5671 10.2555 11.5762 10.2465C11.6105 10.2121 11.6683 10.2121 11.7045 10.2465C11.7388 10.2808 11.7388 10.3386 11.7045 10.3748C11.7045 10.3748 11.5707 10.5085 11.4316 10.7688C11.2924 11.0308 11.1532 11.414 11.1532 11.9038C11.1532 12.3538 11.2707 12.896 11.6195 13.5214C11.643 13.5647 11.6286 13.6208 11.5852 13.6443C11.5707 13.6515 11.5563 13.6551 11.5418 13.6551C11.5093 13.6551 11.4786 13.6388 11.4623 13.6081L11.4605 13.6099Z" fill="#494A4A"/>
<path d="M19.6625 5.69602C19.8233 5.54421 19.9101 5.38516 19.9101 5.2225C19.9101 4.04412 15.4731 3.08984 10.0005 3.08984C4.52783 3.08984 0.0908203 4.04412 0.0908203 5.2225C0.0908203 5.38516 0.17938 5.54421 0.340233 5.69602C1.3415 4.74717 5.28511 4.0387 10.0005 4.0387C14.7158 4.0387 18.6594 4.74717 19.6625 5.69783V5.69602Z" fill="#B1B1B1"/>
<path d="M19.5988 5.76342C18.6553 4.85252 14.7009 4.12236 10 4.12959C5.29911 4.12236 1.34466 4.85252 0.401229 5.76342C0.36689 5.79595 0.310862 5.79595 0.276523 5.76342C0.106633 5.60076 0 5.42003 0 5.22303C0.00542201 4.86517 0.319899 4.57238 0.827761 4.31213C1.34104 4.05006 2.07121 3.82053 2.97307 3.62715C4.77679 3.23857 7.25827 3 10 3C14.1153 3.00181 17.636 3.53497 19.1722 4.31213C19.6801 4.57238 19.9946 4.86517 20 5.22303C20 5.42003 19.8934 5.60076 19.7235 5.76161C19.7054 5.77788 19.6837 5.78691 19.6602 5.78691C19.6385 5.78691 19.615 5.77969 19.5988 5.76161V5.76342ZM0.910898 4.47298C0.415688 4.72239 0.175312 4.99169 0.180734 5.22303C0.180734 5.33327 0.233147 5.45075 0.343394 5.57184C1.49467 4.61395 5.36418 3.95247 10 3.94704C14.6358 3.95427 18.5053 4.61395 19.6566 5.57184C19.7669 5.44894 19.8193 5.33327 19.8193 5.22303C19.8247 4.99169 19.5843 4.72239 19.0909 4.47298C18.6011 4.22357 17.88 3.99404 16.989 3.80246C15.2051 3.4193 12.7327 3.18073 10 3.18073H9.98193C5.89554 3.18073 2.38207 3.72294 0.910898 4.47298Z" fill="#B1B1B1"/>
<path d="M19.6621 5.69735C18.6608 4.77019 14.7172 4.07617 10.0001 4.07617C5.28291 4.07617 1.34111 4.77019 0.339844 5.69735C1.34111 6.62452 5.28472 7.31673 10.0019 7.31673C14.719 7.31673 18.6608 6.62452 19.6639 5.69735H19.6621Z" fill="#D0D6DA"/>
<path d="M0.277941 5.76294C0.259867 5.74487 0.249023 5.72137 0.249023 5.69607C0.249023 5.67077 0.259867 5.64727 0.277941 5.6292C1.33704 4.66408 5.26981 3.99175 9.99961 3.98633C14.7294 3.99356 18.6622 4.66408 19.7231 5.63101C19.7412 5.64727 19.752 5.67257 19.752 5.69788C19.752 5.72318 19.7412 5.74668 19.7231 5.76475C18.6622 6.72987 14.7312 7.4022 9.99961 7.40943C5.26981 7.4022 1.33704 6.73167 0.276133 5.76475L0.277941 5.76294ZM19.5243 5.69607C18.4598 4.83758 14.5848 4.15983 10.0014 4.16525C5.41801 4.15803 1.54308 4.83758 0.478555 5.69607C1.54308 6.55455 5.41801 7.23231 10.0014 7.22508C14.5848 7.23231 18.4598 6.55275 19.5243 5.69607Z" fill="#D0D6DA"/>
<path d="M12.0932 6.32879C11.9974 6.32518 11.9142 6.26192 11.8853 6.16975L11.448 4.76906C11.4263 4.70219 11.4389 4.62809 11.4805 4.57025C11.5221 4.51242 11.5871 4.47808 11.6594 4.47627C11.6594 4.47627 11.8221 4.47266 12.0896 4.47266C12.9842 4.47266 15.0355 4.507 16.2519 4.85581C16.6585 4.97871 16.9892 5.11607 17.17 5.39982C17.2043 5.45766 17.2116 5.52633 17.1899 5.58959C17.1573 5.68357 17.0254 5.87515 16.523 6.03781C16.0133 6.20228 15.106 6.35409 13.4143 6.35409C13.0167 6.35409 12.5775 6.34506 12.0914 6.32698L12.0932 6.32879ZM16.644 5.50465C16.5284 5.43055 16.3513 5.35102 16.1271 5.28957C15.7603 5.18294 15.2849 5.10522 14.7825 5.051C13.7794 4.94256 12.6751 4.92449 12.0896 4.92449C12.0462 4.92449 12.0064 4.92449 11.9703 4.92449L12.2685 5.88238C12.6878 5.89684 13.0691 5.90407 13.4143 5.90407C15.5163 5.90588 16.3549 5.65466 16.6422 5.50465H16.644Z" fill="#4A4B4B"/>
<path d="M13.1534 6.18636L12.6907 4.89592C12.6492 4.77844 12.7106 4.64831 12.8263 4.60675C12.9438 4.56518 13.0739 4.62663 13.1155 4.7441L13.5781 6.03454C13.6197 6.15202 13.5583 6.28215 13.4426 6.32372C13.4173 6.33275 13.392 6.33637 13.3667 6.33637C13.2745 6.33637 13.1878 6.27853 13.1534 6.18636Z" fill="#4A4B4B"/>
</svg>
