<svg width="20" height="20" viewBox="0 0 20 20" fill="none" xmlns="http://www.w3.org/2000/svg">
<g clip-path="url(#clip0_802_4493)">
<path d="M15.4101 17.176C15.4101 18.1906 14.9855 19.0653 14.3847 19.3076C13.5516 19.6437 12.1438 20.0007 9.92526 20.0007C7.70671 20.0007 6.29819 19.643 5.46585 19.3076C4.86506 19.0653 4.44043 18.1906 4.44043 17.176V13.2773H15.4101V17.176Z" fill="#AFAFAF"/>
<path d="M14.4274 18.6682C11.3926 19.3867 8.23251 19.3867 5.19778 18.6682C3.90927 18.3635 3 17.2127 3 15.8888V5.51689C3 3.08371 4.97238 1.11133 7.40556 1.11133H12.2196C14.6528 1.11133 16.6251 3.08371 16.6251 5.51689V15.8888C16.6251 17.2127 15.7151 18.3628 14.4274 18.6682Z" fill="#F44242"/>
<mask id="mask0_802_4493" style="mask-type:luminance" maskUnits="userSpaceOnUse" x="3" y="1" width="14" height="19">
<path d="M14.4274 18.6682C11.3926 19.3867 8.23251 19.3867 5.19778 18.6682C3.90927 18.3635 3 17.2127 3 15.8888V5.51689C3 3.08371 4.97238 1.11133 7.40556 1.11133H12.2196C14.6528 1.11133 16.6251 3.08371 16.6251 5.51689V15.8888C16.6251 17.2127 15.7151 18.3628 14.4274 18.6682Z" fill="white"/>
</mask>
<g mask="url(#mask0_802_4493)">
<path d="M18.561 2.01283C18.561 5.16064 14.6717 6.43838 9.87379 6.43838C5.07591 6.43838 1.18652 5.15987 1.18652 2.01283C1.18652 -1.13422 5.07591 -4.95898 9.87379 -4.95898C14.6717 -4.95898 18.561 -1.13422 18.561 2.01283Z" fill="#FF5555"/>
<path d="M17.997 3.94907C18.1363 5.01911 18.1124 6.09838 17.9447 7.16611C17.3608 10.8886 14.7984 13.2094 11.2414 14.1472C10.846 14.2525 10.4383 14.3464 10.0367 14.4195C9.77131 14.471 9.50207 14.5472 9.24975 14.6264C8.35895 14.8949 7.44429 15.4603 6.95658 16.128C6.05116 17.3057 6.05039 18.9058 6.13424 20.3574C6.22425 22.1844 4.81573 23.7391 2.98874 23.8283C0.50787 23.9752 -1.25374 21.3059 -0.162156 19.0881C0.359403 17.9735 0.834037 16.8403 1.52868 15.7841C3.36875 12.9002 6.17117 11.4478 9.56053 11.4694C10.436 11.4832 11.3375 11.424 12.1837 11.2086C13.413 10.9047 14.5507 10.2493 15.3231 9.23235C16.37 7.87537 16.7593 5.96838 16.5477 4.26062C16.4393 3.83214 16.7023 3.39289 17.1462 3.32212C17.5539 3.25596 17.9386 3.53828 17.9978 3.94676L17.997 3.94907Z" fill="#FF7676"/>
</g>
<path d="M9.81284 4.07222C12.9083 4.07222 15.4177 3.35344 15.4177 2.46678C15.4177 1.58011 12.9083 0.861328 9.81284 0.861328C6.71738 0.861328 4.20801 1.58011 4.20801 2.46678C4.20801 3.35344 6.71738 4.07222 9.81284 4.07222Z" fill="#AFAFAF"/>
<path d="M15.4093 1.49023H4.21582V2.46643H15.4093V1.49023Z" fill="#AFAFAF"/>
<path d="M9.81284 3.21089C12.9083 3.21089 15.4177 2.49211 15.4177 1.60545C15.4177 0.718783 12.9083 0 9.81284 0C6.71738 0 4.20801 0.718783 4.20801 1.60545C4.20801 2.49211 6.71738 3.21089 9.81284 3.21089Z" fill="#D6D6D6"/>
<mask id="mask1_802_4493" style="mask-type:luminance" maskUnits="userSpaceOnUse" x="4" y="0" width="12" height="4">
<path d="M9.81284 3.21089C12.9083 3.21089 15.4177 2.49211 15.4177 1.60545C15.4177 0.718783 12.9083 0 9.81284 0C6.71738 0 4.20801 0.718783 4.20801 1.60545C4.20801 2.49211 6.71738 3.21089 9.81284 3.21089Z" fill="white"/>
</mask>
<g mask="url(#mask1_802_4493)">
<path d="M9.81264 3.62144C12.4722 3.62144 14.6282 3.00356 14.6282 2.24138C14.6282 1.4792 12.4722 0.861328 9.81264 0.861328C7.15308 0.861328 4.99707 1.4792 4.99707 2.24138C4.99707 3.00356 7.15308 3.62144 9.81264 3.62144Z" fill="#EFEFEF"/>
<path d="M9.81284 0.307704C11.2821 0.307704 12.6591 0.470788 13.6915 0.766184C14.8115 1.08697 15.11 1.44544 15.11 1.60622C15.11 1.76699 14.8115 2.12547 13.6915 2.44625C12.6599 2.74165 11.2821 2.90473 9.81284 2.90473C8.34355 2.90473 6.96658 2.74165 5.93423 2.44625C4.81419 2.12547 4.51571 1.76699 4.51571 1.60622C4.51571 1.44544 4.81419 1.08697 5.93423 0.766184C6.96581 0.470788 8.34355 0.307704 9.81284 0.307704ZM9.81284 0C6.71734 0 4.20801 0.719259 4.20801 1.60545C4.20801 2.49164 6.71734 3.21089 9.81284 3.21089C12.9083 3.21089 15.4177 2.49164 15.4177 1.60545C15.4177 0.719259 12.9083 0 9.81284 0Z" fill="#E2E2E2"/>
</g>
<path d="M7.84475 2.29351C8.68128 2.29351 9.35943 2.09926 9.35943 1.85964C9.35943 1.62003 8.68128 1.42578 7.84475 1.42578C7.00822 1.42578 6.33008 1.62003 6.33008 1.85964C6.33008 2.09926 7.00822 2.29351 7.84475 2.29351Z" fill="#AFAFAF"/>
<path d="M4.72949 7.72852V9.40243" stroke="#FEFBF8" stroke-miterlimit="10" stroke-linecap="round"/>
</g>
<defs>
<clipPath id="clip0_802_4493">
<rect width="20" height="20" fill="white"/>
</clipPath>
</defs>
</svg>
