<svg width="20" height="20" viewBox="0 0 20 20" fill="none" xmlns="http://www.w3.org/2000/svg">
<g clip-path="url(#clip0_802_4588)">
<path d="M18.688 1.98267L3.71411 0.951172C3.56942 1.31679 3.55931 4.91149 3.56553 7.00405C3.56864 7.91109 3.36328 8.80646 2.96732 9.62326C2.59626 10.3895 2.1653 11.4358 2.02061 12.4105C1.79113 13.9515 1.36951 18.503 1.36951 18.503L1 19.1744L17.2108 20.0005L17.2287 19.1954C17.5943 18.738 17.83 17.2444 18.054 16.0666C18.2788 14.8897 18.6771 2.09703 18.6771 2.09703L18.6981 1.98579L18.6888 1.98267H18.688Z" fill="#B2C667"/>
<path d="M18.6983 1.98521L18.8694 1.06262L3.57422 0L3.71424 0.9506L18.6881 1.9821L18.6983 1.98521Z" fill="#4CB4D4"/>
<path d="M1 19.1741L17.2108 20.0002L17.2287 19.1951L1.36951 18.502L1 19.1741Z" fill="#2E88BF"/>
<path d="M18.6768 2.09703L18.6978 1.98579L18.6884 1.98267L3.71375 0.951172C3.56906 1.31679 3.55894 4.91149 3.56517 7.00405C3.56828 7.91109 3.36291 8.80646 2.96696 9.62326C2.5959 10.3895 2.16494 11.4358 2.02025 12.4105C1.79077 13.9515 1.36914 18.503 1.36914 18.503L17.2283 19.1962C17.5939 18.7388 17.8296 17.2452 18.0537 16.0674C18.2785 14.8905 18.6768 2.0978 18.6768 2.0978V2.09703Z" fill="#B2C667"/>
<path d="M11.7484 13.4512C14.6953 12.3359 16.5162 9.93084 15.8154 8.0793C15.1147 6.22775 12.1577 5.6309 9.2108 6.7462C6.26392 7.8615 4.44307 10.2666 5.14382 12.1181C5.84457 13.9697 8.80155 14.5665 11.7484 13.4512Z" fill="#FFEC7D"/>
<path d="M6.48466 8.29095C6.48466 8.29095 6.32753 7.95878 6.62624 7.54494C6.92574 7.13109 8.67447 7.24389 9.99146 8.01713C11.3085 8.79036 14.5811 10.8915 15.3707 12.2754C16.1602 13.6593 13.2065 12.9918 12.1579 12.62C10.3594 11.9821 7.57995 9.87865 6.48466 8.29017V8.29095Z" fill="#92A348"/>
<path d="M12.1586 12.6216C10.3601 11.9838 7.58067 9.88029 6.48538 8.29181C6.48538 8.29181 6.33447 7.97131 6.6114 7.56836C6.78332 7.87096 6.9529 8.30037 7.17772 8.58742C7.59312 9.11795 7.541 8.99115 8.24656 9.45245C8.95212 9.91374 8.73197 10.1238 9.5371 10.5641C10.3415 11.0044 10.4558 11.4283 10.9078 11.615C11.3597 11.8017 12.3726 12.41 13.2633 12.582C14.154 12.7531 13.8957 12.8247 14.7942 12.8464C15.152 12.855 15.3551 12.8472 15.4686 12.8348C15.1676 13.4322 13.0206 12.9266 12.1586 12.6216Z" fill="#747F2F"/>
<path d="M6.58437 7.35535C6.72517 7.24178 7.23314 7.08386 7.28993 7.19744C7.34672 7.31101 6.93054 7.46504 7.03011 7.54905C7.12968 7.63229 7.52641 7.77075 7.32805 7.82598C7.12968 7.88044 6.95232 7.78009 6.89398 7.89444C6.83563 8.00879 7.20203 8.23672 7.041 8.31918C6.87997 8.40163 6.69328 8.23516 6.66372 8.29895C6.63416 8.36274 6.83641 8.50276 6.64038 8.50587C6.44435 8.50899 6.2841 8.09592 6.32066 7.889C6.35722 7.68207 6.46846 7.4487 6.58359 7.35535H6.58437Z" fill="#747F2F"/>
<path d="M7.09257 7.66943C7.09257 7.66943 7.85881 7.41661 8.92221 7.83513C9.9856 8.25364 14.8281 11.338 15.2917 12.536C15.2917 12.536 14.1209 12.2287 12.2057 11.1685C8.74796 9.25325 7.0918 7.66943 7.0918 7.66943H7.09257Z" fill="#747F2F"/>
<path d="M6.42375 7.77157C6.39186 7.76535 6.37163 7.73501 6.37785 7.70311C6.37785 7.69845 6.39108 7.59887 6.23394 7.50086C6.20983 7.61365 6.13204 7.68989 6.03713 7.69222C5.96868 7.69378 5.91033 7.65411 5.88077 7.58565C5.84732 7.50786 5.8621 7.41607 5.91578 7.36239C5.94223 7.33594 5.9959 7.30171 6.08536 7.31494C6.06592 7.28927 6.03713 7.26593 5.99746 7.25037C5.76798 7.16014 5.60851 7.14536 5.54783 7.20914C5.52527 7.23248 5.48871 7.23326 5.46537 7.21148C5.44203 7.18892 5.44126 7.15236 5.46304 7.12902C5.56183 7.02556 5.75553 7.03023 6.04024 7.14224C6.15537 7.18736 6.21527 7.27604 6.23394 7.36784C6.52955 7.51719 6.49376 7.71634 6.49221 7.72567C6.48676 7.75446 6.46031 7.77468 6.43153 7.77313C6.4292 7.77313 6.42609 7.77313 6.42375 7.77235V7.77157ZM5.99902 7.44485C5.97879 7.46507 5.9749 7.50553 5.9889 7.53898C5.9959 7.55609 6.00991 7.57554 6.03402 7.57476C6.08147 7.5732 6.11259 7.51797 6.12115 7.46741C6.1227 7.46041 6.12348 7.45341 6.12348 7.44563C6.06591 7.42385 6.0208 7.42307 5.99824 7.44563L5.99902 7.44485Z" fill="#92A348"/>
<mask id="mask0_802_4588" style="mask-type:luminance" maskUnits="userSpaceOnUse" x="7" y="7" width="9" height="6">
<path d="M7.09257 7.66943C7.09257 7.66943 7.85881 7.41661 8.92221 7.83513C9.3944 8.02105 10.797 8.38511 12.0455 9.22447C13.6075 10.2739 15.0334 11.8709 15.2917 12.5368C15.2917 12.5368 14.1209 12.2295 12.2057 11.1692C8.74796 9.25403 7.0918 7.67021 7.0918 7.67021L7.09257 7.66943Z" fill="white"/>
</mask>
<g mask="url(#mask0_802_4588)">
<path d="M13.915 12.2877C14.0674 12.3181 14.2261 12.2706 14.3327 12.1578C14.4509 12.0326 14.5513 11.8311 14.4362 11.544C14.2207 11.0042 13.7493 10.6759 13.3292 11.0252C12.9317 11.3558 12.8267 12.0738 13.915 12.2877Z" fill="#C6CE76"/>
<path d="M14.3731 11.8964C14.3731 11.8964 14.4221 11.6249 14.2914 11.4126C14.1607 11.2002 14.002 11.0594 13.8566 11.0423C13.7111 11.0252 13.5944 11.1846 13.785 11.3659C13.9764 11.5471 14.3731 11.8956 14.3731 11.8956V11.8964Z" fill="#E5EA8B"/>
<path d="M12.7927 9.9843C13.5216 10.451 13.3753 10.9442 12.7849 11.3176C12.4699 11.5168 12.1649 11.4841 11.9494 11.4102C11.755 11.3441 11.6204 11.2072 11.5877 11.0531C11.3536 9.95085 12.1501 9.57278 12.7935 9.9843H12.7927Z" fill="#C6CE76"/>
<path d="M13.1299 10.8711C13.1299 10.8711 13.179 10.5996 13.0483 10.3873C12.9176 10.1749 12.7589 10.0341 12.6134 10.017C12.4679 9.9991 12.3513 10.1594 12.5419 10.3406C12.7332 10.5219 13.1299 10.8704 13.1299 10.8704V10.8711Z" fill="#E5EA8B"/>
<path d="M10.897 10.58C10.9702 10.5925 11.0448 10.587 11.1149 10.5637C11.2487 10.5186 11.4595 10.412 11.5738 10.1763C11.7496 9.81378 11.7504 9.34159 11.2813 9.06233C10.8123 8.78306 10.1666 8.78073 9.9659 9.2498C9.77142 9.70332 9.92544 10.4143 10.897 10.5808V10.58Z" fill="#C6CE76"/>
<path d="M11.502 9.89457C11.502 9.89457 11.551 9.62308 11.4203 9.41071C11.2896 9.19835 11.131 9.05754 10.9855 9.04043C10.84 9.02254 10.7233 9.18279 10.9139 9.36404C11.1045 9.54529 11.502 9.89379 11.502 9.89379V9.89457Z" fill="#E5EA8B"/>
<path d="M9.15487 9.62878C9.33845 9.66456 9.52904 9.60855 9.65739 9.47242C9.79975 9.32151 9.92032 9.07958 9.78186 8.73341C9.52204 8.08386 8.95494 7.68868 8.45008 8.10953C7.97245 8.50704 7.84565 9.37129 9.15487 9.62956V9.62878Z" fill="#C6CE76"/>
<path d="M9.60944 8.98637C9.60944 8.98637 9.65845 8.71488 9.52776 8.50251C9.39707 8.29014 9.23838 8.14934 9.09291 8.13223C8.94744 8.11434 8.83076 8.27458 9.02134 8.45584C9.21271 8.63709 9.60944 8.98559 9.60944 8.98559V8.98637Z" fill="#E5EA8B"/>
</g>
<path d="M12.4655 11.4426C12.4655 11.4426 11.69 11.1369 11.5818 11.0529C11.4737 10.9688 11.4768 11.0964 11.5359 11.1828C11.595 11.2691 11.9677 11.6168 12.4655 11.4426Z" fill="#747F2F"/>
<path d="M10.8984 10.7931C10.8984 10.7931 10.0372 10.2633 9.92601 10.149C9.81554 10.0346 9.79065 10.1599 9.84199 10.2618C9.89333 10.3637 10.2628 10.8141 10.8976 10.7931H10.8984Z" fill="#747F2F"/>
<path d="M9.20796 9.66224C9.20796 9.66224 8.34682 9.13249 8.23558 9.01813C8.12511 8.90378 8.10022 9.02902 8.15156 9.13093C8.20291 9.23284 8.57241 9.68324 9.20718 9.66224H9.20796Z" fill="#747F2F"/>
<path d="M14.1404 12.4377C14.1404 12.4377 13.2069 12.0488 13.0793 11.9539C12.9518 11.8582 12.9479 11.9858 13.014 12.0783C13.0801 12.1709 13.5165 12.5583 14.1404 12.4377Z" fill="#747F2F"/>
<path d="M8.46992 11.0052C9.17003 11.4532 9.03001 11.927 8.46214 12.2856C8.15953 12.477 7.86704 12.4451 7.65934 12.3751C7.47264 12.3113 7.34351 12.1806 7.31162 12.032C7.0868 10.9733 7.85226 10.61 8.46992 11.0052Z" fill="#C6CE76"/>
<path d="M8.79351 11.8583C8.79351 11.8583 8.84018 11.5977 8.71494 11.3939C8.5897 11.1901 8.43723 11.0547 8.29721 11.0384C8.15718 11.0213 8.04517 11.1753 8.22875 11.3496C8.41234 11.5238 8.79351 11.8583 8.79351 11.8583Z" fill="#E5EA8B"/>
<path d="M10.0988 12.847C10.7989 13.295 10.6589 13.7688 10.091 14.1274C9.78844 14.3188 9.49595 14.2869 9.28825 14.2169C9.10155 14.1531 8.97242 14.0224 8.94052 13.8738C8.71571 12.8151 9.48117 12.4518 10.0988 12.847Z" fill="#C6CE76"/>
<path d="M10.4224 13.7001C10.4224 13.7001 10.4691 13.4395 10.3438 13.2357C10.2186 13.0319 10.0661 12.8965 9.92611 12.8802C9.78609 12.8631 9.67407 13.0171 9.85766 13.1914C10.0412 13.3656 10.4224 13.7001 10.4224 13.7001Z" fill="#E5EA8B"/>
<g style="mix-blend-mode:multiply">
<path d="M18.6876 1.98284L14.8222 1.7168C14.9436 3.80392 15.1412 8.04194 14.8572 9.58998C14.4745 11.6771 12.5702 14.1858 9.46713 14.9381C8.25749 15.2313 4.50332 15.0408 1.73164 14.8455C1.54495 16.6051 1.36914 18.5032 1.36914 18.5032L17.2283 19.1963C17.5939 18.7389 17.8296 17.2453 18.0537 16.0676C18.2785 14.8906 18.6768 2.09797 18.6768 2.09797L18.6978 1.98673L18.6884 1.98362L18.6876 1.98284Z" fill="#DBDBDB"/>
</g>
<path d="M16.5432 5.42202C13.9847 4.76313 11.441 4.613 9.75679 4.60444C7.92561 4.59433 6.6864 4.74369 6.67473 4.74524L6.56738 3.8701C6.6195 3.86387 7.8626 3.71374 9.7459 3.72307C11.483 3.73163 14.1115 3.88566 16.7634 4.56866L16.5432 5.4228V5.42202Z" fill="#C6CE76"/>
<g style="mix-blend-mode:color-dodge">
<path d="M5.61228 2.09174C5.21243 1.51532 4.31084 1.74091 4.22527 2.43791C4.04869 3.87704 3.81765 6.3111 4.21049 6.70394C4.77447 7.26793 6.82581 6.60048 6.96116 5.85214C7.0514 5.35117 6.41507 3.24927 5.61228 2.09174Z" fill="#191918"/>
</g>
<g style="mix-blend-mode:color-dodge">
<path d="M3.62413 10.0645C3.62413 10.0645 2.11343 13.5806 2.13599 15.5651C2.15855 17.5495 2.78788 17.5044 3.99519 17.0758C5.2025 16.6471 5.90183 10.0427 3.62413 10.0645Z" fill="#191918"/>
</g>
</g>
<defs>
<clipPath id="clip0_802_4588">
<rect width="20" height="20" fill="white"/>
</clipPath>
</defs>
</svg>
