<svg width="20" height="20" viewBox="0 0 20 20" fill="none" xmlns="http://www.w3.org/2000/svg">
<path d="M19.4818 2.51758H0.518555V17.3687H19.4818V2.51758Z" fill="#485833"/>
<path d="M18.9632 3.03677V16.8512H1.03677V3.03677H18.9632ZM20 2H0V17.8879H20V2Z" fill="white"/>
<path d="M5.88826 5.68739C6.16424 6.02206 6.4562 6.23709 6.53997 6.16804C6.62374 6.09878 6.46802 5.77158 6.19203 5.43691C5.91604 5.10224 5.62409 4.88721 5.54031 4.95626C5.45634 5.02552 5.61227 5.35293 5.88826 5.68739Z" fill="#88A060"/>
<path d="M7.25386 5.88148C6.91919 6.15747 6.59177 6.3134 6.52273 6.22942C6.45347 6.14565 6.6687 5.8537 7.00337 5.57771C7.33804 5.30172 7.66546 5.14579 7.73451 5.22977C7.80376 5.31354 7.58853 5.60549 7.25386 5.88148Z" fill="#88A060"/>
<path d="M6.80438 5.50005C6.76291 5.93197 6.64161 6.27348 6.53337 6.26311C6.42513 6.25274 6.37101 5.89423 6.41228 5.46251C6.45375 5.03059 6.57505 4.68908 6.68329 4.69945C6.79153 4.70982 6.84565 5.06833 6.80438 5.50005Z" fill="#88A060"/>
<path d="M6.28174 6.48578C6.48391 6.31886 6.61413 6.1426 6.57225 6.0918C6.53036 6.04121 6.33254 6.13535 6.13037 6.30206C5.9282 6.46898 5.79798 6.64523 5.83987 6.69603C5.88175 6.74663 6.07957 6.65249 6.28174 6.48578Z" fill="#88A060"/>
<path d="M6.67911 6.52387C6.51219 6.3217 6.41805 6.12367 6.46885 6.082C6.51965 6.04032 6.6959 6.17033 6.86282 6.3725C7.02974 6.57467 7.12388 6.77269 7.07308 6.81437C7.02249 6.85626 6.84603 6.72625 6.67911 6.52387Z" fill="#88A060"/>
<path d="M6.46513 7.7724C6.44668 7.76183 6.43278 7.74379 6.42822 7.72139C6.28079 7.00934 6.49727 5.79237 6.5064 5.74095C6.51386 5.69927 6.55388 5.67148 6.59577 5.67895C6.63765 5.68641 6.66523 5.72643 6.65777 5.76832C6.65548 5.78055 6.43735 7.00768 6.57876 7.69029C6.58747 7.73176 6.56072 7.77261 6.51904 7.78111C6.49997 7.78505 6.48089 7.78152 6.46513 7.7724Z" fill="#88A060"/>
<path d="M7.59349 12.6379C7.65694 12.4081 7.66067 12.1667 7.66399 11.9285C7.66669 11.7369 7.66938 11.5455 7.67208 11.3539C7.6783 10.9091 7.68431 10.4606 7.59971 10.0239C7.59017 9.9748 7.57441 9.92192 7.55161 9.87444C7.56591 9.53292 7.54891 9.18768 7.55617 8.71055C7.57006 7.79218 7.23331 6.92979 6.72571 7.02476C6.72571 7.02476 6.00992 6.92004 5.70262 7.72665C5.39532 8.53326 5.74471 8.40159 5.69433 8.96373C5.68686 9.04709 5.68106 9.13812 5.67567 9.23454C5.33415 9.70399 4.97128 10.1579 4.60882 10.6116C4.46575 10.7905 4.32267 10.9695 4.1796 11.1484C4.38094 11.0209 4.546 10.8449 4.70856 10.6707C4.8392 10.5307 4.97004 10.3907 5.10067 10.2508C5.29061 10.0474 5.48117 9.84292 5.6541 9.6252C5.62424 10.1021 5.5668 10.6319 5.35924 11.0194C5.04614 11.6042 4.16985 12.8529 3.67718 13.4339C3.1845 14.0149 2.76233 14.513 2.76233 14.513C2.76233 14.513 2.77415 14.5206 2.79634 14.5331C2.53051 14.7485 2.35488 15.079 2.08594 15.3005C2.2908 15.2219 2.47182 15.0863 2.61386 14.9192C2.646 14.8812 2.67648 14.8414 2.71132 14.806C2.78224 14.734 2.8716 14.6797 2.93692 14.6038C2.97901 14.6224 3.02754 14.6424 3.08145 14.6612C3.02463 14.7454 2.97445 14.8375 2.91432 14.9186C2.78846 15.0888 2.60806 15.2236 2.53051 15.4206C2.54295 15.4434 2.57405 15.4504 2.59893 15.443C2.62382 15.4355 2.64393 15.4172 2.66238 15.399C2.75735 15.3053 2.83781 15.1983 2.91764 15.0915C3.0153 14.9613 3.11276 14.8313 3.21042 14.701C3.28549 14.7214 3.3676 14.7382 3.45427 14.7481C3.10281 15.0931 2.94335 15.659 2.51558 15.9248C2.53714 15.9352 2.56223 15.9232 2.58276 15.9112C2.74097 15.8185 2.88633 15.7036 3.01281 15.5709C3.14614 15.4313 3.25811 15.2731 3.36967 15.1155C3.45407 14.9963 3.53846 14.8771 3.62285 14.7576C3.69086 14.7576 3.76095 14.7523 3.83207 14.7406C3.78853 14.7933 3.74892 14.8489 3.7172 14.9094C3.65935 15.0202 3.63032 15.1435 3.58097 15.2584C3.54364 15.3453 3.49491 15.427 3.44639 15.5081C3.32633 15.7088 3.20607 15.9097 3.08601 16.1104C3.18305 15.9705 3.31783 15.8616 3.43271 15.7359C3.68423 15.4606 3.83539 15.1101 3.97743 14.7653C3.98572 14.7454 3.99339 14.7236 3.99899 14.7015C4.16073 14.6515 4.32475 14.564 4.48213 14.423C5.34265 13.6516 7.15908 11.7692 7.38821 10.9135C7.41454 10.8152 7.43673 10.7227 7.4556 10.6344C7.49458 11.0727 7.52216 11.5121 7.54974 11.9515C7.56405 12.1802 7.57835 12.4087 7.59266 12.6374L7.59349 12.6379Z" fill="#FDCE5E"/>
<mask id="mask0_802_4564" style="mask-type:luminance" maskUnits="userSpaceOnUse" x="2" y="7" width="6" height="8">
<path d="M6.72531 7.02668C6.72531 7.02668 6.00952 6.92197 5.70222 7.72858C5.39492 8.53519 5.74431 8.40352 5.69392 8.96566C5.64354 9.5278 5.67194 10.4364 5.35863 11.0212C5.04553 11.6059 4.16924 12.8546 3.67657 13.4356C3.18389 14.0166 2.76172 14.5147 2.76172 14.5147C2.76172 14.5147 3.70539 15.1214 4.48214 14.4253C5.34266 13.654 7.15909 11.7716 7.38822 10.9158C7.61735 10.0601 7.54187 9.63085 7.55576 8.71248C7.56966 7.7941 7.23291 6.93192 6.72531 7.02668Z" fill="white"/>
</mask>
<g mask="url(#mask0_802_4564)">
<path d="M5.52557 8.71958C5.50857 8.71958 5.49198 8.71129 5.48203 8.69594C5.46647 8.67189 5.47311 8.63996 5.49716 8.6242C5.51106 8.61528 5.84117 8.40274 6.38215 8.29015C6.41015 8.28434 6.43772 8.30238 6.44353 8.33038C6.44934 8.35837 6.4313 8.38595 6.4033 8.39175C5.88264 8.5002 5.55688 8.70901 5.55377 8.71108C5.54506 8.71668 5.53532 8.71937 5.52557 8.71937V8.71958Z" fill="#CB8C22"/>
<path d="M7.55294 9.18987C7.53283 9.18987 7.51375 9.17826 7.50546 9.15856C7.31801 8.72664 6.6045 8.61985 6.59724 8.61882C6.56884 8.61467 6.54914 8.58854 6.55329 8.56014C6.55743 8.53173 6.58356 8.51203 6.61197 8.51618C6.64369 8.52074 7.38996 8.63188 7.60064 9.1173C7.61204 9.14363 7.60001 9.17411 7.57368 9.18552C7.56704 9.18842 7.55999 9.18987 7.55315 9.18987H7.55294Z" fill="#CB8C22"/>
<path d="M7.46153 9.95585C7.44411 9.95585 7.4269 9.94693 7.41716 9.93097C7.28777 9.71801 6.74097 9.58116 6.54108 9.54632C6.51288 9.54135 6.49401 9.5146 6.49878 9.4864C6.50376 9.4582 6.5303 9.43933 6.55871 9.4441C6.59002 9.44949 7.32551 9.58012 7.5057 9.87705C7.52063 9.90152 7.51275 9.93345 7.48828 9.94818C7.47978 9.95336 7.47066 9.95564 7.46133 9.95564L7.46153 9.95585Z" fill="#CB8C22"/>
<path d="M5.467 9.97335C5.44792 9.97335 5.42947 9.96278 5.42035 9.94433C5.4077 9.91861 5.41848 9.88751 5.44398 9.87507C5.46099 9.86677 5.86554 9.67062 6.24479 9.69322C6.2734 9.69488 6.29518 9.71955 6.29352 9.74796C6.29186 9.77658 6.2676 9.79814 6.23878 9.79669C5.88772 9.77575 5.49354 9.9661 5.48981 9.96817C5.48255 9.9717 5.47467 9.97335 5.467 9.97335Z" fill="#CB8C22"/>
<path d="M5.33126 10.1179C5.31218 10.1179 5.29373 10.1073 5.2846 10.0889C5.27195 10.0631 5.28274 10.032 5.30824 10.0196C5.32525 10.0113 5.73062 9.81515 6.10905 9.83775C6.13766 9.83941 6.15943 9.86408 6.15778 9.89249C6.15612 9.92111 6.13165 9.94267 6.10303 9.94122C5.75177 9.92028 5.3578 10.1106 5.35407 10.1127C5.34681 10.1162 5.33893 10.1179 5.33126 10.1179Z" fill="#CB8C22"/>
<path d="M7.60886 9.43835C7.59082 9.43835 7.5734 9.42902 7.56386 9.41223C7.40855 9.14163 7.01395 8.98881 7.01001 8.98715C6.98327 8.97699 6.96979 8.94692 6.97995 8.92017C6.99011 8.89342 7.02018 8.87994 7.04692 8.89011C7.06455 8.89674 7.4803 9.05806 7.65364 9.36039C7.66795 9.38527 7.65924 9.41699 7.63457 9.43109C7.62648 9.43586 7.61756 9.43794 7.60886 9.43794V9.43835Z" fill="#CB8C22"/>
<path d="M7.50958 8.1371C7.49237 8.1371 7.47557 8.1286 7.46562 8.11304C7.35862 7.94384 6.95242 7.80222 6.80478 7.76199C6.7772 7.75453 6.76082 7.72591 6.76849 7.69833C6.77596 7.67076 6.80457 7.65438 6.83215 7.66205C6.85537 7.66848 7.403 7.82005 7.55333 8.05768C7.56868 8.08194 7.56142 8.11387 7.53716 8.12922C7.52845 8.13461 7.51891 8.13731 7.50958 8.13731V8.1371Z" fill="#CB8C22"/>
<path d="M7.65594 11.4395C7.63375 11.4395 7.61322 11.4252 7.60638 11.4028C7.52634 11.1396 6.92315 10.9485 6.69754 10.8972C6.66955 10.8908 6.65213 10.863 6.65856 10.8352C6.66499 10.8072 6.69257 10.7898 6.72056 10.7963C6.75602 10.8043 7.59186 10.9984 7.7057 11.3729C7.714 11.4003 7.69865 11.4293 7.67107 11.4376C7.6661 11.4391 7.66091 11.4399 7.65594 11.4399V11.4395Z" fill="#CB8C22"/>
<path d="M4.67019 11.981C4.65194 11.981 4.63411 11.9714 4.62478 11.9544C4.61088 11.9296 4.61959 11.8985 4.64427 11.8844C4.6509 11.8806 5.36068 11.5341 5.8461 11.8255C5.87056 11.8402 5.87865 11.8721 5.86393 11.8966C5.84921 11.9213 5.81727 11.9291 5.79281 11.9144C5.3584 11.6538 4.7015 11.9714 4.69528 11.9748C4.6874 11.9791 4.6789 11.9812 4.67039 11.9812L4.67019 11.981Z" fill="#CB8C22"/>
<path d="M4.49251 12.274C4.47634 12.274 4.46037 12.2665 4.45021 12.2524C4.43362 12.2292 4.4386 12.1973 4.46162 12.1805C4.46784 12.1759 5.13427 11.7521 5.64934 11.9868C5.67547 11.9986 5.68687 12.0295 5.67506 12.0554C5.66324 12.0816 5.63234 12.093 5.60642 12.0812C5.14547 11.8709 4.52838 12.2605 4.52258 12.2645C4.51345 12.2709 4.50309 12.274 4.49251 12.274Z" fill="#CB8C22"/>
</g>
<path d="M10.4868 5.68739C10.7628 6.02206 11.0548 6.23709 11.1385 6.16804C11.2225 6.09878 11.0666 5.77158 10.7906 5.43691C10.5146 5.10224 10.2226 4.88721 10.1389 4.95626C10.0551 5.02552 10.2108 5.35293 10.4868 5.68739Z" fill="#88A060"/>
<path d="M11.8525 5.88148C11.5178 6.15747 11.1904 6.3134 11.1214 6.22942C11.0521 6.14565 11.2673 5.8537 11.602 5.57771C11.9367 5.30172 12.2641 5.14579 12.3331 5.22977C12.4024 5.31354 12.1872 5.60549 11.8525 5.88148Z" fill="#88A060"/>
<path d="M11.403 5.50005C11.3615 5.93197 11.2402 6.27348 11.132 6.26311C11.0238 6.25274 10.9696 5.89423 11.0109 5.46251C11.0522 5.0308 11.1737 4.68908 11.2819 4.69945C11.3902 4.70982 11.4443 5.06833 11.403 5.50005Z" fill="#88A060"/>
<path d="M10.8804 6.48585C11.0825 6.31893 11.2128 6.14268 11.1709 6.09188C11.129 6.04108 10.9312 6.13542 10.729 6.30214C10.5268 6.46906 10.3966 6.64531 10.4385 6.69611C10.4804 6.74671 10.6782 6.65257 10.8804 6.48585Z" fill="#88A060"/>
<path d="M11.2777 6.52387C11.1108 6.3217 11.0167 6.12367 11.0675 6.082C11.1183 6.04032 11.2945 6.17033 11.4615 6.3725C11.6284 6.57467 11.7225 6.77269 11.6717 6.81437C11.6211 6.85626 11.4447 6.72625 11.2777 6.52387Z" fill="#88A060"/>
<path d="M11.0638 7.7724C11.0453 7.76183 11.0314 7.74379 11.0269 7.72139C10.8794 7.00934 11.0959 5.79237 11.105 5.74095C11.1125 5.69927 11.1525 5.67148 11.1944 5.67895C11.2363 5.68641 11.2639 5.72643 11.2564 5.76832C11.2541 5.78055 11.036 7.00768 11.1774 7.69029C11.1861 7.73176 11.1594 7.77261 11.1177 7.78111C11.0986 7.78505 11.0795 7.78152 11.0638 7.7724Z" fill="#88A060"/>
<path d="M12.1919 12.6379C12.2554 12.4081 12.2591 12.1667 12.2624 11.9285C12.2651 11.7369 12.2678 11.5455 12.2705 11.3539C12.2767 10.9091 12.2827 10.4606 12.1981 10.0239C12.1886 9.9748 12.1728 9.92192 12.1502 9.87444C12.1645 9.53292 12.1475 9.18768 12.1548 8.71055C12.1687 7.79218 11.8319 6.92979 11.3243 7.02476C11.3243 7.02476 10.6086 6.92004 10.3013 7.72665C9.99395 8.53326 10.3433 8.40159 10.293 8.96373C10.2855 9.04709 10.2797 9.13812 10.2743 9.23454C9.93278 9.70399 9.56991 10.1579 9.20746 10.6116C9.06438 10.7905 8.92131 10.9695 8.77823 11.1484C8.97957 11.0209 9.14463 10.8449 9.30719 10.6707C9.43783 10.5307 9.56867 10.3907 9.6993 10.2508C9.88924 10.0474 10.0798 9.84292 10.2527 9.6252C10.2229 10.1021 10.1654 10.6319 9.95787 11.0194C9.64477 11.6042 8.76849 12.8529 8.27581 13.4339C7.78314 14.0149 7.36096 14.513 7.36096 14.513C7.36096 14.513 7.37278 14.5206 7.39497 14.5331C7.12914 14.7485 6.95351 15.079 6.68457 15.3005C6.88944 15.2219 7.07046 15.0863 7.2125 14.9192C7.24464 14.8812 7.27512 14.8414 7.30995 14.806C7.38087 14.734 7.47024 14.6797 7.53555 14.6038C7.57765 14.6224 7.62617 14.6424 7.68008 14.6612C7.62327 14.7454 7.57309 14.8375 7.51295 14.9186C7.38709 15.0888 7.20669 15.2236 7.12914 15.4206C7.14158 15.4434 7.17268 15.4504 7.19757 15.443C7.22245 15.4355 7.24256 15.4172 7.26102 15.399C7.35599 15.3053 7.43644 15.1983 7.51627 15.0915C7.61394 14.9613 7.71139 14.8313 7.80906 14.701C7.88412 14.7214 7.96623 14.7382 8.0529 14.7481C7.70144 15.0931 7.54198 15.659 7.11421 15.9248C7.13577 15.9352 7.16086 15.9232 7.18139 15.9112C7.3396 15.8185 7.48496 15.7036 7.61145 15.5709C7.74478 15.4313 7.85675 15.2731 7.9683 15.1155C8.0527 14.9963 8.13709 14.8771 8.22148 14.7576C8.2895 14.7576 8.35958 14.7523 8.43091 14.7406C8.38737 14.7933 8.34776 14.8489 8.31604 14.9094C8.25819 15.0202 8.22916 15.1435 8.17981 15.2584C8.14248 15.3453 8.09375 15.427 8.04523 15.5081C7.92517 15.7088 7.80491 15.9097 7.68485 16.1104C7.78189 15.9705 7.91667 15.8616 8.03155 15.7359C8.28307 15.4606 8.43423 15.1101 8.57627 14.7653C8.58456 14.7454 8.59224 14.7236 8.59783 14.7015C8.75957 14.6515 8.92359 14.564 9.08097 14.423C9.94149 13.6516 11.7579 11.7692 11.987 10.9135C12.0134 10.8152 12.0356 10.7227 12.0544 10.6344C12.0934 11.0727 12.121 11.5121 12.1486 11.9515C12.1629 12.1802 12.1772 12.4087 12.1915 12.6374L12.1919 12.6379Z" fill="#FDCE5E"/>
<mask id="mask1_802_4564" style="mask-type:luminance" maskUnits="userSpaceOnUse" x="7" y="7" width="6" height="8">
<path d="M11.3239 7.02668C11.3239 7.02668 10.6082 6.92197 10.3009 7.72858C9.99355 8.53519 10.3429 8.40352 10.2926 8.96566C10.242 9.5278 10.2706 10.4364 9.95726 11.0212C9.64416 11.6059 8.76788 12.8546 8.2752 13.4356C7.78253 14.0166 7.36035 14.5147 7.36035 14.5147C7.36035 14.5147 8.30402 15.1214 9.08078 14.4253C9.9413 13.654 11.7577 11.7716 11.9869 10.9158C12.216 10.0601 12.1405 9.63085 12.1544 8.71248C12.1683 7.7941 11.8315 6.93192 11.3239 7.02668Z" fill="white"/>
</mask>
<g mask="url(#mask1_802_4564)">
<path d="M10.1242 8.71958C10.1072 8.71958 10.0906 8.71129 10.0807 8.69594C10.0651 8.67189 10.0717 8.63975 10.0958 8.6242C10.1097 8.61528 10.4396 8.40274 10.9808 8.29015C11.0088 8.28434 11.0364 8.30238 11.0422 8.33038C11.048 8.35837 11.0299 8.38595 11.0019 8.39175C10.4796 8.50041 10.1555 8.70901 10.1524 8.71108C10.1437 8.71668 10.1339 8.71958 10.1242 8.71958Z" fill="#CB8C22"/>
<path d="M12.1516 9.18987C12.1315 9.18987 12.1124 9.17826 12.1041 9.15856C11.9166 8.72664 11.2031 8.61985 11.1959 8.61882C11.1675 8.61467 11.1478 8.58854 11.1519 8.56014C11.1561 8.53173 11.1824 8.51203 11.2106 8.51618C11.2423 8.52074 11.9886 8.63188 12.1993 9.1173C12.2107 9.14363 12.1986 9.17411 12.1723 9.18552C12.1657 9.18842 12.1586 9.18987 12.1518 9.18987H12.1516Z" fill="#CB8C22"/>
<path d="M12.0602 9.95585C12.0427 9.95585 12.0255 9.94693 12.0158 9.93097C11.8864 9.71801 11.3394 9.58116 11.1397 9.54632C11.1115 9.54135 11.0926 9.5146 11.0974 9.4864C11.1024 9.4582 11.1291 9.43933 11.1573 9.4441C11.1887 9.44949 11.9241 9.58012 12.1043 9.87705C12.1193 9.90152 12.1114 9.93345 12.0869 9.94818C12.0784 9.95336 12.0693 9.95564 12.06 9.95564L12.0602 9.95585Z" fill="#CB8C22"/>
<path d="M10.0656 9.97335C10.0466 9.97335 10.0281 9.96278 10.019 9.94433C10.0063 9.91861 10.0171 9.88751 10.0426 9.87507C10.0596 9.86677 10.4644 9.67062 10.8434 9.69322C10.872 9.69488 10.8938 9.71955 10.8921 9.74796C10.8905 9.77658 10.866 9.79814 10.8374 9.79669C10.4866 9.77575 10.0922 9.9661 10.0884 9.96817C10.0812 9.9717 10.0733 9.97335 10.0656 9.97335Z" fill="#CB8C22"/>
<path d="M9.92989 10.1181C9.91081 10.1181 9.89236 10.1075 9.88324 10.0891C9.87059 10.0634 9.88137 10.0322 9.90688 10.0196C9.92388 10.0113 10.329 9.81515 10.7077 9.83775C10.7363 9.83941 10.7581 9.86408 10.7564 9.89249C10.7547 9.9209 10.7305 9.94267 10.7017 9.94122C10.3498 9.92028 9.95664 10.1106 9.9527 10.1127C9.94544 10.1162 9.93756 10.1181 9.92989 10.1181Z" fill="#CB8C22"/>
<path d="M12.2075 9.43835C12.1894 9.43835 12.172 9.42902 12.1625 9.41223C12.0074 9.14163 11.6128 8.98881 11.6086 8.98715C11.5819 8.97699 11.5684 8.94692 11.5786 8.92017C11.5887 8.89342 11.6188 8.87994 11.6456 8.89011C11.6632 8.89674 12.0789 9.05806 12.2523 9.36039C12.2666 9.38527 12.2579 9.41699 12.233 9.43109C12.2249 9.43566 12.216 9.43794 12.2073 9.43794L12.2075 9.43835Z" fill="#CB8C22"/>
<path d="M12.1082 8.13703C12.091 8.13703 12.0742 8.12852 12.0643 8.11297C11.9573 7.94356 11.551 7.80215 11.4034 7.76192C11.3758 7.75446 11.3595 7.72584 11.3671 7.69826C11.3746 7.67068 11.4032 7.65451 11.4308 7.66198C11.454 7.6684 12.0016 7.81998 12.152 8.05761C12.1673 8.08187 12.1601 8.1138 12.1358 8.12915C12.1271 8.13454 12.1175 8.13723 12.1082 8.13723V8.13703Z" fill="#CB8C22"/>
<path d="M12.2546 11.4395C12.2324 11.4395 12.2119 11.4252 12.205 11.4028C12.125 11.1396 11.5218 10.9487 11.2962 10.8972C11.2682 10.8908 11.2508 10.863 11.2572 10.8352C11.2636 10.8072 11.2912 10.7898 11.3192 10.7963C11.3547 10.8043 12.1905 10.9984 12.3043 11.3729C12.3126 11.4003 12.2973 11.4293 12.2697 11.4376C12.2647 11.4391 12.2595 11.4399 12.2546 11.4399V11.4395Z" fill="#CB8C22"/>
<path d="M9.26882 11.9809C9.25057 11.9809 9.23274 11.9714 9.22341 11.9544C9.20952 11.9295 9.21822 11.8984 9.2429 11.8843C9.24954 11.8805 9.95952 11.5343 10.4447 11.8254C10.4692 11.8401 10.4773 11.872 10.4626 11.8965C10.4478 11.9212 10.4159 11.9291 10.3914 11.9143C9.95703 11.6537 9.30013 11.9714 9.29391 11.9747C9.28603 11.979 9.27753 11.9811 9.26903 11.9811L9.26882 11.9809Z" fill="#CB8C22"/>
<path d="M9.09114 12.2741C9.07497 12.2741 9.059 12.2666 9.04884 12.2525C9.03226 12.2293 9.03723 12.1974 9.06025 12.1806C9.06647 12.176 9.7327 11.752 10.248 11.9869C10.2741 11.9987 10.2855 12.0296 10.2737 12.0555C10.2619 12.0816 10.231 12.0931 10.2051 12.0812C9.7439 11.871 9.12702 12.2606 9.12121 12.2645C9.11209 12.271 9.10151 12.2741 9.09114 12.2741Z" fill="#CB8C22"/>
</g>
<path d="M15.025 5.68739C15.301 6.02206 15.5929 6.23709 15.6767 6.16804C15.7607 6.09878 15.6047 5.77158 15.3287 5.43691C15.0528 5.10224 14.7608 4.88721 14.677 4.95626C14.5931 5.02552 14.749 5.35293 15.025 5.68739Z" fill="#88A060"/>
<path d="M16.3906 5.88148C16.0559 6.15747 15.7285 6.3134 15.6594 6.22942C15.5902 6.14565 15.8054 5.8537 16.1401 5.57771C16.4748 5.30172 16.8022 5.14579 16.8712 5.22977C16.9405 5.31354 16.7252 5.60549 16.3906 5.88148Z" fill="#88A060"/>
<path d="M15.9411 5.50005C15.8996 5.93197 15.7783 6.27348 15.6701 6.26311C15.5618 6.25274 15.5077 5.89423 15.549 5.46251C15.5905 5.03059 15.7118 4.68908 15.82 4.69945C15.9282 4.70982 15.9824 5.06833 15.9411 5.50005Z" fill="#88A060"/>
<path d="M15.4185 6.48585C15.6206 6.31893 15.7508 6.14268 15.709 6.09188C15.6671 6.04108 15.4693 6.13542 15.2671 6.30214C15.0649 6.46885 14.9347 6.64531 14.9766 6.69611C15.0185 6.74671 15.2163 6.65257 15.4185 6.48585Z" fill="#88A060"/>
<path d="M15.8158 6.52393C15.6489 6.32176 15.5548 6.12373 15.6056 6.08205C15.6562 6.04017 15.8326 6.17039 15.9995 6.37256C16.1665 6.57473 16.2606 6.77275 16.2098 6.81443C16.1592 6.85632 15.9827 6.72631 15.8158 6.52393Z" fill="#88A060"/>
<path d="M15.6019 7.7724C15.5834 7.76183 15.5695 7.74379 15.5649 7.72139C15.4175 7.00934 15.634 5.79237 15.6431 5.74095C15.6506 5.69927 15.6906 5.67148 15.7325 5.67895C15.7744 5.68641 15.8019 5.72643 15.7945 5.76832C15.7922 5.78055 15.5741 7.00768 15.7155 7.69029C15.7242 7.73176 15.6974 7.77261 15.6558 7.78111C15.6367 7.78505 15.6176 7.78152 15.6019 7.7724Z" fill="#88A060"/>
<path d="M16.7302 12.6379C16.7937 12.4081 16.7974 12.1667 16.8007 11.9285C16.8034 11.7369 16.8061 11.5455 16.8088 11.3539C16.815 10.9091 16.821 10.4606 16.7364 10.0239C16.7269 9.9748 16.7111 9.92192 16.6883 9.87444C16.7026 9.53292 16.6856 9.18768 16.6929 8.71055C16.7068 7.79218 16.37 6.92979 15.8624 7.02476C15.8624 7.02476 15.1466 6.92004 14.8393 7.72665C14.532 8.53326 14.8814 8.40159 14.831 8.96373C14.8236 9.04709 14.8178 9.13812 14.8124 9.23454C14.4709 9.70399 14.108 10.1579 13.7455 10.6116C13.6025 10.7905 13.4594 10.9695 13.3163 11.1484C13.5177 11.0209 13.6827 10.8449 13.8453 10.6707C13.9759 10.5307 14.1068 10.3907 14.2374 10.2508C14.4273 10.0474 14.6179 9.84292 14.7908 9.6252C14.761 10.1021 14.7035 10.6319 14.496 11.0194C14.1829 11.6042 13.3066 12.8529 12.8139 13.4339C12.3212 14.0149 11.899 14.513 11.899 14.513C11.899 14.513 11.9109 14.5206 11.9331 14.5331C11.6672 14.7485 11.4916 15.079 11.2227 15.3005C11.4275 15.2219 11.6085 15.0863 11.7506 14.9192C11.7827 14.8812 11.8132 14.8414 11.848 14.806C11.919 14.734 12.0083 14.6797 12.0736 14.6038C12.1157 14.6224 12.1643 14.6424 12.2182 14.6612C12.1614 14.7454 12.1112 14.8375 12.051 14.9186C11.9252 15.0888 11.7448 15.2236 11.6672 15.4206C11.6797 15.4434 11.7108 15.4504 11.7357 15.443C11.7605 15.4355 11.7806 15.4172 11.7991 15.399C11.8941 15.3053 11.9745 15.1983 12.0544 15.0915C12.152 14.9613 12.2495 14.8313 12.3471 14.701C12.4222 14.7214 12.5043 14.7382 12.591 14.7481C12.2395 15.0931 12.0801 15.659 11.6523 15.9248C11.6739 15.9352 11.6989 15.9232 11.7195 15.9112C11.8777 15.8185 12.023 15.7036 12.1495 15.5709C12.2829 15.4313 12.3948 15.2731 12.5064 15.1155C12.5908 14.9963 12.6752 14.8771 12.7596 14.7576C12.8276 14.7576 12.8977 14.7523 12.9688 14.7406C12.9252 14.7933 12.8856 14.8489 12.8539 14.9094C12.7961 15.0202 12.767 15.1435 12.7177 15.2584C12.6804 15.3453 12.6316 15.427 12.5831 15.5081C12.4631 15.7088 12.3428 15.9097 12.2227 16.1104C12.3198 15.9705 12.4546 15.8616 12.5694 15.7359C12.8209 15.4606 12.9721 15.1101 13.1141 14.7653C13.1224 14.7454 13.1301 14.7236 13.1357 14.7015C13.2974 14.6515 13.4615 14.564 13.6188 14.423C14.4796 13.6516 16.2958 11.7692 16.5249 10.9135C16.5513 10.8152 16.5734 10.7227 16.5923 10.6344C16.6313 11.0727 16.6589 11.5121 16.6865 11.9515C16.7008 12.1802 16.7151 12.4087 16.7294 12.6374L16.7302 12.6379Z" fill="#FDCE5E"/>
<mask id="mask2_802_4564" style="mask-type:luminance" maskUnits="userSpaceOnUse" x="11" y="7" width="6" height="8">
<path d="M15.862 7.02668C15.862 7.02668 15.1462 6.92197 14.8389 7.72858C14.5316 8.53519 14.881 8.40352 14.8306 8.96566C14.7803 9.5278 14.8087 10.4364 14.4953 11.0212C14.1822 11.6059 13.306 12.8546 12.8133 13.4356C12.3206 14.0166 11.8984 14.5147 11.8984 14.5147C11.8984 14.5147 12.8421 15.1214 13.6189 14.4253C14.4796 13.654 16.2958 11.7716 16.5249 10.9158C16.7541 10.0601 16.6786 9.63085 16.6925 8.71248C16.7064 7.7941 16.3696 6.93192 15.862 7.02668Z" fill="white"/>
</mask>
<g mask="url(#mask2_802_4564)">
<path d="M14.6623 8.71958C14.6453 8.71958 14.6287 8.71129 14.6187 8.69594C14.6032 8.67189 14.6098 8.63996 14.6339 8.6242C14.6478 8.61528 14.9779 8.40274 15.5189 8.29015C15.5469 8.28434 15.5744 8.30238 15.5802 8.33038C15.5861 8.35837 15.568 8.38595 15.54 8.39175C15.0194 8.5002 14.6936 8.70901 14.6905 8.71108C14.6818 8.71668 14.672 8.71937 14.6623 8.71937V8.71958Z" fill="#CB8C22"/>
<path d="M16.6897 9.18987C16.6695 9.18987 16.6505 9.17826 16.6422 9.15856C16.4547 8.72664 15.7412 8.61985 15.734 8.61882C15.7056 8.61467 15.6859 8.58854 15.69 8.56014C15.6942 8.53173 15.7203 8.51203 15.7487 8.51618C15.7804 8.52074 16.5267 8.63188 16.7374 9.1173C16.7488 9.14363 16.7367 9.17411 16.7104 9.18552C16.7038 9.18842 16.6967 9.18987 16.6899 9.18987H16.6897Z" fill="#CB8C22"/>
<path d="M16.5983 9.95585C16.5808 9.95585 16.5636 9.94693 16.5539 9.93097C16.4245 9.71801 15.8777 9.58116 15.6778 9.54632C15.6496 9.54135 15.6307 9.5146 15.6355 9.4864C15.6405 9.4582 15.6672 9.43933 15.6954 9.4441C15.7267 9.44949 16.4622 9.58012 16.6424 9.87705C16.6573 9.90152 16.6495 9.93345 16.625 9.94818C16.6165 9.95336 16.6074 9.95564 16.598 9.95564L16.5983 9.95585Z" fill="#CB8C22"/>
<path d="M14.6037 9.97335C14.5846 9.97335 14.5662 9.96278 14.5571 9.94433C14.5444 9.91861 14.5552 9.88751 14.5807 9.87507C14.5977 9.86677 15.0023 9.67062 15.3815 9.69322C15.4101 9.69488 15.4319 9.71955 15.4302 9.74796C15.4286 9.77658 15.4039 9.79814 15.3755 9.79669C15.0244 9.77575 14.6305 9.9661 14.6265 9.96817C14.6193 9.9717 14.6114 9.97335 14.6037 9.97335Z" fill="#CB8C22"/>
<path d="M14.468 10.1181C14.4489 10.1181 14.4304 10.1075 14.4213 10.0891C14.4087 10.0634 14.4195 10.0322 14.445 10.0196C14.462 10.0113 14.8673 9.81515 15.2458 9.83775C15.2744 9.83941 15.2962 9.86408 15.2945 9.89249C15.2928 9.92111 15.2684 9.94267 15.2398 9.94122C14.8881 9.92028 14.4947 10.1106 14.4908 10.1127C14.4835 10.1162 14.4756 10.1181 14.468 10.1181Z" fill="#CB8C22"/>
<path d="M16.7456 9.43835C16.7275 9.43835 16.7101 9.42902 16.7006 9.41223C16.5453 9.14163 16.1507 8.98881 16.1467 8.98715C16.12 8.97699 16.1065 8.94692 16.1167 8.92017C16.1268 8.89342 16.1569 8.87994 16.1836 8.89011C16.2013 8.89674 16.617 9.05806 16.7904 9.36039C16.8047 9.38527 16.796 9.41699 16.7713 9.43109C16.7632 9.43586 16.7543 9.43794 16.7456 9.43794V9.43835Z" fill="#CB8C22"/>
<path d="M16.6463 8.1371C16.6291 8.1371 16.6123 8.1286 16.6023 8.11304C16.4953 7.94384 16.0891 7.80222 15.9415 7.76199C15.9139 7.75453 15.8975 7.72591 15.9052 7.69833C15.9127 7.67076 15.9411 7.65438 15.9689 7.66205C15.9921 7.66848 16.5397 7.82005 16.6901 8.05768C16.7054 8.08194 16.6981 8.11387 16.6739 8.12922C16.6652 8.13461 16.6556 8.13731 16.6463 8.13731V8.1371Z" fill="#CB8C22"/>
<path d="M16.7927 11.4395C16.7705 11.4395 16.7499 11.4252 16.7431 11.4028C16.6631 11.1396 16.0599 10.9485 15.8343 10.8972C15.8063 10.8908 15.7889 10.863 15.7953 10.8352C15.8017 10.8072 15.8291 10.7898 15.8573 10.7963C15.8927 10.8043 16.7286 10.9984 16.8424 11.3729C16.8507 11.4003 16.8354 11.4293 16.8078 11.4376C16.8028 11.4391 16.7976 11.4399 16.7927 11.4399V11.4395Z" fill="#CB8C22"/>
<path d="M13.8069 11.981C13.7887 11.981 13.7709 11.9714 13.7615 11.9544C13.7476 11.9296 13.7561 11.8985 13.781 11.8844C13.7877 11.8806 14.4974 11.5341 14.9829 11.8255C15.0073 11.8402 15.0154 11.8721 15.0007 11.8966C14.986 11.9213 14.954 11.9291 14.9296 11.9144C14.495 11.6538 13.8383 11.9714 13.832 11.9748C13.8242 11.9791 13.8154 11.9812 13.8072 11.9812L13.8069 11.981Z" fill="#CB8C22"/>
<path d="M13.6292 12.274C13.6131 12.274 13.5971 12.2665 13.5869 12.2524C13.5703 12.2292 13.5753 12.1973 13.5983 12.1805C13.6046 12.1759 14.271 11.7521 14.7859 11.9868C14.812 11.9986 14.8234 12.0295 14.8116 12.0554C14.7997 12.0816 14.7689 12.093 14.7429 12.0812C14.282 11.8709 13.6649 12.2605 13.6591 12.2645C13.65 12.2709 13.6396 12.274 13.629 12.274H13.6292Z" fill="#CB8C22"/>
</g>
</svg>
