<svg width="20" height="20" viewBox="0 0 20 20" fill="none" xmlns="http://www.w3.org/2000/svg">
<rect width="20" height="20" rx="10" fill="white"/>
<path d="M6.16588 15.9844C5.83422 16.0346 5.53521 15.9567 5.26888 15.7507C5.00254 15.5446 4.84927 15.2758 4.80907 14.9441L4.01005 8.35602C3.96985 8.02436 4.05025 7.72787 4.25126 7.46656C4.45227 7.20524 4.71861 7.05448 5.05028 7.01428L5.74376 6.92383V11.8385C5.74376 12.5019 5.97995 13.0697 6.45232 13.5421C6.9247 14.0145 7.49255 14.2506 8.15588 14.2506H13.7641C13.7038 14.4919 13.5831 14.7004 13.4022 14.8763C13.2213 15.0522 13.0002 15.1552 12.7389 15.1853L6.16588 15.9844Z" fill="#608EAC"/>
<path d="M10.101 10.3318L11.4729 9.50265L12.8448 10.3318L12.483 8.76394L13.6891 7.72371L12.1061 7.58803L11.4729 6.1106L10.8397 7.58803L9.25678 7.72371L10.4628 8.76394L10.101 10.3318ZM8.15626 13.0454C7.82459 13.0454 7.54066 12.9274 7.30448 12.6912C7.06829 12.455 6.9502 12.1711 6.9502 11.8394V5.20606C6.9502 4.87439 7.06829 4.59047 7.30448 4.35428C7.54066 4.11809 7.82459 4 8.15626 4H14.7896C15.1213 4 15.4052 4.11809 15.6414 4.35428C15.8776 4.59047 15.9956 4.87439 15.9956 5.20606V11.8394C15.9956 12.1711 15.8776 12.455 15.6414 12.6912C15.4052 12.9274 15.1213 13.0454 14.7896 13.0454H8.15626Z" fill="#1B5D88"/>
</svg>
