<svg width="20" height="20" viewBox="0 0 20 20" fill="none" xmlns="http://www.w3.org/2000/svg">
<path d="M19.8121 6.07403C19.6506 5.72235 19.3824 5.43621 19.0388 5.25855C18.7634 5.1168 18.1766 4.90422 17.8761 5.04771C17.6787 5.14187 17.4132 5.26037 17.1064 5.3931C17.0723 5.40741 17.0382 5.42272 17.0032 5.43703C16.7942 5.52764 16.569 5.62272 16.3339 5.72235C16.2972 5.73757 16.2594 5.75371 16.2218 5.76902C14.7954 6.36745 13.08 7.05732 12.7248 7.21073C12.3946 7.2646 12.0717 7.27445 11.746 7.24929C11.4894 7.2296 11.1719 7.17664 10.9243 7.11921C10.2361 6.96133 9.65666 6.99898 8.98285 7.21073C7.62099 7.63779 7.10514 7.70598 5.75949 8.18236C4.41468 8.65874 3.08335 9.17277 1.778 9.74877C1.27738 9.97037 0.553417 10.1677 0.224164 10.6396C0.0779484 10.8477 0.0177907 11.1053 0.00347536 11.369C-0.0100125 11.6184 0.0177907 11.8741 0.0518828 12.0992C0.0644605 12.18 0.0805963 12.267 0.1012 12.3594C0.176584 12.6913 0.306663 13.0861 0.504017 13.488C0.858343 14.2102 1.42715 14.9566 2.27763 15.4043C2.36286 15.4491 2.45074 15.4913 2.54143 15.5299C2.94069 15.7003 6.30397 14.4991 7.65417 14.0173C8.50109 13.7159 11.1754 12.5828 11.5701 12.3764C11.9424 12.1817 12.2887 11.926 12.5596 11.6031C12.8557 11.2514 12.8574 10.8458 13.0468 10.4467C13.1212 10.2888 13.2163 10.1604 13.3284 10.0501C13.3625 10.017 13.3984 9.98469 13.4352 9.95415C13.5958 9.91286 13.7563 9.87165 13.9169 9.8321C14.8374 9.60248 15.7641 9.39519 16.6891 9.1817C16.8317 9.14852 17.091 9.0992 17.4005 9.03549L17.4939 9.01662C17.6796 8.97715 17.8796 8.93412 18.0815 8.88654L18.1765 8.86321C18.8647 8.6963 19.5447 8.48099 19.6936 8.23788C20.0533 7.64938 20.1008 6.70829 19.812 6.07403H19.8121Z" fill="#D97E50"/>
<path d="M11.6525 7.50212C11.9324 7.72537 11.9895 8.06803 12.2001 8.33986C12.5164 8.74822 12.7982 8.13655 12.8471 7.85049C12.8861 7.62227 12.8247 7.41068 12.7364 7.20563C12.733 7.20712 12.7283 7.20903 12.7251 7.21043C12.3949 7.2643 12.072 7.27415 11.7464 7.24899C11.5562 7.23435 11.3327 7.2015 11.1289 7.16211C11.3122 7.26199 11.4894 7.37204 11.6524 7.50204L11.6525 7.50212Z" fill="#C9663C"/>
<path d="M1.55121 9.84348C1.36312 10.0273 1.21964 10.2628 1.06051 10.4662C0.88062 10.6961 0.451655 11.2189 0.103949 11.0968C0.0809451 11.0887 0.0613338 11.0787 0.0434603 11.0675C0.0216976 11.1655 0.00895449 11.2668 0.00341038 11.3692C-0.00891903 11.5982 0.0139194 11.8314 0.0440395 12.0426C0.220623 12.007 0.397124 11.9303 0.527618 11.8675C0.848596 11.713 1.13292 11.4809 1.3613 11.2086C1.66052 10.8518 1.87219 10.4273 1.95882 9.96917C1.97314 9.89346 2.00665 9.76329 1.97488 9.68634C1.97181 9.67881 1.96784 9.67409 1.96437 9.66797C1.90231 9.69503 1.84 9.72159 1.77802 9.7489C1.70653 9.78059 1.63007 9.81178 1.55121 9.84331V9.84348Z" fill="#C9663C"/>
<path d="M19.8124 6.07366C19.7784 5.9996 19.7386 5.92918 19.6954 5.86133C19.7099 6.19306 19.5627 6.53341 19.2839 6.74847C19.0102 6.95956 18.6774 7.07185 18.3557 7.18637C17.9011 7.34806 17.4407 7.49278 16.9797 7.63486C16.138 7.89436 15.3064 8.18844 14.4627 8.43967C14.0404 8.56544 13.6137 8.67674 13.1925 8.80624C12.945 8.88237 12.6976 8.98175 12.5776 9.22693C12.4563 9.47492 12.4339 9.76562 12.3537 10.0273C12.2692 10.303 12.1377 10.5617 11.9631 10.7911C11.6306 11.2279 11.1618 11.533 10.6747 11.7722C10.1288 12.0403 9.55165 12.238 8.99021 12.4699C8.19219 12.7994 7.40931 13.164 6.6247 13.5238C5.88088 13.8649 5.13499 14.2026 4.37412 14.5043C3.97784 14.6615 3.57751 14.8088 3.17213 14.9411C2.80192 15.0619 2.41606 15.1426 2.04883 15.2712C2.12297 15.3177 2.19893 15.3623 2.27787 15.4038C2.3631 15.4487 2.45098 15.4909 2.54167 15.5294C2.94093 15.6999 6.30422 14.4986 7.65441 14.0169C8.50133 13.7154 11.1757 12.5824 11.5704 12.376C11.9426 12.1813 12.2889 11.9256 12.5599 11.6026C12.8559 11.2509 12.8577 10.8454 13.047 10.4462C13.1439 10.2408 13.2758 10.0856 13.4354 9.9537C14.5147 9.67377 15.6029 9.43156 16.6893 9.18125C17.2231 9.05837 19.4121 8.69767 19.6938 8.23743C20.0536 7.64893 20.1011 6.70784 19.8122 6.07358L19.8124 6.07366Z" fill="#C9663C"/>
<path d="M11.7882 9.56248C11.781 9.52748 11.772 9.49247 11.7613 9.45838C11.7532 9.42967 11.7442 9.40277 11.7344 9.37588C11.4661 8.64116 10.9593 7.9719 10.1392 7.88841C10.0908 7.88394 10.0486 7.88841 10.0118 7.90099C9.96696 7.89288 9.91673 7.89561 9.86112 7.9153C8.33691 8.45266 2.484 10.3967 0.41795 11.2006C0.254689 11.2644 0.11559 11.32 0.00346642 11.3684C-0.00282241 11.4841 -9.17351e-05 11.6007 0.0079348 11.7147C0.0168716 11.8475 0.0339176 11.9776 0.0518739 12.0986C0.190063 12.9967 0.820683 14.6303 2.26869 15.3992C2.27133 15.4001 2.27498 15.4019 2.27762 15.4036C2.283 15.3992 2.28747 15.3947 2.29194 15.3893C2.30452 15.3758 2.31618 15.3615 2.32785 15.348C2.68938 14.9111 2.48573 14.4338 2.96931 14.0912C3.28334 13.8687 9.16224 11.8241 10.6568 11.2042C11.3378 10.9216 11.955 10.342 11.7881 9.56248H11.7882Z" fill="#C9663C"/>
<path d="M10.6569 11.2053C10.3976 11.313 10.0056 11.4636 9.53276 11.6404C8.67061 11.9634 7.53936 12.3734 6.46008 12.7654C4.7295 13.3943 3.12907 13.9793 2.96937 14.0923C2.80338 14.2098 2.71815 14.3435 2.66345 14.4862C2.56299 14.7454 2.5639 15.0334 2.35935 15.3079C1.74387 15.4048 0.526488 14.217 0.398229 13.7335C0.206254 13.0149 1.30796 10.407 1.72327 9.75647C1.92335 9.44244 2.20412 9.18948 2.44367 8.9069C2.45625 8.89258 2.46701 8.87819 2.48041 8.86387C2.60246 8.71675 2.70648 8.57409 2.81413 8.44848C3.04376 8.17756 3.28869 7.98021 3.75522 7.96854C4.4532 7.95058 5.22292 8.03044 5.87423 7.72634C5.88143 7.72278 5.88854 7.72005 5.89483 7.71649C6.39182 7.47694 6.75789 7.04632 7.20018 6.74942C7.44685 6.5826 7.71785 6.45781 8.04975 6.43183C8.87508 6.36721 9.69329 6.83192 10.3401 7.27247C10.4361 7.33792 10.5312 7.40792 10.6236 7.48149C10.6694 7.51823 10.7151 7.55687 10.7591 7.59543C10.7707 7.60528 10.7824 7.61512 10.7932 7.62505C10.9484 7.76415 11.0946 7.91575 11.222 8.07901C11.3789 8.27818 11.5099 8.4944 11.6042 8.72585C11.6149 8.75274 11.6248 8.77881 11.6347 8.80479C11.6356 8.80752 11.6365 8.81017 11.6374 8.8129C11.6473 8.84161 11.6571 8.86942 11.6662 8.89813C11.6662 8.89995 11.6671 8.90169 11.668 8.9026C11.6743 8.92411 11.6806 8.9448 11.6859 8.96631C11.6887 8.97442 11.6913 8.98245 11.6931 8.99056C11.7012 9.02283 11.7093 9.05518 11.7165 9.08837C11.7228 9.11617 11.7281 9.14488 11.7326 9.1736C11.7487 9.26603 11.7586 9.36019 11.7613 9.45709C11.7622 9.48042 11.773 9.51716 11.7873 9.5621C11.955 10.3435 11.3378 10.923 10.6569 11.2056V11.2053Z" fill="#F7E9DF"/>
<path d="M1.14046 11.9934C0.946666 11.9234 0.603097 12.0472 0.432636 12.1208C0.301647 12.1773 0.190434 12.259 0.101562 12.3594C0.176946 12.6914 0.307025 13.0861 0.504379 13.488C0.555517 13.3624 0.580589 13.2189 0.62999 13.0951C0.754691 12.7793 0.96909 12.5236 1.15213 12.2428C1.22031 12.1379 1.28494 12.0454 1.14046 11.9934Z" fill="#A83F20"/>
<g style="mix-blend-mode:overlay" opacity="0.29">
<path d="M18.666 5.39683C18.5783 5.16837 18.1972 5.09729 17.984 5.13767C17.8367 5.16555 17.6846 5.24673 17.5457 5.30101C16.9991 5.51475 15.4879 6.22381 15.2682 6.33081C15.1307 6.39775 15.1662 6.4656 15.2241 6.56606C15.2427 6.59841 15.262 6.63159 15.2913 6.65476C15.3861 6.7294 15.5292 6.64525 15.6251 6.61314C15.7649 6.56639 15.9049 6.5203 16.0453 6.4752C16.3259 6.38492 16.6076 6.29812 16.8906 6.2157C17.3831 6.07214 17.9655 6.00826 18.4302 5.79717C18.589 5.72501 18.7427 5.59675 18.666 5.39692L18.666 5.39683Z" fill="#FFCCCC"/>
</g>
<g style="mix-blend-mode:overlay" opacity="0.29">
<path d="M11.1364 7.55559C10.9461 7.35765 10.707 7.2236 10.4384 7.16634C10.3257 7.14234 10.2776 7.31529 10.3907 7.33937C10.6312 7.39067 10.839 7.50511 11.0096 7.68244C11.0897 7.76585 11.2165 7.63883 11.1364 7.55559Z" fill="#FFCCCC"/>
</g>
<g style="mix-blend-mode:overlay" opacity="0.29">
<path d="M11.6507 10.5569C11.209 11.3113 10.1461 11.5107 9.38272 11.7835C8.45388 12.1155 7.52512 12.4474 6.59628 12.7794C5.69565 13.1013 4.79494 13.4232 3.89431 13.7452C3.37251 13.9317 2.6473 14.1436 2.63274 14.8259C2.5792 14.9943 2.51598 15.1657 2.4056 15.2845C2.32707 15.3689 2.45367 15.4961 2.53245 15.4113C2.72749 15.2015 2.79368 14.8816 2.88777 14.6183C2.89315 14.6034 2.89381 14.5899 2.89207 14.5775C3.16729 14.1712 3.69456 14.0067 4.11095 13.8578C4.56126 13.6969 5.01157 13.5359 5.46197 13.375L7.99504 12.4696C8.82169 12.1741 9.65306 11.8893 10.4756 11.5826C11.0025 11.386 11.5112 11.1503 11.8056 10.6475C11.864 10.5476 11.709 10.4573 11.6507 10.557V10.5569Z" fill="#FFCCCC"/>
</g>
<g style="mix-blend-mode:overlay" opacity="0.29">
<path d="M1.37353 9.94668C0.994044 10.1074 0.593379 10.2576 0.32205 10.5577C0.0952379 10.8085 0.0421139 11.1459 0.0245713 11.4718C0.0183653 11.5872 0.197845 11.5868 0.203969 11.4718C0.223166 11.1148 0.295736 10.7711 0.602482 10.5507C0.858172 10.3669 1.05941 10.2807 1.33612 10.1336C1.43815 10.0794 1.47986 9.90167 1.37353 9.94668Z" fill="#FFCCCC"/>
</g>
<path d="M11.7874 9.56113C11.7731 9.51628 11.7622 9.47946 11.7614 9.45885C11.7587 9.35931 11.7488 9.26506 11.7327 9.17263C11.7282 9.14392 11.7228 9.1152 11.7166 9.0874C11.7094 9.05422 11.7013 9.02195 11.6932 8.98959C11.6851 8.95997 11.6762 8.93125 11.6681 8.90171C11.6672 8.9008 11.6662 8.89907 11.6662 8.89725C11.6573 8.86853 11.6474 8.84073 11.6375 8.81202C11.6366 8.80937 11.6357 8.80664 11.6348 8.80391C11.625 8.77792 11.6151 8.75186 11.6043 8.72587C11.5101 8.49352 11.3791 8.2773 11.2221 8.07812C11.1808 8.21267 11.0677 8.31321 10.9117 8.33919C10.8731 8.34548 10.8695 8.40291 10.9009 8.42087C10.8785 8.46845 10.8551 8.51685 10.8318 8.56443C10.8139 8.56799 10.795 8.57163 10.7771 8.57519C10.7295 8.59406 10.6695 8.59488 10.6201 8.6111C10.5385 8.63709 10.4623 8.67482 10.3896 8.71967C10.2254 8.82285 10.0863 8.96278 9.95088 9.10006C9.91952 9.13142 9.95088 9.18711 9.99482 9.17453C10.0011 9.17271 10.0074 9.17097 10.0137 9.17006C10.055 9.28128 10.3313 9.12786 10.3905 9.10279C10.5009 9.05612 10.6121 8.99696 10.7278 8.96369C10.8041 8.94127 10.9135 8.92604 10.9853 8.97089C11.0266 8.99687 11.0409 9.05074 11.0759 9.07764C11.1002 9.0965 11.1235 9.10635 11.1477 9.10991C10.9817 9.3584 10.752 9.56833 10.4982 9.71819C10.3295 9.86622 10.1276 9.98645 9.89528 10.069C9.80194 10.1021 9.25564 10.3246 9.08335 10.4197C8.61682 10.679 8.15211 10.9499 7.6524 11.141C6.5516 11.5618 5.25701 11.5178 4.09888 11.4604C3.51931 11.4317 2.19427 11.5582 2.0651 10.7472C1.99692 10.3229 2.20685 9.84289 2.31177 9.44015C2.36291 9.24545 2.41852 9.05347 2.48041 8.86332C2.46693 8.87763 2.45617 8.89203 2.44367 8.90635C2.20412 9.18893 1.92335 9.44189 1.72327 9.75592C1.30788 10.4063 0.206256 13.0143 0.398231 13.7329C0.52649 14.2165 1.74396 15.4043 2.35935 15.3074C2.67603 14.8821 2.5011 14.4237 2.96937 14.0917C3.2834 13.8692 9.1623 11.8247 10.6569 11.2047C11.3378 10.9222 11.955 10.3426 11.7873 9.56121L11.7874 9.56113Z" fill="#EDD6C5"/>
<path d="M13.557 8.73518C13.4225 8.60237 13.2322 8.53244 13.2619 8.79798C13.287 9.02852 13.3812 9.23936 13.392 9.47527C13.4001 9.67089 13.3767 9.86286 13.3282 10.0495C13.3623 10.0163 13.3982 9.98401 13.435 9.95347C13.5956 9.91218 13.7561 9.87097 13.9167 9.83142C13.9293 9.79377 13.9373 9.75248 13.941 9.70763C13.9688 9.38913 13.7831 8.9576 13.557 8.73518Z" fill="#A83F20"/>
<g style="mix-blend-mode:multiply" opacity="0.78">
<path d="M17.4938 9.01693L17.2339 9.07551C17.3227 8.43049 17.2788 7.77108 17.0931 7.14219C16.9352 6.60748 16.6262 5.99374 16.0889 5.82063C16.1265 5.8054 16.2971 5.73788 16.3339 5.72266C16.7636 5.90569 17.0821 6.34972 17.2516 6.79656C17.5199 7.50082 17.5916 8.27145 17.4938 9.01693Z" fill="#BD9080"/>
</g>
<g style="mix-blend-mode:multiply" opacity="0.78">
<path d="M18.3522 8.8198L18.0813 8.88691C18.2105 8.17635 18.1791 7.44345 17.9736 6.74722C17.822 6.23492 17.5017 5.63922 17.0029 5.4374C17.0379 5.42309 17.2401 5.33463 17.2742 5.32031C17.6743 5.51676 17.9745 5.95714 18.1369 6.38329C18.4293 7.1521 18.4921 8.01235 18.3522 8.8198Z" fill="#BD9080"/>
</g>
<path d="M8.13919 9.39826C7.79413 9.5396 7.41771 9.7554 7.04709 9.79603C6.91701 9.81035 6.8513 9.86769 6.73868 9.92487C6.57244 10.0093 6.17095 9.87928 6.12271 9.66223C6.11816 9.64187 6.09863 9.63087 6.07943 9.6293C5.91783 9.61597 5.59693 9.75185 5.52312 9.5482C5.51906 9.53695 5.5117 9.52975 5.50334 9.52487C5.49863 9.48308 5.48878 9.44303 5.4738 9.40886C5.46677 9.3928 5.44964 9.38776 5.43359 9.38776C5.41389 9.36699 5.38526 9.35375 5.35183 9.35565C5.25684 9.36103 5.23938 9.46024 5.17649 9.51155C5.1472 9.53546 5.1064 9.5487 5.07099 9.53554C5.04401 9.52561 5.02456 9.50253 5.00222 9.48416C4.89093 9.3928 4.8047 9.59967 4.71898 9.64088C4.64152 9.67804 4.59816 9.6403 4.53652 9.63774C4.53437 9.63774 4.5035 9.63368 4.50193 9.63319C4.43077 9.65156 4.36175 9.63981 4.29473 9.59802C4.27818 9.57617 4.2594 9.5564 4.23846 9.53885C4.16779 9.47985 4.02282 9.47017 4.00371 9.58577C3.96291 9.53811 3.87288 9.57468 3.92104 9.63625C4.03325 9.7794 4.23697 9.96873 4.41612 10.0219C4.58716 10.0727 4.72667 9.8974 4.88944 9.86074C5.02663 9.82988 5.14447 9.85702 5.27959 9.85313C5.3376 9.85147 5.3913 9.82086 5.44947 9.82483C5.5846 9.83418 5.78129 9.95168 5.8964 10.0202C6.02341 10.0958 6.09027 10.2265 6.21009 10.3063C6.41208 10.4407 6.59959 10.2772 6.78163 10.1916C7.06802 10.0569 7.39885 10.0962 7.6878 9.9703C7.91676 9.87042 8.09012 9.69169 8.18975 9.46405C8.20315 9.43343 8.17982 9.38147 8.13911 9.39818L8.13919 9.39826Z" fill="#EDD6C5"/>
<path d="M8.44315 8.12602C8.39945 8.11452 8.35576 8.10302 8.31207 8.0916C8.28965 8.07811 8.25051 8.08937 8.24621 8.11841C8.19863 8.43625 7.69113 8.36483 7.47988 8.27522C7.32257 8.20852 7.18083 8.06223 7.01062 8.21217C6.90817 8.30236 6.88244 8.4988 6.98604 8.59901C7.09907 8.70832 7.30445 8.6403 7.42866 8.73497C7.47566 8.7708 7.49833 8.80108 7.55965 8.80737C7.64215 8.81581 7.69386 8.7655 7.76006 8.72355C7.86168 8.65917 7.9781 8.62028 8.09867 8.64427C8.16271 8.65702 8.24025 8.72644 8.30794 8.70286C8.46408 8.64833 8.45738 8.12578 8.44331 8.12619L8.44315 8.12602Z" fill="#EDD6C5"/>
<path d="M4.28541 10.55C4.07589 10.7059 3.74846 10.9244 3.53182 10.6434C3.47183 10.5656 3.46521 10.4772 3.34812 10.4702C3.2288 10.4631 3.10559 10.6654 3.02963 10.5328C2.99835 10.4784 3.01531 10.4438 2.9904 10.4138C2.99479 10.4092 2.9986 10.4043 3.00298 10.3998C3.04212 10.3574 2.97882 10.2938 2.93951 10.3363C2.8187 10.4672 2.67431 10.6431 2.76665 10.831C2.85801 11.0167 2.99371 10.9486 3.14473 10.8977C3.2945 10.8473 3.35797 10.9298 3.47804 10.9681C3.5895 11.0037 3.81167 11.0105 3.92967 10.9903C4.13381 10.9553 4.25206 10.7797 4.34672 10.6115C4.36708 10.5753 4.3233 10.5218 4.28532 10.5501L4.28541 10.55Z" fill="#EDD6C5"/>
<path d="M4.20595 8.35174C4.07174 8.30731 3.93347 8.52146 3.81787 8.55588C3.75432 8.57483 3.67314 8.55216 3.64939 8.49026C3.64145 8.46949 3.63897 8.44392 3.62043 8.43151C3.60446 8.42084 3.58328 8.42473 3.56474 8.42961C3.46155 8.45642 3.36251 8.49903 3.27215 8.55555C3.25129 8.56863 3.22879 8.58575 3.22672 8.61025C3.22531 8.62663 3.23375 8.64219 3.24244 8.65609C3.26668 8.69506 3.29697 8.7323 3.33826 8.75224C3.4076 8.78567 3.47347 8.7366 3.54074 8.72047C3.63226 8.69854 3.71551 8.70326 3.80521 8.73147C3.94522 8.77549 4.13504 8.8316 4.23723 8.68025C4.28738 8.60603 4.32188 8.38997 4.20612 8.35166L4.20595 8.35174Z" fill="#EDD6C5"/>
<path d="M7.59103 6.99199C7.53807 7.00548 7.48519 7.01888 7.43223 7.03328C7.32185 7.06199 7.2914 7.08624 7.18556 7.01623C7.06624 6.93729 7.11018 6.90411 7.15594 6.78661C7.17745 6.78479 7.19897 6.76865 7.19988 6.74805C6.75759 7.04503 6.3916 7.47565 5.89453 7.71512C5.99052 7.75186 6.08022 7.80126 6.16818 7.86407C6.18249 7.87391 6.21038 7.87127 6.22196 7.85687C6.26499 7.80482 6.30992 7.74565 6.36189 7.70254C6.46772 7.61731 6.5494 7.62004 6.67948 7.61549C6.77282 7.61276 6.84009 7.59936 6.92441 7.55542C7.17025 7.42625 7.39723 7.23245 7.62595 7.07366C7.66633 7.04586 7.64299 6.97858 7.59094 6.99199H7.59103Z" fill="#EDD6C5"/>
<path d="M9.79802 7.60914C9.71321 7.50885 9.50824 7.50041 9.39728 7.55453C9.28044 7.61154 9.24899 7.77737 9.38677 7.82826C9.39148 7.82999 9.39562 7.82999 9.39984 7.83024C9.45925 7.83347 9.48275 7.924 9.54862 7.92896C9.67986 7.93881 9.90361 7.73392 9.79811 7.60906L9.79802 7.60914Z" fill="#EDD6C5"/>
<path d="M8.87675 9.7764C8.81973 9.68438 8.62883 9.70019 8.53591 9.71285C8.49313 9.71872 8.47393 9.7193 8.43976 9.74951C8.35444 9.82481 8.34807 9.90218 8.2199 9.92659C8.1513 9.93966 8.00558 9.9366 7.96925 10.0152C7.93864 10.0814 7.99854 10.1191 8.05183 10.1376C8.06085 10.1407 8.06855 10.1402 8.07567 10.1384C8.12043 10.1672 8.17182 10.1795 8.23057 10.1733C8.33045 10.1627 8.37794 10.0779 8.46202 10.0526C8.52598 10.0333 8.56793 10.0764 8.63893 10.0438C8.72623 10.0035 8.82751 9.90201 8.87683 9.82175C8.88502 9.80842 8.88511 9.7898 8.87683 9.77648L8.87675 9.7764Z" fill="#EDD6C5"/>
<path d="M7.76663 9.08594C7.76274 9.08751 7.75877 9.08883 7.75488 9.09041C7.75612 9.09007 7.75976 9.08875 7.76663 9.08594Z" fill="white"/>
<path d="M11.7611 9.45858C11.7607 9.44178 11.7591 9.42813 11.7583 9.41406C11.6139 9.53132 11.5004 9.62912 11.4091 9.8686C11.3781 9.94961 11.3994 10.0193 11.3579 10.1048C11.2927 10.2396 11.1769 10.3005 11.0489 10.3657C10.7402 10.5227 10.7346 10.6808 10.6701 10.972C10.6507 11.0598 10.624 11.1456 10.5938 11.2301C10.615 11.2214 10.6369 11.2125 10.6566 11.2043C11.3376 10.9217 11.9548 10.3422 11.7871 9.56077C11.7727 9.51593 11.7619 9.4791 11.7611 9.4585V9.45858Z" fill="#EDD6C5"/>
<path d="M6.06543 12.9092C6.19592 12.8617 6.32757 12.8139 6.46022 12.7657C6.44781 12.764 6.4349 12.7642 6.42224 12.7637C6.30085 12.807 6.18235 12.8563 6.06543 12.9092Z" fill="#EDD6C5"/>
<path opacity="0.48" d="M4.58567 10.6272C4.48638 10.6566 4.37202 10.67 4.29506 10.5846C4.23565 10.5186 4.26503 10.4938 4.17102 10.4328C4.06461 10.3637 4.04599 10.4217 3.93213 10.4049C3.88083 10.3973 3.84624 10.3732 3.80064 10.3527C3.70135 10.308 3.60842 10.2949 3.50879 10.2659C3.43275 10.2438 3.41016 10.2418 3.36837 10.1694C3.32741 10.0983 3.33304 10.0085 3.30358 9.93403C3.27925 9.87246 3.21777 9.75265 3.14487 9.73883C3.12062 9.73428 3.09249 9.7716 3.06659 9.7644C2.96249 9.73577 2.93759 9.73155 2.89952 9.61073C2.85351 9.46468 2.84085 9.30854 2.83713 9.1543C2.81388 9.17598 2.79005 9.19642 2.76779 9.22025C2.74727 9.24226 2.75488 9.26965 2.77217 9.28529C2.75819 9.28479 2.7442 9.29042 2.73543 9.3068C2.64722 9.47097 2.56406 9.66038 2.5562 9.84946C2.54983 10.0022 2.60014 10.0044 2.70904 10.0625C2.73237 10.0749 2.76861 10.0442 2.78972 10.0555C2.89489 10.112 2.8809 10.2031 2.88951 10.2922C2.89464 10.3453 2.89431 10.4401 2.93312 10.4831C3.0114 10.5701 3.16903 10.497 3.27255 10.4555C3.46262 10.4548 3.56126 10.6796 3.71839 10.7485C3.83763 10.8008 3.96531 10.7801 4.08794 10.7539C4.47272 10.6716 4.81124 10.5606 4.58576 10.6273L4.58567 10.6272Z" fill="white"/>
<path opacity="0.48" d="M7.66902 9.40138C7.61548 9.4042 7.55789 9.4296 7.50642 9.44491C7.35185 9.49083 7.19935 9.54967 7.03774 9.56605C6.9319 9.57673 6.81275 9.58103 6.71097 9.54454C6.60042 9.5049 6.49318 9.37863 6.37749 9.36009C6.25974 9.34123 6.11105 9.42811 5.98999 9.43961C5.88341 9.44979 5.79023 9.43556 5.6844 9.41214C5.47397 9.36555 5.38411 9.35248 5.18775 9.47395C5.14571 9.49994 5.10475 9.52749 5.06445 9.55571C5.06685 9.5562 5.06925 9.55695 5.07157 9.55728C5.10467 9.56241 5.13578 9.57515 5.17178 9.56382C5.29648 9.52451 5.24228 9.42381 5.40049 9.44797C5.52701 9.46725 5.49822 9.4843 5.5554 9.57126C5.58196 9.61165 5.59809 9.64259 5.6379 9.67205C5.78701 9.78227 5.94563 9.66932 6.10658 9.69166C6.32528 9.72203 6.36177 10.0115 6.59686 9.99982C6.70038 9.99469 6.80828 9.93196 6.90228 9.89415L7.34308 9.71698C7.49873 9.65443 7.65438 9.59187 7.81002 9.52931C7.82277 9.45103 7.79596 9.39468 7.66911 9.40138H7.66902Z" fill="white"/>
<path opacity="0.48" d="M4.77621 8.61724C4.80426 8.63329 4.89015 8.60607 4.92077 8.60284C5.08759 8.58488 5.23265 8.58397 5.39334 8.63478C5.63348 8.71066 5.8051 8.71844 6.00832 8.64256C5.94924 8.61327 5.89091 8.58174 5.83513 8.55658C5.6353 8.46672 5.42619 8.33954 5.21568 8.2793C5.07021 8.23767 4.95983 8.3383 4.83521 8.40822C4.80244 8.42667 4.76967 8.44504 4.73682 8.46349C4.72888 8.52837 4.73202 8.59192 4.77613 8.61724H4.77621Z" fill="white"/>
<path opacity="0.48" d="M8.89429 7.72684C8.80385 7.76938 8.70687 7.83533 8.60509 7.84881C8.54749 7.85643 8.50149 7.84939 8.44878 7.8273C8.37985 7.7985 8.34269 7.71236 8.28982 7.69101C8.24588 7.67331 8.17943 7.69573 8.12341 7.67115C8.05655 7.64186 8.0256 7.58129 7.96801 7.54066C7.79358 7.41778 7.5196 7.56077 7.31836 7.70947C7.46673 7.76607 7.60971 7.83458 7.73566 7.93297C7.88013 8.04592 7.94898 8.1669 8.14749 8.14762C8.47352 8.11609 8.90993 7.96027 9.11796 7.69234C9.13831 7.66619 9.15635 7.63739 9.17108 7.60727C9.07816 7.64567 8.98515 7.68406 8.89429 7.72676V7.72684Z" fill="white"/>
</svg>
