<svg width="20" height="20" viewBox="0 0 20 20" fill="none" xmlns="http://www.w3.org/2000/svg">
<g clip-path="url(#clip0_802_4610)">
<path d="M13.5704 6.07975C12.8135 4.69175 11.6512 3.6521 11.3356 3.33654C11.02 3.02098 10.2246 1.83203 10.2246 1.83203L8.48128 1.95818C8.48128 1.95818 7.89298 3.30413 7.13571 5.40697C6.37844 7.50942 6 9.61303 6 12.136V18.9074C6 18.9074 6.12615 20.0007 10.1636 20.0007C14.2011 20.0007 14.1591 18.9074 14.1591 18.9074V10.3699C14.1591 9.40278 14.3269 7.46814 13.57 6.08014L13.5704 6.07975ZM12.1403 9.99147C11.741 9.5922 11.2993 6.45858 11.2993 5.99604C11.2993 5.36492 12.4227 5.86951 12.6962 6.74637C12.8116 7.11555 13.0658 8.35117 13.0658 9.19254C13.0658 10.0339 12.5404 10.3911 12.1407 9.99185L12.1403 9.99147Z" fill="#FFD600"/>
<path d="M14.1591 18.4099V12.0153C11.4887 12.5828 8.65295 12.4802 6.00193 11.9609C6.00116 12.0196 6 12.0767 6 12.1357V18.3717C8.58852 19.1756 11.5871 19.2844 14.1591 18.4095V18.4099Z" fill="#57B947"/>
<path d="M8.00435 16.4072C7.63362 16.156 7.17263 16.234 6.92496 16.6109C6.84781 16.7278 6.81116 16.8593 6.81193 16.987C6.74442 17.2258 6.85398 17.5186 7.05535 17.6741C7.40679 17.9472 7.92565 17.7971 8.18142 17.4738C8.43757 17.1506 8.33804 16.6329 8.00473 16.4072H8.00435Z" fill="#8DC63F"/>
<path d="M13.0808 13.4721C12.915 13.5505 12.7633 13.7213 12.6735 13.8402C12.5462 14.0091 12.5832 14.3633 12.2723 14.3907C12.1642 14.4003 12.0497 14.4007 11.9467 14.447C11.7353 14.5427 11.6234 14.6595 11.5208 14.8659C11.4124 15.0843 11.5605 15.1749 11.2465 15.3937C11.1477 15.4627 10.8627 15.4974 10.7404 15.5468C10.3839 15.6903 10.1737 16.2431 10.3515 16.5556C10.3584 16.5683 10.3689 16.5745 10.3804 16.5772C10.5247 16.8025 10.8279 16.9398 11.0984 16.865C11.2704 16.8172 11.4702 16.7527 11.5856 16.6054C11.8722 16.2397 11.775 15.9847 11.993 15.9226C12.2611 15.8462 12.3807 15.879 12.6796 15.6116C12.9292 15.3886 12.7772 15.0017 13.202 14.8655C13.6904 14.7081 14.0356 14.2564 13.8856 13.8313C13.7694 13.5007 13.4377 13.3028 13.0801 13.4718L13.0808 13.4721Z" fill="#00AD4D"/>
<path d="M13.2156 15.5918C13.032 15.5953 12.8245 15.6906 12.6945 15.7627C12.5093 15.8661 12.4001 16.2067 12.105 16.1045C12.0016 16.0686 11.8971 16.0219 11.7837 16.0223C11.551 16.0235 11.4017 16.0848 11.2243 16.2329C11.0368 16.3892 11.1356 16.5335 10.7598 16.6056C10.6418 16.6284 10.3663 16.5431 10.2348 16.5381C9.85018 16.5238 9.4347 16.9455 9.47097 17.3062C9.47251 17.3208 9.47945 17.3309 9.48871 17.3378C9.5296 17.6047 9.75181 17.8555 10.0299 17.8979C10.207 17.9249 10.4157 17.9477 10.5808 17.8597C10.9913 17.6414 11.0048 17.3667 11.2297 17.3995C11.5063 17.4393 11.602 17.5187 11.9843 17.396C12.3029 17.2938 12.3199 16.8753 12.7643 16.9246C13.2743 16.9813 13.7735 16.7074 13.8082 16.2549C13.8352 15.9035 13.6114 15.5849 13.2156 15.5926V15.5918Z" fill="#8DC63F"/>
<path d="M7.87582 15.226C8.03399 15.3753 8.20566 15.5095 8.36267 15.6592C8.46952 15.761 8.63155 15.599 8.52469 15.4972C8.36729 15.3475 8.19601 15.2132 8.03785 15.064C8.01509 15.0424 7.99001 15.035 7.96571 15.0343C8.03245 14.939 8.10034 14.8441 8.17287 14.7523C8.26391 14.6381 8.10304 14.4749 8.01123 14.5902C7.77436 14.8888 7.58649 15.2217 7.3207 15.4972C7.21847 15.6033 7.38011 15.7657 7.48234 15.6592C7.6216 15.5149 7.73887 15.3556 7.85268 15.1936C7.85846 15.2048 7.86464 15.2156 7.87544 15.2256L7.87582 15.226Z" fill="white"/>
<path d="M8.74813 14.6027C8.74736 14.9908 8.70762 15.3758 8.70801 15.7643C8.70801 15.912 8.93716 15.912 8.93677 15.7643C8.93677 15.3758 8.97612 14.9904 8.97728 14.6027C8.97728 14.4553 8.74852 14.4553 8.74813 14.6027Z" fill="white"/>
<path d="M8.83634 16.0829C8.46716 16.0813 8.09914 16.0582 7.72995 16.0566C7.5822 16.0559 7.5822 16.285 7.72995 16.2858C8.06017 16.2869 8.39001 16.3043 8.72023 16.3093C8.71714 16.5018 8.70827 16.6974 8.67162 16.8853C8.64346 17.0296 8.86373 17.0909 8.89228 16.9458C8.94012 16.7009 8.94899 16.4463 8.95092 16.1971C8.9513 16.1346 8.89845 16.0829 8.83673 16.0825L8.83634 16.0829Z" fill="white"/>
<path d="M10.7924 15.878C10.6431 15.8788 10.4938 15.8858 10.3445 15.8908C10.3457 15.8838 10.3484 15.8784 10.3484 15.8711C10.3468 15.7534 10.3711 15.6242 10.3985 15.5104C10.4047 15.4846 10.4008 15.4622 10.3927 15.4425C10.6057 15.2982 10.7314 15.0324 10.6589 14.7724C10.5733 14.4634 10.1628 14.4735 9.91284 14.475C9.9059 14.475 9.90088 14.4777 9.89471 14.4789C9.89008 14.4792 9.88661 14.4781 9.88237 14.4789C9.87619 14.48 9.87118 14.4831 9.86501 14.485C9.86462 14.485 9.86423 14.485 9.86423 14.485C9.52244 14.5734 9.29831 14.9522 9.37623 15.2959C9.40555 15.4252 9.50045 15.4946 9.61657 15.5309C9.61155 15.544 9.60847 15.5582 9.60924 15.5748C9.6131 15.6929 9.6455 15.8036 9.69257 15.9097C9.59458 15.9124 9.49698 15.9174 9.39861 15.9182C9.25124 15.9189 9.25124 16.1481 9.39861 16.1469C9.86346 16.1442 10.3275 16.1095 10.7924 16.1064C10.9401 16.1057 10.9401 15.8765 10.7924 15.8777V15.878ZM9.63586 14.9553C9.69218 14.8268 9.79865 14.7369 9.93213 14.7038C10.0629 14.7026 10.1914 14.7003 10.3183 14.7369C10.6188 14.8241 10.3719 15.1968 10.208 15.2855C10.0625 15.365 9.79017 15.3681 9.6455 15.2917C9.53324 15.2327 9.59882 15.0394 9.63586 14.9557V14.9553ZM9.91709 15.8537C9.87349 15.7662 9.84147 15.6728 9.83839 15.5744C9.83839 15.5706 9.83646 15.5683 9.83607 15.5648C9.94563 15.5683 10.0544 15.5571 10.1362 15.5447C10.1447 15.5436 10.152 15.5401 10.1605 15.5382C10.1374 15.6477 10.1185 15.7627 10.12 15.8707C10.12 15.8807 10.1235 15.8881 10.1258 15.897C10.0606 15.8997 9.9954 15.9 9.9302 15.9024C9.92982 15.8865 9.92557 15.8703 9.91747 15.8534L9.91709 15.8537Z" fill="white"/>
<path d="M10.0481 16.2441C10.0403 16.2441 10.0346 16.2468 10.0276 16.248C10.0241 16.2484 10.021 16.2472 10.018 16.248C9.79962 16.2897 9.44818 16.4756 9.53228 16.7545C9.61252 17.0219 9.93039 17.1237 10.1858 17.067C10.4419 17.0099 10.6988 16.7865 10.6564 16.5061C10.619 16.2596 10.2313 16.2449 10.0481 16.2441ZM10.1599 16.8386C10.0403 16.8776 9.84591 16.8471 9.7703 16.7402C9.66961 16.5983 9.94891 16.4991 10.0592 16.4737C10.1657 16.4744 10.2687 16.4818 10.3706 16.515C10.5858 16.5848 10.2425 16.8116 10.1595 16.8386H10.1599Z" fill="white"/>
<path d="M12.3128 15.5618C12.6199 15.4017 12.6615 14.7907 12.3537 14.6178C12.1758 14.5183 11.7808 14.4759 11.5609 14.5993C11.5463 14.6067 11.532 14.6144 11.5181 14.6229C11.5162 14.624 11.5142 14.6256 11.5123 14.6271C11.2488 14.793 11.1462 15.1791 11.2955 15.4569C11.466 15.7752 12.0562 15.6953 12.3128 15.5618ZM12.155 14.7903C12.4054 14.8427 12.3745 15.2347 12.197 15.3635C12.0335 15.4827 11.6936 15.4719 11.5274 15.3732C11.4197 15.3091 11.449 15.1282 11.476 15.0314C11.493 14.9708 11.5243 14.9172 11.5652 14.874C11.5933 14.869 11.6203 14.8528 11.6392 14.8204C11.6419 14.8154 11.6481 14.8127 11.652 14.8084C11.677 14.7953 11.7036 14.7837 11.733 14.7775C11.7496 14.7737 11.7623 14.7671 11.7739 14.759C11.9046 14.7432 12.0863 14.7752 12.155 14.7899V14.7903Z" fill="white"/>
<path d="M12.7201 15.8621C12.2013 15.8737 11.682 15.8594 11.1635 15.8722C11.0158 15.8756 11.0158 16.1048 11.1635 16.1009C11.3028 16.0975 11.4425 16.0986 11.5817 16.0978C11.5817 16.1002 11.5806 16.1017 11.5806 16.1044C11.5887 16.3706 11.5898 16.6371 11.5983 16.9033C11.6029 17.0507 11.8317 17.0515 11.8271 16.9033C11.8186 16.6371 11.8174 16.3706 11.8097 16.1044C11.8097 16.1013 11.8082 16.0994 11.8078 16.0963C11.9386 16.0963 12.0697 16.094 12.2009 16.0936C12.2028 16.3756 12.1754 16.6576 12.1974 16.9388C12.209 17.085 12.4381 17.0862 12.4266 16.9388C12.405 16.6572 12.432 16.3744 12.43 16.0924C12.5269 16.0917 12.6237 16.0928 12.7205 16.0905C12.8679 16.087 12.8679 15.8583 12.7205 15.8614L12.7201 15.8621Z" fill="white"/>
<path d="M11.0607 0.670909C10.8006 -0.102947 9.4003 -0.0365949 8.86447 0.0509751C7.84565 0.217628 7.9525 1.47871 8.04393 2.32278C8.01153 2.43157 8.23875 2.75021 8.3892 2.81155C8.99524 3.05806 9.86708 3.13367 10.7146 2.84396C11.0479 2.72977 11.134 2.57237 11.1552 2.18622C11.181 1.7175 11.21 1.1157 11.0607 0.670909Z" fill="#EEA814"/>
<path d="M8.44819 0.430434C8.65419 0.013802 9.57039 0.0546937 9.96272 0.104844C10.1305 0.126447 10.8662 0.278826 10.5931 0.554653C10.4195 0.729407 9.95231 0.747538 9.7193 0.757568C9.47434 0.768369 9.2367 0.759497 8.99829 0.709347C8.92886 0.695073 8.40768 0.592458 8.44857 0.430434" fill="#CE6B18"/>
<path d="M14.1591 13.0646V12.0153C11.4887 12.5828 8.65295 12.4802 6.00193 11.9609C6.00116 12.0196 6 12.0767 6 12.1357V13.0974C8.71968 13.688 11.4394 13.5569 14.1591 13.0646Z" fill="#ABD037"/>
<path d="M6 17.7942V18.3717C8.58852 19.1756 11.5871 19.2844 14.1591 18.4095V17.6738C11.4814 18.2941 8.74437 18.5256 6 17.7942Z" fill="#ABD037"/>
<path d="M20 10C20 8.51367 19.0331 7.25305 17.6937 6.81326C18.3294 5.55503 18.1222 3.98014 17.0709 2.92913C16.0199 1.87811 14.4447 1.67059 13.1867 2.30627C12.747 0.966934 11.4863 0 10 0C8.51367 0 7.25305 0.966934 6.81326 2.30627C5.55503 1.67059 3.98014 1.87781 2.92913 2.92913C1.87811 3.98014 1.67059 5.55532 2.30627 6.81326C0.966934 7.25305 0 8.51367 0 10C0 11.4863 0.966934 12.747 2.30627 13.1867C1.67059 14.445 1.87781 16.0199 2.92913 17.0709C3.98014 18.1219 5.55532 18.3294 6.81326 17.6937C7.25335 19.0328 8.51367 20 10 20C11.4863 20 12.747 19.0331 13.1867 17.6937C14.445 18.3294 16.0199 18.1222 17.0709 17.0709C18.1219 16.0199 18.3294 14.4447 17.6937 13.1867C19.0328 12.7467 20 11.4863 20 10Z" fill="#D0740D"/>
<path d="M14.0054 14.0054C16.2175 11.7933 16.2175 8.20673 14.0054 5.99463C11.7933 3.78252 8.20673 3.78252 5.99463 5.99463C3.78252 8.20673 3.78252 11.7933 5.99463 14.0054C8.20673 16.2175 11.7933 16.2175 14.0054 14.0054Z" fill="#A8560C"/>
<path d="M9.99979 11.1363C10.6436 11.1363 11.1656 10.6144 11.1656 9.97049C11.1656 9.32664 10.6436 8.80469 9.99979 8.80469C9.35593 8.80469 8.83398 9.32664 8.83398 9.97049C8.83398 10.6144 9.35593 11.1363 9.99979 11.1363Z" fill="#D0740D"/>
<path d="M9.99979 8.28474C10.6436 8.28474 11.1656 7.76279 11.1656 7.11893C11.1656 6.47507 10.6436 5.95312 9.99979 5.95312C9.35593 5.95312 8.83398 6.47507 8.83398 7.11893C8.83398 7.76279 9.35593 8.28474 9.99979 8.28474Z" fill="#D0740D"/>
<path d="M9.99979 14.0465C10.6436 14.0465 11.1656 13.5245 11.1656 12.8807C11.1656 12.2368 10.6436 11.7148 9.99979 11.7148C9.35593 11.7148 8.83398 12.2368 8.83398 12.8807C8.83398 13.5245 9.35593 14.0465 9.99979 14.0465Z" fill="#D0740D"/>
<path d="M12.7788 9.57165C13.4102 9.44549 13.8197 8.83138 13.6936 8.20001C13.5674 7.56863 12.9533 7.15908 12.3219 7.28524C11.6905 7.4114 11.281 8.0255 11.4071 8.65688C11.5333 9.28825 12.1474 9.69781 12.7788 9.57165Z" fill="#D0740D"/>
<path d="M7.67723 12.6771C8.3086 12.551 8.71816 11.9369 8.592 11.3055C8.46584 10.6741 7.85173 10.2645 7.22036 10.3907C6.58898 10.5169 6.17942 11.131 6.30558 11.7623C6.43175 12.3937 7.04585 12.8033 7.67723 12.6771Z" fill="#D0740D"/>
<path d="M12.881 12.6339C13.5004 12.4581 13.8601 11.8135 13.6843 11.1941C13.5086 10.5747 12.864 10.215 12.2446 10.3908C11.6252 10.5665 11.2655 11.2111 11.4413 11.8305C11.617 12.4499 12.2616 12.8096 12.881 12.6339Z" fill="#D0740D"/>
<path d="M7.75698 9.5694C8.37639 9.39366 8.73605 8.74906 8.56031 8.12965C8.38457 7.51024 7.73997 7.15058 7.12056 7.32632C6.50115 7.50206 6.14149 8.14666 6.31723 8.76607C6.49297 9.38548 7.13757 9.74514 7.75698 9.5694Z" fill="#D0740D"/>
<path d="M12.3478 4.22376C12.5797 4.28757 12.7682 4.14445 12.8496 3.93872C13.0156 3.51921 13.3508 3.20823 13.7524 3.01771C13.9516 2.92319 14.0031 2.63785 13.8988 2.45955C13.7795 2.25591 13.5404 2.21834 13.3406 2.31315C12.7377 2.59909 12.3057 3.10775 12.0627 3.72166C11.9816 3.9265 12.1516 4.1698 12.3478 4.22347V4.22376Z" fill="#994900"/>
<path d="M17.7731 12.8992C17.212 12.4416 16.5522 12.1825 15.8312 12.1759C16.2295 10.8327 16.2289 9.35024 15.796 8.06934C15.9356 8.14597 16.1133 8.14806 16.2608 8.00435C16.6088 7.66504 17.0432 7.48018 17.5295 7.46855C18.0537 7.45603 18.0558 6.63996 17.5295 6.65249C16.8297 6.66918 16.1854 6.93842 15.6839 7.42741C15.5861 7.52252 15.5536 7.63194 15.564 7.73511C15.2757 7.58573 14.8365 7.79742 14.9743 8.18086C15.9332 10.8461 14.8088 14.6283 11.7422 15.2487C10.2571 15.5493 8.40582 15.6706 7.0638 14.8543C5.80288 14.0871 5.07924 12.6855 4.68537 11.3089C4.54106 10.805 3.75362 11.019 3.89853 11.5259C3.92149 11.6061 3.94623 11.686 3.97128 11.7659C3.41551 11.7644 2.87852 12 2.4924 12.404C2.12954 12.7836 2.70559 13.3614 3.06934 12.9809C3.36601 12.6706 3.73692 12.548 4.1615 12.5909C4.19818 12.5945 4.23336 12.5895 4.26735 12.5808C4.76588 13.7785 5.53095 14.8796 6.65204 15.5588C6.77995 15.6364 6.91233 15.704 7.0468 15.7675C6.8843 16.185 6.71465 16.5991 6.53576 17.0097C6.4469 17.213 6.47761 17.4453 6.68215 17.5678C6.85389 17.6707 7.15235 17.623 7.24031 17.4214C7.43799 16.9682 7.62672 16.5112 7.80681 16.0508C9.1375 16.4268 10.6489 16.2995 11.959 16.0353C11.9733 16.0323 11.987 16.0281 12.0016 16.0252C12.1847 16.3746 12.315 16.7542 12.3663 17.1465C12.3949 17.3651 12.5332 17.5544 12.7742 17.5544C12.9724 17.5544 13.211 17.3666 13.182 17.1465C13.1191 16.6668 12.9948 16.2163 12.7909 15.7831C14.0658 15.2651 14.9934 14.2189 15.5417 12.9684C15.5876 12.9851 15.6392 12.995 15.6985 12.9932C16.2453 12.975 16.768 13.127 17.1962 13.4762C17.5999 13.8054 18.1804 13.2314 17.7731 12.8992Z" fill="#994900"/>
<path d="M2.71181 7.41686C3.19931 7.46933 3.6698 7.6047 4.12092 7.79403C4.14686 7.80506 4.1734 7.81132 4.20023 7.81431C3.97393 8.4157 3.85973 9.05942 3.88478 9.71627C3.90475 10.2395 4.72112 10.2422 4.70084 9.71627C4.64419 8.24306 5.3881 6.84946 6.58969 6.00447C7.80409 5.15084 9.30444 4.90396 10.7589 5.03873C11.2815 5.08733 11.2783 4.27097 10.7589 4.22267C9.05905 4.06494 7.28201 4.42899 5.91584 5.49313C5.34189 5.94007 4.86543 6.49882 4.51777 7.12556C4.46768 7.07636 4.40626 7.03551 4.33798 7.00689C3.81352 6.78655 3.27653 6.66132 2.71181 6.60049C2.19033 6.54414 2.19451 7.3608 2.71181 7.41656V7.41686Z" fill="#994900"/>
<path d="M6.81829 3.89403C6.90565 4.09648 7.20292 4.1421 7.37645 4.04042C7.58546 3.91818 7.6105 3.68531 7.52284 3.48227C7.39016 3.17486 7.21454 2.90264 7.01001 2.63847C6.87494 2.46405 6.57499 2.49655 6.43307 2.63847C6.26103 2.81051 6.2977 3.04069 6.43307 3.21541C6.59109 3.41936 6.71632 3.65669 6.81829 3.89403Z" fill="#994900"/>
<path d="M11.8288 5.22181C12.7895 5.54114 13.5909 6.164 14.1395 7.01465C14.4231 7.45444 15.13 7.04596 14.8441 6.60289C14.1771 5.56857 13.2134 4.82317 12.0458 4.43497C11.5464 4.26889 11.3323 5.05663 11.8288 5.22181Z" fill="#994900"/>
<path d="M18.8055 8.33128C18.7172 8.16014 18.535 7.97379 18.2894 7.96484C18.2569 7.96484 18.23 7.9887 18.2288 8.0209C18.2288 8.02209 18.2288 8.02328 18.2288 8.02418L17.9396 8.21232C17.9161 8.22782 17.9065 8.25793 17.9178 8.28387C17.9289 8.30981 17.9569 8.32472 17.9846 8.31787C18.1114 8.28894 18.2586 8.32949 18.3895 8.42908C18.5124 8.5227 18.6069 8.6524 18.6981 8.77823L18.8415 8.97531C18.8529 8.99081 18.8705 8.99946 18.8887 8.99946C18.8955 8.99946 18.9024 8.99827 18.9092 8.99558C18.9337 8.98634 18.9492 8.96189 18.9468 8.93595C18.9286 8.73291 18.9024 8.51883 18.8058 8.33128H18.8055Z" fill="white"/>
<path d="M15.159 2.64853C14.8784 2.56892 14.5612 2.64465 14.3406 2.83398C14.3346 2.82742 14.3274 2.82235 14.3185 2.81878C14.2887 2.80685 14.2547 2.82176 14.2428 2.85157C14.1894 2.98694 14.1688 3.13512 14.1831 3.28003C14.1852 3.30239 14.2001 3.32147 14.2216 3.32923C14.2279 3.33161 14.2347 3.33251 14.2413 3.33251C14.2565 3.33251 14.2714 3.32654 14.2824 3.31551C14.5296 3.06893 14.8337 2.87662 15.1626 2.75914C15.1864 2.7505 15.2019 2.72754 15.2011 2.7022C15.2002 2.67685 15.1832 2.65509 15.1587 2.64793L15.159 2.64853Z" fill="white"/>
<path d="M13.8752 3.76439C13.9491 3.76439 14.0234 3.72354 14.0607 3.66272C14.1161 3.57148 14.1075 3.46683 14.0926 3.35889C14.0881 3.32699 14.0589 3.30493 14.027 3.3091C13.9951 3.31357 13.9727 3.34279 13.9772 3.3747C13.9781 3.38155 13.979 3.38841 13.9799 3.39497C13.9733 3.38781 13.9649 3.38245 13.9551 3.37917C13.8782 3.35412 13.7917 3.38871 13.7401 3.46593C13.6885 3.54286 13.6891 3.63618 13.7363 3.69045C13.7649 3.73756 13.8156 3.76469 13.8755 3.76469L13.8752 3.76439Z" fill="white"/>
<path d="M8.35527 1.19882C8.30459 1.16424 8.24704 1.16305 8.20172 1.19465C8.13106 1.19555 8.0592 1.24265 7.9945 1.3318C7.82127 1.56974 7.71184 1.85031 7.67815 2.1431C7.67547 2.16516 7.6859 2.18693 7.70469 2.19885C7.72914 2.21436 7.75537 2.22122 7.78161 2.22122C7.84333 2.22122 7.90475 2.18335 7.93904 2.13266C7.97065 2.08615 7.98377 2.03308 7.9951 1.98627C7.99838 1.97285 8.00166 1.95973 8.00523 1.94661C8.03773 1.83212 8.1072 1.72895 8.20172 1.6562C8.21901 1.64279 8.2375 1.62996 8.25599 1.61714C8.32426 1.56974 8.40149 1.51607 8.43458 1.42632C8.46649 1.34045 8.41908 1.24325 8.35468 1.19942L8.35527 1.19882Z" fill="white"/>
</g>
<defs>
<clipPath id="clip0_802_4610">
<rect width="20" height="20" fill="white"/>
</clipPath>
</defs>
</svg>
