<svg width="32" height="32" viewBox="0 0 32 32" fill="none" xmlns="http://www.w3.org/2000/svg">
<path d="M5.71748 27C5.2529 27 4.85051 26.8271 4.51031 26.4814C4.1701 26.1357 4 25.7268 4 25.2547V9.63871C4 9.16682 4.1701 8.75792 4.51031 8.41201C4.85051 8.0663 5.2529 7.89345 5.71748 7.89345H15.435V8.90401H5.71748C5.50654 8.90401 5.3333 8.97287 5.19777 9.1106C5.06204 9.24832 4.99417 9.42436 4.99417 9.63871V25.2547C4.99417 25.4691 5.06204 25.6451 5.19777 25.7829C5.3333 25.9208 5.50654 25.9897 5.71748 25.9897H21.0849C21.2958 25.9897 21.469 25.9208 21.6046 25.7829C21.7401 25.6451 21.8079 25.4691 21.8079 25.2547V17.7683H22.8023V25.2547C22.8023 25.7268 22.6322 26.1357 22.292 26.4814C21.9516 26.8271 21.5492 27 21.0849 27H5.71748ZM8.41737 22.8497H9.41155V15.723H8.41737V22.8497ZM12.9038 22.8497H13.8983V12.044H12.9038V22.8497ZM17.3905 22.8497H18.385V19.3681H17.3905V22.8497ZM22.8023 15.5638C22.1815 15.5638 21.5878 15.4556 21.0214 15.239C20.455 15.0227 19.9254 14.7194 19.4326 14.3291L18.5733 15.1268C18.4628 15.2191 18.3406 15.2699 18.2066 15.279C18.0729 15.2882 17.9591 15.245 17.8653 15.1495C17.7562 15.0388 17.7016 14.9189 17.7016 14.7897C17.7016 14.6608 17.7562 14.5408 17.8653 14.43L18.7313 13.5726C18.4029 13.0796 18.133 12.5564 17.9217 12.0031C17.7101 11.4499 17.6044 10.8761 17.6044 10.2818C17.6044 8.82051 18.1111 7.57491 19.1247 6.54494C20.1383 5.51498 21.3641 5 22.8023 5H28V10.2818C28 11.7432 27.4932 12.9889 26.4797 14.0189C25.4661 15.0489 24.2403 15.5638 22.8023 15.5638ZM22.8023 14.5533C23.9698 14.5533 24.9622 14.138 25.7796 13.3075C26.5969 12.4769 27.0055 11.4684 27.0055 10.2818V6.01056H22.8023C21.6346 6.01056 20.6421 6.42583 19.8248 7.25637C19.0075 8.0869 18.5988 9.09537 18.5988 10.2818C18.5988 10.7453 18.6816 11.1879 18.8471 11.6097C19.0126 12.0314 19.205 12.4433 19.4244 12.8453L23.0947 9.11597C23.2035 9.00531 23.3216 8.94998 23.4487 8.94998C23.5756 8.94998 23.6919 9.00362 23.7977 9.11089C23.9115 9.22892 23.9684 9.35609 23.9684 9.49243C23.9684 9.62876 23.9131 9.75305 23.8027 9.8653L20.1597 13.5672C20.5268 13.8868 20.9381 14.131 21.3936 14.2998C21.8492 14.4688 22.3188 14.5533 22.8023 14.5533Z" fill="#464C53"/>
</svg>
