<svg width="12" height="11" viewBox="0 0 12 11" fill="none" xmlns="http://www.w3.org/2000/svg">
<path d="M9.21442 2.80561H10.045V1.95953H9.21442V2.80561ZM9.65759 11C9.00791 11 8.45551 10.7678 8.0004 10.3033C7.54539 9.83889 7.31788 9.27692 7.31788 8.61743C7.31788 7.9503 7.54539 7.38431 8.0004 6.91946C8.45541 6.45471 9.00951 6.22233 9.66269 6.22233C10.3091 6.22233 10.8602 6.45471 11.3161 6.91946C11.772 7.38431 12 7.9503 12 8.61743C12 9.27692 11.772 9.83889 11.3161 10.3033C10.8602 10.7678 10.3074 11 9.65759 11ZM9.44748 10.4124H9.87745V8.83758H11.4232V8.39972H9.87745V6.82489H9.44748V8.39972H7.90157V8.83758H9.44748V10.4124ZM11.9978 5.4534C11.6729 5.18227 11.3072 4.97628 10.9006 4.83542C10.4939 4.69456 10.0801 4.62413 9.65894 4.62413C9.40849 4.62413 9.16323 4.6474 8.92318 4.69394C8.68302 4.74059 8.44737 4.80832 8.21621 4.89714V4.03883L5.05675 1.75649V0H11.9978V5.4534ZM0 9.77778V4.63039L3.55553 2.05119L7.10867 4.63039V5.57165C6.67135 5.943 6.33541 6.39869 6.10086 6.93871C5.8662 7.47873 5.74887 8.0383 5.74887 8.61743C5.74887 8.83631 5.76472 9.03309 5.79641 9.20776C5.82801 9.38254 5.87385 9.57255 5.93394 9.77778H4.66293V6.76683H2.44799V9.77778H0Z" fill="#2DA34F"/>
</svg>
