<svg width="16" height="16" viewBox="0 0 16 16" fill="none" xmlns="http://www.w3.org/2000/svg">
<path d="M7.81971 7.52915C8.04214 7.28256 8.19684 7.01038 8.2838 6.7126C8.37077 6.41481 8.41425 6.10861 8.41425 5.794C8.41425 5.49095 8.37077 5.19053 8.2838 4.89275C8.19684 4.59497 8.04214 4.317 7.81971 4.05884C7.91298 4.03594 8.00041 4.02162 8.08201 4.01589C8.16361 4.01017 8.25105 4.0073 8.34431 4.0073C8.87345 3.96332 9.32227 4.11794 9.69076 4.47116C10.0594 4.82449 10.2437 5.26543 10.2437 5.794C10.2437 6.32267 10.0594 6.76362 9.69076 7.11683C9.32227 7.47016 8.87345 7.62478 8.34431 7.58069C8.25105 7.58069 8.1607 7.57782 8.07327 7.5721C7.98584 7.56637 7.90132 7.55205 7.81971 7.52915ZM10.9323 12V11.318C10.9323 10.9237 10.853 10.5574 10.6943 10.2188C10.5355 9.88025 10.2759 9.6119 9.91546 9.41376C10.5916 9.53528 11.235 9.72775 11.8456 9.99118C12.4564 10.2546 12.7617 10.6969 12.7617 11.318V12H10.9323ZM12.9716 8.48468V7.04159H11.5027V6.49184H12.9716V5.04874H13.5311V6.49184H15V7.04159H13.5311V8.48468H12.9716ZM5.33664 7.58069C4.82953 7.58069 4.39966 7.40746 4.04701 7.061C3.69437 6.71454 3.51805 6.29221 3.51805 5.794C3.51805 5.29578 3.69437 4.87345 4.04701 4.52699C4.39966 4.18053 4.82953 4.0073 5.33664 4.0073C5.84375 4.0073 6.27362 4.18053 6.62626 4.52699C6.97891 4.87345 7.15523 5.29578 7.15523 5.794C7.15523 6.29221 6.97891 6.71454 6.62626 7.061C6.27362 7.40746 5.84375 7.58069 5.33664 7.58069ZM1 12V11.2123C1 11.0317 1.05491 10.8579 1.16472 10.6909C1.27465 10.524 1.43092 10.378 1.63353 10.2528C2.20033 9.90751 2.79959 9.65422 3.43132 9.49296C4.06304 9.33182 4.69815 9.25124 5.33664 9.25124C5.96347 9.25124 6.58983 9.33754 7.21573 9.51014C7.84175 9.68286 8.44975 9.93042 9.03974 10.2528C9.23081 10.378 9.38417 10.524 9.49981 10.6909C9.61546 10.8579 9.67328 11.0317 9.67328 11.2123V12H1Z" fill="#B1B8BE"/>
</svg>
