<svg width="16" height="16" viewBox="0 0 16 16" fill="none" xmlns="http://www.w3.org/2000/svg">
<path d="M2.5 14V13.3725H3.561V3.1102C3.561 2.80484 3.67085 2.54346 3.89056 2.32608C4.11026 2.10869 4.37442 2 4.68304 2H11.317C11.6256 2 11.8897 2.10869 12.1094 2.32608C12.3291 2.54346 12.439 2.80484 12.439 3.1102V13.3725H13.5V14H2.5ZM10.378 13.3725H11.8049V3.1102C11.8049 2.96941 11.7591 2.85373 11.6677 2.76314C11.5762 2.67268 11.4592 2.62745 11.317 2.62745H8.76989V2.48275C9.23321 2.52392 9.61706 2.73203 9.92145 3.10706C10.2258 3.48209 10.378 3.91098 10.378 4.39373V13.3725ZM7.28243 8.72098C7.42234 8.72098 7.54646 8.66882 7.65479 8.56451C7.76299 8.4602 7.81709 8.33876 7.81709 8.2002C7.81709 8.06176 7.76438 7.93895 7.65895 7.83177C7.55352 7.72471 7.43079 7.67118 7.29075 7.67118C7.15084 7.67118 7.02672 7.72333 6.91839 7.82765C6.81019 7.93196 6.75609 8.0534 6.75609 8.19196C6.75609 8.33039 6.8088 8.4532 6.91423 8.56039C7.01965 8.66745 7.14239 8.72098 7.28243 8.72098Z" fill="#B1B8BE"/>
</svg>
