<svg width="20" height="20" viewBox="0 0 20 20" fill="none" xmlns="http://www.w3.org/2000/svg">
<path d="M9.97946 11.0841C9.68321 11.0841 9.42933 10.9769 9.2178 10.7624C9.00627 10.5479 8.90051 10.2925 8.90051 9.99641C8.90051 9.70016 9.00773 9.44627 9.22217 9.23474C9.43676 9.02321 9.6921 8.91745 9.98821 8.91745C10.2845 8.91745 10.5384 9.02467 10.7499 9.23911C10.9614 9.4537 11.0672 9.70904 11.0672 10.0052C11.0672 10.3014 10.96 10.5553 10.7455 10.7668C10.5309 10.9784 10.2756 11.0841 9.97946 11.0841ZM9.98384 16.5841C8.1569 16.5841 6.59946 15.9436 5.31155 14.6627C4.02363 13.3817 3.38933 11.8277 3.40863 10.0008H4.47592C4.51967 11.5233 5.0712 12.8206 6.13051 13.8927C7.18981 14.9647 8.47426 15.5008 9.98384 15.5008C11.5159 15.5008 12.8156 14.9676 13.883 13.9012C14.9502 12.8348 15.4838 11.5362 15.4838 10.0054C15.4838 8.47453 14.9502 7.17439 13.883 6.10495C12.8156 5.0355 11.5159 4.50078 9.98384 4.50078C9.21245 4.50078 8.48092 4.65786 7.78926 4.97203C7.09745 5.28606 6.47801 5.72085 5.93092 6.27641H8.04801V7.35974H3.81717V3.12891H4.90051V5.85328C5.53384 5.08175 6.29127 4.48293 7.1728 4.05682C8.05433 3.63057 8.99134 3.41745 9.98384 3.41745C10.8977 3.41745 11.7537 3.59016 12.5518 3.93557C13.35 4.28099 14.046 4.75071 14.6399 5.34474C15.2339 5.93863 15.7036 6.6346 16.049 7.43266C16.3945 8.23071 16.5672 9.08661 16.5672 10.0004C16.5672 10.9141 16.3945 11.7702 16.049 12.5685C15.7036 13.3668 15.2339 14.0629 14.6399 14.6568C14.046 15.2509 13.35 15.7206 12.5518 16.066C11.7537 16.4114 10.8977 16.5841 9.98384 16.5841Z" fill="white"/>
</svg>
