<svg width="12" height="12" viewBox="0 0 12 12" fill="none" xmlns="http://www.w3.org/2000/svg">
<path d="M0.772683 11.25V0.75H11.2624V11.25H0.772683ZM2.10472 9.91667H9.93041V2.08333H2.10472V9.91667Z" fill="#58616A"/>
<path d="M2.99707 1.5C2.99707 2.32843 2.32616 3 1.49854 3C0.670918 3 0 2.32843 0 1.5C0 0.671573 0.670918 0 1.49854 0C2.32616 0 2.99707 0.671573 2.99707 1.5Z" fill="#58616A"/>
<path d="M12 1.5C12 2.32843 11.3291 3 10.5015 3C9.67384 3 9.00293 2.32843 9.00293 1.5C9.00293 0.671573 9.67384 0 10.5015 0C11.3291 0 12 0.671573 12 1.5Z" fill="#58616A"/>
<path d="M2.99707 10.5C2.99707 11.3284 2.32616 12 1.49854 12C0.670918 12 0 11.3284 0 10.5C0 9.67157 0.670918 9 1.49854 9C2.32616 9 2.99707 9.67157 2.99707 10.5Z" fill="#58616A"/>
<path d="M12 10.5C12 11.3284 11.3291 12 10.5015 12C9.67384 12 9.00293 11.3284 9.00293 10.5C9.00293 9.67157 9.67384 9 10.5015 9C11.3291 9 12 9.67157 12 10.5Z" fill="#58616A"/>
</svg>
