<svg width="19" height="11" viewBox="0 0 19 11" fill="none" xmlns="http://www.w3.org/2000/svg">
<path d="M1.80775 11C1.30258 11 0.875 10.825 0.525 10.475C0.175 10.125 0 9.69742 0 9.19225V1.80775C0 1.30258 0.175 0.875 0.525 0.525C0.875 0.175 1.30258 0 1.80775 0H17.1923C17.6974 0 18.125 0.175 18.475 0.525C18.825 0.875 19 1.30258 19 1.80775V9.19225C19 9.69742 18.825 10.125 18.475 10.475C18.125 10.825 17.6974 11 17.1923 11H1.80775ZM1.80775 9.5H17.1923C17.2693 9.5 17.3398 9.46792 17.4038 9.40375C17.4679 9.33975 17.5 9.26925 17.5 9.19225V1.80775C17.5 1.73075 17.4679 1.66025 17.4038 1.59625C17.3398 1.53208 17.2693 1.5 17.1923 1.5H14.25V5.11525H12.75V1.5H10.25V5.11525H8.75V1.5H6.25V5.11525H4.75V1.5H1.80775C1.73075 1.5 1.66025 1.53208 1.59625 1.59625C1.53208 1.66025 1.5 1.73075 1.5 1.80775V9.19225C1.5 9.26925 1.53208 9.33975 1.59625 9.40375C1.66025 9.46792 1.73075 9.5 1.80775 9.5Z" fill="#131416"/>
</svg>
