<svg width="24" height="24" viewBox="0 0 24 24" fill="none" xmlns="http://www.w3.org/2000/svg">
<path d="M12 4.25C12.2167 4.25 12.3958 4.17917 12.5375 4.0375C12.6792 3.89583 12.75 3.71667 12.75 3.5C12.75 3.28333 12.6792 3.10417 12.5375 2.9625C12.3958 2.82083 12.2167 2.75 12 2.75C11.7833 2.75 11.6042 2.82083 11.4625 2.9625C11.3208 3.10417 11.25 3.28333 11.25 3.5C11.25 3.71667 11.3208 3.89583 11.4625 4.0375C11.6042 4.17917 11.7833 4.25 12 4.25ZM7 9H17V7H7V9ZM11.675 21H5C4.45 21 3.97917 20.8042 3.5875 20.4125C3.19583 20.0208 3 19.55 3 19V5C3 4.45 3.19583 3.97917 3.5875 3.5875C3.97917 3.19583 4.45 3 5 3H9.2C9.41667 2.4 9.77917 1.91667 10.2875 1.55C10.7958 1.18333 11.3667 1 12 1C12.6333 1 13.2042 1.18333 13.7125 1.55C14.2208 1.91667 14.5833 2.4 14.8 3H19C19.55 3 20.0208 3.19583 20.4125 3.5875C20.8042 3.97917 21 4.45 21 5V11.7C20.5167 11.4667 20.0292 11.2917 19.5375 11.175C19.0458 11.0583 18.5333 11 18 11C17.8167 11 17.6458 11.0042 17.4875 11.0125C17.3292 11.0208 17.1667 11.0417 17 11.075V11H7V13H13.125C12.825 13.2833 12.5542 13.5917 12.3125 13.925C12.0708 14.2583 11.8583 14.6167 11.675 15H7V17H11.075C11.0417 17.1667 11.0208 17.3292 11.0125 17.4875C11.0042 17.6458 11 17.8167 11 18C11 18.55 11.05 19.0625 11.15 19.5375C11.25 20.0125 11.425 20.5 11.675 21Z" fill="#6D7882"/>
<path d="M18 19.0131L23 16.0065L18 13L13 16.0065L18 19.0131ZM18 23L21.4375 20.9085V18.1634L18 20.2549L14.5625 18.1634V20.9085L18 23Z" fill="#6D7882"/>
</svg>
