<svg width="24" height="24" viewBox="0 0 24 24" fill="none" xmlns="http://www.w3.org/2000/svg">
<path d="M2 22V20H5.45C4.98333 19.5667 4.49167 19.075 3.975 18.525C3.45833 17.975 2.98333 17.3833 2.55 16.75C2.11667 16.1167 1.75 15.4667 1.45 14.8C1.15 14.1333 1 13.45 1 12.75C1 11.1167 1.53333 9.75 2.6 8.65C3.66667 7.55 5 7 6.6 7C8.2 7 9.53333 7.55 10.6 8.65C11.6667 9.75 12.2 11.1167 12.2 12.75C12.2 13.45 12.05 14.1333 11.75 14.8C11.45 15.4667 11.0833 16.1167 10.65 16.75C10.2167 17.3833 9.74167 17.975 9.225 18.525C8.70833 19.075 8.21667 19.5667 7.75 20H22V22H2ZM6.6 14C7.01667 14 7.37083 13.8542 7.6625 13.5625C7.95417 13.2708 8.1 12.9167 8.1 12.5C8.1 12.0833 7.95417 11.7292 7.6625 11.4375C7.37083 11.1458 7.01667 11 6.6 11C6.18333 11 5.82917 11.1458 5.5375 11.4375C5.24583 11.7292 5.1 12.0833 5.1 12.5C5.1 12.9167 5.24583 13.2708 5.5375 13.5625C5.82917 13.8542 6.18333 14 6.6 14ZM15 18L13.55 15.675C13.75 15.1917 13.9083 14.7042 14.025 14.2125C14.1417 13.7208 14.2 13.2333 14.2 12.75C14.2 12.3667 14.175 11.9833 14.125 11.6C14.075 11.2167 14 10.85 13.9 10.5L15.1 9.775L17.125 11L16.6 8.7L18.4 7.125L16.025 6.925L15.1 4.75L14.175 6.925L11.9 7.125C11.3667 6.60833 10.775 6.17917 10.125 5.8375C9.475 5.49583 8.76667 5.25833 8 5.125V4C8 3.45 8.19583 2.97917 8.5875 2.5875C8.97917 2.19583 9.45 2 10 2H20C20.55 2 21.0208 2.19583 21.4125 2.5875C21.8042 2.97917 22 3.45 22 4V13C22 13.55 21.8042 14.0208 21.4125 14.4125C21.0208 14.8042 20.55 15 20 15H16.875L15 18Z" fill="#6D7882"/>
</svg>
